<svg xmlns="http://www.w3.org/2000/svg" viewBox="0 0 598 1479"><defs><style>.cls-1{fill:#f7ede2;}.cls-2{fill:none;stroke:#000;}.cls-3{fill:#02827b;}.cls-4{fill:#ff9240;}.cls-5{fill:#0ac7c7;}.cls-6{fill:#003260;}</style></defs><g id="Layer_2" data-name="Layer 2"><g id="Layer_1-2" data-name="Layer 1"><rect class="cls-1" x="0.5" y="0.5" width="597" height="1478"/><rect class="cls-2" x="0.5" y="0.5" width="597" height="1478"/><path class="cls-3" d="M597.5.5V132.83a178.46,178.46,0,0,1-27.6,2.72c-23,.78-41.33,2.12-61.52,13.95-7.83,4.57-19.81,9.34-25.12,16.82-5.77,8.18-8.58,19.81-13.69,28.63q-2.11,3.66-4.44,7.16c-10.05,15.11-23.1,27.92-39.32,36.3-30,15.51-65.4,12.59-95.93-.88-25.82-11.42-45.21-34.58-50.26-62.86-2.73-15.16-.16-30.67-.27-45.94-.15-22.54-.82-50.89-11-71.64-7.75-15.84-23.71-27-34.55-40.62a144.55,144.55,0,0,1-9.13-12.39c-.77-1.18-1.51-2.37-2.22-3.58Z"/><path class="cls-4" d="M597.5,23.14V313.19c-19.71,6.26-39.85,6.87-59.81-14.3-13.51-14.36-20-39.28-33.1-55.39-12.43-15.23-29.1-25.14-39.46-41.39a58.47,58.47,0,0,1-6.7-14.42c-17.5-56.61,30.6-62.24,57.58-84.28,26.34-21.54,12.31-87.72,46.43-93C571.28,9.09,584.66,16,597.5,23.14Z"/><path class="cls-5" d="M302,1398.15c-.5,28-26.24,55.55-41.74,80.07l-.18.28H16.69A114,114,0,0,0,.5,1463.68v-297c16.15-2.93,32.33-4.28,47.24-2.42,20.61,2.57,38.77,11.28,51,30.48,30,46.54,16.5,128.61,84.24,142.62,38.24,8.51,87.23-4.51,109.73,32.78C299.48,1379.38,302.23,1388.89,302,1398.15Z"/><path class="cls-6" d="M87.57,1278.9c11.05,49.88-9.39,93.3-62.17,101.44a118.32,118.32,0,0,1-24.9.71V908.79c76.24,21.84,124.55,91.81,88.11,153.66-15.23,25.88-39.84,45.29-41.72,77a100.64,100.64,0,0,0,.85,24.78C53.68,1203.43,79.11,1241.09,87.57,1278.9Z"/></g></g></svg>