<svg width="494" height="226" viewBox="0 0 494 226" fill="none" xmlns="http://www.w3.org/2000/svg">
<path d="M494 134.105C494 153.936 470.767 170.13 442.151 170.13C436.859 170.13 431.835 169.552 427.081 168.56C429.951 171.948 431.476 175.666 431.476 179.467C431.476 198.223 393.89 213.509 347.513 213.509C334.865 213.509 322.845 212.352 312.08 210.369C297.907 219.624 270.099 225.986 238.074 225.986C208.741 225.986 182.996 220.698 168.016 212.683C161.916 213.261 155.547 213.592 148.998 213.592C102.621 213.592 65.0354 198.389 65.0354 179.55C65.0354 175.501 66.7398 171.618 69.9691 168.065C64.4075 169.469 58.3076 170.296 52.0283 170.296C23.323 170.296 0 154.183 0 134.27C0 114.357 23.323 98.2453 52.0283 98.2453C56.4238 98.2453 60.7296 98.6584 64.856 99.3194C62.8825 96.6754 61.8061 93.8661 61.8061 91.0568C61.8061 72.3005 107.735 57.0146 164.338 57.0146C198.874 57.0146 229.373 62.6332 247.942 71.309C265.075 61.807 295.126 55.5273 329.303 55.5273C382.588 55.5273 425.735 70.7306 425.735 89.4868C425.735 93.8661 423.403 97.9974 419.187 101.881C416.585 102.79 421.519 100.803 419.187 101.96C419.994 102.125 418.5 103.657 418.5 103.657C418.347 103.634 417.841 103.12 419.277 101.881C426.184 99.4847 433.988 98.1626 442.241 98.1626C470.767 98.08 494 114.192 494 134.105Z" fill="#CBCD5B" fill-opacity="0.84"/>
<path d="M425.458 49.8061C425.629 49.4137 425.793 49.0547 425.948 48.7183C426.359 47.8217 426.696 47.085 426.892 46.3007C430.298 34.5265 433.704 22.7522 437.021 10.888C437.648 8.73091 438.276 6.57379 438.814 4.41667C438.993 3.51787 439.441 3.24823 440.248 3.24823H444.551L445.061 3.26189C451.61 3.43704 458.077 3.61003 464.629 3.69763C466.153 3.69763 466.602 4.41667 466.691 5.67499L466.702 5.92001C466.788 7.80871 466.87 9.62165 466.87 11.5172V138.428C466.87 141.394 466.781 141.573 463.912 140.585C461.125 139.61 458.431 138.447 455.696 137.266C454.649 136.814 453.595 136.359 452.528 135.911C451.452 135.462 450.354 135.012 449.256 134.563C448.158 134.113 447.06 133.664 445.985 133.215C445.064 132.826 444.117 132.49 443.158 132.149C442.343 131.86 441.52 131.568 440.696 131.237C439.441 130.698 439.083 129.709 439.083 128.451C439.083 124.991 439.06 121.53 439.038 118.07C439.015 114.61 438.993 111.149 438.993 107.689C438.903 92.8582 438.836 78.0502 438.769 63.2422C438.702 48.4347 438.634 33.6273 438.545 18.7975V17.1796C438.5 17.1796 438.433 17.1572 438.366 17.1347C438.298 17.1122 438.231 17.0897 438.186 17.0897L438.186 17.0899C437.828 18.0785 437.469 19.0672 437.2 20.1457L437.2 20.1462C433.794 31.5608 430.388 42.9753 426.892 54.3001C423.575 64.9059 420.259 75.5117 416.852 86.1176C416.169 88.345 415.413 90.5361 414.654 92.7371C414.218 93.9998 413.781 95.2657 413.356 96.5436C412.998 97.7121 412.281 97.9817 411.295 97.7121L402.69 95.8246C401.345 95.5549 401.435 94.4764 401.524 93.4877C401.704 89.9824 401.883 86.3872 401.972 82.8819C402.241 71.8266 401.793 60.8613 399.821 49.9858C399.589 48.6609 399.359 47.3359 399.129 46.0113C397.939 39.1592 396.752 32.3173 395.25 25.5385C394.174 20.5951 392.381 15.7415 390.588 10.9779C389.902 9.21914 388.761 7.72061 387.608 6.20555C387.406 5.93983 387.203 5.67359 387.003 5.40535C386.106 4.14703 384.403 4.23691 383.686 5.58511C382.7 7.38271 381.804 9.18031 381.356 11.1577C378.935 21.2242 379.204 31.3807 380.549 41.5371C382.521 56.7268 385.838 71.557 390.319 86.1176C392.65 93.8472 395.608 101.307 399.552 108.408C400.268 109.747 401.085 111.035 401.895 112.313C402.608 113.437 403.315 114.553 403.944 115.688C404.181 116.103 404.261 116.635 404.34 117.155C404.381 117.424 404.421 117.69 404.482 117.935C404.28 117.96 404.071 118 403.861 118.04C403.325 118.141 402.782 118.244 402.331 118.115C400.628 117.62 398.925 117.081 397.222 116.542C395.519 116.003 393.815 115.463 392.112 114.969C389.692 114.25 387.272 113.621 384.762 112.992C383.874 112.737 382.986 112.523 382.108 112.311C381.124 112.073 380.152 111.839 379.204 111.554C377.77 111.194 377.68 110.026 377.68 108.767C377.635 102.442 377.568 96.1162 377.5 89.8021C377.433 83.5557 377.366 77.3205 377.322 71.1076C377.187 60.5018 377.031 49.9184 376.874 39.335C376.717 28.7517 376.56 18.1683 376.426 7.56247C376.426 6.03451 376.515 4.50655 376.605 2.97859C376.605 2.07979 376.874 1.63039 377.86 1.72027C385.389 1.90003 392.919 2.07979 400.449 2.16967C401.972 2.16967 402.6 3.06847 403.138 4.23691C405.379 8.91067 407.62 13.4945 409.861 18.0784C411.922 22.2579 414.006 26.4599 416.091 30.6619C418.175 34.8637 420.259 39.0655 422.32 43.2448C422.679 44.0088 423.015 44.7728 423.351 45.5367C423.687 46.3007 424.023 47.0647 424.382 47.8287C424.472 48.368 424.83 48.9073 425.458 49.8061Z" fill="#DEEDE0"/>
<path d="M425.458 49.8061C425.629 49.4137 425.793 49.0547 425.948 48.7183C426.359 47.8217 426.696 47.085 426.892 46.3007C430.298 34.5265 433.704 22.7522 437.021 10.888C437.648 8.73091 438.276 6.57379 438.814 4.41667C438.993 3.51787 439.441 3.24823 440.248 3.24823H444.551L445.061 3.26189C451.61 3.43704 458.077 3.61003 464.629 3.69763C466.153 3.69763 466.602 4.41667 466.691 5.67499L466.702 5.92001C466.788 7.80871 466.87 9.62165 466.87 11.5172V138.428C466.87 141.394 466.781 141.573 463.912 140.585C461.125 139.61 458.431 138.447 455.696 137.266C454.649 136.814 453.595 136.359 452.528 135.911C451.452 135.462 450.354 135.012 449.256 134.563C448.158 134.113 447.06 133.664 445.985 133.215C445.064 132.826 444.117 132.49 443.158 132.149C442.343 131.86 441.52 131.568 440.696 131.237C439.441 130.698 439.083 129.709 439.083 128.451C439.083 124.991 439.06 121.53 439.038 118.07C439.015 114.61 438.993 111.149 438.993 107.689C438.903 92.8582 438.836 78.0502 438.769 63.2422C438.702 48.4347 438.634 33.6273 438.545 18.7975V17.1796C438.5 17.1796 438.433 17.1572 438.366 17.1347C438.298 17.1122 438.231 17.0897 438.186 17.0897L438.186 17.0899C437.828 18.0785 437.469 19.0672 437.2 20.1457L437.2 20.1462C433.794 31.5608 430.388 42.9753 426.892 54.3001C423.575 64.9059 420.259 75.5117 416.852 86.1176C416.169 88.345 415.413 90.5361 414.654 92.7371C414.218 93.9998 413.781 95.2657 413.356 96.5436C412.998 97.7121 412.281 97.9817 411.295 97.7121L402.69 95.8246C401.345 95.5549 401.435 94.4764 401.524 93.4877C401.704 89.9824 401.883 86.3872 401.972 82.8819C402.241 71.8266 401.793 60.8613 399.821 49.9858C399.589 48.6609 399.359 47.3359 399.129 46.0113C397.939 39.1592 396.752 32.3173 395.25 25.5385C394.174 20.5951 392.381 15.7415 390.588 10.9779C389.902 9.21914 388.761 7.72061 387.608 6.20555C387.406 5.93983 387.203 5.67359 387.003 5.40535C386.106 4.14703 384.403 4.23691 383.686 5.58511C382.7 7.38271 381.804 9.18031 381.356 11.1577C378.935 21.2242 379.204 31.3807 380.549 41.5371C382.521 56.7268 385.838 71.557 390.319 86.1176C392.65 93.8472 395.608 101.307 399.552 108.408C400.268 109.747 401.085 111.035 401.895 112.313C402.608 113.437 403.315 114.553 403.944 115.688C404.181 116.103 404.261 116.635 404.34 117.155C404.381 117.424 404.421 117.69 404.482 117.935C404.28 117.96 404.071 118 403.861 118.04C403.325 118.141 402.782 118.244 402.331 118.115C400.628 117.62 398.925 117.081 397.222 116.542C395.519 116.003 393.815 115.463 392.112 114.969C389.692 114.25 387.272 113.621 384.762 112.992C383.874 112.737 382.986 112.523 382.108 112.311C381.124 112.073 380.152 111.839 379.204 111.554C377.77 111.194 377.68 110.026 377.68 108.767C377.635 102.442 377.568 96.1162 377.5 89.8021C377.433 83.5557 377.366 77.3205 377.322 71.1076C377.187 60.5018 377.031 49.9184 376.874 39.335C376.717 28.7517 376.56 18.1683 376.426 7.56247C376.426 6.03451 376.515 4.50655 376.605 2.97859C376.605 2.07979 376.874 1.63039 377.86 1.72027C385.389 1.90003 392.919 2.07979 400.449 2.16967C401.972 2.16967 402.6 3.06847 403.138 4.23691C405.379 8.91067 407.62 13.4945 409.861 18.0784C411.922 22.2579 414.006 26.4599 416.091 30.6619C418.175 34.8637 420.259 39.0655 422.32 43.2448C422.679 44.0088 423.015 44.7728 423.351 45.5367C423.687 46.3007 424.023 47.0647 424.382 47.8287C424.472 48.368 424.83 48.9073 425.458 49.8061Z" stroke="black"/>
<path d="M44.3155 86.2094C47.5424 98.3432 51.5762 110.117 56.5063 121.622C57.0441 122.791 57.5819 123.959 57.9405 125.127C58.299 126.206 57.8508 126.925 56.6855 127.285C56.0045 127.489 55.3268 127.691 54.6517 127.892C51.7721 128.748 48.9402 129.591 46.1082 130.61C44.0913 131.329 42.0968 132.093 40.1024 132.857C38.1079 133.621 36.1135 134.385 34.0967 135.104C33.3893 135.341 32.6432 135.499 31.7818 135.682C31.3333 135.778 30.8536 135.88 30.3319 136.003V131.509C30.2722 103.663 30.2125 75.7372 30.1527 47.8113C30.1228 33.8231 30.0929 19.8349 30.063 5.85674C30.063 4.70339 30.063 4.11927 30.3539 3.80182C30.6525 3.47607 31.2575 3.43114 32.4832 3.3401C32.9314 3.3401 33.3572 3.31763 33.783 3.29516C34.2088 3.27269 34.6345 3.25022 35.0827 3.25022C37.2175 3.18992 39.3524 3.10939 41.4838 3.029C45.7066 2.86972 49.9161 2.71094 54.086 2.71094C57.7612 2.71094 61.2571 3.7895 64.484 5.5871C65.235 6.01065 65.9921 6.42188 66.7473 6.83208C68.8767 7.98872 70.9911 9.13716 72.91 10.5305C77.4816 14.0358 81.7842 17.7209 85.549 22.2149C91.0169 28.7761 96.0367 35.6969 100.339 43.1569C102.242 46.4781 103.812 49.966 105.399 53.4894C105.83 54.4476 106.263 55.4085 106.704 56.3693C109.214 61.9418 110.917 67.784 111.903 73.806C113.516 84.3219 112.978 94.6581 107.779 104.275C105.359 108.769 101.863 112.364 97.2916 114.881C92.4512 117.488 87.3418 118.656 81.9635 117.937C78.7365 117.488 75.5095 116.679 72.6411 114.971C71.7441 114.438 70.8225 113.954 69.8991 113.47C68.3309 112.647 66.7576 111.821 65.2908 110.747C62.3327 108.5 59.4643 106.073 56.7752 103.466C52.9207 99.7813 49.7834 95.3772 46.915 90.7933C45.9289 89.3552 45.1222 87.8273 44.3155 86.2094ZM82.5013 70.8399C82.5013 70.304 82.521 69.7581 82.5408 69.2089C82.5808 68.1004 82.6212 66.9784 82.5013 65.8965C81.1568 53.8526 77.9298 42.348 71.8344 31.832C69.5934 27.8773 67.1732 23.9226 64.3048 20.4173C62.6913 18.4399 60.7591 16.7821 58.8269 15.1244C57.8608 14.2955 56.8947 13.4666 55.9684 12.5977C53.6378 10.4406 50.7694 9.63169 47.5424 9.63169C45.1222 9.63169 43.1502 10.4406 41.5367 12.3281C37.7719 16.5525 35.9791 21.4958 35.4413 27.0684C34.276 40.101 35.3516 52.9538 39.8336 65.3573C43.8673 76.5024 48.887 87.1981 59.285 94.029C62.3327 96.0063 65.4701 97.5343 69.5038 96.6355C73.6271 95.7367 76.3163 93.3099 78.378 89.8945C81.8739 84.0523 82.591 77.4911 82.5013 70.8399Z" fill="#DEEDE0"/>
<path d="M44.3155 86.2094C47.5424 98.3432 51.5762 110.117 56.5063 121.622C57.0441 122.791 57.5819 123.959 57.9405 125.127C58.299 126.206 57.8508 126.925 56.6855 127.285C56.0045 127.489 55.3268 127.691 54.6517 127.892C51.7721 128.748 48.9402 129.591 46.1082 130.61C44.0913 131.329 42.0968 132.093 40.1024 132.857C38.1079 133.621 36.1135 134.385 34.0967 135.104C33.3893 135.341 32.6432 135.499 31.7818 135.682C31.3333 135.778 30.8536 135.88 30.3319 136.003V131.509C30.2722 103.663 30.2125 75.7372 30.1527 47.8113C30.1228 33.8231 30.0929 19.8349 30.063 5.85674C30.063 4.70339 30.063 4.11927 30.3539 3.80182C30.6525 3.47607 31.2575 3.43114 32.4832 3.3401C32.9314 3.3401 33.3572 3.31763 33.783 3.29516C34.2088 3.27269 34.6345 3.25022 35.0827 3.25022C37.2175 3.18992 39.3524 3.10939 41.4838 3.029C45.7066 2.86972 49.9161 2.71094 54.086 2.71094C57.7612 2.71094 61.2571 3.7895 64.484 5.5871C65.235 6.01065 65.9921 6.42188 66.7473 6.83208C68.8767 7.98872 70.9911 9.13716 72.91 10.5305C77.4816 14.0358 81.7842 17.7209 85.549 22.2149C91.0169 28.7761 96.0367 35.6969 100.339 43.1569C102.242 46.4781 103.812 49.966 105.399 53.4894C105.83 54.4476 106.263 55.4085 106.704 56.3693C109.214 61.9418 110.917 67.784 111.903 73.806C113.516 84.3219 112.978 94.6581 107.779 104.275C105.359 108.769 101.863 112.364 97.2916 114.881C92.4512 117.488 87.3418 118.656 81.9635 117.937C78.7365 117.488 75.5095 116.679 72.6411 114.971C71.7441 114.438 70.8225 113.954 69.8991 113.47C68.3309 112.647 66.7576 111.821 65.2908 110.747C62.3327 108.5 59.4643 106.073 56.7752 103.466C52.9207 99.7813 49.7834 95.3772 46.915 90.7933C45.9289 89.3552 45.1222 87.8273 44.3155 86.2094ZM82.5013 70.8399C82.5013 70.304 82.521 69.7581 82.5408 69.2089C82.5808 68.1004 82.6212 66.9784 82.5013 65.8965C81.1568 53.8526 77.9298 42.348 71.8344 31.832C69.5934 27.8773 67.1732 23.9226 64.3048 20.4173C62.6913 18.4399 60.7591 16.7821 58.8269 15.1244C57.8608 14.2955 56.8947 13.4666 55.9684 12.5977C53.6378 10.4406 50.7694 9.63169 47.5424 9.63169C45.1222 9.63169 43.1502 10.4406 41.5367 12.3281C37.7719 16.5525 35.9791 21.4958 35.4413 27.0684C34.276 40.101 35.3516 52.9538 39.8336 65.3573C43.8673 76.5024 48.887 87.1981 59.285 94.029C62.3327 96.0063 65.4701 97.5343 69.5038 96.6355C73.6271 95.7367 76.3163 93.3099 78.378 89.8945C81.8739 84.0523 82.591 77.4911 82.5013 70.8399Z" stroke="black"/>
<path d="M166.224 43.696C166.672 43.9656 167.142 44.2577 167.613 44.5498C168.084 44.8419 168.554 45.134 169.002 45.4037C173.753 47.8304 177.877 51.0661 181.731 54.6613C186.661 59.3351 190.695 64.7279 193.474 70.9296C197.149 79.1087 198.045 87.6473 196.432 96.4555C196.163 97.8936 195.625 98.5227 194.101 98.6126C188.704 99.1046 183.381 99.6715 177.996 100.245C177.479 100.3 176.961 100.355 176.442 100.41C175.546 100.5 174.65 100.657 173.753 100.815C172.857 100.972 171.961 101.129 171.064 101.219C169.092 101.399 168.644 100.86 169.002 98.8823C169.114 98.2934 169.235 97.7045 169.356 97.113C169.623 95.8083 169.893 94.4904 170.078 93.1299C170.975 86.5687 170.078 80.0974 168.734 73.626C167.568 68.0534 165.417 62.7505 162.549 57.897C160.397 54.3917 157.349 51.3358 154.302 48.4596C149.583 43.9573 144.671 39.6493 139.729 35.3157C138.851 34.5451 137.971 33.7737 137.091 33.0003C132.789 29.2253 129.293 24.7313 126.155 19.8778C125.707 19.2486 125.259 18.6195 124.632 18.1701C124.183 17.9004 123.466 17.7207 122.928 17.8105C122.57 17.9004 122.122 18.6195 122.122 19.0689C122.032 20.5069 122.032 21.945 122.122 23.3831C122.57 39.8311 126.604 55.4702 132.34 70.7498C134.761 77.0413 137.539 83.1531 140.318 89.2648L140.318 89.2651C141.445 91.74 142.732 94.1505 144.027 96.5737C144.894 98.1986 145.765 99.8292 146.593 101.489C146.66 101.658 146.74 101.814 146.819 101.967C146.949 102.221 147.075 102.467 147.131 102.747C147.4 103.826 147.131 104.545 145.876 104.724C143.904 104.994 141.932 105.264 139.96 105.623C135.567 106.432 131.175 107.241 126.873 108.14C125.861 108.343 124.849 108.574 123.853 108.802C123.085 108.978 122.326 109.152 121.584 109.308C120.329 109.578 119.97 109.129 119.881 107.87C119.836 105.399 119.769 102.949 119.701 100.5C119.634 98.0509 119.567 95.6016 119.522 93.1299L118.447 3.87914V2.35118C118.447 1.18274 118.895 0.643464 120.239 0.643464C125.035 0.598525 129.808 0.553586 134.581 0.508646C139.354 0.463706 144.128 0.418765 148.924 0.373824C150.35 0.339761 151.764 0.266969 153.17 0.194589C155.474 0.0759859 157.756 -0.0415124 160.039 0.0143044C163.803 0.104184 167.658 0.373824 171.423 1.18274C175.815 2.08154 179.938 3.96902 183.613 6.48566C188.275 9.72134 192.488 13.4963 194.46 19.1587C196.701 25.72 195.984 30.3937 190.785 35.427C188.185 37.9436 185.048 39.3817 181.731 40.64C176.891 42.5275 171.961 43.0668 166.851 43.2466C166.717 43.2466 166.605 43.269 166.493 43.2915C166.381 43.314 166.269 43.3364 166.134 43.3364C166.313 43.5162 166.313 43.6061 166.224 43.696ZM132.43 4.41842V4.77794C131.922 4.77794 131.414 4.76796 130.906 4.75797C129.89 4.738 128.874 4.71802 127.859 4.77794C127.231 4.86782 126.514 5.13746 125.976 5.49698C123.646 7.02494 123.825 9.18206 124.452 11.5189C125.528 15.5635 127.859 18.8891 130.637 21.8551C132.699 24.192 134.85 26.5289 137.271 28.4164C141.035 31.3824 145.248 33.7193 149.641 35.6068C154.033 37.4942 158.425 38.4829 163.176 36.7752C165.148 36.0562 166.582 34.9776 167.479 33.2699C167.688 32.8496 167.928 32.4354 168.17 32.0179C168.859 30.8279 169.564 29.6104 169.63 28.1467C169.899 22.7539 167.21 18.7992 163.624 15.2939C161.114 12.8671 158.156 11.1594 155.019 9.54158C150.806 7.29458 146.324 5.94638 141.752 5.13746C139.809 4.7935 137.828 4.70549 135.835 4.61689C134.703 4.56658 133.566 4.51608 132.43 4.41842Z" fill="#DEEDE0"/>
<path d="M166.224 43.696C166.672 43.9656 167.142 44.2577 167.613 44.5498C168.084 44.8419 168.554 45.134 169.002 45.4037C173.753 47.8304 177.877 51.0661 181.731 54.6613C186.661 59.3351 190.695 64.7279 193.474 70.9296C197.149 79.1087 198.045 87.6473 196.432 96.4555C196.163 97.8936 195.625 98.5227 194.101 98.6126C188.704 99.1046 183.381 99.6715 177.996 100.245C177.479 100.3 176.961 100.355 176.442 100.41C175.546 100.5 174.65 100.657 173.753 100.815C172.857 100.972 171.961 101.129 171.064 101.219C169.092 101.399 168.644 100.86 169.002 98.8823C169.114 98.2934 169.235 97.7045 169.356 97.113C169.623 95.8083 169.893 94.4904 170.078 93.1299C170.975 86.5687 170.078 80.0974 168.734 73.626C167.568 68.0534 165.417 62.7505 162.549 57.897C160.397 54.3917 157.349 51.3358 154.302 48.4596C149.583 43.9573 144.671 39.6493 139.729 35.3157C138.851 34.5451 137.971 33.7737 137.091 33.0003C132.789 29.2253 129.293 24.7313 126.155 19.8778C125.707 19.2486 125.259 18.6195 124.632 18.1701C124.183 17.9004 123.466 17.7207 122.928 17.8105C122.57 17.9004 122.122 18.6195 122.122 19.0689C122.032 20.5069 122.032 21.945 122.122 23.3831C122.57 39.8311 126.604 55.4702 132.34 70.7498C134.761 77.0413 137.539 83.1531 140.318 89.2648L140.318 89.2651C141.445 91.74 142.732 94.1505 144.027 96.5737C144.894 98.1986 145.765 99.8292 146.593 101.489C146.66 101.658 146.74 101.814 146.819 101.967C146.949 102.221 147.075 102.467 147.131 102.747C147.4 103.826 147.131 104.545 145.876 104.724C143.904 104.994 141.932 105.264 139.96 105.623C135.567 106.432 131.175 107.241 126.873 108.14C125.861 108.343 124.849 108.574 123.853 108.802C123.085 108.978 122.326 109.152 121.584 109.308C120.329 109.578 119.97 109.129 119.881 107.87C119.836 105.399 119.769 102.949 119.701 100.5C119.634 98.0509 119.567 95.6016 119.522 93.1299L118.447 3.87914V2.35118C118.447 1.18274 118.895 0.643464 120.239 0.643464C125.035 0.598525 129.808 0.553586 134.581 0.508646C139.354 0.463706 144.128 0.418765 148.924 0.373824C150.35 0.339761 151.764 0.266969 153.17 0.194589C155.474 0.0759859 157.756 -0.0415124 160.039 0.0143044C163.803 0.104184 167.658 0.373824 171.423 1.18274C175.815 2.08154 179.938 3.96902 183.613 6.48566C188.275 9.72134 192.488 13.4963 194.46 19.1587C196.701 25.72 195.984 30.3937 190.785 35.427C188.185 37.9436 185.048 39.3817 181.731 40.64C176.891 42.5275 171.961 43.0668 166.851 43.2466C166.717 43.2466 166.605 43.269 166.493 43.2915C166.381 43.314 166.269 43.3364 166.134 43.3364C166.313 43.5162 166.313 43.6061 166.224 43.696ZM132.43 4.41842V4.77794C131.922 4.77794 131.414 4.76796 130.906 4.75797C129.89 4.738 128.874 4.71802 127.859 4.77794C127.231 4.86782 126.514 5.13746 125.976 5.49698C123.646 7.02494 123.825 9.18206 124.452 11.5189C125.528 15.5635 127.859 18.8891 130.637 21.8551C132.699 24.192 134.85 26.5289 137.271 28.4164C141.035 31.3824 145.248 33.7193 149.641 35.6068C154.033 37.4942 158.425 38.4829 163.176 36.7752C165.148 36.0562 166.582 34.9776 167.479 33.2699C167.688 32.8496 167.928 32.4354 168.17 32.0179C168.859 30.8279 169.564 29.6104 169.63 28.1467C169.899 22.7539 167.21 18.7992 163.624 15.2939C161.114 12.8671 158.156 11.1594 155.019 9.54158C150.806 7.29458 146.324 5.94638 141.752 5.13746C139.809 4.7935 137.828 4.70549 135.835 4.61689C134.703 4.56658 133.566 4.51608 132.43 4.41842Z" stroke="black"/>
<path d="M366.744 108.498C364.504 107.959 362.711 107.33 360.828 106.97C357.332 106.251 353.837 105.712 350.341 105.083C347.472 104.543 344.514 104.094 341.646 103.555C340.66 103.375 340.122 102.836 340.122 101.667C340.032 94.5668 339.943 87.5561 339.763 80.4556C339.763 77.22 337.971 75.1527 335.461 73.445C333.399 72.0069 331.158 72.2766 328.917 72.0968C325.063 71.8272 321.119 71.8272 317.443 70.9284C313.23 69.9397 309.466 67.7826 306.059 65.0862C302.832 62.5695 299.874 59.7832 297.365 56.5476C296.11 54.9297 295.034 53.1321 293.51 51.6042C294.048 53.5815 294.496 55.5589 295.213 57.5362C299.516 69.8498 306.059 80.905 313.051 91.7805C314.306 93.7579 315.651 95.6453 316.906 97.6227C317.175 98.162 317.354 98.9709 317.085 99.5102C316.995 99.7798 316.009 99.8697 315.471 99.7798C311.617 99.3304 307.673 98.881 303.818 98.4316C300.323 98.0721 296.827 97.5328 293.42 97.3531C291.986 97.2632 291.448 96.8138 291.448 95.3757C291.448 90.7918 291.269 86.1181 291.179 81.5342C290.911 66.8838 290.642 52.3232 290.373 37.6728C290.283 31.4711 291.986 25.6289 294.944 20.2361C297.544 15.5623 301.309 11.8772 305.701 8.73143C310.631 5.22611 316.099 2.88923 322.015 1.81067C325.063 1.27139 328.11 0.642234 331.158 0.192834C332.144 0.013074 333.309 0.462474 334.295 0.462474C344.066 0.642234 353.837 0.732114 363.607 0.821994C365.041 0.821994 365.4 1.36127 365.4 2.70947C365.848 37.1335 366.296 71.6474 366.744 106.071C366.744 106.611 366.744 107.33 366.744 108.498ZM339.763 41.987C339.674 41.987 339.674 41.987 339.584 41.987C339.405 37.8525 339.226 33.7181 339.136 29.5836C339.046 23.1122 337.074 17.27 332.861 12.2367C329.903 8.73143 326.407 6.48443 321.567 6.57431C316.368 6.66419 311.527 7.92251 307.135 10.7088C304.625 12.3266 302.205 14.3939 300.323 16.7307C298.44 18.9777 297.096 21.764 295.841 24.4604C289.476 38.1222 295.034 51.694 303.818 60.3225C306.239 62.6594 308.659 64.8165 311.796 66.1647C314.306 67.2433 316.726 68.6814 319.326 69.3105C323.629 70.3891 328.021 70.0296 332.413 69.67C334.027 69.4903 335.192 68.6814 336.088 67.5129C338.508 64.2772 339.584 60.5023 339.674 56.4577C339.853 51.6042 339.763 46.8405 339.763 41.987Z" fill="#DEEDE0"/>
<path d="M205.844 96.9941C205.844 96.7245 205.821 96.4324 205.799 96.1402C205.777 95.8481 205.754 95.556 205.754 95.2864C205.485 79.7821 205.194 64.2778 204.903 48.7735C204.611 33.2692 204.32 17.7649 204.051 2.26063C204.051 1.0922 204.23 0.552915 205.575 0.552915C216.466 0.507975 227.357 0.418095 238.248 0.328216C249.139 0.238336 260.03 0.148456 270.921 0.103516C273.56 0.103516 276.199 0.319301 278.921 0.541903C279.713 0.60663 280.511 0.671933 281.319 0.732675C281.319 0.94714 281.34 1.16161 281.361 1.38584C281.384 1.63147 281.409 1.88883 281.409 2.17075C281.588 11.4284 281.678 20.5961 281.767 29.8538C281.767 29.9473 281.778 30.0407 281.788 30.1305C281.808 30.2996 281.826 30.4554 281.767 30.5728C281.704 30.6575 281.641 30.7522 281.576 30.8486C281.367 31.1615 281.145 31.4928 280.871 31.5615C280.512 31.6514 279.885 31.2919 279.706 30.9323C276.568 24.1913 271.369 19.3378 265.543 15.0236C262.137 12.5069 258.641 10.4397 254.876 8.55223C249.767 6.03559 244.567 4.05823 238.92 3.24931C237.836 3.08201 236.771 2.89523 235.698 2.70711C234.465 2.49099 233.222 2.27309 231.929 2.08087C231.894 2.32121 231.86 2.50909 231.831 2.66955C231.783 2.92915 231.749 3.11701 231.749 3.33919C231.794 5.94838 231.845 8.55185 231.896 11.1525C232.047 18.8541 232.197 26.5309 232.197 34.2579C232.197 37.943 233.811 40.7293 236.231 43.3358C237.755 45.0435 239.548 46.3917 241.699 47.2905C242.954 47.8298 243.044 49.178 241.968 50.0768C241.436 50.4697 240.887 50.845 240.339 51.2193C239.133 52.0437 237.935 52.8627 236.948 53.8517C234.349 56.3684 232.825 59.3344 232.915 63.1992C233.094 69.7905 233.193 76.3818 233.293 82.9731C233.343 86.2686 233.393 89.5641 233.452 92.8596C233.452 92.962 233.465 93.0774 233.481 93.2205C233.508 93.4542 233.542 93.7619 233.542 94.2078C236.141 93.7584 238.651 93.309 241.161 92.7697C241.878 92.6799 242.595 92.5001 243.223 92.3204C248.063 91.6912 252.545 89.8936 256.938 88.0061C261.599 86.0288 265.991 83.4222 269.935 80.1866C270.061 80.0808 270.186 79.9751 270.311 79.8695C274.129 76.6536 277.903 73.4738 280.333 68.8617C280.512 68.4123 281.588 68.2325 282.126 68.3224C282.484 68.4123 283.022 69.2212 283.022 69.6706C283.199 76.6835 283.289 83.784 283.378 90.799L283.381 91.062C283.381 91.4782 283.371 91.9042 283.361 92.3335C283.341 93.2023 283.321 94.0847 283.381 94.9269C283.47 96.1852 282.933 96.4548 281.767 96.4548L268.859 95.9155C251.201 95.3763 233.542 95.6459 215.973 96.2751C213.559 96.2751 211.19 96.5007 208.803 96.7282C207.821 96.8217 206.836 96.9155 205.844 96.9941Z" fill="#DEEDE0"/>
<path d="M205.844 96.9941C205.844 96.7245 205.821 96.4324 205.799 96.1402C205.777 95.8481 205.754 95.556 205.754 95.2864C205.485 79.7821 205.194 64.2778 204.903 48.7735C204.611 33.2692 204.32 17.7649 204.051 2.26063C204.051 1.0922 204.23 0.552915 205.575 0.552915C216.466 0.507975 227.357 0.418095 238.248 0.328216C249.139 0.238336 260.03 0.148456 270.921 0.103516C273.56 0.103516 276.199 0.319301 278.921 0.541903C279.713 0.60663 280.511 0.671933 281.319 0.732675C281.319 0.94714 281.34 1.16161 281.361 1.38584C281.384 1.63147 281.409 1.88883 281.409 2.17075C281.588 11.4284 281.678 20.5961 281.767 29.8538C281.767 29.9473 281.778 30.0407 281.788 30.1305C281.808 30.2996 281.826 30.4554 281.767 30.5728C281.704 30.6575 281.641 30.7522 281.576 30.8486C281.367 31.1615 281.145 31.4928 280.871 31.5615C280.512 31.6514 279.885 31.2919 279.706 30.9323C276.568 24.1913 271.369 19.3378 265.543 15.0236C262.137 12.5069 258.641 10.4397 254.876 8.55223C249.767 6.03559 244.567 4.05823 238.92 3.24931C237.836 3.08201 236.771 2.89523 235.698 2.70711C234.465 2.49099 233.222 2.27309 231.929 2.08087C231.894 2.32121 231.86 2.50909 231.831 2.66955C231.783 2.92915 231.749 3.11701 231.749 3.33919C231.794 5.94838 231.845 8.55185 231.896 11.1525C232.047 18.8541 232.197 26.5309 232.197 34.2579C232.197 37.943 233.811 40.7293 236.231 43.3358C237.755 45.0435 239.548 46.3917 241.699 47.2905C242.954 47.8298 243.044 49.178 241.968 50.0768C241.436 50.4697 240.887 50.845 240.339 51.2193C239.133 52.0437 237.935 52.8627 236.948 53.8517C234.349 56.3684 232.825 59.3344 232.915 63.1992C233.094 69.7905 233.193 76.3818 233.293 82.9731C233.343 86.2686 233.393 89.5641 233.452 92.8596C233.452 92.962 233.465 93.0774 233.481 93.2205C233.508 93.4542 233.542 93.7619 233.542 94.2078C236.141 93.7584 238.651 93.309 241.161 92.7697C241.878 92.6799 242.595 92.5001 243.223 92.3204C248.063 91.6912 252.545 89.8936 256.938 88.0061C261.599 86.0288 265.991 83.4222 269.935 80.1866C270.061 80.0808 270.186 79.9751 270.311 79.8695C274.129 76.6536 277.903 73.4738 280.333 68.8617C280.512 68.4123 281.588 68.2325 282.126 68.3224C282.484 68.4123 283.022 69.2212 283.022 69.6706C283.199 76.6835 283.289 83.784 283.378 90.799L283.381 91.062C283.381 91.4782 283.371 91.9042 283.361 92.3335C283.341 93.2023 283.321 94.0847 283.381 94.9269C283.47 96.1852 282.933 96.4548 281.767 96.4548L268.859 95.9155C251.201 95.3763 233.542 95.6459 215.973 96.2751C213.559 96.2751 211.19 96.5007 208.803 96.7282C207.821 96.8217 206.836 96.9155 205.844 96.9941Z" stroke="black"/>
<path d="M208.522 163.394C207.424 164.833 206.326 166.272 205.228 167.631C202.091 171.548 199.032 175.465 195.895 179.382C195.738 179.622 195.425 179.702 195.111 179.862C195.032 179.622 194.954 179.382 195.032 179.222C195.974 174.826 196.993 170.429 198.013 166.032C199.503 159.317 200.993 152.602 202.483 145.887C202.718 144.927 202.718 144.927 203.581 144.927C205.463 144.927 207.345 144.927 209.227 144.927C209.776 144.927 209.933 145.087 209.776 145.647C208.522 151.323 207.267 156.999 206.012 162.595C205.855 163.234 205.855 163.874 205.777 164.513C205.777 164.673 205.855 164.993 206.012 164.993C206.247 164.993 206.561 164.913 206.718 164.753C207.816 163.554 208.835 162.275 209.149 160.756C210.169 156.199 211.188 151.723 212.208 147.166C212.286 146.686 212.443 146.207 212.521 145.647C212.678 145.087 212.913 144.848 213.462 144.848C215.423 144.848 217.462 144.848 219.423 144.848C219.972 144.848 220.05 145.087 219.893 145.567C218.638 151.163 217.384 156.759 216.207 162.275C216.05 162.994 215.972 163.714 215.894 164.353C215.894 164.593 216.05 164.833 216.129 165.073C216.443 164.913 216.756 164.753 216.913 164.513C217.697 163.394 218.56 162.355 219.187 161.156C221.854 156.439 223.658 151.563 225.226 146.686C225.383 146.286 225.54 145.807 225.618 145.407C225.775 144.927 226.089 144.768 226.559 144.768C228.52 144.768 230.559 144.768 232.52 144.768C233.069 144.768 233.147 144.927 232.755 145.407C231.5 147.006 230.245 148.605 228.991 150.124C226.403 153.481 223.814 156.839 221.148 160.116C217.854 164.273 214.56 168.43 211.345 172.587C209.62 174.826 207.816 177.064 206.012 179.222C205.855 179.462 205.463 179.542 205.228 179.702C205.149 179.462 205.071 179.222 205.149 179.063C206.247 174.106 207.345 169.23 208.443 164.273C208.522 163.954 208.6 163.554 208.6 163.234C208.6 163.394 208.522 163.394 208.522 163.394Z" fill="#30312B"/>
<path d="M269.649 159.798C270.111 159.798 270.42 159.798 270.728 159.798C272.347 159.719 273.272 160.508 273.966 161.691C275.199 163.663 275.199 166.186 274.968 168.71C274.737 171.391 273.889 174.073 272.887 176.754C272.578 177.464 272.347 177.7 271.653 177.7C270.111 177.7 268.493 177.7 266.951 177.7C266.026 177.7 266.103 177.7 266.488 176.754C267.413 174.782 268.415 172.89 269.263 170.918C270.343 168.394 271.191 165.871 271.113 163.347C271.113 162.795 270.959 162.243 270.805 161.77C270.497 160.981 269.572 160.981 268.878 161.77C268.338 162.401 267.876 163.189 267.49 163.978C265.332 168.237 263.173 172.574 261.015 176.833C260.552 177.779 260.475 177.858 259.55 177.858C257.931 177.858 256.39 177.858 254.771 177.858C254.54 177.858 254.308 177.858 254 177.858C254.463 176.833 254.925 175.886 255.388 174.94C258.702 168.394 261.94 161.77 265.255 155.224C267.259 151.281 269.186 147.338 271.191 143.473C271.422 143 271.653 142.764 272.193 142.764C273.966 142.843 275.739 142.843 277.512 142.843C278.051 142.843 278.051 143.079 277.82 143.552C275.585 148.048 273.349 152.464 271.113 156.959C270.805 157.511 270.574 158.063 270.42 158.694C271.036 157.984 271.73 157.275 272.347 156.644C274.968 153.726 277.512 150.887 280.133 147.969C281.443 146.47 282.754 145.051 284.064 143.552C284.527 143 284.912 142.764 285.606 142.764C286.916 142.843 288.227 142.764 289.537 142.843C289.769 142.843 289.846 143.079 290 143.158C289.769 143.395 289.615 143.631 289.383 143.789C288.304 144.42 287.225 144.814 286.223 145.524C284.296 146.943 282.368 148.521 280.518 150.098C278.822 151.518 277.203 153.016 275.662 154.514C273.889 156.171 272.116 157.906 270.343 159.641C269.957 159.404 269.88 159.562 269.649 159.798Z" fill="#30312B"/>
<path d="M287.212 181.327C293.875 180.397 299.362 176.91 304.379 171.642C304.379 172.029 304.379 172.261 304.301 172.416C302.733 175.438 301.244 178.382 299.676 181.404C299.519 181.714 299.362 181.869 298.97 181.869C292.699 181.869 286.428 181.869 280.078 181.869C280.078 181.869 280.078 181.869 280 181.792C280.47 180.862 280.941 179.932 281.411 179.002C284.39 173.191 287.447 167.458 290.426 161.646C292.699 157.23 295.051 152.736 297.324 148.32C297.481 148.01 297.638 147.777 298.03 147.777C304.222 147.777 310.415 147.777 316.608 147.777C316.686 147.777 316.765 147.777 317 147.855C316.608 148.552 316.294 149.249 315.903 149.947C314.57 152.581 313.159 155.216 311.826 157.772C311.748 158.005 311.513 158.16 311.199 158.315C311.669 155.68 311.278 153.511 310.023 151.651C308.769 149.792 306.888 148.707 304.222 148.552C303.909 149.095 303.517 149.792 303.203 150.489C301.557 153.743 299.833 156.92 298.186 160.252C297.403 161.801 297.403 163.196 298.186 164.436C298.422 164.746 298.265 165.211 297.716 165.521C296.305 166.295 295.051 167.303 294.032 168.542C293.326 169.472 292.778 170.557 292.229 171.564C290.583 174.663 289.015 177.763 287.369 180.862C287.369 181.017 287.29 181.094 287.212 181.327Z" fill="#30312B"/>
<path d="M224 175.852C224.947 173.947 225.893 172.2 226.761 170.374C229.68 164.736 232.52 159.099 235.439 153.462C236.938 150.683 238.832 148.063 241.356 145.919C243.407 144.172 245.616 142.663 248.141 141.79C249.955 141.155 251.691 140.758 253.426 140.758C255.635 140.758 257.844 140.758 260.053 140.758C260.369 140.758 260.606 140.758 261 140.758C260.527 141.711 260.132 142.584 259.659 143.378C256.661 149.333 253.663 155.288 250.586 161.243C248.22 165.927 245.774 170.612 243.407 175.217C243.171 175.614 243.013 175.852 242.539 175.773C240.725 175.773 238.91 175.773 237.096 175.773C236.859 175.773 236.702 175.773 236.386 175.693C236.859 174.661 237.333 173.708 237.885 172.756C238.674 171.168 239.542 169.58 240.331 167.992C240.567 167.595 240.646 167.118 240.646 166.642C240.646 165.848 240.252 165.61 239.463 165.689C238.91 165.769 238.279 165.769 237.727 165.848C234.887 166.166 233.861 164.419 233.467 162.354C233.309 161.481 233.388 160.528 233.388 159.655C233.388 159.496 233.388 159.337 233.388 159.178C232.362 161.957 231.574 164.736 231.337 167.515C231.1 169.818 231.1 172.12 231.021 174.423C231.021 174.741 231.021 175.058 230.942 175.296C230.864 175.455 230.548 175.693 230.39 175.693C228.181 175.852 226.209 175.852 224 175.852ZM250.823 147.189C250.823 146.157 250.902 145.204 250.823 144.331C250.744 143.537 250.429 142.902 249.482 142.822C247.431 142.584 245.458 143.457 243.565 144.728C241.908 145.839 240.567 147.269 239.305 148.777C236.544 152.032 234.729 155.447 234.177 159.258C233.861 161.719 234.177 163.784 236.307 164.895C237.333 165.451 239.62 165.133 240.804 164.339C242.382 163.307 243.486 161.719 244.354 160.131C245.853 157.352 247.273 154.494 248.693 151.635C249.482 150.286 250.113 148.698 250.823 147.189Z" fill="#30312B"/>
<path d="M194 147.777C193.229 149.397 192.458 150.863 191.687 152.405C188.758 158.19 185.829 163.898 182.822 169.682C180.818 173.539 178.814 177.395 176.887 181.252C176.655 181.715 176.424 181.869 175.961 181.869C174.188 181.869 172.415 181.869 170.719 181.869C170.488 181.869 170.257 181.869 170.026 181.792C170.642 180.558 171.182 179.478 171.799 178.321C172.493 176.933 173.263 175.621 173.88 174.233C174.111 173.77 174.111 173.23 174.111 172.768C174.034 172.151 173.649 171.996 173.032 172.073C172.493 172.151 171.876 172.151 171.336 172.228C168.484 172.536 167.559 170.839 167.173 168.911C167.019 168.063 167.096 167.06 167.096 166.057C167.096 165.98 167.096 165.826 167.019 165.749C166.788 166.443 166.557 167.137 166.325 167.754C165.092 172.073 164.475 176.239 164.707 180.404C164.707 180.481 164.707 180.481 164.707 180.558C164.63 181.869 164.475 181.869 163.396 181.869C161.623 181.869 159.85 181.869 158 181.869C158.308 181.175 158.617 180.558 158.925 180.018C162.317 173.462 165.632 166.906 169.024 160.35C170.488 157.573 172.415 155.028 174.882 152.868C176.424 151.48 178.12 150.323 179.97 149.474C182.206 148.472 184.364 147.854 186.6 147.854C188.989 147.777 191.379 147.777 194 147.777ZM168.098 164.206C168.021 164.746 167.867 165.209 167.79 165.595C167.482 167.986 167.713 170.145 169.872 171.302C170.719 171.765 173.186 171.534 174.188 170.839C175.73 169.76 176.887 168.294 177.734 166.751C179.662 163.126 181.512 159.424 183.285 155.799C184.056 154.256 184.287 152.791 184.056 151.325C183.979 150.708 183.747 150.014 183.054 149.86C181.589 149.551 180.047 149.937 178.505 150.708C176.964 151.557 175.576 152.637 174.343 153.948C171.259 157.033 169.101 160.427 168.098 164.206Z" fill="#30312B"/>
</svg>
