<svg width="494" height="226" viewBox="0 0 494 226" fill="none" xmlns="http://www.w3.org/2000/svg">
<path d="M494 134.105C494 153.936 470.767 170.13 442.151 170.13C436.859 170.13 431.835 169.552 427.081 168.56C429.951 171.948 431.476 175.666 431.476 179.467C431.476 198.223 393.89 213.509 347.513 213.509C334.865 213.509 322.845 212.352 312.08 210.369C297.907 219.624 270.099 225.986 238.074 225.986C208.741 225.986 182.996 220.698 168.016 212.683C161.916 213.261 155.547 213.592 148.998 213.592C102.621 213.592 65.0354 198.389 65.0354 179.55C65.0354 175.501 66.7398 171.618 69.9691 168.065C64.4075 169.469 58.3076 170.296 52.0283 170.296C23.323 170.296 0 154.183 0 134.27C0 114.357 23.323 98.2453 52.0283 98.2453C56.4238 98.2453 60.7296 98.6584 64.856 99.3194C62.8825 96.6754 61.8061 93.8661 61.8061 91.0568C61.8061 72.3005 107.735 57.0146 164.338 57.0146C198.874 57.0146 229.373 62.6332 247.942 71.309C265.075 61.807 295.126 55.5273 329.303 55.5273C382.588 55.5273 425.735 70.7306 425.735 89.4868C425.735 93.8661 423.403 97.9974 419.187 101.881C416.585 102.79 421.519 100.803 419.187 101.96C419.994 102.125 418.5 103.657 418.5 103.657C418.347 103.634 417.841 103.12 419.277 101.881C426.184 99.4847 433.988 98.1626 442.241 98.1626C470.767 98.08 494 114.192 494 134.105Z" fill="#CBCD5B" fill-opacity="0.84"/>
<path d="M425.458 49.8061C426.085 48.368 426.623 47.3793 426.892 46.3007C430.298 34.5265 433.704 22.7522 437.021 10.888C437.648 8.73091 438.276 6.57379 438.814 4.41667C438.993 3.51787 439.441 3.24823 440.248 3.24823C441.682 3.24823 443.116 3.24823 444.551 3.24823C451.273 3.42799 457.907 3.60775 464.629 3.69763C466.153 3.69763 466.602 4.41667 466.691 5.67499C466.781 7.65235 466.87 9.53983 466.87 11.5172C466.87 53.8506 466.87 96.0942 466.87 138.428C466.87 141.394 466.781 141.573 463.912 140.585C460.058 139.237 456.383 137.529 452.528 135.911C450.377 135.012 448.136 134.113 445.985 133.215C444.282 132.496 442.489 131.956 440.696 131.237C439.441 130.698 439.083 129.709 439.083 128.451C439.083 121.53 438.993 114.61 438.993 107.689C438.814 78.0284 438.724 48.4579 438.545 18.7975C438.545 18.2582 438.545 17.7189 438.545 17.1796C438.455 17.1796 438.276 17.0897 438.186 17.0897C437.828 18.0784 437.469 19.0671 437.2 20.1457C433.794 31.5604 430.388 42.9752 426.892 54.3001C423.575 64.9059 420.259 75.5117 416.852 86.1176C415.777 89.6229 414.522 93.0383 413.356 96.5436C412.998 97.7121 412.281 97.9817 411.295 97.7121C408.426 97.0829 405.558 96.4537 402.69 95.8246C401.345 95.5549 401.435 94.4764 401.524 93.4877C401.704 89.9824 401.883 86.3872 401.972 82.8819C402.241 71.8266 401.793 60.8613 399.821 49.9858C398.387 41.8067 397.042 33.6277 395.25 25.5385C394.174 20.5951 392.381 15.7415 390.588 10.9779C389.782 8.91067 388.347 7.20295 387.003 5.40535C386.106 4.14703 384.403 4.23691 383.686 5.58511C382.7 7.38271 381.804 9.18031 381.356 11.1577C378.935 21.2242 379.204 31.3807 380.549 41.5371C382.521 56.7268 385.838 71.557 390.319 86.1176C392.65 93.8472 395.608 101.307 399.552 108.408C400.897 110.924 402.6 113.261 403.944 115.688C404.303 116.317 404.303 117.216 404.482 117.935C403.765 118.025 402.958 118.295 402.331 118.115C398.925 117.126 395.518 115.958 392.112 114.969C389.692 114.25 387.272 113.621 384.762 112.992C382.879 112.452 380.997 112.093 379.204 111.554C377.77 111.194 377.68 110.026 377.68 108.767C377.591 96.1841 377.412 83.6009 377.322 71.1076C377.053 49.8959 376.694 28.7741 376.426 7.56247C376.426 6.03451 376.515 4.50655 376.605 2.97859C376.605 2.07979 376.874 1.63039 377.86 1.72027C385.389 1.90003 392.919 2.07979 400.449 2.16967C401.972 2.16967 402.6 3.06847 403.138 4.23691C405.379 8.91067 407.62 13.4945 409.861 18.0784C413.984 26.4373 418.197 34.886 422.32 43.2448C423.037 44.7728 423.665 46.3007 424.382 47.8287C424.472 48.368 424.83 48.9073 425.458 49.8061Z" fill="#DEEDE0"/>
<path d="M44.3155 86.2094C47.5424 98.3432 51.5762 110.117 56.5063 121.622C57.0441 122.791 57.5819 123.959 57.9405 125.127C58.299 126.206 57.8508 126.925 56.6855 127.285C53.1 128.363 49.6041 129.352 46.1082 130.61C42.0745 132.048 38.1304 133.666 34.0967 135.104C33.021 135.464 31.8558 135.643 30.3319 136.003C30.3319 134.295 30.3319 132.947 30.3319 131.509C30.2423 89.7147 30.1526 47.7408 30.063 5.85674C30.063 3.51986 30.063 3.51986 32.4832 3.3401C33.3796 3.3401 34.1863 3.25022 35.0827 3.25022C41.447 3.07046 47.8113 2.71094 54.086 2.71094C57.7612 2.71094 61.2571 3.7895 64.484 5.5871C67.3525 7.20493 70.3105 8.64301 72.91 10.5305C77.4816 14.0358 81.7842 17.7209 85.549 22.2149C91.0169 28.7761 96.0367 35.6969 100.339 43.1569C102.76 47.3813 104.642 51.8753 106.704 56.3693C109.214 61.9418 110.917 67.784 111.903 73.806C113.516 84.3219 112.978 94.6581 107.779 104.275C105.359 108.769 101.863 112.364 97.2916 114.881C92.4512 117.488 87.3418 118.656 81.9635 117.937C78.7365 117.488 75.5095 116.679 72.6411 114.971C70.2209 113.533 67.6214 112.454 65.2908 110.747C62.3327 108.5 59.4643 106.073 56.7752 103.466C52.9207 99.7813 49.7834 95.3772 46.915 90.7933C45.9289 89.3552 45.1222 87.8273 44.3155 86.2094ZM82.5013 70.8399C82.5013 69.2221 82.6806 67.5144 82.5013 65.8965C81.1568 53.8526 77.9298 42.348 71.8344 31.832C69.5934 27.8773 67.1732 23.9226 64.3048 20.4173C61.8845 17.4513 58.7472 15.2043 55.9684 12.5977C53.6378 10.4406 50.7694 9.63169 47.5424 9.63169C45.1222 9.63169 43.1502 10.4406 41.5367 12.3281C37.7719 16.5525 35.9791 21.4958 35.4413 27.0684C34.276 40.101 35.3516 52.9538 39.8336 65.3573C43.8673 76.5024 48.887 87.1981 59.285 94.029C62.3327 96.0063 65.4701 97.5343 69.5038 96.6355C73.6271 95.7367 76.3163 93.3099 78.378 89.8945C81.8739 84.0523 82.591 77.4911 82.5013 70.8399Z" fill="#DEEDE0"/>
<path d="M166.224 43.696C167.12 44.2352 168.106 44.8644 169.002 45.4037C173.753 47.8304 177.877 51.0661 181.731 54.6613C186.661 59.3351 190.695 64.7279 193.474 70.9296C197.149 79.1087 198.045 87.6473 196.432 96.4555C196.163 97.8936 195.625 98.5227 194.101 98.6126C188.185 99.1519 182.359 99.7811 176.442 100.41C174.65 100.59 172.857 101.039 171.064 101.219C169.092 101.399 168.644 100.86 169.002 98.8823C169.361 96.9948 169.809 95.1073 170.078 93.1299C170.975 86.5687 170.078 80.0973 168.734 73.626C167.568 68.0534 165.417 62.7505 162.549 57.897C160.397 54.3917 157.35 51.3358 154.302 48.4596C148.744 43.1567 142.918 38.1234 137.091 33.0003C132.789 29.2253 129.293 24.7313 126.155 19.8778C125.707 19.2486 125.259 18.6195 124.632 18.1701C124.183 17.9004 123.466 17.7207 122.928 17.8105C122.57 17.9004 122.122 18.6195 122.122 19.0689C122.032 20.5069 122.032 21.945 122.122 23.3831C122.57 39.8311 126.604 55.4702 132.34 70.7498C134.761 77.0414 137.539 83.1533 140.318 89.2651C142.201 93.3996 144.531 97.3543 146.593 101.489C146.772 101.938 147.041 102.298 147.131 102.747C147.4 103.826 147.131 104.545 145.876 104.724C143.904 104.994 141.932 105.264 139.96 105.623C135.567 106.432 131.175 107.241 126.873 108.14C125.08 108.499 123.287 108.949 121.584 109.308C120.329 109.578 119.97 109.129 119.881 107.87C119.791 102.927 119.612 98.0733 119.522 93.1299C119.164 63.3797 118.805 33.6294 118.447 3.87914C118.447 3.33986 118.447 2.89046 118.447 2.35118C118.447 1.18274 118.895 0.643464 120.239 0.643464C129.831 0.553584 139.332 0.463704 148.924 0.373824C152.688 0.283944 156.363 -0.0755756 160.039 0.0143044C163.803 0.104184 167.658 0.373824 171.423 1.18274C175.815 2.08154 179.938 3.96902 183.613 6.48566C188.275 9.72134 192.488 13.4963 194.46 19.1587C196.701 25.72 195.984 30.3937 190.785 35.427C188.185 37.9436 185.048 39.3817 181.731 40.64C176.891 42.5275 171.961 43.0668 166.851 43.2466C166.582 43.2466 166.403 43.3364 166.134 43.3364C166.313 43.5162 166.313 43.6061 166.224 43.696ZM132.43 4.41842C132.43 4.5083 132.43 4.68806 132.43 4.77794C130.906 4.77794 129.382 4.68806 127.859 4.77794C127.231 4.86782 126.514 5.13746 125.976 5.49698C123.646 7.02494 123.825 9.18206 124.452 11.5189C125.528 15.5635 127.859 18.8891 130.637 21.8551C132.699 24.192 134.85 26.5289 137.271 28.4164C141.035 31.3824 145.248 33.7193 149.641 35.6068C154.033 37.4942 158.425 38.4829 163.176 36.7752C165.148 36.0562 166.582 34.9776 167.479 33.2699C168.285 31.6521 169.54 30.1241 169.63 28.1467C169.899 22.7539 167.21 18.7992 163.624 15.2939C161.114 12.8671 158.156 11.1594 155.019 9.54158C150.806 7.29458 146.324 5.94638 141.752 5.13746C138.705 4.59818 135.567 4.68806 132.43 4.41842Z" fill="#DEEDE0"/>
<path d="M366.744 108.498C364.504 107.959 362.711 107.33 360.828 106.97C357.332 106.251 353.837 105.712 350.341 105.083C347.472 104.543 344.514 104.094 341.646 103.555C340.66 103.375 340.122 102.836 340.122 101.667C340.032 94.5668 339.943 87.5561 339.763 80.4556C339.763 77.22 337.971 75.1527 335.461 73.445C333.399 72.0069 331.158 72.2766 328.917 72.0968C325.063 71.8272 321.119 71.8272 317.443 70.9284C313.23 69.9397 309.466 67.7826 306.059 65.0862C302.832 62.5695 299.874 59.7832 297.365 56.5476C296.11 54.9297 295.034 53.1321 293.51 51.6042C294.048 53.5815 294.496 55.5589 295.213 57.5362C299.516 69.8498 306.059 80.905 313.051 91.7805C314.306 93.7579 315.651 95.6453 316.906 97.6227C317.175 98.162 317.354 98.9709 317.085 99.5102C316.995 99.7798 316.009 99.8697 315.471 99.7798C311.617 99.3304 307.673 98.881 303.818 98.4316C300.323 98.0721 296.827 97.5328 293.42 97.3531C291.986 97.2632 291.448 96.8138 291.448 95.3757C291.448 90.7918 291.269 86.1181 291.179 81.5342C290.911 66.8838 290.642 52.3232 290.373 37.6728C290.283 31.4711 291.986 25.6289 294.944 20.2361C297.544 15.5623 301.309 11.8772 305.701 8.73143C310.631 5.22611 316.099 2.88923 322.015 1.81067C325.063 1.27139 328.11 0.642234 331.158 0.192834C332.144 0.013074 333.309 0.462474 334.295 0.462474C344.066 0.642234 353.837 0.732114 363.607 0.821994C365.041 0.821994 365.4 1.36127 365.4 2.70947C365.848 37.1335 366.296 71.6474 366.744 106.071C366.744 106.611 366.744 107.33 366.744 108.498ZM339.763 41.987C339.674 41.987 339.674 41.987 339.584 41.987C339.405 37.8525 339.226 33.7181 339.136 29.5836C339.046 23.1122 337.074 17.27 332.861 12.2367C329.903 8.73143 326.407 6.48443 321.567 6.57431C316.368 6.66419 311.527 7.92251 307.135 10.7088C304.625 12.3266 302.205 14.3939 300.323 16.7307C298.44 18.9777 297.096 21.764 295.841 24.4604C289.476 38.1222 295.034 51.694 303.818 60.3225C306.239 62.6594 308.659 64.8165 311.796 66.1647C314.306 67.2433 316.726 68.6814 319.326 69.3105C323.629 70.3891 328.021 70.0296 332.413 69.67C334.027 69.4903 335.192 68.6814 336.088 67.5129C338.508 64.2772 339.584 60.5023 339.674 56.4577C339.853 51.6042 339.763 46.8405 339.763 41.987Z" fill="#DEEDE0"/>
<path d="M205.844 96.9941C205.844 96.4548 205.754 95.8257 205.754 95.2864C205.216 64.2778 204.589 33.2692 204.051 2.26063C204.051 1.0922 204.23 0.552915 205.575 0.552915C227.357 0.463035 249.139 0.193396 270.921 0.103516C274.327 0.103516 277.734 0.463035 281.319 0.732675C281.319 1.18208 281.409 1.63147 281.409 2.17075C281.588 11.4284 281.678 20.5961 281.767 29.8538C281.767 30.1234 281.857 30.3931 281.767 30.5728C281.498 30.9323 281.23 31.4716 280.871 31.5615C280.512 31.6514 279.885 31.2919 279.706 30.9323C276.568 24.1913 271.369 19.3378 265.543 15.0236C262.137 12.5069 258.641 10.4397 254.876 8.55223C249.767 6.03559 244.567 4.05823 238.92 3.24931C236.59 2.88979 234.349 2.44039 231.929 2.08087C231.839 2.71003 231.749 2.97967 231.749 3.33919C231.928 13.6754 232.197 23.9217 232.197 34.2579C232.197 37.943 233.811 40.7293 236.231 43.3358C237.755 45.0435 239.548 46.3917 241.699 47.2905C242.954 47.8298 243.044 49.178 241.968 50.0768C240.265 51.3351 238.382 52.4137 236.948 53.8517C234.349 56.3684 232.825 59.3344 232.915 63.1992C233.183 73.086 233.273 82.9728 233.452 92.8596C233.452 93.1293 233.542 93.4888 233.542 94.2078C236.141 93.7584 238.651 93.309 241.161 92.7697C241.878 92.6799 242.595 92.5001 243.223 92.3203C248.063 91.6912 252.545 89.8936 256.938 88.0061C261.599 86.0288 265.991 83.4222 269.935 80.1866C273.879 76.861 277.823 73.6253 280.333 68.8617C280.512 68.4123 281.588 68.2325 282.126 68.3224C282.484 68.4123 283.022 69.2212 283.022 69.6706C283.202 76.7711 283.291 83.9615 283.381 91.062C283.381 92.3204 283.291 93.6685 283.381 94.9269C283.47 96.1852 282.933 96.4548 281.767 96.4548C277.465 96.2751 273.162 96.0953 268.859 95.9155C251.201 95.3763 233.542 95.6459 215.973 96.2751C212.567 96.2751 209.25 96.7245 205.844 96.9941Z" fill="#DEEDE0"/>
<path d="M201.724 163.822C200.366 165.585 199.008 167.349 197.65 169.014C193.77 173.813 189.987 178.613 186.107 183.412C185.913 183.706 185.525 183.804 185.137 184C185.04 183.706 184.943 183.412 185.04 183.216C186.204 177.829 187.465 172.442 188.726 167.055C190.569 158.827 192.412 150.599 194.255 142.371C194.546 141.196 194.546 141.196 195.613 141.196C197.941 141.196 200.269 141.196 202.597 141.196C203.276 141.196 203.47 141.392 203.276 142.077C201.724 149.032 200.172 155.986 198.62 162.843C198.426 163.626 198.426 164.41 198.329 165.194C198.329 165.39 198.426 165.781 198.62 165.781C198.911 165.781 199.299 165.683 199.493 165.487C200.851 164.018 202.112 162.451 202.5 160.59C203.761 155.007 205.022 149.522 206.283 143.938C206.38 143.351 206.574 142.763 206.671 142.077C206.865 141.392 207.156 141.098 207.835 141.098C210.26 141.098 212.782 141.098 215.207 141.098C215.886 141.098 215.983 141.392 215.789 141.979C214.237 148.836 212.685 155.692 211.23 162.451C211.036 163.333 210.939 164.214 210.842 164.998C210.842 165.292 211.036 165.585 211.133 165.879C211.521 165.683 211.909 165.487 212.103 165.194C213.073 163.822 214.14 162.549 214.916 161.08C218.214 155.301 220.445 149.326 222.385 143.351C222.579 142.861 222.773 142.273 222.87 141.784C223.064 141.196 223.452 141 224.034 141C226.459 141 228.981 141 231.406 141C232.085 141 232.182 141.196 231.697 141.784C230.145 143.743 228.593 145.702 227.041 147.563C223.84 151.677 220.639 155.79 217.341 159.806C213.267 164.9 209.193 169.993 205.216 175.087C203.082 177.829 200.851 180.572 198.62 183.216C198.426 183.51 197.941 183.608 197.65 183.804C197.553 183.51 197.456 183.216 197.553 183.021C198.911 176.948 200.269 170.973 201.627 164.9C201.724 164.508 201.821 164.018 201.821 163.626C201.821 163.822 201.724 163.822 201.724 163.822Z" fill="#30312B"/>
<path d="M277.126 159.357C277.692 159.357 278.069 159.357 278.445 159.357C280.424 159.258 281.555 160.247 282.403 161.73C283.91 164.202 283.91 167.366 283.627 170.53C283.345 173.892 282.308 177.254 281.084 180.616C280.707 181.506 280.424 181.802 279.576 181.802C277.692 181.802 275.713 181.802 273.829 181.802C272.698 181.802 272.792 181.802 273.263 180.616C274.394 178.144 275.619 175.771 276.655 173.299C277.974 170.135 279.011 166.971 278.916 163.807C278.916 163.115 278.728 162.422 278.54 161.829C278.163 160.84 277.032 160.84 276.184 161.829C275.525 162.62 274.959 163.609 274.488 164.598C271.85 169.937 269.212 175.375 266.574 180.715C266.009 181.901 265.914 182 264.784 182C262.805 182 260.921 182 258.942 182C258.66 182 258.377 182 258 182C258.565 180.715 259.131 179.528 259.696 178.342C263.747 170.135 267.704 161.829 271.756 153.622C274.206 148.679 276.561 143.735 279.011 138.89C279.293 138.297 279.576 138 280.236 138C282.403 138.099 284.57 138.099 286.737 138.099C287.396 138.099 287.396 138.396 287.114 138.989C284.381 144.625 281.649 150.162 278.916 155.798C278.54 156.49 278.257 157.182 278.069 157.973C278.822 157.083 279.67 156.193 280.424 155.402C283.627 151.744 286.737 148.184 289.94 144.526C291.542 142.647 293.143 140.867 294.745 138.989C295.31 138.297 295.782 138 296.63 138C298.231 138.099 299.833 138 301.435 138.099C301.717 138.099 301.812 138.396 302 138.494C301.717 138.791 301.529 139.088 301.246 139.285C299.927 140.076 298.608 140.571 297.383 141.461C295.028 143.24 292.672 145.218 290.411 147.195C288.338 148.975 286.36 150.854 284.475 152.733C282.308 154.809 280.141 156.984 277.974 159.16C277.503 158.863 277.409 159.061 277.126 159.357Z" fill="#30312B"/>
<path d="M298.771 186.332C306.875 185.186 313.549 180.891 319.65 174.4C319.65 174.877 319.65 175.164 319.555 175.355C317.648 179.077 315.837 182.705 313.93 186.427C313.739 186.809 313.549 187 313.072 187C305.445 187 297.818 187 290.095 187C290.095 187 290.095 187 290 186.905C290.572 185.759 291.144 184.614 291.716 183.468C295.339 176.309 299.057 169.245 302.68 162.086C305.445 156.645 308.305 151.109 311.07 145.668C311.261 145.286 311.451 145 311.928 145C319.46 145 326.992 145 334.523 145C334.619 145 334.714 145 335 145.095C334.523 145.955 334.142 146.814 333.665 147.673C332.044 150.918 330.328 154.164 328.708 157.314C328.612 157.6 328.326 157.791 327.945 157.982C328.517 154.736 328.04 152.064 326.515 149.773C324.989 147.482 322.701 146.145 319.46 145.955C319.078 146.623 318.602 147.482 318.22 148.341C316.218 152.35 314.121 156.264 312.119 160.368C311.165 162.277 311.165 163.995 312.119 165.523C312.405 165.905 312.214 166.477 311.547 166.859C309.83 167.814 308.305 169.055 307.066 170.582C306.208 171.727 305.54 173.064 304.873 174.305C302.871 178.123 300.964 181.941 298.962 185.759C298.962 185.95 298.867 186.045 298.771 186.332Z" fill="#30312B"/>
<path d="M221 179C222.151 176.665 223.303 174.525 224.358 172.287C227.908 165.38 231.362 158.473 234.913 151.566C236.736 148.161 239.038 144.95 242.109 142.324C244.603 140.183 247.29 138.335 250.36 137.265C252.567 136.486 254.678 136 256.789 136C259.476 136 262.162 136 264.849 136C265.232 136 265.52 136 266 136C265.424 137.167 264.945 138.238 264.369 139.21C260.723 146.507 257.077 153.803 253.335 161.1C250.456 166.839 247.482 172.579 244.603 178.222C244.316 178.708 244.124 179 243.548 178.903C241.341 178.903 239.134 178.903 236.928 178.903C236.64 178.903 236.448 178.903 236.064 178.805C236.64 177.541 237.215 176.373 237.887 175.206C238.846 173.26 239.902 171.314 240.861 169.369C241.149 168.882 241.245 168.299 241.245 167.715C241.245 166.742 240.765 166.45 239.806 166.548C239.134 166.645 238.367 166.645 237.695 166.742C234.241 167.131 232.994 164.991 232.514 162.462C232.322 161.391 232.418 160.224 232.418 159.154C232.418 158.959 232.418 158.765 232.418 158.57C231.171 161.975 230.211 165.38 229.923 168.785C229.635 171.606 229.635 174.428 229.539 177.249C229.539 177.638 229.539 178.027 229.444 178.319C229.348 178.514 228.964 178.805 228.772 178.805C226.085 179 223.687 179 221 179ZM253.623 143.88C253.623 142.615 253.719 141.448 253.623 140.378C253.527 139.405 253.143 138.627 251.991 138.529C249.497 138.238 247.098 139.308 244.795 140.864C242.78 142.226 241.149 143.977 239.614 145.826C236.256 149.814 234.049 153.998 233.377 158.667C232.994 161.683 233.377 164.213 235.968 165.575C237.215 166.256 239.998 165.867 241.437 164.894C243.356 163.629 244.699 161.683 245.755 159.738C247.578 156.333 249.305 152.83 251.032 149.328C251.991 147.674 252.759 145.729 253.623 143.88Z" fill="#30312B"/>
<path d="M184 145C183.058 146.995 182.116 148.801 181.173 150.701C177.593 157.828 174.013 164.86 170.338 171.986C167.889 176.738 165.439 181.489 163.084 186.24C162.801 186.81 162.518 187 161.953 187C159.786 187 157.619 187 155.546 187C155.263 187 154.981 187 154.698 186.905C155.452 185.385 156.111 184.054 156.865 182.629C157.713 180.919 158.655 179.303 159.409 177.593C159.692 177.023 159.692 176.357 159.692 175.787C159.597 175.027 159.126 174.837 158.373 174.932C157.713 175.027 156.959 175.027 156.3 175.122C152.814 175.502 151.683 173.412 151.212 171.036C151.024 169.991 151.118 168.756 151.118 167.52C151.118 167.425 151.118 167.235 151.024 167.14C150.741 167.995 150.458 168.851 150.176 169.611C148.668 174.932 147.914 180.063 148.197 185.195C148.197 185.29 148.197 185.29 148.197 185.385C148.103 187 147.914 187 146.595 187C144.428 187 142.261 187 140 187C140.377 186.145 140.754 185.385 141.131 184.719C145.276 176.643 149.328 168.566 153.473 160.489C155.263 157.068 157.619 153.932 160.634 151.271C162.518 149.561 164.591 148.136 166.852 147.09C169.585 145.855 172.223 145.095 174.955 145.095C177.876 145 180.797 145 184 145ZM152.343 165.24C152.248 165.905 152.06 166.475 151.966 166.95C151.589 169.896 151.872 172.557 154.51 173.982C155.546 174.552 158.561 174.267 159.786 173.412C161.67 172.081 163.084 170.276 164.12 168.376C166.475 163.91 168.737 159.348 170.904 154.882C171.846 152.982 172.128 151.176 171.846 149.371C171.752 148.611 171.469 147.756 170.621 147.566C168.831 147.186 166.946 147.661 165.062 148.611C163.178 149.656 161.482 150.986 159.974 152.602C156.206 156.403 153.567 160.584 152.343 165.24Z" fill="#30312B"/>
</svg>
