<svg width="242" height="107" viewBox="0 0 242 107" fill="none" xmlns="http://www.w3.org/2000/svg">
<path d="M21.8786 71.144C19.5532 73.546 19.5085 73.5909 19.3631 73.5909C19.2849 73.5909 19.2513 73.5573 9.67039 64.1959C0.223593 54.9804 0 54.7671 0 54.6885V54.5426L2.19121 52.2864C4.69545 49.6935 4.72899 49.6599 5.89167 49.0537C6.83076 48.5262 8.49653 47.9986 9.80455 47.8302C10.2406 47.7517 11.4368 47.6282 11.8728 47.617C12.5324 47.6057 14.2764 47.6506 14.9248 47.718C15.3273 47.7517 15.6515 47.7853 15.7298 47.7741C16.4564 47.8415 18.5359 48.2792 19.5979 48.5262C20.1457 48.7058 21.4985 49.1547 22.0463 49.4017C22.2251 49.4354 22.4823 49.5364 22.5941 49.5813C22.7059 49.615 22.9965 49.7609 23.2537 49.8619C23.5108 49.9629 23.6897 50.0752 23.7679 50.0752C23.9468 50.1088 25.1989 50.7487 25.6349 51.0293C26.5181 51.5232 27.692 52.3201 28.2845 52.8926C28.3963 53.0048 28.687 53.2181 28.8323 53.364C29.2012 53.6558 30.1291 54.6997 30.4645 55.2385C30.9453 55.9232 31.2471 56.4284 31.549 57.2365C32.0409 58.7294 31.9179 60.1886 31.1018 61.4795C30.8223 61.9958 29.9615 62.8826 29.4136 63.2193C27.1442 64.8918 23.3319 65.5653 18.9719 65.1163C18.357 65.0938 16.5347 64.7459 16.1658 64.6785C16.0875 64.6112 15.9422 64.6112 15.8416 64.5775C15.372 64.4765 14.746 64.2969 14.7124 64.2632C14.6789 64.2295 14.6342 64.1959 14.6342 64.1959C14.5671 64.2744 17.7086 65.7561 18.8824 66.25C20.8948 67.1367 22.1804 67.6643 23.3096 68.0459C23.9692 68.2592 24.148 68.3602 24.2263 68.5061C24.2263 68.5061 24.3045 68.5735 24.2598 68.6184C24.2263 68.6521 23.153 69.7633 21.8562 71.0991L21.8786 71.144ZM4.06939 56.6416C4.55012 57.4049 4.77371 57.6182 5.6569 58.4825C6.54009 59.3468 6.87548 59.6723 7.82575 60.3121C11.638 62.8152 16.5682 64.0163 19.978 63.3203C20.414 63.2418 20.6264 63.1632 21.1742 62.9724C21.7891 62.703 22.3258 62.2203 22.65 61.7489C23.3207 60.6039 23.0524 59.0437 21.8674 57.4498C20.0898 54.9916 16.3446 52.6344 12.4765 51.5905C11.7051 51.4221 9.88281 51.0742 9.63685 51.1191C9.63685 51.1191 9.45798 51.0854 9.26793 51.0517C8.28412 50.9507 6.76369 51.1191 5.89167 51.3548C4.87433 51.6579 4.04703 52.2191 3.65574 52.8477C3.05204 53.8467 3.21974 55.2273 4.03585 56.6079L4.06939 56.6416Z" fill="#1A3A39"/>
<path d="M38.4353 29.8698C39.162 30.8801 39.3632 32.126 39.0502 33.3719C38.7372 34.6179 37.9993 35.7853 36.8143 36.9639C36.5571 37.222 36.2218 37.4577 35.6404 37.8843C35.2268 38.1873 34.8467 38.4567 34.8467 38.4567C34.8467 38.4567 35.1038 38.4567 35.4056 38.4343C38.7819 38.2771 42.0687 39.1527 45.0313 40.8813C47.0772 42.1384 48.8771 44.0242 49.9168 45.9997C50.2746 46.763 50.3305 46.8416 50.2299 47.0436C50.174 47.1447 50.0957 47.2008 47.5467 49.0529C46.004 50.1753 44.8524 50.9386 44.8077 50.9723C44.7407 50.9611 44.6289 50.9049 44.6065 50.8601C44.4723 50.759 44.45 50.7254 44.2599 50.2876C43.9469 49.5019 43.7009 48.9743 43.1084 48.0651C42.0911 46.6396 41.0514 45.5508 39.6316 44.2824C38.7484 43.5864 37.5186 42.7558 36.7472 42.2956C36.5907 42.1609 36.4118 42.0935 36.4118 42.0935C36.4118 42.0935 36.2106 41.9813 35.9646 41.914C34.5448 41.3527 32.8008 40.9599 31.2468 40.8139C30.8891 40.7578 30.0953 40.6231 27.9824 40.2415C26.2607 39.9609 24.2819 39.4221 22.8956 38.8945C22.795 38.8384 22.5043 38.7935 22.3366 38.7261C22.046 38.6812 22.0124 38.7149 21.8783 38.8047C21.6659 38.9506 21.6882 39.0741 21.9454 39.5231C22.0683 39.6915 22.3031 40.0282 22.5602 40.2864C24.0024 42.1048 24.2819 42.4191 25.2322 43.3844C28.083 46.2916 32.7673 49.8947 36.5795 52.0386C36.6354 52.1172 36.7696 52.2182 36.7696 52.2182C36.7696 52.2182 39.3521 53.5989 39.721 53.7673C40.0228 53.9244 40.1458 54.0928 40.0564 54.2275C40.0005 54.3285 34.746 58.1337 34.5895 58.1898C34.3883 58.2684 34.7237 58.7286 26.4508 47.212L18.625 36.324L18.6697 36.0322L22.795 33.0464C28.2619 29.0841 28.2619 29.0841 29.2568 28.6239C30.1736 28.2198 31.0568 27.9504 32.0853 27.7933C34.7684 27.3779 37.1161 28.0963 38.29 29.7239L38.4353 29.8698ZM33.6057 34.9659C33.4157 34.5281 32.9349 33.8546 32.5884 33.5403C31.3474 32.5301 29.5252 32.1933 27.3675 32.5413C26.6855 32.6536 25.8023 32.9117 25.4446 33.0464C25.4446 33.0464 25.3328 33.0689 25.221 33.0801C25.098 33.1699 24.5502 33.3719 23.9912 33.6526C23.231 34.0118 22.7838 34.2699 21.8671 34.9322C20.9951 35.572 20.9504 35.5944 20.7715 35.7853C20.5703 36.122 20.5479 36.4475 20.5926 36.6832C20.6597 36.9526 20.9727 37.3006 21.3081 37.5026C21.7665 37.8731 22.1689 38.0863 23.1528 38.3894C23.6782 38.5802 25.6458 38.9394 26.3278 39.018C26.652 39.0292 27.7588 39.0629 28.0159 39.0741C28.7314 39.0068 29.6146 38.9955 29.8382 38.9619C30.4307 38.9057 31.3251 38.6476 32.0406 38.322C32.4095 38.12 33.0467 37.5924 33.3151 37.2669C33.7511 36.6383 33.8293 35.8751 33.4268 34.9546L33.6057 34.9659Z" fill="#1A3A39"/>
<path d="M51.4374 46.3613C51.3927 46.3837 51.3927 46.3837 51.3256 46.3613C51.2585 46.3388 49.5592 42.9153 45.3109 34.3172C42.0353 27.7058 39.3075 22.2057 39.2851 22.1608C39.2404 22.071 39.2628 22.0036 39.3075 21.9812C39.3969 21.824 56.9937 13.0463 57.0831 13.1137C57.1278 13.0912 60.6941 20.3087 60.7277 20.4659C60.75 20.5108 60.683 20.6006 60.6606 20.6791C60.5488 20.7914 60.5488 20.7914 60.4258 20.7914C60.3587 20.7689 60.2917 20.7465 60.2917 20.7465C60.2246 20.6118 59.3749 19.9383 58.9166 19.7026C58.2682 19.3322 57.8098 19.0964 56.9825 18.8158C55.0484 18.1648 53.1032 17.9291 50.8672 18.0638C49.3021 18.1536 47.7146 18.5464 46.1271 19.1638L45.8252 19.2536L47.9941 23.6424C50.0288 27.7619 50.1406 27.9864 50.3306 28.1323C51.2026 28.963 52.4883 29.5915 53.405 29.5915C53.8187 29.614 53.9081 29.6813 53.9975 29.8722C54.1093 30.1079 54.1093 30.2201 53.8857 30.5681C53.405 31.2079 53.1032 32.3416 53.1255 33.3182C53.1255 34.1263 52.9914 33.7335 55.3167 38.4478L57.4409 42.7469L57.8321 42.4887C58.7265 41.9836 59.7662 41.1755 60.7389 40.2326C62.0245 39.0091 63.3437 37.1458 64.1039 35.4396C64.3834 34.8447 64.7971 33.5988 64.9424 32.9477C65.0766 32.4202 65.1772 31.6793 65.1772 31.0957C65.1548 30.815 65.1548 30.5905 65.1772 30.5232C65.3337 30.3885 65.6803 30.265 65.7809 30.4558C65.7809 30.4558 66.5635 32.0273 67.469 33.8794C69.0901 37.157 69.1124 37.2131 69.1124 37.3254C69.0453 37.4152 69.0006 37.4376 65.1772 39.3458C63.0642 40.4009 59.0507 42.3989 56.3341 43.7571C53.6174 45.1153 51.3591 46.2378 51.3144 46.2602L51.4374 46.3613Z" fill="#1A3A39"/>
<path d="M72.3552 36.2705C70.5888 36.8205 69.9963 37.0113 69.9515 37.0226C69.8845 36.9889 69.3367 35.2154 67.3355 28.8061C65.1443 21.7569 64.7754 20.5783 64.6636 20.0732C64.3394 18.5018 64.3282 16.9303 64.6189 15.5946C64.6859 15.4599 64.7418 15.2915 64.7083 15.1905C64.8983 14.4272 65.6474 12.8445 66.2623 12.0476C67.5144 10.3526 69.1801 9.12914 71.4384 8.09647C71.9527 7.82707 72.4893 7.6587 76.2121 6.49133C79.5549 5.44743 80.3821 5.17804 80.4492 5.21171C80.5834 5.27906 88.5768 30.95 88.5992 31.1633C88.5545 31.1745 88.465 31.2643 88.465 31.2643C88.4203 31.2755 86.9446 31.7469 85.2229 32.2857C82.1821 33.2398 82.0815 33.2735 82.0144 33.2398C81.9361 33.1613 81.7796 32.6674 81.0641 30.3438C80.3263 27.9754 80.1921 27.5377 80.125 27.3356C79.6778 26.606 78.8617 26.2132 78.0791 26.3029C77.8667 26.3142 77.7214 26.3591 77.2071 26.6285C76.6481 26.9091 76.5028 26.954 75.6643 27.2234C74.8818 27.4703 74.6805 27.5264 74.3228 27.5938C73.5849 27.6611 73.0818 27.605 72.1987 27.504C71.8633 27.4479 71.2148 27.2683 70.7118 27.055C69.3814 26.606 68.0845 25.7193 67.1119 24.6641C66.933 24.4509 66.743 24.3498 66.7542 24.3947C66.7094 24.406 67.2908 25.4162 67.615 25.9662C68.3081 26.9877 69.2472 28.2673 70.0745 29.1989C70.8347 30.0969 72.3887 31.6122 73.1936 32.2745C73.5626 32.5888 75.0159 33.8123 75.1948 33.8684C75.9774 34.4858 76.1898 34.6429 76.2457 34.8337C76.3239 35.0807 76.268 35.0919 75.4407 35.3613C74.9936 35.496 73.5737 35.945 72.2545 36.3603L72.3552 36.2705ZM65.6362 14.5731C64.5182 17.7385 65.1778 21.2069 67.4026 23.8672C69.1466 26.0223 71.8968 27.2122 74.401 26.9652C75.2283 26.8642 76.0221 26.6172 76.704 26.2356C76.9053 26.1795 77.2183 25.9662 77.4754 25.7754C77.8332 25.5509 77.9226 25.4723 78.068 25.2591C78.504 24.5856 78.6493 23.6651 78.5487 22.2957L78.4481 21.6222L77.632 19.0069C76.637 15.6395 75.832 13.4058 75.5302 12.7996C75.2283 12.3506 74.7588 11.6884 74.3675 11.3292C73.5849 10.5435 72.5564 10.0047 71.595 9.86997C70.9913 9.84752 70.7453 9.91487 70.0633 10.1394C67.9504 10.8016 66.3517 12.3843 65.5244 14.5956L65.6362 14.5731Z" fill="#1A3A39"/>
<path d="M86.4186 3.81905L89.5265 3.39251C92.0196 3.04454 92.6345 2.96597 92.7463 2.99964C92.9028 3.03332 93.0258 3.16801 93.5959 3.92007C93.909 4.29049 94.2891 4.81805 94.535 5.09867C94.7363 5.43541 94.9934 5.76092 95.0493 5.86195C95.3623 6.28849 95.4853 6.37828 96.1225 7.27626C97.3747 8.82527 98.0007 9.62222 99.0069 10.8906C99.9683 12.2151 99.9683 12.2151 100.125 12.1927C100.326 12.159 100.326 12.159 100.55 11.1488C100.606 10.7784 100.751 9.97019 100.874 9.38651C100.997 8.7467 101.153 7.99464 101.198 7.62423C101.243 7.25381 101.411 6.50175 101.489 5.96297C101.634 5.46908 101.735 4.72825 101.835 4.34661C101.891 3.97619 102.048 3.26904 102.137 2.7976C102.227 2.31494 102.327 1.8884 102.316 1.83227C102.327 1.51798 102.126 1.59655 105.793 1.09144C107.626 0.833274 109.158 0.63123 109.203 0.620005C109.259 0.60878 109.315 0.709803 109.382 0.754701C109.505 0.889398 109.527 1.04654 111.327 14.1458C112.467 22.4296 113.149 27.3909 113.104 27.5032C113.026 27.7165 113.138 27.7052 109.516 28.2104L106.151 28.6706L105.916 28.491L104.261 16.4244C103.099 7.98342 102.596 4.30171 102.551 4.31294C102.506 4.32416 102.473 4.48131 102.227 5.71602C102.104 6.31093 101.936 7.00687 101.869 7.27626C101.858 7.53443 101.768 8.01709 101.701 8.28648C101.019 11.6651 100.527 14.0784 100.136 16.1662C99.9907 16.9632 99.823 17.6703 99.823 17.6703C99.7895 17.8275 99.4317 19.702 99.3199 20.3979C99.2528 20.6673 99.1522 21.0939 99.0516 21.4755C98.8168 22.8113 98.5709 24.046 98.4926 24.2144C98.4591 24.3266 98.4144 24.3827 98.3696 24.4388C98.2243 24.5062 95.776 24.8542 95.6195 24.8205C95.5636 24.7756 95.4294 24.5399 95.4629 24.4725C95.4518 24.4164 95.4406 23.9001 95.3511 23.2939C95.3288 21.6327 94.971 18.9724 94.535 17.3561C94.5015 17.0979 94.4456 16.7387 94.4121 16.4917C94.2891 15.9305 94.1773 15.5376 94.1102 15.4366C94.099 15.3805 94.0208 15.1336 93.9872 14.9315C93.8978 14.6846 93.7972 14.3366 93.7189 14.1346C93.6407 13.9325 93.5848 13.5284 93.4953 13.2254C93.4059 12.9223 93.3053 12.5743 93.227 12.4284C93.2047 12.2713 93.0593 11.9345 92.9587 11.6314C92.8357 11.1263 92.4221 9.98142 92.2097 9.54365C92.1202 9.24058 91.8743 8.60078 91.7401 8.35383C91.5836 7.96097 91.2706 7.16401 91.2035 7.11911C91.1923 7.06299 91.0693 6.87217 90.9911 6.68135C90.4992 5.76092 89.8619 4.86295 89.3253 4.41396C88.5651 3.78537 88.0508 4.22314 87.8272 5.615C87.5477 7.37728 87.6707 9.75692 88.2297 11.9682C89.3253 16.5591 90.7339 20.3755 92.5115 23.8888C93.7189 26.2236 95.1611 28.0532 96.4915 29.0747C96.7262 29.2542 96.9051 29.4338 96.9163 29.49C96.9834 29.5798 96.9051 29.7481 96.8157 29.8716C96.6703 29.939 92.7463 30.489 90.9575 30.6798C90.1302 30.7359 90.0855 30.7471 90.0296 30.7022C89.9626 30.6124 89.7501 29.0747 88.5092 19.9714C87.7043 14.1346 87.0447 9.33038 87.0335 9.22936C86.8881 8.5222 86.5192 5.86195 86.3962 4.98642C86.318 4.05477 86.2956 3.90885 86.3851 3.78537L86.4186 3.81905Z" fill="#1A3A39"/>
<path d="M127.95 27.7164C126.106 27.5368 125.491 27.4694 125.446 27.4694C125.401 27.4133 125.58 25.5612 126.251 18.8825C126.989 11.5303 127.112 10.3069 127.212 9.79052C127.525 8.20783 128.129 6.77107 128.912 5.65982C129.023 5.57003 129.146 5.4241 129.158 5.32308C129.638 4.6945 130.935 3.52713 131.818 3.04446C133.629 1.97812 135.642 1.50668 138.124 1.45056C138.694 1.40566 139.264 1.46178 143.143 1.85465C146.62 2.20261 147.492 2.29241 147.537 2.34853C147.626 2.46078 144.966 29.2317 144.887 29.4338C144.831 29.4338 144.731 29.4674 144.731 29.4674C144.675 29.4674 143.143 29.3103 141.355 29.1307C138.18 28.8164 138.079 28.8052 138.034 28.7491C137.989 28.6368 138.045 28.1317 138.28 25.7072C138.526 23.2377 138.571 22.7775 138.593 22.5755C138.47 21.7336 137.867 21.0489 137.117 20.8132C136.916 20.7458 136.76 20.7234 136.19 20.7683C135.563 20.8132 135.407 20.7907 134.546 20.7009C133.73 20.6224 133.518 20.5999 133.171 20.5101C132.467 20.2856 132.031 20.0275 131.248 19.5897C130.957 19.4101 130.432 18.9836 130.052 18.5907C129.012 17.659 128.163 16.3233 127.671 14.9763C127.592 14.7069 127.458 14.5386 127.447 14.5947C127.391 14.5947 127.537 15.7508 127.626 16.3794C127.872 17.5917 128.23 19.1407 128.632 20.3193C128.99 21.4418 129.817 23.451 130.298 24.3826C130.51 24.8204 131.382 26.5153 131.516 26.6276C131.997 27.5031 132.131 27.7276 132.109 27.9297C132.087 28.1878 132.031 28.1766 131.159 28.098C130.7 28.0531 129.213 27.9072 127.827 27.7613L127.95 27.7164ZM130.253 5.12104C127.995 7.59047 127.235 11.0477 128.241 14.359C129.012 17.0305 131.069 19.2081 133.473 19.9713C134.278 20.2071 135.094 20.2856 135.877 20.2183C136.078 20.2407 136.447 20.1734 136.771 20.0948C137.196 20.0387 137.296 19.9938 137.52 19.8591C138.191 19.4101 138.671 18.6244 139.119 17.3223L139.286 16.66L139.555 13.9324C139.957 10.4416 140.091 8.07314 140.047 7.38843C139.946 6.86087 139.767 6.06391 139.555 5.57003C139.141 4.53735 138.403 3.63937 137.576 3.13426C137.028 2.87609 136.782 2.84242 136.067 2.77507C133.864 2.55058 131.774 3.38121 130.153 5.08736L130.253 5.12104Z" fill="#1A3A39"/>
<path d="M162.183 5.82766C162.217 5.72663 162.407 5.62561 162.563 5.61439C162.664 5.64806 164.14 6.0746 165.929 6.57971C168.791 7.41034 169.193 7.52259 169.271 7.60116C169.361 7.67973 169.394 7.74708 169.428 7.80321C169.473 7.81443 170.501 20.5208 170.579 22.1035C170.658 23.1474 170.848 23.9556 171.026 24.2699C171.183 24.4719 171.474 24.5617 171.72 24.4719C171.91 24.3709 172.312 23.8882 172.525 23.5178C173.631 21.6882 174.57 17.8718 174.917 13.6737C174.984 12.6747 175.074 11.0808 175.085 10.2839C175.096 9.48691 175.096 9.48691 175.286 9.37467L175.465 9.31854L178.673 10.2502C181.446 11.0471 181.983 11.2043 182.083 11.238C182.206 11.3839 182.273 11.5074 182.228 11.6533C182.217 11.6982 181.602 12.5513 180.831 13.5615C180.06 14.5717 177.41 18.2197 174.883 21.6208C172.368 24.977 169.64 28.7036 168.813 29.7587C168.008 30.87 167.237 31.8802 167.158 31.97C166.823 32.4078 165.325 34.4507 165.247 34.5293C165.18 34.5629 164.956 34.6078 164.811 34.5629C164.665 34.518 164.498 34.3609 164.475 34.2486C164.453 34.1364 164.263 31.8241 164.173 30.9935C163.86 27.0311 163.469 22.4066 163.436 21.5984C163.38 21.0484 163.301 20.5882 163.301 20.5882C163.301 20.5882 162.608 21.5198 161.792 22.676C160.931 23.8209 159.556 25.628 158.751 26.7393C157.902 27.8393 157.141 28.8046 157.052 28.9393C156.717 29.3771 155.218 31.42 155.151 31.4537C155.006 31.5771 154.637 31.5771 154.469 31.42C154.436 31.3527 154.369 31.2292 154.38 31.1731C154.346 31.1057 154.156 28.5802 154.101 28.0301C154.089 27.8618 153.989 26.5485 153.866 25.1117C153.787 23.6974 153.452 19.084 153.128 14.9646C152.804 10.8451 152.412 6.43379 152.278 5.2103C152.211 3.95313 152.088 2.89801 152.099 2.85311C152.133 2.75209 152.368 2.66229 152.513 2.70719C152.558 2.71841 154.089 3.1674 155.878 3.67251C159.187 4.62661 159.243 4.63784 159.299 4.81743C159.333 4.88478 160.372 17.535 160.484 19.1851C160.529 20.1616 160.719 20.9698 160.942 21.3065C161.099 21.5086 161.345 21.5872 161.58 21.4974C161.949 21.3402 162.407 20.6667 162.798 19.8585C163.122 19.0953 163.178 19.4881 162.776 14.5268C162.575 12.0461 162.34 9.13895 162.239 7.9828C162.139 6.82666 162.083 5.89501 162.105 5.85011L162.183 5.82766Z" fill="#1A3A39"/>
<path d="M176.258 38.9193C174.603 38.0775 174.055 37.8081 174.011 37.7856C173.988 37.7183 174.816 36.057 177.834 30.063C181.143 23.4741 181.702 22.3629 181.971 21.9251C182.82 20.5669 183.905 19.4332 185.045 18.6812C185.179 18.6363 185.347 18.5465 185.392 18.4567C186.062 18.0414 187.695 17.424 188.69 17.2893C190.758 16.9526 192.804 17.2332 195.151 18.075C195.699 18.2434 196.213 18.4904 199.702 20.2639C202.821 21.8465 203.603 22.2394 203.626 22.3068C203.67 22.4415 191.619 46.4736 191.473 46.6307C191.429 46.6083 191.317 46.6083 191.317 46.6083C191.272 46.5858 189.897 45.8899 188.287 45.0705C185.436 43.6337 185.347 43.5888 185.324 43.5102C185.324 43.398 185.559 42.9378 186.644 40.7714C187.75 38.5601 187.963 38.1448 188.052 37.954C188.242 37.1234 187.918 36.2703 187.303 35.7764C187.147 35.6417 187.001 35.5631 186.454 35.406C185.861 35.2152 185.716 35.1478 184.933 34.755C184.195 34.3845 184.016 34.2948 183.715 34.0815C183.144 33.6213 182.82 33.2284 182.25 32.5325C182.049 32.2519 181.702 31.6794 181.49 31.1631C180.853 29.9171 180.528 28.3681 180.562 26.9313C180.584 26.6507 180.517 26.4487 180.495 26.4936C180.45 26.4711 180.171 27.6048 180.025 28.2222C179.813 29.4457 179.601 31.0171 179.556 32.2631C179.489 33.4417 179.545 35.608 179.656 36.6519C179.701 37.1346 179.902 39.0316 179.992 39.1887C180.126 40.1765 180.171 40.4347 180.081 40.6255C179.969 40.8612 179.925 40.8275 179.142 40.4347C178.729 40.2214 177.398 39.5479 176.157 38.9193H176.258ZM186.476 18.6475C183.48 20.1404 181.546 23.0925 181.3 26.5497C181.065 29.3222 182.205 32.0947 184.173 33.6662C184.844 34.1713 185.57 34.5529 186.331 34.755C186.51 34.8448 186.878 34.9233 187.203 34.9682C187.616 35.058 187.728 35.058 187.985 35.0131C188.768 34.8335 189.506 34.2835 190.378 33.2172L190.769 32.6672L191.999 30.2202C193.62 27.1109 194.592 24.9446 194.805 24.2935C194.894 23.766 195.017 22.9578 194.995 22.419C194.973 21.3078 194.615 20.1965 194.011 19.4332C193.597 18.9955 193.374 18.872 192.725 18.5465C190.747 17.5475 188.5 17.5587 186.375 18.5689L186.476 18.6475Z" fill="#1A3A39"/>
<path d="M193.028 47.6288C192.994 47.4156 192.782 47.7074 200.898 36.4602C205.213 30.4775 208.746 25.5947 208.78 25.5498C208.97 25.3702 208.891 25.3141 211.776 27.4692C213.989 29.1417 214.414 29.4448 214.425 29.5234C214.47 29.557 213.989 30.2193 210.848 34.5745C208.858 37.3358 207.226 39.5919 207.226 39.5919C207.226 39.5919 207.226 39.5919 207.27 39.6256C207.315 39.6593 207.516 39.547 209.842 38.4358C210.557 38.0654 211.273 37.6837 211.418 37.6613C211.72 37.5041 212.134 37.2909 212.67 36.9766C212.849 36.9092 213.073 36.7633 213.218 36.7409C213.419 36.6398 214.794 35.9663 215.745 35.5174C215.879 35.4276 216.125 35.349 216.181 35.2592C216.281 35.2031 216.527 35.1245 216.762 34.9786C216.997 34.8327 217.645 34.5408 218.159 34.2714C218.685 34.0806 219.266 33.8 219.423 33.6653C219.602 33.5979 219.803 33.4969 219.915 33.5081L220.093 33.4408L222.296 35.0459C223.716 36.0786 224.498 36.6511 224.509 36.7184C224.476 36.7633 224.532 36.8643 224.509 36.9766C224.487 37.0888 224.487 37.0888 224.364 37.1898C224.263 37.246 224.185 37.2572 224.04 37.2011C223.604 37.0102 223.38 36.9766 223.078 36.9429C222.81 36.8756 222.106 36.8755 221.882 36.8419C220.965 36.8755 219.948 36.9653 219.087 37.1C218.081 37.2572 216.728 37.549 215.979 37.7062C215.879 37.7623 215.666 37.796 215.554 37.8521C213.52 38.2899 210.993 39.0644 208.444 39.9511C207.214 40.3328 206.969 40.4113 206.935 40.4562C206.901 40.5011 207.159 40.6807 207.65 41.0399C208.355 41.5563 208.478 41.6461 208.802 42.0052C209.26 42.6002 209.551 42.993 209.965 43.7451C210.814 45.3839 211.284 47.3819 211.273 49.6717C211.284 51.5911 210.881 53.9147 210.188 55.8341C209.819 56.777 209.45 57.6525 209.059 58.4607C208.824 58.8648 208.701 58.9658 208.455 58.8535C208.299 58.8086 207.427 58.1688 205.839 57.0127C203.257 55.1382 203.257 55.1382 203.29 54.9024C203.324 54.8575 203.682 54.3637 204.073 53.8136C204.498 53.23 204.856 52.7248 204.889 52.6799C204.889 52.6799 205.034 52.4667 205.191 52.2646C206.052 50.985 206.901 49.1105 207.382 47.7411C207.986 45.7543 208.098 43.9247 207.662 42.7798C207.483 42.3308 207.371 42.1287 207.036 41.8818C206.499 41.4889 205.906 41.5114 205.403 42.0277C205.269 42.1175 204.185 43.6328 201.893 46.8094L198.573 51.4116L198.215 51.4677L195.554 49.5258C194.101 48.4707 192.893 47.5839 192.849 47.5615L193.028 47.6288Z" fill="#1A3A39"/>
<path d="M208.735 59.4274C208.701 59.3937 208.701 59.3937 208.701 59.3151C208.701 59.2365 211.418 56.5651 218.26 49.8527C223.514 44.6893 227.885 40.3902 227.93 40.3566C228.008 40.2892 228.075 40.2892 228.109 40.3229C228.288 40.3566 242.028 54.4548 241.994 54.5671C242.028 54.6007 236.293 60.2355 236.147 60.3141C236.114 60.3478 236.002 60.3141 235.924 60.3141C235.778 60.2355 235.778 60.2355 235.745 60.1345C235.745 60.0559 235.745 59.9886 235.745 59.9886C235.857 59.8764 236.225 58.8661 236.304 58.3498C236.46 57.6202 236.538 57.1151 236.55 56.2395C236.572 54.1966 236.192 52.2548 235.376 50.167C234.806 48.6965 233.956 47.3047 232.872 45.9802L232.693 45.722L229.205 49.1567C225.929 52.367 225.75 52.5466 225.672 52.7711C225.146 53.8599 224.956 55.2854 225.236 56.161C225.336 56.5651 225.303 56.6773 225.158 56.812C224.979 56.9916 224.867 57.0253 224.464 56.913C223.704 56.6436 222.542 56.711 221.625 57.0253C220.853 57.2722 221.189 57.0253 217.444 60.707L214.023 64.0632L214.38 64.355C215.141 65.0622 216.225 65.803 217.41 66.4316C218.964 67.2847 221.144 67.9694 222.989 68.1714C223.637 68.25 224.956 68.2612 225.605 68.2051C226.153 68.1714 226.879 68.0367 227.427 67.8571C227.684 67.7449 227.897 67.6775 227.975 67.6775C228.154 67.7898 228.366 68.0816 228.221 68.2275C228.221 68.2275 226.969 69.451 225.504 70.899C222.899 73.4583 222.855 73.5032 222.754 73.5368C222.642 73.5032 222.609 73.4583 219.624 70.3939C217.969 68.699 214.839 65.4887 212.715 63.3111C210.591 61.1335 208.835 59.3263 208.791 59.2927L208.735 59.4274Z" fill="#1A3A39"/>
<path d="M237.614 86.0781C237.614 88.9268 226.918 91.2414 213.728 91.2414C211.302 91.2414 208.965 91.1635 206.772 91.0189C208.085 91.5085 208.786 92.0315 208.786 92.5767C208.786 95.2697 191.479 97.4507 170.143 97.4507C166.125 97.4507 162.251 97.3728 158.612 97.2281C156.831 102.425 141.649 106.475 123.184 106.475C104.898 106.475 89.8161 102.492 87.8127 97.3728C87.7014 97.3505 87.6012 97.3394 87.5011 97.3172C84.6963 97.3951 81.769 97.4396 78.7527 97.4396C57.4051 97.4396 40.1088 95.2585 40.1088 92.5656C40.1088 91.987 40.9102 91.4306 42.3905 90.9187C39.8083 91.119 37.0257 91.2303 34.1096 91.2303C20.8759 91.2303 10.1353 88.9157 10.1353 86.067C10.1353 83.2183 20.8759 80.9037 34.1096 80.9037C36.1465 80.9037 38.1165 80.9593 40.0086 81.0595C39.0848 80.6811 38.5951 80.2805 38.5951 79.8688C38.5951 77.966 49.1354 76.3191 64.5173 75.5179C70.906 73.7708 79.5319 72.6914 89.0259 72.6914C95.2143 72.6914 101.035 73.1476 106.111 73.9488C111.186 73.1476 117.007 72.6914 123.196 72.6914C130.786 72.6914 137.832 73.3813 143.608 74.5497C148.383 73.8598 153.781 73.4704 159.48 73.4704C166.726 73.4704 173.459 74.0935 179.08 75.1618C195.007 75.8962 206.182 77.6321 206.182 79.6463C206.182 80.2694 205.114 80.8703 203.155 81.4156C201.964 81.538 200.828 81.6938 199.76 81.8607C200.149 81.8941 200.528 81.9163 200.906 81.9497C201.752 81.7717 202.509 81.5936 203.155 81.4156C206.349 81.0706 209.944 80.8814 213.739 80.8814C226.929 80.926 237.614 83.2294 237.614 86.0781Z" fill="#1A3A39"/>
</svg>
