<svg width="444" height="183" viewBox="0 0 444 183" fill="none" xmlns="http://www.w3.org/2000/svg">
<path d="M13.8318 0C16.4921 0.253229 18.8383 0.464253 21.331 0.696379C20.2837 10.5301 19.2572 20.2161 18.2308 29.9232C18.3984 30.0076 18.566 30.092 18.7335 30.1764C19.2991 29.67 19.9066 29.1846 20.3884 28.636C25.9814 22.3474 32.1191 16.7131 39.346 12.366C49.1495 6.43623 59.8328 3.33418 71.2073 2.97544C85.4307 2.53229 99.3609 4.45261 112.663 9.79151C121.23 13.2312 128.206 18.7178 132.647 26.99C134.26 30.0076 135.265 33.3629 136.585 36.7182C136.878 36.4016 137.276 36.0007 137.632 35.5575C141.885 30.4086 146.137 25.2807 151.709 21.4611C160.675 15.2781 170.646 12.3871 181.434 12.4926C190.965 12.577 200.328 14.0542 209.42 17.114C225.109 22.4318 234.033 33.4684 235.918 49.8228C237.112 60.1629 237.301 70.6297 237.846 81.0332C238.537 94.3066 239.123 107.58 239.731 120.853C239.752 121.529 239.731 122.183 239.731 123.154C237.217 123.154 234.787 123.259 232.399 123.069C231.959 123.027 231.331 121.866 231.289 121.191C230.933 114.523 230.681 107.854 230.409 101.165C230.074 92.3863 229.613 83.5866 229.446 74.808C229.299 66.3459 225.298 60.8382 217.61 57.7573C210.341 54.8451 202.695 53.7689 194.987 53.0303C182.67 51.8697 170.352 51.1733 158.056 53.178C155.521 53.579 153.008 54.2543 150.578 55.0562C141.78 57.9683 137.108 64.2357 136.669 73.4363C136.103 84.8738 135.894 96.3325 135.495 107.77C135.349 112.391 135.118 117.034 135.014 121.655C134.972 122.921 134.469 123.322 133.275 123.301C131.097 123.259 128.939 123.238 126.76 123.322C125.357 123.386 125.085 122.795 125.126 121.487C125.818 104.394 126.446 87.3006 127.075 70.2077C127.41 61.2814 124.54 56.4911 116.454 52.7771C109.081 49.3796 101.141 48.1557 93.1813 47.2483C79.2093 45.6445 65.1953 44.716 51.1604 45.9188C45.6512 46.3831 40.121 47.396 34.7794 48.8098C23.6772 51.7431 17.749 59.4244 16.4293 70.7563C15.4448 79.2184 14.5859 87.7016 13.8109 96.1847C13.0148 104.879 12.3864 113.573 11.758 122.267C11.6742 123.555 11.1296 123.871 9.97744 123.871C7.40089 123.85 4.82433 123.787 2.24777 123.934C0.44628 124.04 -0.140253 123.512 0.0273281 121.655C0.88618 112.096 1.40987 102.494 2.49915 92.9561C4.78243 73.1831 7.29615 53.5157 9.68418 33.8271C10.941 23.3393 12.156 12.8514 13.4128 2.36347C13.4966 1.62488 13.6642 0.907403 13.8318 0Z" fill="black"/>
<path d="M309.591 125.644C290.152 125.77 275.258 120.03 263.716 106.609C254.981 96.4591 250.582 84.4729 249.451 71.2206C248.822 63.7504 249.22 56.3645 251.42 49.1686C255.714 35.1566 264.973 26.2092 279.259 23.487C294.949 20.5116 310.136 22.7273 323.898 31.2949C337.577 39.8203 344.993 52.8615 348.7 68.2452C350.858 77.1504 351.256 86.1189 349.643 95.214C347.046 109.859 338.541 119.06 324.611 123.47C319.08 125.222 313.383 125.918 309.591 125.644ZM307.329 89.6641C312.88 89.3687 318.431 89.2421 323.961 88.7567C329.177 88.2925 334.33 87.385 338.855 84.4307C342.081 82.3205 343.631 79.3239 343.401 75.42C343.107 70.4609 340.887 66.5992 336.865 63.7504C332.613 60.7538 327.774 59.15 322.788 58.0949C308.313 55.0351 293.629 54.0011 278.882 55.0351C274.085 55.3727 269.183 56.4489 264.659 58.0738C257.934 60.5006 255.609 66.3038 257.809 73.1831C258.898 76.5806 261.056 79.2606 264.093 80.9488C267.277 82.7003 270.629 84.3252 274.085 85.3803C284.915 88.6301 296.122 89.0732 307.329 89.6641Z" fill="black"/>
<path d="M411.501 125.559C392.355 125.601 377.964 116.675 367.574 101.144C358.483 87.5749 355.026 72.3179 357.414 56.1323C359.677 40.8753 370.36 31.7168 385.715 31.4214C408.82 30.9994 425.096 41.846 435.193 62.4841C440.262 72.8454 443.069 83.7765 443.048 95.3617C443.027 103.022 441.582 110.323 436.387 116.316C431.024 122.52 423.881 124.926 415.984 125.538C414.497 125.644 412.988 125.559 411.501 125.559ZM391.768 61.3868C388.375 61.3868 384.939 61.0281 381.609 61.4712C377.482 62.0199 373.293 62.7796 369.396 64.2145C364.872 65.8816 363.217 69.6167 363.908 74.4492C364.62 79.4505 367.218 83.2911 371.512 85.6968C374.612 87.4272 377.985 88.9676 381.42 89.8117C395.057 93.1248 408.925 93.7157 422.834 91.8798C425.787 91.4999 428.741 90.3393 431.464 89.0732C434.795 87.5116 436.156 84.515 435.842 80.801C435.465 76.2851 433.664 72.2968 429.893 69.8911C426.5 67.7386 422.75 65.9238 418.917 64.7632C410.119 62.0621 400.923 61.5767 391.768 61.3868Z" fill="black"/>
<path d="M350.272 155.567C350.816 153.435 351.319 151.452 351.884 149.257C350.209 149.806 349.664 150.903 349.329 152.296C348.491 155.672 348.449 155.651 345.056 155.841C344.532 155.862 343.694 156.158 343.568 156.516C342.898 158.5 342.395 160.568 341.809 162.784H344.867C344.825 163.185 344.825 163.459 344.762 163.712C344.197 166.118 343.443 168.524 343.107 170.95C342.688 174.158 344.155 176.163 347.36 176.5C350.251 176.817 353.204 176.564 356.137 176.5C356.43 176.5 356.912 176.142 356.975 175.888C357.603 173.525 358.148 171.14 358.734 168.756C356.367 168.756 354.231 168.819 352.094 168.735C350.628 168.671 349.161 168.503 347.737 168.186C346.291 167.87 345.935 166.688 346.312 165.401C346.669 164.219 346.271 162.51 348.554 162.552C352.115 162.636 355.655 162.425 359.216 162.256C359.74 162.235 360.578 161.813 360.703 161.391C361.29 159.513 361.667 157.593 362.17 155.546H350.272V155.567ZM293.797 156.875C292.687 156.833 291.912 157.213 291.178 158.057C286.57 163.248 281.919 168.397 277.29 173.588C276.934 173.989 276.787 174.58 276.557 175.087C276.326 174.918 276.117 174.728 275.887 174.559C275.321 169.473 274.755 164.388 274.19 159.302C274.19 159.26 274.19 159.218 274.169 159.175C274.148 158.943 274.127 158.732 274.085 158.563C274.085 158.521 274.064 158.458 274.064 158.416C274.064 158.395 274.064 158.373 274.043 158.352C274.022 158.226 274.001 158.12 273.959 158.015C273.959 157.973 273.938 157.951 273.918 157.909C273.918 157.888 273.897 157.867 273.897 157.846C273.897 157.825 273.897 157.825 273.876 157.804C273.876 157.783 273.855 157.783 273.855 157.761C273.855 157.74 273.834 157.719 273.834 157.698C273.834 157.677 273.813 157.656 273.813 157.656C273.792 157.635 273.771 157.593 273.771 157.572C273.771 157.55 273.75 157.55 273.75 157.529C273.729 157.508 273.708 157.487 273.687 157.466C273.666 157.466 273.666 157.445 273.645 157.445C273.624 157.424 273.603 157.403 273.561 157.403C273.561 157.403 273.54 157.403 273.54 157.382C273.478 157.361 273.415 157.339 273.352 157.318H273.331C273.331 157.318 273.331 157.318 273.31 157.318C273.289 157.318 273.268 157.318 273.268 157.318C273.247 157.318 273.226 157.318 273.205 157.318C273.059 157.318 272.891 157.339 272.682 157.361C272.64 157.361 272.619 157.382 272.577 157.382C272.514 157.403 272.451 157.403 272.388 157.424C272.367 157.424 272.346 157.424 272.346 157.424C272.242 157.445 272.137 157.466 272.032 157.508C271.865 157.55 271.697 157.593 271.509 157.635C271.509 157.656 271.488 157.677 271.488 157.698C271.488 157.719 271.467 157.74 271.467 157.761C271.446 157.783 271.446 157.804 271.425 157.846C271.425 157.867 271.404 157.888 271.404 157.909C271.404 157.909 271.404 157.909 271.404 157.93C271.404 157.951 271.404 157.973 271.404 157.973C272.305 165.021 273.205 172.09 274.19 179.117C274.232 179.497 274.965 180.046 275.384 180.067C277.185 180.109 279.008 180.067 280.788 179.856C281.521 179.771 282.401 179.328 282.883 178.758C286.716 174.242 290.466 169.642 294.216 165.063C296.394 162.425 298.552 159.766 300.856 156.938C298.363 156.896 296.08 156.938 293.797 156.875ZM333.325 155.968C327.501 154.849 322.076 155.799 317.279 159.45C316.357 160.167 315.457 160.927 314.158 161.982C314.786 159.893 315.268 158.268 315.771 156.643C314.346 156.094 314.221 157.044 313.969 157.846C311.916 164.367 309.864 170.887 307.832 177.408C307.727 177.745 307.706 178.125 307.643 178.463C309.068 178.885 309.738 178.4 310.094 177.091C310.785 174.601 311.623 172.132 312.377 169.642C313.027 167.469 314.409 165.991 316.546 165.316C321.699 163.712 326.999 163.565 332.278 164.409C334.498 164.767 335.064 165.886 334.477 168.059C333.66 171.098 332.801 174.137 331.963 177.176C332.11 177.366 332.236 177.556 332.382 177.724C332.99 177.345 333.974 177.07 334.142 176.564C335.503 171.963 336.865 167.363 337.912 162.678C338.687 158.943 337.075 156.706 333.325 155.968ZM304.962 158.099C303.684 162.256 302.281 166.35 300.919 170.486C300.018 173.251 299.117 176.036 298.217 178.843C299.704 179.265 300.521 178.969 300.919 177.429C301.464 175.255 302.281 173.124 302.993 170.993C304.522 166.287 306.03 161.56 307.559 156.833C306.135 156.305 305.402 156.685 304.962 158.099Z" fill="black"/>
<path d="M311.665 146.071C315.226 147.696 315.54 150.629 312.377 153.035C310.345 154.575 308.041 155.208 305.527 154.638C302.825 154.026 301.987 151.874 303.412 149.468C304.543 147.59 306.47 146.915 308.293 146.071C309.403 146.071 310.534 146.071 311.665 146.071Z" fill="black"/>
<path d="M415.042 157.339C413.638 156.369 412.507 155.25 411.166 154.702C402.075 151.009 392.711 157.065 392.334 166.814C392.188 170.74 394.052 173.187 397.927 173.842C403.353 174.749 408.38 174.01 412.653 169.537C411.669 173.293 409.239 175.213 406.055 175.699C402.703 176.226 399.226 176.163 395.812 176.078C394.806 176.057 393.822 175.023 392.837 174.475C392.418 174.243 391.957 173.799 391.559 173.82C391.266 173.842 390.868 174.475 390.805 174.876C390.135 178.252 391.894 181.248 395.183 182.304C398.535 183.38 401.907 182.979 405.217 182.135C409.449 181.059 412.465 178.421 413.366 174.158C414.769 167.659 415.754 161.075 416.99 154.026C414.644 154.66 415.733 156.706 415.042 157.339ZM410.58 166.772C406.013 168.081 401.279 168.904 396.65 167.426C395.749 167.131 394.576 166.055 394.492 165.253C394.408 164.324 395.204 163.037 396 162.362C396.838 161.644 398.095 161.138 399.205 161.054C402.222 160.8 405.259 160.547 408.296 160.61C410.119 160.653 412.989 160.948 413.345 163.206C413.596 164.641 412.612 166.181 410.58 166.772Z" fill="black"/>
<path d="M385.233 155.187C380.645 153.879 376.058 154.026 371.68 156.031C368.726 157.382 366.841 159.724 366.003 163.565C367.26 163.037 368.035 162.573 368.894 162.362C374.382 161.011 379.933 160.969 385.505 161.729C385.987 161.792 386.406 162.341 386.867 162.657C386.176 163.037 385.631 163.1 385.086 163.121C380.31 163.375 375.513 163.501 370.737 163.923C369.061 164.071 367.323 164.725 365.815 165.527C363.406 166.814 361.918 170.423 362.505 172.786C363.029 174.854 365.019 176.226 368.286 176.31C374.927 176.5 380.981 175.108 385.191 169.326C385.212 169.283 385.359 169.326 385.484 169.326C385.107 171.225 384.751 173.082 384.374 174.939C384.521 175.086 384.667 175.213 384.814 175.361C385.296 175.044 386.113 174.791 386.196 174.39C387.16 169.705 388.166 165 388.836 160.252C389.192 157.783 387.705 155.904 385.233 155.187ZM364.453 169.494C365.06 169.115 365.563 168.545 366.108 168.503C372.581 168.017 379.053 167.616 385.945 167.173C383.075 170.528 367.574 172.09 364.453 169.494Z" fill="black"/>
<path d="M440.179 164.05C440.284 162.953 440.451 161.961 440.451 160.948C440.493 156.58 438.273 153.963 433.957 153.625C431.967 153.478 429.852 153.604 427.925 154.09C421.871 155.63 418.289 161.117 419.106 167.321C419.441 169.874 420.781 171.71 423.128 172.786C427.547 174.812 434.46 173.441 437.77 169.917C438.964 168.629 439.844 167.194 439.99 164.936C438.713 165.506 437.77 166.139 436.743 166.35C432.344 167.279 427.904 167.511 423.463 166.603C422.499 166.414 421.619 165.78 420.719 165.358C420.802 165.168 420.886 164.957 420.97 164.768C427.317 164.514 433.664 164.282 440.179 164.05ZM433.099 160.041C435.193 160.146 437.435 160.167 439.131 162.552C432.889 162.742 427.087 162.932 421.179 163.122C422.29 160.885 426.835 159.703 433.099 160.041Z" fill="black"/>
<path d="M351.884 149.257C351.319 151.452 350.816 153.435 350.271 155.567C354.293 155.567 358.169 155.567 362.17 155.567C361.688 157.614 361.29 159.534 360.703 161.412C360.578 161.834 359.74 162.256 359.216 162.277C355.655 162.446 352.115 162.657 348.554 162.573C346.27 162.51 346.668 164.219 346.312 165.422C345.935 166.709 346.27 167.891 347.737 168.207C349.161 168.524 350.628 168.693 352.094 168.756C354.231 168.84 356.367 168.777 358.734 168.777C358.169 171.161 357.603 173.546 356.975 175.91C356.912 176.184 356.43 176.522 356.137 176.522C353.204 176.585 350.25 176.817 347.36 176.522C344.155 176.184 342.688 174.158 343.107 170.972C343.422 168.524 344.197 166.139 344.762 163.733C344.825 163.48 344.825 163.185 344.867 162.805C343.903 162.805 343.003 162.805 341.809 162.805C342.416 160.589 342.898 158.542 343.568 156.538C343.694 156.179 344.532 155.883 345.055 155.862C348.47 155.672 348.512 155.715 349.329 152.317C349.664 150.903 350.209 149.806 351.884 149.257Z" fill="black"/>
<path d="M300.898 156.896C298.594 159.724 296.436 162.383 294.258 165.021C290.487 169.6 286.737 174.2 282.925 178.716C282.443 179.286 281.563 179.708 280.83 179.814C279.05 180.025 277.227 180.067 275.426 180.025C275.007 180.025 274.295 179.455 274.232 179.075C273.247 172.027 272.367 164.979 271.446 157.93C271.425 157.825 271.509 157.719 271.55 157.614C273.834 157.002 273.938 157.065 274.19 159.281C274.755 164.367 275.321 169.452 275.887 174.538C276.117 174.707 276.326 174.897 276.557 175.065C276.808 174.559 276.934 173.968 277.29 173.567C281.899 168.376 286.57 163.248 291.178 158.036C291.912 157.192 292.687 156.833 293.797 156.854C296.08 156.939 298.363 156.896 300.898 156.896Z" fill="black"/>
<path d="M331.942 177.197C332.78 174.158 333.639 171.119 334.456 168.081C335.042 165.886 334.498 164.789 332.277 164.43C326.978 163.586 321.699 163.734 316.546 165.337C314.409 165.991 313.027 167.49 312.377 169.663C311.623 172.153 310.785 174.601 310.094 177.112C309.738 178.421 309.067 178.906 307.643 178.484C307.706 178.146 307.727 177.788 307.832 177.429C309.864 170.908 311.916 164.388 313.969 157.867C314.221 157.065 314.346 156.116 315.771 156.664C315.289 158.31 314.786 159.935 314.158 162.003C315.477 160.948 316.357 160.167 317.279 159.471C322.076 155.82 327.501 154.849 333.325 155.989C337.095 156.728 338.708 158.964 337.87 162.721C336.823 167.405 335.461 172.006 334.1 176.606C333.953 177.112 332.948 177.387 332.34 177.767C332.215 177.577 332.068 177.387 331.942 177.197Z" fill="black"/>
<path d="M307.58 156.812C306.051 161.539 304.522 166.266 303.014 170.972C302.323 173.124 301.506 175.234 300.94 177.408C300.542 178.948 299.725 179.244 298.238 178.822C299.139 176.015 300.018 173.251 300.94 170.465C302.281 166.329 303.705 162.235 304.983 158.078C305.402 156.685 306.135 156.305 307.58 156.812Z" fill="black"/>
</svg>
