<svg width="271" height="131" viewBox="0 0 271 131" fill="none" xmlns="http://www.w3.org/2000/svg">
<path d="M32.6959 123H35.0319L41.6559 107.128H38.8399L33.0159 120.696L27.6399 107.128H26.1359L32.6959 123ZM45.2696 103.928C46.3576 103.928 47.2536 103.288 47.2536 102.2C47.2536 101.112 46.3576 100.44 45.2696 100.44C44.1496 100.44 43.2856 101.112 43.2856 102.2C43.2856 103.288 44.1496 103.928 45.2696 103.928ZM44.5976 123H45.9096V107.128H44.5976V123ZM50.8619 123H52.1739V115.448C52.1739 112.792 53.0699 109.24 58.1259 109.24C62.2219 109.24 63.0539 110.968 63.0539 114.552V123H64.3659V113.592C64.3659 109.592 62.7979 106.68 58.9259 106.68C54.9899 106.68 52.9739 109.144 52.1739 111.192H52.0779V107.128H50.8619V123ZM75.8959 123.096H77.1119V120.792C72.3119 120.92 71.4479 120.024 71.3839 117.784V109.688H77.5599V107.128H71.3839V101.912L70.1999 102.968V107.128H67.1919V109.688H70.0719V117.72C70.0719 121.464 71.0319 123.096 75.8959 123.096ZM85.9461 123.416C88.8581 123.416 91.1621 122.008 92.1221 120.152L92.0901 123H93.4661V113.336C93.4661 108.824 91.1301 106.616 87.2901 106.616C84.2181 106.616 81.0501 108.696 81.0501 111.64H82.3301C82.3301 110.328 83.9621 109.176 87.0661 109.176C90.3301 109.176 92.1541 109.624 92.2501 113.368H87.8981C83.8661 113.368 80.3141 114.616 80.3141 118.456C80.3141 121.464 82.8741 123.416 85.9461 123.416ZM85.8821 120.856C83.0661 120.856 81.6261 119.992 81.6261 118.392C81.6261 116.728 83.6101 115.8 88.6021 115.8L92.1861 115.832C91.9621 119.096 88.8261 120.856 85.8821 120.856ZM105.094 129.528C111.11 129.528 112.422 125.784 112.422 120.76V107.128H111.11V110.84C110.438 109.208 109.03 106.648 104.71 106.648C100.198 106.648 98.2776 110.264 98.2776 114.904C98.2776 119.416 100.198 122.84 104.71 122.84C109.03 122.84 110.438 120.44 111.11 118.808C111.046 123.896 110.182 126.968 105.094 126.968C102.438 126.968 99.8136 126.168 99.8136 124.152H98.5016C98.5016 127.768 101.062 129.528 105.094 129.528ZM105.382 120.312C100.998 120.312 99.5896 118.52 99.5896 114.904C99.5896 111.128 100.998 109.208 105.382 109.208C109.51 109.208 111.046 111.224 111.046 114.968C111.046 118.648 109.51 120.312 105.382 120.312ZM124.069 123.384C128.037 123.384 130.693 120.76 130.693 118.008H129.445C129.445 119.928 127.397 120.76 124.069 120.824C119.525 120.696 117.829 118.808 117.829 116.248H130.789V114.712C130.789 109.144 127.749 106.744 124.069 106.744C119.493 106.744 116.581 110.36 116.581 114.968C116.581 119.608 118.885 123.384 124.069 123.384ZM117.893 113.848C117.893 111.64 119.205 109.304 123.941 109.304C128.613 109.304 129.573 112.056 129.573 113.848H117.893ZM148.862 123.384C152.126 123.384 154.654 122.36 156.414 120.6L159.39 123.352L159.614 121.624L157.342 119.48C158.686 117.624 159.39 115.128 159.518 112.216L158.558 112.056C158.494 114.84 157.63 116.92 156.126 118.328L149.214 111.704C152.606 110.424 156.094 109.112 156.094 105.688C156.094 102.424 153.406 100.216 149.886 100.216C145.758 100.216 143.678 102.744 143.678 105.496C143.678 106.904 144.574 108.92 146.526 110.936C143.902 112.12 141.662 113.784 141.662 117.016C141.662 120.92 144.606 123.384 148.862 123.384ZM147.838 110.424C146.238 108.76 144.99 107.352 144.99 105.528C144.99 103.96 146.11 102.776 149.982 102.776C153.566 102.776 154.782 104.184 154.782 106.008C154.782 108.344 151.23 109.112 147.838 110.424ZM148.83 120.824C144.958 120.824 142.942 119.608 142.942 116.984C142.942 114.52 145.214 113.272 147.838 112.216L154.974 119.192C153.406 120.28 151.326 120.824 148.83 120.824ZM178.323 123.096H179.539V120.792C174.739 120.92 173.875 120.024 173.811 117.784V109.688H179.987V107.128H173.811V101.912L172.627 102.968V107.128H169.619V109.688H172.499V117.72C172.499 121.464 173.459 123.096 178.323 123.096ZM184.336 123H185.648V115.448C185.648 112.792 186.544 109.24 191.6 109.24C195.696 109.24 196.528 110.968 196.528 114.552V123H197.84V113.592C197.84 109.592 196.272 106.68 192.4 106.68C188.464 106.68 186.448 109.144 185.648 111.192H185.552V100.6H184.336V123ZM202.874 123H204.186V115.96C204.186 113.528 204.634 109.56 209.498 109.56C210.746 109.56 212.538 109.944 213.274 110.52V107.832C212.474 107.32 211.482 107 210.202 107C206.458 107 204.922 109.688 204.154 111.512V107.128H202.874V123ZM216.36 103.928C217.448 103.928 218.344 103.288 218.344 102.2C218.344 101.112 217.448 100.44 216.36 100.44C215.24 100.44 214.376 101.112 214.376 102.2C214.376 103.288 215.24 103.928 216.36 103.928ZM215.688 123H217V107.128H215.688V123ZM223.388 123H224.7V109.688H231.356V107.128H224.7C224.764 104.408 224.892 103.352 227.388 103.352C228.604 103.352 229.82 103.672 231.004 104.408L232.252 101.944C231.164 101.144 229.852 100.6 228.124 100.6C224.06 100.6 223.484 103.64 223.388 107.128H220.412V109.688H223.388V123ZM242.267 123.096H243.483V120.792C238.683 120.92 237.819 120.024 237.755 117.784V109.688H243.931V107.128H237.755V101.912L236.571 102.968V107.128H233.563V109.688H236.443V117.72C236.443 121.464 237.403 123.096 242.267 123.096Z" fill="black"/>
<path d="M32.6959 123L32.2338 123.191L32.3615 123.5H32.6959V123ZM35.0319 123V123.5H35.365L35.4933 123.193L35.0319 123ZM41.6559 107.128L42.1173 107.321L42.4063 106.628H41.6559V107.128ZM38.8399 107.128V106.628H38.5104L38.3804 106.931L38.8399 107.128ZM33.0159 120.696L32.551 120.88L32.9974 122.007L33.4753 120.893L33.0159 120.696ZM27.6399 107.128L28.1047 106.944L27.9796 106.628H27.6399V107.128ZM26.1359 107.128V106.628H25.3882L25.6738 107.319L26.1359 107.128ZM32.6959 123.5H35.0319V122.5H32.6959V123.5ZM35.4933 123.193L42.1173 107.321L41.1944 106.935L34.5704 122.807L35.4933 123.193ZM41.6559 106.628H38.8399V107.628H41.6559V106.628ZM38.3804 106.931L32.5564 120.499L33.4753 120.893L39.2993 107.325L38.3804 106.931ZM33.4807 120.512L28.1047 106.944L27.175 107.312L32.551 120.88L33.4807 120.512ZM27.6399 106.628H26.1359V107.628H27.6399V106.628ZM25.6738 107.319L32.2338 123.191L33.158 122.809L26.598 106.937L25.6738 107.319ZM44.5976 123H44.0976V123.5H44.5976V123ZM45.9096 123V123.5H46.4096V123H45.9096ZM45.9096 107.128H46.4096V106.628H45.9096V107.128ZM44.5976 107.128V106.628H44.0976V107.128H44.5976ZM45.2696 104.428C45.9074 104.428 46.522 104.241 46.9872 103.858C47.4619 103.468 47.7536 102.895 47.7536 102.2H46.7536C46.7536 102.593 46.5974 102.884 46.3521 103.086C46.0972 103.295 45.7199 103.428 45.2696 103.428V104.428ZM47.7536 102.2C47.7536 100.76 46.5512 99.94 45.2696 99.94V100.94C46.164 100.94 46.7536 101.464 46.7536 102.2H47.7536ZM45.2696 99.94C44.6126 99.94 43.9949 100.137 43.5329 100.532C43.0634 100.933 42.7856 101.513 42.7856 102.2H43.7856C43.7856 101.799 43.9399 101.499 44.1823 101.292C44.4324 101.079 44.8067 100.94 45.2696 100.94V99.94ZM42.7856 102.2C42.7856 102.889 43.0646 103.463 43.538 103.856C44.0017 104.242 44.6185 104.428 45.2696 104.428V103.428C44.8008 103.428 44.4256 103.294 44.1773 103.088C43.9386 102.889 43.7856 102.599 43.7856 102.2H42.7856ZM44.5976 123.5H45.9096V122.5H44.5976V123.5ZM46.4096 123V107.128H45.4096V123H46.4096ZM45.9096 106.628H44.5976V107.628H45.9096V106.628ZM44.0976 107.128V123H45.0976V107.128H44.0976ZM50.8619 123H50.3619V123.5H50.8619V123ZM52.1739 123V123.5H52.6739V123H52.1739ZM63.0539 123H62.5539V123.5H63.0539V123ZM64.3659 123V123.5H64.8659V123H64.3659ZM52.1739 111.192V111.692H52.5154L52.6396 111.374L52.1739 111.192ZM52.0779 111.192H51.5779V111.692H52.0779V111.192ZM52.0779 107.128H52.5779V106.628H52.0779V107.128ZM50.8619 107.128V106.628H50.3619V107.128H50.8619ZM50.8619 123.5H52.1739V122.5H50.8619V123.5ZM52.6739 123V115.448H51.6739V123H52.6739ZM52.6739 115.448C52.6739 114.161 52.894 112.731 53.6632 111.635C54.4093 110.572 55.7302 109.74 58.1259 109.74V108.74C55.4655 108.74 53.8105 109.684 52.8446 111.061C51.9018 112.405 51.6739 114.079 51.6739 115.448H52.6739ZM58.1259 109.74C60.1241 109.74 61.163 110.165 61.7389 110.869C62.3375 111.6 62.5539 112.764 62.5539 114.552H63.5539C63.5539 112.756 63.3542 111.264 62.5129 110.235C61.6488 109.179 60.2236 108.74 58.1259 108.74V109.74ZM62.5539 114.552V123H63.5539V114.552H62.5539ZM63.0539 123.5H64.3659V122.5H63.0539V123.5ZM64.8659 123V113.592H63.8659V123H64.8659ZM64.8659 113.592C64.8659 111.539 64.4655 109.692 63.5049 108.346C62.5249 106.972 61.0051 106.18 58.9259 106.18V107.18C60.7186 107.18 61.9188 107.844 62.6908 108.926C63.4822 110.036 63.8659 111.645 63.8659 113.592H64.8659ZM58.9259 106.18C54.7283 106.18 52.5605 108.828 51.7081 111.01L52.6396 111.374C53.3872 109.46 55.2514 107.18 58.9259 107.18V106.18ZM52.1739 110.692H52.0779V111.692H52.1739V110.692ZM52.5779 111.192V107.128H51.5779V111.192H52.5779ZM52.0779 106.628H50.8619V107.628H52.0779V106.628ZM50.3619 107.128V123H51.3619V107.128H50.3619ZM77.1119 123.096V123.596H77.6119V123.096H77.1119ZM77.1119 120.792H77.6119V120.278L77.0985 120.292L77.1119 120.792ZM71.3839 117.784H70.8839V117.791L70.8841 117.798L71.3839 117.784ZM71.3839 109.688V109.188H70.8839V109.688H71.3839ZM77.5599 109.688V110.188H78.0599V109.688H77.5599ZM77.5599 107.128H78.0599V106.628H77.5599V107.128ZM71.3839 107.128H70.8839V107.628H71.3839V107.128ZM71.3839 101.912H71.8839V100.796L71.0511 101.539L71.3839 101.912ZM70.1999 102.968L69.8671 102.595L69.6999 102.744V102.968H70.1999ZM70.1999 107.128V107.628H70.6999V107.128H70.1999ZM67.1919 107.128V106.628H66.6919V107.128H67.1919ZM67.1919 109.688H66.6919V110.188H67.1919V109.688ZM70.0719 109.688H70.5719V109.188H70.0719V109.688ZM75.8959 123.596H77.1119V122.596H75.8959V123.596ZM77.6119 123.096V120.792H76.6119V123.096H77.6119ZM77.0985 120.292C74.691 120.356 73.4126 120.152 72.7267 119.746C72.1293 119.392 71.9141 118.836 71.8837 117.77L70.8841 117.798C70.9176 118.972 71.1664 119.984 72.2171 120.606C73.1792 121.176 74.7327 121.356 77.1252 121.292L77.0985 120.292ZM71.8839 117.784V109.688H70.8839V117.784H71.8839ZM71.3839 110.188H77.5599V109.188H71.3839V110.188ZM78.0599 109.688V107.128H77.0599V109.688H78.0599ZM77.5599 106.628H71.3839V107.628H77.5599V106.628ZM71.8839 107.128V101.912H70.8839V107.128H71.8839ZM71.0511 101.539L69.8671 102.595L70.5327 103.341L71.7167 102.285L71.0511 101.539ZM69.6999 102.968V107.128H70.6999V102.968H69.6999ZM70.1999 106.628H67.1919V107.628H70.1999V106.628ZM66.6919 107.128V109.688H67.6919V107.128H66.6919ZM67.1919 110.188H70.0719V109.188H67.1919V110.188ZM69.5719 109.688V117.72H70.5719V109.688H69.5719ZM69.5719 117.72C69.5719 119.599 69.803 121.129 70.8006 122.16C71.7995 123.192 73.4406 123.596 75.8959 123.596V122.596C73.4872 122.596 72.2163 122.184 71.5191 121.464C70.8207 120.743 70.5719 119.585 70.5719 117.72H69.5719ZM92.1221 120.152L92.6221 120.158L91.678 119.922L92.1221 120.152ZM92.0901 123L91.5902 122.994L91.5845 123.5H92.0901V123ZM93.4661 123V123.5H93.9661V123H93.4661ZM81.0501 111.64H80.5501V112.14H81.0501V111.64ZM82.3301 111.64V112.14H82.8301V111.64H82.3301ZM92.2501 113.368V113.868H92.7631L92.75 113.355L92.2501 113.368ZM88.6021 115.8L88.6066 115.3H88.6021V115.8ZM92.1861 115.832L92.685 115.866L92.7213 115.337L92.1906 115.332L92.1861 115.832ZM85.9461 123.916C89.0102 123.916 91.5054 122.433 92.5662 120.382L91.678 119.922C90.8188 121.583 88.7061 122.916 85.9461 122.916V123.916ZM91.6222 120.146L91.5902 122.994L92.5901 123.006L92.6221 120.158L91.6222 120.146ZM92.0901 123.5H93.4661V122.5H92.0901V123.5ZM93.9661 123V113.336H92.9661V123H93.9661ZM93.9661 113.336C93.9661 110.998 93.3604 109.177 92.18 107.939C90.9963 106.697 89.3052 106.116 87.2901 106.116V107.116C89.1151 107.116 90.512 107.639 91.4562 108.629C92.4038 109.623 92.9661 111.162 92.9661 113.336H93.9661ZM87.2901 106.116C85.6483 106.116 83.9819 106.67 82.7168 107.625C81.4491 108.582 80.5501 109.974 80.5501 111.64H81.5501C81.5501 110.362 82.2351 109.242 83.3194 108.423C84.4064 107.602 85.86 107.116 87.2901 107.116V106.116ZM81.0501 112.14H82.3301V111.14H81.0501V112.14ZM82.8301 111.64C82.8301 111.219 83.0872 110.745 83.781 110.351C84.4778 109.955 85.5681 109.676 87.0661 109.676V108.676C85.4601 108.676 84.1825 108.973 83.2872 109.481C82.3891 109.991 81.8301 110.749 81.8301 111.64H82.8301ZM87.0661 109.676C88.7143 109.676 89.8364 109.799 90.5701 110.285C91.247 110.733 91.7041 111.578 91.7503 113.381L92.75 113.355C92.7002 111.414 92.1973 110.163 91.1222 109.451C90.1038 108.777 88.682 108.676 87.0661 108.676V109.676ZM92.2501 112.868H87.8981V113.868H92.2501V112.868ZM87.8981 112.868C85.8453 112.868 83.8481 113.183 82.3469 114.037C80.8093 114.912 79.8141 116.344 79.8141 118.456H80.8141C80.8141 116.728 81.595 115.616 82.8414 114.907C84.1241 114.177 85.919 113.868 87.8981 113.868V112.868ZM79.8141 118.456C79.8141 121.816 82.681 123.916 85.9461 123.916V122.916C83.0673 122.916 80.8141 121.112 80.8141 118.456H79.8141ZM85.8821 120.356C84.5105 120.356 83.5507 120.143 82.9504 119.792C82.3863 119.463 82.1261 119.008 82.1261 118.392H81.1261C81.1261 119.376 81.586 120.153 82.4459 120.656C83.2696 121.137 84.4377 121.356 85.8821 121.356V120.356ZM82.1261 118.392C82.1261 118.084 82.2145 117.828 82.4003 117.603C82.5934 117.368 82.9153 117.138 83.4249 116.937C84.4546 116.533 86.121 116.3 88.6021 116.3V115.3C86.0912 115.3 84.2697 115.531 83.0593 116.007C82.4489 116.246 81.9628 116.56 81.6279 116.967C81.2857 117.384 81.1261 117.868 81.1261 118.392H82.1261ZM88.5977 116.3L92.1817 116.332L92.1906 115.332L88.6066 115.3L88.5977 116.3ZM91.6873 115.798C91.4887 118.691 88.6877 120.356 85.8821 120.356V121.356C88.9645 121.356 92.4355 119.501 92.685 115.866L91.6873 115.798ZM112.422 107.128H112.922V106.628H112.422V107.128ZM111.11 107.128V106.628H110.61V107.128H111.11ZM111.11 110.84L110.647 111.03L111.61 110.84H111.11ZM111.11 118.808L111.61 118.814L110.647 118.618L111.11 118.808ZM99.8136 124.152H100.314V123.652H99.8136V124.152ZM98.5016 124.152V123.652H98.0016V124.152H98.5016ZM105.094 130.028C108.213 130.028 110.225 129.05 111.425 127.312C112.596 125.617 112.922 123.293 112.922 120.76H111.922C111.922 123.251 111.591 125.311 110.602 126.744C109.642 128.134 107.99 129.028 105.094 129.028V130.028ZM112.922 120.76V107.128H111.922V120.76H112.922ZM112.422 106.628H111.11V107.628H112.422V106.628ZM110.61 107.128V110.84H111.61V107.128H110.61ZM111.572 110.65C111.225 109.808 110.669 108.674 109.605 107.754C108.529 106.824 106.978 106.148 104.71 106.148V107.148C106.761 107.148 108.074 107.752 108.951 108.51C109.838 109.278 110.322 110.24 110.647 111.03L111.572 110.65ZM104.71 106.148C102.299 106.148 100.535 107.124 99.3927 108.748C98.2679 110.347 97.7776 112.526 97.7776 114.904H98.7776C98.7776 112.642 99.2474 110.693 100.211 109.324C101.156 107.98 102.608 107.148 104.71 107.148V106.148ZM97.7776 114.904C97.7776 117.22 98.2688 119.323 99.3988 120.86C100.546 122.42 102.31 123.34 104.71 123.34V122.34C102.597 122.34 101.145 121.548 100.204 120.268C99.2464 118.965 98.7776 117.1 98.7776 114.904H97.7776ZM104.71 123.34C106.969 123.34 108.518 122.709 109.596 121.822C110.664 120.942 111.223 119.846 111.572 118.998L110.647 118.618C110.324 119.402 109.843 120.322 108.96 121.05C108.085 121.771 106.77 122.34 104.71 122.34V123.34ZM110.61 118.802C110.578 121.35 110.34 123.261 109.559 124.535C108.819 125.743 107.528 126.468 105.094 126.468V127.468C107.747 127.468 109.432 126.657 110.412 125.057C111.352 123.523 111.578 121.354 111.61 118.814L110.61 118.802ZM105.094 126.468C103.804 126.468 102.564 126.272 101.666 125.861C100.774 125.453 100.314 124.888 100.314 124.152H99.3136C99.3136 125.432 100.165 126.275 101.25 126.771C102.328 127.264 103.727 127.468 105.094 127.468V126.468ZM99.8136 123.652H98.5016V124.652H99.8136V123.652ZM98.0016 124.152C98.0016 126.09 98.6948 127.59 99.9782 128.59C101.242 129.576 103.015 130.028 105.094 130.028V129.028C103.14 129.028 101.617 128.6 100.593 127.802C99.5884 127.018 99.0016 125.83 99.0016 124.152H98.0016ZM105.382 119.812C103.24 119.812 101.956 119.371 101.195 118.61C100.435 117.851 100.09 116.664 100.09 114.904H99.0896C99.0896 116.76 99.4478 118.277 100.488 119.318C101.527 120.357 103.139 120.812 105.382 120.812V119.812ZM100.09 114.904C100.09 113.06 100.437 111.796 101.205 110.983C101.967 110.177 103.248 109.708 105.382 109.708V108.708C103.131 108.708 101.516 109.199 100.478 110.297C99.4461 111.388 99.0896 112.972 99.0896 114.904H100.09ZM105.382 109.708C107.372 109.708 108.626 110.194 109.395 111.024C110.17 111.862 110.546 113.15 110.546 114.968H111.546C111.546 113.042 111.153 111.45 110.129 110.344C109.097 109.23 107.519 108.708 105.382 108.708V109.708ZM110.546 114.968C110.546 116.753 110.171 117.924 109.413 118.662C108.651 119.403 107.395 119.812 105.382 119.812V120.812C107.496 120.812 109.072 120.389 110.11 119.378C111.152 118.364 111.546 116.863 111.546 114.968H110.546ZM130.693 118.008H131.193V117.508H130.693V118.008ZM129.445 118.008V117.508H128.945V118.008H129.445ZM124.069 120.824L124.055 121.324L124.066 121.324L124.078 121.324L124.069 120.824ZM117.829 116.248V115.748H117.329V116.248H117.829ZM130.789 116.248V116.748H131.289V116.248H130.789ZM117.893 113.848H117.393V114.348H117.893V113.848ZM129.573 113.848V114.348H130.073V113.848H129.573ZM124.069 123.884C128.241 123.884 131.193 121.103 131.193 118.008H130.193C130.193 120.417 127.833 122.884 124.069 122.884V123.884ZM130.693 117.508H129.445V118.508H130.693V117.508ZM128.945 118.008C128.945 118.394 128.844 118.704 128.663 118.963C128.479 119.226 128.193 119.462 127.784 119.663C126.955 120.071 125.698 120.293 124.059 120.324L124.078 121.324C125.767 121.291 127.199 121.065 128.225 120.561C128.745 120.306 129.178 119.97 129.482 119.535C129.79 119.096 129.945 118.582 129.945 118.008H128.945ZM124.083 120.324C121.867 120.262 120.433 119.771 119.56 119.06C118.707 118.365 118.329 117.409 118.329 116.248H117.329C117.329 117.647 117.798 118.915 118.929 119.836C120.04 120.741 121.726 121.258 124.055 121.324L124.083 120.324ZM117.829 116.748H130.789V115.748H117.829V116.748ZM131.289 116.248V114.712H130.289V116.248H131.289ZM131.289 114.712C131.289 111.839 130.503 109.711 129.173 108.297C127.841 106.882 126.018 106.244 124.069 106.244V107.244C125.799 107.244 127.337 107.806 128.445 108.983C129.554 110.161 130.289 112.017 130.289 114.712H131.289ZM124.069 106.244C121.639 106.244 119.63 107.208 118.233 108.798C116.842 110.382 116.081 112.561 116.081 114.968H117.081C117.081 112.767 117.776 110.834 118.984 109.458C120.188 108.088 121.922 107.244 124.069 107.244V106.244ZM116.081 114.968C116.081 117.363 116.674 119.59 117.991 121.229C119.32 122.884 121.343 123.884 124.069 123.884V122.884C121.611 122.884 119.889 121.996 118.77 120.603C117.639 119.194 117.081 117.213 117.081 114.968H116.081ZM118.393 113.848C118.393 112.841 118.69 111.854 119.482 111.113C120.278 110.369 121.649 109.804 123.941 109.804V108.804C121.496 108.804 119.843 109.407 118.799 110.383C117.751 111.362 117.393 112.647 117.393 113.848H118.393ZM123.941 109.804C126.176 109.804 127.433 110.459 128.138 111.239C128.853 112.031 129.073 113.031 129.073 113.848H130.073C130.073 112.873 129.812 111.601 128.88 110.569C127.937 109.525 126.378 108.804 123.941 108.804V109.804ZM129.573 113.348H117.893V114.348H129.573V113.348ZM156.414 120.6L156.753 120.233L156.4 119.906L156.06 120.246L156.414 120.6ZM159.39 123.352L159.05 123.719L159.761 124.376L159.886 123.416L159.39 123.352ZM159.614 121.624L160.11 121.688L160.143 121.435L159.957 121.26L159.614 121.624ZM157.342 119.48L156.937 119.187L156.679 119.542L156.999 119.844L157.342 119.48ZM159.518 112.216L160.017 112.238L160.037 111.796L159.6 111.723L159.518 112.216ZM158.558 112.056L158.64 111.563L158.071 111.468L158.058 112.045L158.558 112.056ZM156.126 118.328L155.78 118.689L156.122 119.017L156.468 118.693L156.126 118.328ZM149.214 111.704L149.037 111.236L148.295 111.516L148.868 112.065L149.214 111.704ZM146.526 110.936L146.732 111.392L147.38 111.099L146.885 110.588L146.526 110.936ZM147.838 110.424L147.477 110.771L147.708 111.01L148.018 110.89L147.838 110.424ZM147.838 112.216L148.187 111.858L147.954 111.63L147.651 111.752L147.838 112.216ZM154.974 119.192L155.259 119.603L155.756 119.258L155.323 118.834L154.974 119.192ZM148.862 123.884C152.235 123.884 154.898 122.823 156.767 120.954L156.06 120.246C154.41 121.897 152.017 122.884 148.862 122.884V123.884ZM156.074 120.967L159.05 123.719L159.729 122.985L156.753 120.233L156.074 120.967ZM159.886 123.416L160.11 121.688L159.118 121.56L158.894 123.288L159.886 123.416ZM159.957 121.26L157.685 119.116L156.999 119.844L159.271 121.988L159.957 121.26ZM157.747 119.773C159.166 117.813 159.887 115.211 160.017 112.238L159.018 112.194C158.893 115.045 158.205 117.435 156.937 119.187L157.747 119.773ZM159.6 111.723L158.64 111.563L158.476 112.549L159.436 112.709L159.6 111.723ZM158.058 112.045C157.996 114.728 157.168 116.668 155.784 117.963L156.468 118.693C158.092 117.172 158.991 114.952 159.058 112.067L158.058 112.045ZM156.472 117.967L149.56 111.343L148.868 112.065L155.78 118.689L156.472 117.967ZM149.39 112.172C151.069 111.538 152.856 110.869 154.214 109.908C155.598 108.93 156.594 107.611 156.594 105.688H155.594C155.594 107.189 154.846 108.238 153.637 109.092C152.404 109.963 150.75 110.59 149.037 111.236L149.39 112.172ZM156.594 105.688C156.594 102.081 153.611 99.716 149.886 99.716V100.716C153.201 100.716 155.594 102.767 155.594 105.688H156.594ZM149.886 99.716C147.718 99.716 146.035 100.382 144.891 101.46C143.748 102.537 143.178 103.992 143.178 105.496H144.178C144.178 104.248 144.648 103.063 145.577 102.188C146.504 101.314 147.926 100.716 149.886 100.716V99.716ZM143.178 105.496C143.178 107.086 144.169 109.22 146.167 111.284L146.885 110.588C144.979 108.62 144.178 106.722 144.178 105.496H143.178ZM146.32 110.48C144.984 111.083 143.697 111.829 142.741 112.87C141.773 113.926 141.162 115.269 141.162 117.016H142.162C142.162 115.531 142.671 114.426 143.478 113.546C144.299 112.651 145.443 111.973 146.732 111.392L146.32 110.48ZM141.162 117.016C141.162 119.103 141.953 120.836 143.338 122.041C144.715 123.24 146.64 123.884 148.862 123.884V122.884C146.828 122.884 145.153 122.296 143.994 121.287C142.843 120.284 142.162 118.833 142.162 117.016H141.162ZM148.198 110.077C146.569 108.383 145.49 107.118 145.49 105.528H144.49C144.49 107.586 145.907 109.137 147.477 110.771L148.198 110.077ZM145.49 105.528C145.49 104.886 145.706 104.37 146.305 103.984C146.947 103.57 148.078 103.276 149.982 103.276V102.276C148.013 102.276 146.648 102.574 145.763 103.144C144.834 103.742 144.49 104.602 144.49 105.528H145.49ZM149.982 103.276C151.721 103.276 152.793 103.62 153.421 104.104C154.025 104.57 154.282 105.217 154.282 106.008H155.282C155.282 104.975 154.931 104.006 154.031 103.312C153.155 102.636 151.826 102.276 149.982 102.276V103.276ZM154.282 106.008C154.282 106.862 153.652 107.514 152.36 108.152C151.731 108.462 150.992 108.746 150.184 109.039C149.385 109.328 148.512 109.627 147.658 109.958L148.018 110.89C148.86 110.565 149.703 110.276 150.524 109.979C151.336 109.686 152.12 109.386 152.803 109.048C154.136 108.39 155.282 107.49 155.282 106.008H154.282ZM148.83 120.324C146.93 120.324 145.572 120.023 144.703 119.467C143.874 118.936 143.442 118.144 143.442 116.984H142.442C142.442 118.448 143.018 119.576 144.164 120.309C145.272 121.017 146.858 121.324 148.83 121.324V120.324ZM143.442 116.984C143.442 115.935 143.915 115.137 144.727 114.455C145.558 113.758 146.718 113.206 148.025 112.68L147.651 111.752C146.334 112.282 145.046 112.882 144.084 113.689C143.105 114.511 142.442 115.569 142.442 116.984H143.442ZM147.488 112.574L154.624 119.55L155.323 118.834L148.187 111.858L147.488 112.574ZM154.689 118.781C153.228 119.795 151.257 120.324 148.83 120.324V121.324C151.394 121.324 153.583 120.765 155.259 119.603L154.689 118.781ZM179.539 123.096V123.596H180.039V123.096H179.539ZM179.539 120.792H180.039V120.278L179.526 120.292L179.539 120.792ZM173.811 117.784H173.311V117.791L173.312 117.798L173.811 117.784ZM173.811 109.688V109.188H173.311V109.688H173.811ZM179.987 109.688V110.188H180.487V109.688H179.987ZM179.987 107.128H180.487V106.628H179.987V107.128ZM173.811 107.128H173.311V107.628H173.811V107.128ZM173.811 101.912H174.311V100.796L173.479 101.539L173.811 101.912ZM172.627 102.968L172.295 102.595L172.127 102.744V102.968H172.627ZM172.627 107.128V107.628H173.127V107.128H172.627ZM169.619 107.128V106.628H169.119V107.128H169.619ZM169.619 109.688H169.119V110.188H169.619V109.688ZM172.499 109.688H172.999V109.188H172.499V109.688ZM178.323 123.596H179.539V122.596H178.323V123.596ZM180.039 123.096V120.792H179.039V123.096H180.039ZM179.526 120.292C177.118 120.356 175.84 120.152 175.154 119.746C174.557 119.392 174.342 118.836 174.311 117.77L173.312 117.798C173.345 118.972 173.594 119.984 174.645 120.606C175.607 121.176 177.16 121.356 179.553 121.292L179.526 120.292ZM174.311 117.784V109.688H173.311V117.784H174.311ZM173.811 110.188H179.987V109.188H173.811V110.188ZM180.487 109.688V107.128H179.487V109.688H180.487ZM179.987 106.628H173.811V107.628H179.987V106.628ZM174.311 107.128V101.912H173.311V107.128H174.311ZM173.479 101.539L172.295 102.595L172.96 103.341L174.144 102.285L173.479 101.539ZM172.127 102.968V107.128H173.127V102.968H172.127ZM172.627 106.628H169.619V107.628H172.627V106.628ZM169.119 107.128V109.688H170.119V107.128H169.119ZM169.619 110.188H172.499V109.188H169.619V110.188ZM171.999 109.688V117.72H172.999V109.688H171.999ZM171.999 117.72C171.999 119.599 172.231 121.129 173.228 122.16C174.227 123.192 175.868 123.596 178.323 123.596V122.596C175.915 122.596 174.644 122.184 173.947 121.464C173.248 120.743 172.999 119.585 172.999 117.72H171.999ZM184.336 123H183.836V123.5H184.336V123ZM185.648 123V123.5H186.148V123H185.648ZM196.528 123H196.028V123.5H196.528V123ZM197.84 123V123.5H198.34V123H197.84ZM185.648 111.192V111.692H185.989L186.113 111.374L185.648 111.192ZM185.552 111.192H185.052V111.692H185.552V111.192ZM185.552 100.6H186.052V100.1H185.552V100.6ZM184.336 100.6V100.1H183.836V100.6H184.336ZM184.336 123.5H185.648V122.5H184.336V123.5ZM186.148 123V115.448H185.148V123H186.148ZM186.148 115.448C186.148 114.161 186.368 112.731 187.137 111.635C187.883 110.572 189.204 109.74 191.6 109.74V108.74C188.939 108.74 187.284 109.684 186.318 111.061C185.376 112.405 185.148 114.079 185.148 115.448H186.148ZM191.6 109.74C193.598 109.74 194.637 110.165 195.213 110.869C195.811 111.6 196.028 112.764 196.028 114.552H197.028C197.028 112.756 196.828 111.264 195.987 110.235C195.123 109.179 193.697 108.74 191.6 108.74V109.74ZM196.028 114.552V123H197.028V114.552H196.028ZM196.528 123.5H197.84V122.5H196.528V123.5ZM198.34 123V113.592H197.34V123H198.34ZM198.34 113.592C198.34 111.539 197.939 109.692 196.979 108.346C195.999 106.972 194.479 106.18 192.4 106.18V107.18C194.192 107.18 195.393 107.844 196.165 108.926C196.956 110.036 197.34 111.645 197.34 113.592H198.34ZM192.4 106.18C188.202 106.18 186.034 108.828 185.182 111.01L186.113 111.374C186.861 109.46 188.725 107.18 192.4 107.18V106.18ZM185.648 110.692H185.552V111.692H185.648V110.692ZM186.052 111.192V100.6H185.052V111.192H186.052ZM185.552 100.1H184.336V101.1H185.552V100.1ZM183.836 100.6V123H184.836V100.6H183.836ZM202.874 123H202.374V123.5H202.874V123ZM204.186 123V123.5H204.686V123H204.186ZM213.274 110.52L212.966 110.914L213.774 111.546V110.52H213.274ZM213.274 107.832H213.774V107.558L213.544 107.411L213.274 107.832ZM204.154 111.512H203.654L204.615 111.706L204.154 111.512ZM204.154 107.128H204.654V106.628H204.154V107.128ZM202.874 107.128V106.628H202.374V107.128H202.874ZM202.874 123.5H204.186V122.5H202.874V123.5ZM204.686 123V115.96H203.686V123H204.686ZM204.686 115.96C204.686 114.757 204.802 113.268 205.455 112.091C205.777 111.512 206.227 111.012 206.862 110.653C207.499 110.294 208.351 110.06 209.498 110.06V109.06C208.214 109.06 207.185 109.322 206.371 109.783C205.554 110.244 204.98 110.888 204.581 111.605C203.795 113.02 203.686 114.731 203.686 115.96H204.686ZM209.498 110.06C210.078 110.06 210.798 110.15 211.461 110.31C212.14 110.474 212.685 110.694 212.966 110.914L213.583 110.126C213.127 109.77 212.409 109.51 211.696 109.338C210.966 109.162 210.167 109.06 209.498 109.06V110.06ZM213.774 110.52V107.832H212.774V110.52H213.774ZM213.544 107.411C212.659 106.844 211.572 106.5 210.202 106.5V107.5C211.393 107.5 212.29 107.796 213.005 108.253L213.544 107.411ZM210.202 106.5C206.137 106.5 204.479 109.452 203.694 111.318L204.615 111.706C205.366 109.924 206.779 107.5 210.202 107.5V106.5ZM204.654 111.512V107.128H203.654V111.512H204.654ZM204.154 106.628H202.874V107.628H204.154V106.628ZM202.374 107.128V123H203.374V107.128H202.374ZM215.688 123H215.188V123.5H215.688V123ZM217 123V123.5H217.5V123H217ZM217 107.128H217.5V106.628H217V107.128ZM215.688 107.128V106.628H215.188V107.128H215.688ZM216.36 104.428C216.997 104.428 217.612 104.241 218.077 103.858C218.552 103.468 218.844 102.895 218.844 102.2H217.844C217.844 102.593 217.687 102.884 217.442 103.086C217.187 103.295 216.81 103.428 216.36 103.428V104.428ZM218.844 102.2C218.844 100.76 217.641 99.94 216.36 99.94V100.94C217.254 100.94 217.844 101.464 217.844 102.2H218.844ZM216.36 99.94C215.703 99.94 215.085 100.137 214.623 100.532C214.153 100.933 213.876 101.513 213.876 102.2H214.876C214.876 101.799 215.03 101.499 215.272 101.292C215.522 101.079 215.897 100.94 216.36 100.94V99.94ZM213.876 102.2C213.876 102.889 214.155 103.463 214.628 103.856C215.092 104.242 215.708 104.428 216.36 104.428V103.428C215.891 103.428 215.516 103.294 215.267 103.088C215.029 102.889 214.876 102.599 214.876 102.2H213.876ZM215.688 123.5H217V122.5H215.688V123.5ZM217.5 123V107.128H216.5V123H217.5ZM217 106.628H215.688V107.628H217V106.628ZM215.188 107.128V123H216.188V107.128H215.188ZM223.388 123H222.888V123.5H223.388V123ZM224.7 123V123.5H225.2V123H224.7ZM224.7 109.688V109.188H224.2V109.688H224.7ZM231.356 109.688V110.188H231.856V109.688H231.356ZM231.356 107.128H231.856V106.628H231.356V107.128ZM224.7 107.128L224.2 107.116L224.188 107.628H224.7V107.128ZM231.004 104.408L230.74 104.833L231.204 105.121L231.45 104.634L231.004 104.408ZM232.252 101.944L232.698 102.17L232.89 101.792L232.548 101.541L232.252 101.944ZM223.388 107.128V107.628H223.875L223.888 107.142L223.388 107.128ZM220.412 107.128V106.628H219.912V107.128H220.412ZM220.412 109.688H219.912V110.188H220.412V109.688ZM223.388 109.688H223.888V109.188H223.388V109.688ZM223.388 123.5H224.7V122.5H223.388V123.5ZM225.2 123V109.688H224.2V123H225.2ZM224.7 110.188H231.356V109.188H224.7V110.188ZM231.856 109.688V107.128H230.856V109.688H231.856ZM231.356 106.628H224.7V107.628H231.356V106.628ZM225.2 107.14C225.216 106.457 225.236 105.905 225.292 105.452C225.349 104.998 225.438 104.688 225.564 104.472C225.776 104.108 226.187 103.852 227.388 103.852V102.852C226.093 102.852 225.192 103.124 224.7 103.968C224.474 104.356 224.363 104.82 224.3 105.329C224.236 105.839 224.216 106.439 224.2 107.116L225.2 107.14ZM227.388 103.852C228.511 103.852 229.636 104.146 230.74 104.833L231.268 103.983C230.004 103.198 228.697 102.852 227.388 102.852V103.852ZM231.45 104.634L232.698 102.17L231.806 101.718L230.558 104.182L231.45 104.634ZM232.548 101.541C231.384 100.685 229.97 100.1 228.124 100.1V101.1C229.734 101.1 230.944 101.603 231.956 102.347L232.548 101.541ZM228.124 100.1C227.046 100.1 226.162 100.302 225.445 100.69C224.724 101.08 224.203 101.643 223.831 102.313C223.102 103.627 222.936 105.372 222.888 107.114L223.888 107.142C223.936 105.396 224.107 103.877 224.705 102.799C224.997 102.273 225.388 101.858 225.921 101.569C226.458 101.278 227.17 101.1 228.124 101.1V100.1ZM223.388 106.628H220.412V107.628H223.388V106.628ZM219.912 107.128V109.688H220.912V107.128H219.912ZM220.412 110.188H223.388V109.188H220.412V110.188ZM222.888 109.688V123H223.888V109.688H222.888ZM243.483 123.096V123.596H243.983V123.096H243.483ZM243.483 120.792H243.983V120.278L243.47 120.292L243.483 120.792ZM237.755 117.784H237.255V117.791L237.255 117.798L237.755 117.784ZM237.755 109.688V109.188H237.255V109.688H237.755ZM243.931 109.688V110.188H244.431V109.688H243.931ZM243.931 107.128H244.431V106.628H243.931V107.128ZM237.755 107.128H237.255V107.628H237.755V107.128ZM237.755 101.912H238.255V100.796L237.422 101.539L237.755 101.912ZM236.571 102.968L236.238 102.595L236.071 102.744V102.968H236.571ZM236.571 107.128V107.628H237.071V107.128H236.571ZM233.563 107.128V106.628H233.063V107.128H233.563ZM233.563 109.688H233.063V110.188H233.563V109.688ZM236.443 109.688H236.943V109.188H236.443V109.688ZM242.267 123.596H243.483V122.596H242.267V123.596ZM243.983 123.096V120.792H242.983V123.096H243.983ZM243.47 120.292C241.062 120.356 239.784 120.152 239.098 119.746C238.501 119.392 238.285 118.836 238.255 117.77L237.255 117.798C237.289 118.972 237.538 119.984 238.588 120.606C239.55 121.176 241.104 121.356 243.496 121.292L243.47 120.292ZM238.255 117.784V109.688H237.255V117.784H238.255ZM237.755 110.188H243.931V109.188H237.755V110.188ZM244.431 109.688V107.128H243.431V109.688H244.431ZM243.931 106.628H237.755V107.628H243.931V106.628ZM238.255 107.128V101.912H237.255V107.128H238.255ZM237.422 101.539L236.238 102.595L236.904 103.341L238.088 102.285L237.422 101.539ZM236.071 102.968V107.128H237.071V102.968H236.071ZM236.571 106.628H233.563V107.628H236.571V106.628ZM233.063 107.128V109.688H234.063V107.128H233.063ZM233.563 110.188H236.443V109.188H233.563V110.188ZM235.943 109.688V117.72H236.943V109.688H235.943ZM235.943 117.72C235.943 119.599 236.174 121.129 237.172 122.16C238.171 123.192 239.812 123.596 242.267 123.596V122.596C239.858 122.596 238.588 122.184 237.89 121.464C237.192 120.743 236.943 119.585 236.943 117.72H235.943Z" fill="black"/>
<g clip-path="url(#clip0)" filter="url(#filter0_dd)">
<path d="M7.73057 35.8485C6.30358 36.5778 5.06229 37.1904 4.06536 38.581C3.59621 39.2422 3.73304 39.9229 3.73304 40.7106C3.74282 41.0509 3.76236 41.4205 3.74282 41.7705C3.7135 42.3151 3.45937 42.6554 3.36163 43.1805C3.07819 44.8045 3.9383 45.6408 4.37812 47.0702C4.8375 48.5775 4.3097 49.8903 3.30299 50.9697C3.20525 51.0766 3.09774 51.1836 3 51.2711V58.9046C3.79169 58.2434 4.54428 57.553 5.14049 56.6875C5.90285 55.5789 6.64567 55.3067 7.48622 54.3829C7.77944 54.062 7.98469 53.7216 8.12153 53.3618V39.6798C8.12153 38.2795 8.18995 36.8598 8.41475 35.479C8.18995 35.6054 7.96515 35.7318 7.73057 35.8485ZM3 66.4215H8.12153V64.2724C6.372 64.2627 4.66156 64.1946 3 64.0682V66.4215ZM90.7404 3C73.2451 3 65.4944 14.5621 61.9953 20.6592C59.6203 9.83614 51.9966 3 35.9967 3C34.0028 3 32.136 3.15559 30.3865 3.43759C31.2564 4.14746 32.1458 4.90595 33.0548 5.69361C32.9766 5.78113 32.8886 5.86865 32.8104 5.95617C32.0578 6.69521 31.6767 7.35646 31.2173 8.24136C30.9632 8.70813 30.3669 9.36938 30.3669 9.93338C30.3767 10.4585 30.7579 11.0808 30.8165 11.6448C31.1489 11.6837 31.4909 11.674 31.8233 11.7713C32.1849 11.8685 32.527 12.3158 32.8886 12.3547C33.4457 12.4131 34.4133 11.8296 34.9509 11.6157C35.4689 11.392 35.9283 11.1684 36.4463 10.9933C36.9546 10.8183 37.4824 10.7308 37.9711 10.5363C41.0792 14.3774 42.7896 18.6949 43.9625 22.8472C55.31 24.403 57.7437 29.129 57.7437 36.4514V66.4215H62.8652V39.6798C62.8652 31.2295 65.3673 22.2734 88.8638 22.2734C108.744 22.2734 112.497 27.3689 112.497 36.4514V66.4215H117.619V28.9832C117.619 13.4438 110.621 3 90.7404 3Z" fill="black"/>
<path d="M177.954 9.8042C177.367 10.8252 176.605 11.8171 175.96 12.7604C174.709 14.5982 171.464 16.125 169.313 15.9791C167.319 15.843 165.599 15.0358 163.459 15.3081C162.579 15.4151 161.7 15.6971 160.888 16.1055C160.028 16.5334 159.569 17.3599 158.816 17.7684C158.005 18.2059 156.734 17.8559 155.845 18.0406C154.897 18.2448 154.467 18.6533 153.245 18.4004C151.691 18.0795 149.609 17.1849 148.065 16.4361C146.315 15.5804 143.989 15.2595 142.054 14.6955C139.757 14.0245 138.066 12.7895 136.649 11.2726C128.644 17.2043 124.5 26.6563 124.5 37.2946C124.5 55.3234 136.248 69.9972 158.376 69.9972C161.885 69.9972 165.13 69.6277 168.101 68.947C168.825 68.7817 169.528 68.5969 170.222 68.3927C179.449 65.6699 185.841 59.6993 189.272 51.9879C189.643 51.1614 189.975 50.3251 190.269 49.4596C191.588 45.6964 192.243 41.5927 192.243 37.2946C192.243 25.7228 187.385 15.5512 177.954 9.8042ZM129.622 37.2946C129.622 28.3386 136.874 22.6207 158.376 22.6207C179.869 22.6207 187.121 28.3386 187.121 37.2946C187.121 46.3673 179.869 52.2116 158.376 52.2116C136.874 52.2116 129.622 46.3673 129.622 37.2946Z" fill="black"/>
<path d="M177.953 9.80405C177.367 10.8251 176.604 11.817 175.959 12.7602C174.708 14.5981 171.463 16.1248 169.313 15.9789C167.319 15.8428 165.599 15.0357 163.458 15.308C162.579 15.4149 161.699 15.6969 160.888 16.1054C160.028 16.5332 159.568 17.3598 158.816 17.7682C158.004 18.2058 156.734 17.8557 155.844 18.0405C154.896 18.2447 154.466 18.6531 153.245 18.4003C151.69 18.0794 149.609 17.1847 148.064 16.436C146.315 15.5802 143.989 15.2593 142.053 14.6953C139.757 14.0244 138.066 12.7894 136.648 11.2724C142.122 7.23685 149.394 4.83496 158.376 4.83496C166.244 4.83496 172.783 6.65339 177.953 9.80405Z" fill="#F8F5F5"/>
<path d="M200.296 39.145C200.394 41.3426 200.668 43.4917 201.117 45.5532C201.372 44.7753 201.528 43.939 201.567 43.0055C201.626 41.6246 201.215 40.1466 200.296 39.145ZM258.138 60.1785C256.32 61.4135 252.772 60.6355 250.818 59.8673C249.889 59.4978 248.492 58.4379 248.198 57.4557C247.886 56.4249 248.12 55.1511 247.602 54.1884C247.133 53.3132 246.39 52.331 245.52 51.5142C242.275 51.9712 238.493 52.2143 234.124 52.2143C231.651 52.2143 229.364 52.1365 227.263 51.9907C227.302 52.0879 227.351 52.1754 227.399 52.2727C228.426 54.237 230.674 54.8496 231.974 56.7458C233.479 58.963 232.707 61.9386 231.954 64.2141C231.68 65.0406 230.986 66.0228 230.781 66.8979C230.732 67.1216 230.693 67.3744 230.674 67.6467C229.843 67.6467 229.002 67.637 228.152 67.6175C227.575 67.5981 227.008 67.5786 226.451 67.5495C222.796 67.3453 219.522 66.8201 216.619 66.1297C221.437 68.5997 227.282 70 234.124 70C247.465 70 256.985 64.7197 262.458 56.6097C260.973 57.6794 259.653 59.1477 258.138 60.1785ZM249.166 7.53146C249.156 7.53146 249.156 7.52174 249.146 7.52174C248.794 7.37588 248.423 7.23974 248.061 7.1036C248.042 7.09387 248.022 7.09387 248.003 7.08415C243.966 5.62551 239.333 4.82812 234.124 4.82812C233.039 4.82812 231.983 4.86702 230.947 4.93509C231.143 5.08096 231.338 5.23654 231.514 5.38241C233.293 6.86049 235.727 7.40505 237.897 8.01767C238.854 8.28995 239.871 8.73727 240.858 8.96093C241.034 8.99982 241.22 9.029 241.396 9.05817C242.324 9.18458 243.39 8.96093 244.289 9.16514C245.002 9.33045 245.54 9.875 246.224 10.0987C246.82 10.3029 247.485 10.2154 248.061 10.4487C248.57 10.6529 248.951 11.0808 249.391 11.4114C250.065 11.9171 250.886 12.1991 251.688 12.4714C254.141 13.3174 256.604 14.1537 259.067 14.99C258.735 15.272 258.989 15.8165 259.301 16.1277C259.624 16.4291 260.025 16.7792 259.937 17.2071C259.898 17.4016 259.751 17.5669 259.614 17.7127C259.028 18.3351 258.226 18.9769 257.796 19.7159C257.454 20.2994 257.366 20.9995 256.956 21.5927C256.213 22.6818 255.47 23.7612 254.727 24.8503C254.659 24.9476 254.59 25.0448 254.502 25.1129C253.584 25.8422 249.938 22.7304 248.951 22.3318C248.824 22.2831 248.697 22.2345 248.628 22.1178C248.589 22.0498 248.579 21.972 248.56 21.8942C248.482 21.3496 248.404 20.805 248.325 20.2605C247.768 20.1632 247.221 19.9688 246.722 19.6868C246.214 19.4048 245.755 19.045 245.247 18.7727C242.872 17.5474 239.793 19.0741 237.642 20.1535C235.658 21.1551 233.997 21.0287 231.69 21.0871C226.432 21.2232 222.864 19.609 219.434 16.7987C218.251 15.8262 216.521 15.0386 216.502 13.6675C216.492 12.5492 217.498 11.3628 218.241 10.4001C218.847 9.62217 219.258 9.64162 220.001 9.08734C220.704 8.56223 221.232 8.04685 221.506 7.1036C221.555 6.93828 221.594 6.7827 221.633 6.63683C217.86 7.81347 214.576 9.56383 211.781 11.7421C211.771 11.7518 211.771 11.7518 211.761 11.7615C211.644 11.9074 211.527 12.0532 211.409 12.2088C210.412 13.5994 210.158 15.3303 209.826 16.964C209.601 18.1114 208.252 20.4647 208.927 21.5149C209.015 21.6608 209.142 21.7872 209.21 21.9525C209.357 22.2929 209.191 22.6818 209.005 22.993C208.692 23.5376 208.291 24.0335 207.822 24.4516C206.992 23.5473 206.718 23.2167 205.525 23.1778C204.714 23.1583 203.903 23.1 203.092 23.0319C202.515 24.3349 202.036 25.6769 201.645 27.0675C203.18 27.7871 204.577 29.0123 205.838 30.1987C206.18 30.5196 206.522 30.8502 206.864 31.1808C209.924 25.8228 218.036 22.6138 234.124 22.6138C251.14 22.6138 259.223 26.202 261.852 32.1338C261.843 30.714 262.224 28.8859 263.289 27.8648C263.749 27.4273 265.293 26.9313 265.899 26.6299C266.065 26.5521 266.231 26.4743 266.407 26.3965C263.817 17.9461 258.021 11.1003 249.166 7.53146Z" fill="black"/>
<path d="M211.761 11.7617C211.643 11.9076 211.526 12.0534 211.409 12.209C210.412 13.5996 210.158 15.3305 209.826 16.9642C209.601 18.1116 208.252 20.4649 208.926 21.5151C209.014 21.661 209.141 21.7874 209.21 21.9527C209.356 22.2931 209.19 22.682 209.005 22.9932C208.692 23.5378 208.291 24.0337 207.822 24.4518C206.991 23.5475 206.717 23.2169 205.525 23.178C204.714 23.1585 203.903 23.1002 203.091 23.0321C205.017 18.6173 207.92 14.7665 211.761 11.7617Z" fill="#F8F5F5"/>
<path d="M268 37.2876C268 44.5127 266.133 51.1933 262.458 56.6097C260.973 57.6794 259.653 59.1477 258.138 60.1785C256.32 61.4135 252.772 60.6355 250.817 59.8673C249.889 59.4978 248.491 58.4378 248.198 57.4557C247.885 56.4249 248.12 55.1511 247.602 54.1884C247.133 53.3132 246.39 52.331 245.52 51.5142C258.265 49.7055 262.869 44.5225 262.869 37.2876C262.869 35.4206 262.556 33.6994 261.852 32.1338C261.842 30.714 262.224 28.8859 263.289 27.8648C263.748 27.4273 265.293 26.9313 265.899 26.6299C266.065 26.5521 266.231 26.4743 266.407 26.3965C267.472 29.8 268 33.466 268 37.2876Z" fill="#F8F5F5"/>
<path d="M259.936 17.207C259.897 17.4015 259.751 17.5668 259.614 17.7127C259.027 18.3351 258.226 18.9769 257.796 19.7159C257.454 20.2994 257.366 20.9995 256.955 21.5927C256.212 22.6818 255.47 23.7612 254.727 24.8503C254.658 24.9475 254.59 25.0448 254.502 25.1129C253.583 25.8422 249.938 22.7304 248.95 22.3317C248.823 22.2831 248.696 22.2345 248.628 22.1178C248.589 22.0497 248.579 21.9719 248.559 21.8941C248.481 21.3496 248.403 20.805 248.325 20.2605C247.768 20.1632 247.22 19.9687 246.722 19.6867C246.214 19.4047 245.754 19.0449 245.246 18.7726C242.871 17.5474 239.792 19.0741 237.642 20.1535C235.658 21.1551 233.996 21.0287 231.69 21.087C226.431 21.2232 222.864 19.6089 219.433 16.7986C218.251 15.8262 216.521 15.0385 216.501 13.6674C216.491 12.5491 217.498 11.3628 218.241 10.4001C218.847 9.62214 219.257 9.64159 220 9.08731C220.704 8.5622 221.232 8.04681 221.505 7.10356C221.554 6.93825 221.593 6.78266 221.632 6.6368C224.467 5.73245 227.575 5.15872 230.947 4.93506C231.142 5.08092 231.338 5.23651 231.514 5.38237C233.293 6.86046 235.726 7.40501 237.896 8.01764C238.854 8.28992 239.87 8.73724 240.858 8.96089C241.034 8.99979 241.219 9.02896 241.395 9.05814C242.324 9.18455 243.389 8.96089 244.288 9.1651C245.002 9.33041 245.539 9.87497 246.223 10.0986C246.82 10.3028 247.484 10.2153 248.061 10.4487C248.569 10.6529 248.95 11.0808 249.39 11.4114C250.065 11.9171 250.886 12.1991 251.687 12.4713C254.14 13.3174 256.603 14.1536 259.066 14.9899C258.734 15.2719 258.988 15.8165 259.301 16.1277C259.624 16.4291 260.024 16.7792 259.936 17.207Z" fill="#F8F5F5"/>
<path d="M231.954 64.214C231.68 65.0405 230.986 66.0227 230.781 66.8979C230.732 67.1215 230.693 67.3744 230.673 67.6466C229.842 67.6466 229.002 67.6369 228.152 67.6175C227.575 67.598 227.008 67.5786 226.451 67.5494C222.795 67.3452 219.521 66.8201 216.618 66.1297C208.32 61.8704 203.082 54.4411 201.117 45.5532C201.371 44.7752 201.527 43.9389 201.567 43.0054C201.625 41.6246 201.215 40.1465 200.296 39.1449C200.257 38.5323 200.247 37.9099 200.247 37.2876C200.247 33.7188 200.716 30.2861 201.645 27.0674C203.179 27.787 204.577 29.0122 205.838 30.1986C206.18 30.5195 206.522 30.8501 206.864 31.1807C205.828 32.9894 205.369 35.0315 205.369 37.2876C205.369 45.3295 211.047 50.8237 227.262 51.9906C227.301 52.0879 227.35 52.1754 227.399 52.2726C228.425 54.2369 230.673 54.8495 231.973 56.7458C233.478 58.9629 232.706 61.9385 231.954 64.214Z" fill="#F8F5F5"/>
<path d="M43.9625 22.8471C41.2355 22.4678 37.9808 22.2733 34.1201 22.2733C14.5234 22.2733 9.52897 28.5066 8.41475 35.4789C8.18995 35.6053 7.96515 35.7317 7.73057 35.8484C6.30358 36.5777 5.06229 37.1903 4.06536 38.5809C3.59621 39.2421 3.73304 39.9228 3.73304 40.7105C3.74282 41.0509 3.76236 41.4204 3.74282 41.7705C3.7135 42.315 3.45937 42.6554 3.36163 43.1805C3.07819 44.8044 3.9383 45.6407 4.37812 47.0702C4.83749 48.5774 4.3097 49.8902 3.30299 50.9696C3.20525 51.0765 3.09774 51.1835 3 51.271V4.74055H7.12459V20.9022H7.496C10.3793 15.6025 16.6151 5.60601 30.3865 3.4375C31.2564 4.14737 32.1458 4.90586 33.0548 5.69352C32.9766 5.78104 32.8886 5.86856 32.8104 5.95608C32.0578 6.69512 31.6766 7.35637 31.2173 8.24127C30.9632 8.70804 30.3669 9.36929 30.3669 9.93329C30.3767 10.4584 30.7579 11.0808 30.8165 11.6448C31.1489 11.6837 31.4909 11.6739 31.8233 11.7712C32.1849 11.8684 32.527 12.3157 32.8886 12.3546C33.4457 12.413 34.4133 11.8295 34.9509 11.6156C35.4689 11.3919 35.9283 11.1683 36.4463 10.9932C36.9546 10.8182 37.4823 10.7307 37.971 10.5362C41.0791 14.3773 42.7896 18.6948 43.9625 22.8471Z" fill="#F8F5F5"/>
<path d="M8.12153 53.3618V64.2724C6.372 64.2627 4.66156 64.1946 3 64.0682V58.9046C3.79169 58.2434 4.54428 57.553 5.14049 56.6875C5.90285 55.5789 6.64567 55.3067 7.48622 54.3829C7.77944 54.062 7.98469 53.7216 8.12153 53.3618Z" fill="#F8F5F5"/>
<path d="M189.272 51.9879C185.841 59.6993 179.449 65.6699 170.223 68.3927C169.529 68.5969 168.825 68.7817 168.102 68.947C168.092 68.84 168.072 68.7331 168.043 68.6358C167.564 67.2161 165.375 66.691 166.606 64.7461C167.857 62.7721 170.311 63.307 172.119 62.8596C172.412 62.7818 172.686 62.6263 172.94 62.4512C174.904 61.0801 175.1 58.649 177.182 57.3557C178.364 56.6264 185.499 53.6216 186.78 52.5519C187.161 52.2213 186.916 52.1824 187.464 52.0074C187.894 51.8615 188.617 51.9977 189.067 51.9977C189.135 51.9977 189.204 51.9977 189.272 51.9879Z" fill="#F8F5F5"/>
</g>
<defs>
<filter id="filter0_dd" x="0" y="0" width="271" height="73" filterUnits="userSpaceOnUse" color-interpolation-filters="sRGB">
<feFlood flood-opacity="0" result="BackgroundImageFix"/>
<feColorMatrix in="SourceAlpha" type="matrix" values="0 0 0 0 0 0 0 0 0 0 0 0 0 0 0 0 0 0 127 0"/>
<feOffset dx="1" dy="1"/>
<feGaussianBlur stdDeviation="1"/>
<feColorMatrix type="matrix" values="0 0 0 0 0 0 0 0 0 0 0 0 0 0 0 0 0 0 0.23 0"/>
<feBlend mode="normal" in2="BackgroundImageFix" result="effect1_dropShadow"/>
<feColorMatrix in="SourceAlpha" type="matrix" values="0 0 0 0 0 0 0 0 0 0 0 0 0 0 0 0 0 0 127 0"/>
<feOffset dx="-1" dy="-1"/>
<feGaussianBlur stdDeviation="1"/>
<feColorMatrix type="matrix" values="0 0 0 0 0 0 0 0 0 0 0 0 0 0 0 0 0 0 0.11 0"/>
<feBlend mode="normal" in2="effect1_dropShadow" result="effect2_dropShadow"/>
<feBlend mode="normal" in="SourceGraphic" in2="effect2_dropShadow" result="shape"/>
</filter>
<clipPath id="clip0">
<rect width="265" height="67" fill="white" transform="translate(3 3)"/>
</clipPath>
</defs>
</svg>
