<svg xmlns="http://www.w3.org/2000/svg" viewBox="0 0 796 598"><defs><style>.cls-1{fill:#d8e1ee;}.cls-2{fill-rule:evenodd;}.cls-3,.cls-8{fill:#fff;}.cls-3{stroke:#000;}.cls-4{fill:#972020;}.cls-5{fill:#231f20;}.cls-6{fill:#e7effb;}.cls-7{fill:#363636;}</style></defs><g id="Layer_2" data-name="Layer 2"><g id="Layer_1-2" data-name="Layer 1"><path class="cls-1" d="M37.81,595.06a19.17,19.17,0,0,1,.51,2.94H0V565.16l4.35,2.06.68.27c.24.08.47.18.71.28a42,42,0,0,1,7.12,3.48c1.05.67,2.24,1.33,3.49,2l1.94,1.08A27.31,27.31,0,0,1,23.55,578c1,1,2.09,1.93,3.17,2.91a76.43,76.43,0,0,1,7.43,7.32A16.42,16.42,0,0,1,37.81,595.06Z"/><path class="cls-1" d="M796,0V598H123.6c.62-.84,1.23-1.73,1.8-2.66a26.38,26.38,0,0,0,3.45-7.71,40.35,40.35,0,0,0,.65-9.75c0-1.41-.11-2.84-.18-4.24-.09-2-.18-4-.18-5.84,0-.75,0-1.5,0-2.23-.06-3.33-.11-6.54,1-9.76.34-1,.69-2.15,1-3.38.17-.54.32-1.1.5-1.66a26.29,26.29,0,0,1,1.8-4.83c1.81-3.4,3.84-6.83,5.85-10.22l2.1-3.57c1.34-2.3,2.81-4.4,4.27-6.49.29-.43.58-.85.88-1.27a60.14,60.14,0,0,0,4.81-7.91,50.27,50.27,0,0,1,2.66-4.64c.42-.68.84-1.35,1.23-2a19.08,19.08,0,0,0,2.73-6.77c1.93-12.32-.89-24.28-7.9-32.71a21.45,21.45,0,0,0-3.4-3.28,38.85,38.85,0,0,0-3.82-2.59,15.48,15.48,0,0,0-3.32-1.4l0,0a18.69,18.69,0,0,1-3.61-1.5c-4.39-2.53-8.93-5.3-13.27-8a22.67,22.67,0,0,1-5.65-5.08,34.78,34.78,0,0,1-4.26-6.77,65.19,65.19,0,0,1-5.07-16,55.43,55.43,0,0,1-1-11.93,2.94,2.94,0,0,1,1.54-2.47,13.08,13.08,0,0,1,2.84-1.22h0a8.86,8.86,0,0,0,2.33-1,1,1,0,0,0,.4-.54,1.07,1.07,0,0,0-.16-.76,2.84,2.84,0,0,1-.38-1.66,2.33,2.33,0,0,1,.66-1.36,11.7,11.7,0,0,1,3.12-2l.24-.12c2.58-1.35,5.79-3,7.88-6.38l0-.08.06,0,1.93-1.33.1-.06c.64-.43,1.3-.87,1.94-1.32a28.66,28.66,0,0,0,3.61-2.88,5.72,5.72,0,0,0,1.78-2.84,2.35,2.35,0,0,0-.21-1.45,2.83,2.83,0,0,0-2.22-1.51,10.37,10.37,0,0,0-2.59.05c-1.14.14-2.46.41-4.07.73l-2.13.42a129.22,129.22,0,0,1-25.74,2.25,7,7,0,0,1-4.13-1.34c-.56-.38-1.11-.83-1.7-1.3l-.06,0c-.61-.48-1.26-1-2-1.52-3-2.08-7.59-4.31-17.36-4.78a15.07,15.07,0,0,0-5.73,1.37c-.93.39-1.85.81-2.78,1.25l0,0c-.94.44-1.9.89-2.86,1.28a14.67,14.67,0,0,1-6,1.33A11,11,0,0,1,48.54,382a19.64,19.64,0,0,0-2.79-1.27l-1-.34c-.61-.23-1.24-.46-1.84-.7a15.25,15.25,0,0,1-2.58-1.36,12.58,12.58,0,0,1-2.9-2.73c-3.76-4.76-3.74-10.34-3.73-16.54v-1l-.08-2.38v-.3c0-.74-.07-1.51-.09-2.27a16.48,16.48,0,0,1,.47-4.95,4.72,4.72,0,0,1,1.16-1.88l0,0a5.49,5.49,0,0,0,1-1.44,2.47,2.47,0,0,0,.19-.64,10.22,10.22,0,0,1,.82-2.94l.1-.22a15.23,15.23,0,0,0,1-2.76.13.13,0,0,0,0-.06,1.1,1.1,0,0,1,0-.16l0-.13c0-.1,0-.23.08-.38a14.82,14.82,0,0,0,.24-1.61,8.89,8.89,0,0,0,0-1.93,3.88,3.88,0,0,0-.35-1.26,2.32,2.32,0,0,0-.45-.58c-2.2-2.24-4-4.34-6.38-7.26-.13-.15-.25-.3-.38-.44a28.73,28.73,0,0,0-3.75-3.67l-.76-.64c-1.05-.88-2.11-1.78-3.16-2.82-.5-.5-.94-1-1.35-1.5a1.73,1.73,0,0,0-.17-.21c-.34-.41-.65-.79-1-1.15a5.63,5.63,0,0,0-2.87-1.77,13.53,13.53,0,0,0-3.29-.41c-4.38,0-8.27,2.27-11.91,5.94a31.63,31.63,0,0,0-3,3.45V0Z"/><path d="M49.29,106.51c3.17,0,5.27-2.58,5.27-6.73s-2.1-6.73-5.27-6.73S44,95.63,44,99.78,46.1,106.51,49.29,106.51Zm0-2.45c-3.92,0-4.59-2.86-4.59-4.28s.67-4.28,4.59-4.28,4.57,2.86,4.57,4.28S53.21,104.06,49.29,104.06Z"/><path d="M61.06,96.87a4.16,4.16,0,0,0-3.84,2.41V97.09h-.7V110h.7v-5.89a4.13,4.13,0,0,0,3.84,2.35c2.67,0,3.78-2,3.78-4.72S63.73,96.87,61.06,96.87Zm-.38,2.27c2.82,0,3.46,1.16,3.46,2.6s-.64,2.52-3.46,2.52-3.42-1.14-3.42-2.52S57.92,99.14,60.68,99.14Z"/><path d="M71,96.87a4.16,4.16,0,0,0-3.84,2.41V97.09h-.7V110h.7v-5.89A4.13,4.13,0,0,0,71,106.46c2.67,0,3.78-2,3.78-4.72S73.69,96.87,71,96.87Zm-.38,2.27c2.81,0,3.46,1.16,3.46,2.6s-.65,2.52-3.46,2.52-3.43-1.14-3.43-2.52S67.88,99.14,70.64,99.14Z"/><path d="M80.51,106.46c2.9,0,4.48-2.18,4.48-4.85s-1.58-4.81-4.48-4.81S76,99,76,101.61,77.63,106.46,80.51,106.46Zm0-2.35c-2.76,0-3.79-1-3.79-2.5s1-2.47,3.79-2.47,3.79,1,3.79,2.47S83.27,104.11,80.51,104.11Z"/><path d="M90.06,106.46c3.39,0,4.14-1.94,4.14-3.08,0-3.69-7.19-2.31-7.19-3.73,0-.37.47-.73,3.06-.73,2.17,0,3.18.55,3.18,1H94c0-.59-.12-3.17-3.76-3.17-2.83,0-3.88,1.49-3.88,2.8,0,3.81,7.33,2.06,7.33,3.78,0,.53-.56.9-3.29.9-2.34,0-3.43-.5-3.43-1.47h-.7C86.22,104.19,86.83,106.46,90.06,106.46Z"/><path d="M96.1,95.8a1.4,1.4,0,1,0,0-2.8,1.4,1.4,0,1,0,0,2.8Zm-.36,10.44h.7V97.09h-.7Z"/><path d="M102.52,106.29h1.31V104c-3.43.1-3.89-.4-3.92-1.73V99.36H104V97.09h-3.89v-3l-.63.67v2.34H97.86v2.27h1.35V103C99.21,105.13,99.93,106.29,102.52,106.29Z"/><path d="M403.77,110c2,0,3.15-.72,3.84-2l.05,1.77h1.93V103h-5.75v2.09h3.22c0,1.44-1.25,2.56-3.11,2.56-2.18,0-3.55-1.65-3.55-4.26,0-2.45,1.4-4,3.61-4a2.84,2.84,0,0,1,3,2.06h2.42A5.1,5.1,0,0,0,404,97c-3.55,0-6,2.67-6,6.43S400.25,110,403.77,110Z"/><path d="M415.43,110a4.37,4.37,0,1,0-4.16-4.38A4.11,4.11,0,0,0,415.43,110Zm0-2c-1.13,0-1.92-1-1.92-2.35a2,2,0,1,1,3.86,0A2.09,2.09,0,0,1,415.43,108Z"/><path d="M425.15,110a4.37,4.37,0,1,0-4.16-4.38A4.11,4.11,0,0,0,425.15,110Zm0-2c-1.13,0-1.92-1-1.92-2.35a2,2,0,1,1,3.86,0A2.09,2.09,0,0,1,425.15,108Z"/><path d="M434.06,110a2.93,2.93,0,0,0,2.63-1.33v1.07h2.23V97.25h-2.23v5.35a2.93,2.93,0,0,0-2.63-1.33c-2,0-3.35,1.8-3.35,4.33S432.09,110,434.06,110Zm.76-2c-1.11,0-1.89-1-1.89-2.35s.78-2.33,1.89-2.33,1.88,1,1.88,2.33S435.92,108,434.82,108Z"/><path d="M450.35,110c3.07,0,4.89-1.65,4.89-4,0-5.3-7.22-2.36-7.22-5.19,0-1,.78-1.55,2.21-1.55s2.2.68,2.29,1.84h2.59c0-2.53-2-4.11-4.84-4.11s-4.67,1.48-4.67,3.86c0,5.28,7.21,2.38,7.21,5.18,0,1-.86,1.68-2.4,1.68a2.21,2.21,0,0,1-2.53-2.21h-2.62C445.26,108.34,447.34,110,450.35,110Z"/><path d="M459.56,110a2.53,2.53,0,0,0,2.57-1.66c.19,1.12,1.05,1.75,2.77,1.34V108c-.61.07-.73-.17-.73-.85v-2.78c0-2-1.29-3.1-3.58-3.1s-3.57,1.17-3.57,3.14h2.19c0-.71.5-1.12,1.35-1.12s1.4.4,1.39,1.08v.25l-1.79.22c-2.21.27-3.45,1.22-3.45,2.71C456.71,108.79,457.55,110,459.56,110Zm.45-1.74c-.69,0-1.07-.34-1.07-.84s.74-.84,2.15-1l.77-.08C461.72,107.42,461.07,108.26,460,108.26Z"/><path d="M466.24,109.74h2.22v-4.2c0-1.36.68-2.25,1.76-2.25s1.53.73,1.53,1.93v4.52H474v-4.65c0-2.51-.94-3.82-2.9-3.82a2.89,2.89,0,0,0-2.64,1.44v-1.19h-2.22Z"/><path d="M479.37,110c2.27,0,3.63-1,3.63-2.64,0-3.58-5-1.89-5-3.48,0-.59.48-1,1.3-1a1.32,1.32,0,0,1,1.49,1.29H483c-.13-1.82-1.45-2.92-3.54-2.92-2.3,0-3.68,1-3.68,2.7,0,3.48,5,1.79,5,3.46,0,.49-.49.94-1.35.94s-1.61-.46-1.64-1.25h-2.2C475.63,108.92,477.06,110,479.37,110Z"/><path d="M40,230.75h4.46c1.57,0,4.76-.26,4.76-3.25a2.46,2.46,0,0,0-2.36-2.75c1.83-.3,2.29-1.23,2.29-2.5,0-2.56-3.07-3-5-3H40Zm.78-6.87v-2.42h3.06c3,0,4.55.1,4.55,1.22s-1.31,1.2-4.55,1.2Zm0,4.65v-2.89h3c3.23,0,4.74.21,4.74,1.53,0,1-.9,1.36-4.74,1.36Z"/><path d="M55.76,231c3.21,0,5.34-2.3,5.34-6s-2.13-6-5.34-6-5.35,2.3-5.35,6S52.53,231,55.76,231Zm0-2.19c-4,0-4.64-2.55-4.64-3.81s.67-3.82,4.64-3.82,4.63,2.55,4.63,3.82S59.73,228.81,55.76,228.81Z"/><path d="M62.85,230.75h8.31v-2.22H63.63v-9.29h-.78Z"/><path d="M72.26,230.75h3.65c3.74,0,6.09-2.07,6.09-5.72,0-3.83-2.35-5.79-6.09-5.79H72.26Zm.78-2.22v-7.07h3.11c3.87,0,5.14,1,5.14,3.57,0,2.22-1,3.5-5.14,3.5Z"/><path d="M404,221.76a3,3,0,0,0,1.82-2.95c0-2.14-1.48-3.54-3.91-3.54H396v13.45h6.28a3.72,3.72,0,0,0,4-3.71A3.06,3.06,0,0,0,404,221.76Zm-5.44-3.92H401c1.53,0,2.25.49,2.25,1.53s-.69,1.43-2.17,1.43h-2.53Zm2.92,8.31h-2.92V223.1h3c1.51,0,2.22.46,2.22,1.47S403,226.15,401.43,226.15Z"/><path d="M414.39,229c3.85,0,6.49-2.93,6.49-7.07s-2.64-6.93-6.49-6.93-6.58,2.87-6.58,6.93S410.48,229,414.39,229Zm0-2.58c-2.39,0-4-1.89-4-4.58a4,4,0,0,1,4-4.27c2.34,0,3.92,1.77,3.92,4.27C418.31,224.53,416.73,226.42,414.39,226.42Z"/><path d="M422.87,228.72h9.59v-2.31h-7.08V215.27h-2.51Z"/><path d="M434,228.72h5.49c3.91,0,6.5-2.55,6.5-6.74s-2.52-6.71-6.5-6.71H434Zm2.51-2.38v-8.69h3c2.46,0,3.91,1.6,3.91,4.31s-1.45,4.38-3.91,4.38Z"/><path d="M98,230.77h7.77v-1.32H98.71V219.23H98Z"/><path d="M107.14,230.77h.7V219.23h-.7Z"/><path d="M115.18,231a4,4,0,0,0,4-2.62v2.39h.7v-6.25h-6.81v1.32h6.12a3.74,3.74,0,0,1-4,3.84c-3.83,0-4.42-3.18-4.42-4.7s.62-4.66,4.42-4.66c2.36,0,4,1,4,2.5h.69c0-2.5-2.22-3.82-4.66-3.82-2.87,0-5.12,2.22-5.12,6S112.05,231,115.18,231Z"/><path d="M122.56,230.77h.71v-5.21h6.87v5.21h.71V219.23h-.71v5h-6.87v-5h-.71Z"/><path d="M136.17,230.77h.71V220.55H141v-1.32h-8.95v1.32h4.12Z"/><path d="M464,228.72h9.53v-1.34h-8.08V215.27H464Z"/><path d="M475.5,228.72h1.44V215.27H475.5Z"/><path d="M485.74,229a4.69,4.69,0,0,0,4.63-2.66v2.38h1.32v-6.91h-6.06v1.34h4.61a4.43,4.43,0,0,1-4.49,4.45c-2.91,0-4.87-2.37-4.87-5.76,0-3.23,2-5.46,4.93-5.45a4.24,4.24,0,0,1,4.25,3h1.52a5.49,5.49,0,0,0-5.73-4.39c-3.84,0-6.49,2.87-6.49,6.93S482,229,485.74,229Z"/><path d="M494.46,228.72h1.45v-6.21h7.92v6.21h1.43V215.27h-1.43v5.84h-7.92v-5.84h-1.45Z"/><path d="M512.24,228.72h1.43v-12H519v-1.46H506.9v1.46h5.34Z"/><path d="M43,78.36h2.73l2.32-6.63H66.34l2.52,6.63h7.32L63.1,44H55.68ZM50.22,65.5l6.92-19.2L64,65.5Z"/><path d="M87.66,79c7.73,0,10.91-3.83,12.27-6.34l-.05,5.7H102V63.53c0-6.92-3.73-10.3-11.31-10.3-6.72,0-11.21,4-11.21,8.93h2.07c0-1.38,2.68-2.8,8.79-2.8,7.22,0,9.54.59,9.79,4.17H91.65c-8.38,0-13.59,1.57-13.59,8C78.06,76.25,82.41,79,87.66,79Zm1-5.35c-6,0-8.49-.94-8.49-2.61,0-2.11,3.19-2.79,11.82-2.79l8.08,0C99.48,71.83,93.47,73.65,88.62,73.65Z"/><path d="M399,78.26h5.33l4-9.13h19.47l4,9.13h5.33L421.06,42h-5.93Zm11.36-13.68L418.09,47l7.74,17.58Z"/><path d="M448.62,79c4.35,0,7.32-1.93,8.66-5.24.28,3.77,2.23,5.56,6.63,4.32l.09-3.31c-1.9.19-2.27-.5-2.27-2.48v-10c0-5.46-3.52-8.67-10.15-8.67s-10.28,3.26-10.28,8.81h4.44c0-3,2.09-4.82,5.75-4.82,3.85,0,5.56,1.75,5.52,4.68v1.38l-5.8.64c-7.09.78-10.75,3.35-10.75,7.58C440.46,75.55,443.1,79,448.62,79Zm1-3.68c-3.34,0-4.5-1.83-4.5-3.48,0-2.25,2.5-3.45,7.42-4l4.35-.46C456.77,71.84,453.67,75.32,449.64,75.32Z"/><path d="M40,144.75h.88l.74-2.22h5.86l.81,2.22h2.35l-4.2-11.51H44.07Zm2.32-4.31L44.53,134l2.21,6.42Z"/><path d="M52.06,144.75h4.18c1.47,0,4.46-.26,4.46-3.25a2.42,2.42,0,0,0-2.21-2.75,2.23,2.23,0,0,0,2.15-2.5c0-2.56-2.88-3-4.66-3H52.06Zm.73-6.87v-2.42h2.86c2.85,0,4.28.1,4.28,1.22s-1.23,1.2-4.28,1.2Zm0,4.65v-2.89h2.82c3,0,4.43.21,4.43,1.53,0,1-.84,1.36-4.43,1.36Z"/><path d="M67.69,145c2.32,0,4.63-1.75,4.63-4.08h-.66c0,.89-1.77,1.86-4.1,1.86-4.09,0-4.43-2.53-4.43-3.8s.34-3.76,4.43-3.76c2.28,0,4.08.8,4.08,1.77h.66c0-2.6-2.33-4-4.61-4-3.14,0-5.23,2.18-5.23,6S64.5,145,67.69,145Z"/><path d="M74.22,144.75h3.42c3.51,0,5.71-2.07,5.71-5.72,0-3.83-2.2-5.79-5.71-5.79H74.22Zm.73-2.22v-7.07h2.91c3.63,0,4.83,1,4.83,3.57,0,2.22-.91,3.5-4.83,3.5Z"/><path d="M85.65,144.75H93.5v-2.22H86.38v-2.61h6.94v-2H86.38v-2.44H93.5v-2.22H85.65Z"/><path d="M95.86,144.75h.73v-4.83h6.94v-2H96.59v-2.44h7.12v-2.22H95.86Z"/><path d="M110.55,145c2.69,0,4-1.58,4.24-2.54v2.29h.68v-6.48h-7.36v1.89h6.72c0,1.55-1.7,2.62-4.1,2.62-3.8,0-4.5-2.53-4.5-3.8s.7-3.76,4.5-3.76c2.56,0,4,.88,4.06,2h.67c0-2.8-2.27-4.19-4.73-4.19-3,0-5.16,2.22-5.16,6S107.54,145,110.55,145Z"/><path d="M118.1,144.75h.73V140h7.36v4.73h.73V133.24h-.73v4.56h-7.36v-4.56h-.73Z"/><path d="M129.67,144.75h.73V133.24h-.73Z"/><path d="M136.1,145c3.37,0,3.93-2.35,3.93-4.2l0-7.56h-.73v7.56c0,.66-.22,2-3.22,2s-3.32-1.32-3.32-2h-.66C132.12,142.65,132.69,145,136.1,145Z"/><path d="M142.57,144.75h.72v-3.34l2.25-2.33,3.52,5.67h2.6L147,137.68l4.26-4.44h-1.07l-6.9,7v-7h-.72Z"/><path d="M153.65,144.75h7.78v-2.22h-7.06v-9.29h-.72Z"/><path d="M163.11,144.75h.73v-8.1l3.77,7.15h1.28l4.08-7.2v8.15h2V133.24h-.92L169.13,142l-4.92-8.73h-1.1Z"/><path d="M177.75,144.75h.73v-8.43l6.8,8.43h1.18V133.24h-.73v8.67l-6.8-8.67h-1.18Z"/><path d="M193.77,145c3,0,5-2.3,5-6s-2-6-5-6-5,2.3-5,6S190.74,145,193.77,145Zm0-2.19c-3.72,0-4.35-2.55-4.35-3.81s.63-3.82,4.35-3.82,4.34,2.55,4.34,3.82S197.49,142.81,193.77,142.81Z"/><path d="M201.06,144.75h.73v-4.5h3.55c3,0,4.3-1.35,4.3-3.57,0-3.21-2.7-3.44-4.3-3.44h-4.28Zm.73-6.66V135.4h3.4c2.8,0,3.85.11,3.85,1.33s-1,1.36-3.85,1.36Z"/><path d="M221.47,143.7l-1-1.07a7.24,7.24,0,0,0,.86-3.63c0-3.7-2-6-5-6s-5,2.3-5,6,2,6,5,6a4.67,4.67,0,0,0,2.91-.94l.86.9Zm-5.16-.89c-3.72,0-4.36-2.55-4.36-3.81s.64-3.82,4.36-3.82,4.34,2.55,4.34,3.82a3.8,3.8,0,0,1-1.07,2.71l-2.28-2.38-1.38,1.28,1.94,2A6.53,6.53,0,0,1,216.31,142.81Z"/><path d="M232.18,136.68c0-3.21-2.7-3.44-4.3-3.44H223.6v11.51h.73v-4.5h3.56l1.94,4.5h2.11l-2-4.78A3.15,3.15,0,0,0,232.18,136.68Zm-7.85-1.28h3.4c2.8,0,3.85.11,3.85,1.33s-1.05,1.36-3.85,1.36h-3.4Z"/><path d="M238.15,145c2.7,0,4.52-1.45,4.52-3.7,0-4.37-8-2.62-8-4.9,0-.66,1-1.22,3.34-1.22s3.67.56,3.67,1.33h.62c0-2.23-1.88-3.51-4.23-3.51s-4.05,1.2-4.06,3.2c0,4.74,8,2.62,8,5.05,0,1-1.31,1.56-3.91,1.56s-3.79-1-3.79-2.05h-.63A4.13,4.13,0,0,0,238.15,145Z"/><path d="M247.57,144.75h.73v-9.29h4.09v-2.22h-8.9v2.22h4.08Z"/><path d="M258.36,145c3.21,0,4.39-1.63,4.39-4.13v-7.63H262v7.09c0,1.63-.5,2.45-3.66,2.45s-3.67-.82-3.67-2.45v-7.09H254v7.63C254,143.37,255.16,145,258.36,145Z"/><path d="M268.19,144.75h2.12l4-11.51H272l-3.56,10-3.42-10h-.85Z"/><path d="M278.89,144.75h2.17l2.3-8.2,2.33,8.2h2.16l3.36-11.51h-2.39l-2.88,9.82-2.8-9.82h-1.2l-2.8,9.82-2.82-9.82h-.79Z"/><path d="M292.38,144.75h2.36l3.32-4.72,3.53,4.72h.92l-3.92-5.29,4.36-6.22h-2.29l-3.52,4.84-3.66-4.84h-.91l4.08,5.43Z"/><path d="M308.31,144.75H309v-4.31l4.89-7.2h-2.25l-3.61,5.41-3.28-5.41h-.85l4.37,7.2Z"/><path d="M315,144.75h8v-2.22h-6.58l6.59-7.59v-1.7h-7.88v2.22h6.49L315,143Z"/><path d="M396,142.78h1.61l1.22-2.66h5.89l1.22,2.66h1.61l-4.88-10.57h-1.79Zm3.44-4,2.34-5.12,2.34,5.12Z"/><path d="M416.28,137.32a2.33,2.33,0,0,0,1.53-2.33c0-1.68-1.29-2.78-3.4-2.78h-4.8v10.57h5.16c2.06,0,3.5-1.18,3.5-2.86A2.45,2.45,0,0,0,416.28,137.32Zm-5.21-3.78h2.87c1.54,0,2.37.6,2.37,1.65s-.81,1.64-2.3,1.64h-2.94Zm3.28,7.92h-3.28v-3.4h3.34c1.51,0,2.34.53,2.34,1.58S415.9,141.46,414.35,141.46Z"/><path d="M425.78,143a4.93,4.93,0,0,0,5-4h-1.53a3.49,3.49,0,0,1-3.59,2.65c-2.34,0-3.94-1.74-3.94-4.29a3.82,3.82,0,0,1,4-4.06,3.36,3.36,0,0,1,3.4,2.46h1.53a4.69,4.69,0,0,0-4.9-3.78,5.29,5.29,0,0,0-5.57,5.44A5.36,5.36,0,0,0,425.78,143Z"/><path d="M433.34,142.78h4.41c3.41,0,5.67-2,5.67-5.3s-2.2-5.27-5.67-5.27h-4.41Zm1.46-1.27v-8h2.95c2.6,0,4.14,1.49,4.14,4s-1.54,4-4.14,4Z"/><path d="M446,142.78h8.24v-1.32h-6.78v-3.41h6.22v-1.3h-6.22v-3.21h6.71v-1.33H446Z"/><path d="M457,142.78h1.46V138h6.22v-1.3H458.5v-3.23h6.71v-1.27H457Z"/><path d="M472.33,143a4,4,0,0,0,3.86-2v1.78h1.29v-5.5h-5.2v1.22H476a3.36,3.36,0,0,1-3.59,3.17c-2.37,0-3.94-1.74-3.94-4.29a3.79,3.79,0,0,1,4-4.06,3.35,3.35,0,0,1,3.41,2.2h1.53c-.4-2.15-2.39-3.52-4.91-3.52a5.5,5.5,0,0,0-.14,11Z"/><path d="M480.32,142.78h1.45V138h6.39v4.77h1.46V132.21h-1.46v4.46h-6.39v-4.46h-1.45Z"/><path d="M492.65,142.78h1.45V132.21h-1.45Z"/><path d="M500.13,143c2.54,0,3.84-1.33,3.84-3.88v-6.87h-1.46V139c0,1.73-.79,2.63-2.38,2.63s-2.35-.83-2.35-2.46h-1.46C496.32,141.66,497.62,143,500.13,143Z"/><path d="M507,142.78h1.46V139.7l2.1-1.9,4.3,5h2l-5.22-5.94,5.13-4.63h-2.06l-6.23,5.66v-5.66H507Z"/><path d="M518.88,142.78H527v-1.26h-6.7v-9.31h-1.45Z"/><path d="M529.19,142.78h1.46V134l3.94,8.74h1.54l3.94-8.74v8.74h1.47V132.21h-2.33l-3.85,8.89-3.84-8.89h-2.33Z"/><path d="M544.56,142.78H546v-8.64l6.39,8.64h1.76V132.21H552.7v8.62l-6.35-8.62h-1.79Z"/><path d="M562.33,143a5.31,5.31,0,0,0,5.54-5.56,5.58,5.58,0,0,0-11.16,0A5.36,5.36,0,0,0,562.33,143Zm0-1.33a4,4,0,0,1-4.07-4.29,3.89,3.89,0,0,1,4.07-4.06,3.85,3.85,0,0,1,4,4.06A4,4,0,0,1,562.33,141.67Z"/><path d="M570.42,142.78h1.46v-4.33h3.41c2.42,0,3.68-1.23,3.68-3.16s-1.26-3.08-3.68-3.08h-4.87Zm1.46-5.67v-3.57H575c1.69,0,2.48.66,2.48,1.79s-.77,1.78-2.41,1.78Z"/><path d="M592.91,142.78l-2-1.9a5.78,5.78,0,0,0,1.05-3.44,5.58,5.58,0,0,0-11.15,0,5.36,5.36,0,0,0,5.62,5.56,5.55,5.55,0,0,0,3.58-1.19l1,1Zm-6.49-1.11a4,4,0,0,1-4.08-4.29,3.89,3.89,0,0,1,4.08-4.06,3.85,3.85,0,0,1,4,4.06,4.69,4.69,0,0,1-.63,2.44l-2.52-2.39h-1.88L589,140.8A3.94,3.94,0,0,1,586.42,141.67Z"/><path d="M594.55,142.78H596v-4.41h3.2c1.64,0,2,.25,2.16,1.71a11.71,11.71,0,0,0,.39,2.7h1.5v-.1c-.38-.83-.2-1.58-.43-3.08a1.82,1.82,0,0,0-1.46-1.77,2.55,2.55,0,0,0,1.74-2.54c0-1.93-1.27-3.08-3.69-3.08h-4.86Zm1.45-5.67v-3.57h3.13c1.68,0,2.44.66,2.44,1.79s-.73,1.78-2.37,1.78Z"/><path d="M609.82,143c2.8,0,4.37-1.4,4.37-3.27,0-4.41-7.06-1.75-7.06-4.56,0-1.19.93-1.89,2.59-1.89s2.65.78,2.76,2.09h1.57c0-2-1.76-3.37-4.28-3.37s-4.17,1.25-4.17,3c0,4.55,7,1.75,7,4.71,0,1.23-1,2-2.77,2s-2.92-.89-3-2.41H605.3C605.3,141.63,607.12,143,609.82,143Z"/><path d="M619.64,142.78h1.46v-9.19h4.44v-1.38H615.2v1.38h4.44Z"/><path d="M632.05,143c3,0,4.7-1.69,4.7-4.61v-6.14h-1.46v6.13a3.23,3.23,0,1,1-6.46,0v-6.13h-1.47v6.14C627.36,141.22,629.11,142.93,632.05,143Z"/><path d="M643.43,142.78h1.78L650,132.21h-1.57l-4.06,9.06-4.08-9.06h-1.57Z"/><path d="M654.79,142.78h1.78l2.68-8.55,2.83,8.55h1.78l3.63-10.57h-1.64L663,141.12l-2.85-8.91h-1.8l-2.65,8.89-2.88-8.89h-1.64Z"/><path d="M668.84,142.78h1.84l3.67-4.23,3.69,4.23h1.83l-4.55-5.26,4.59-5.31h-1.85l-3.68,4.24-3.69-4.24h-1.85l4.57,5.29Z"/><path d="M685.67,142.78h1.46v-4.09l4.71-6.48h-1.67l-3.77,5.18-3.75-5.18H681l4.71,6.48Z"/><path d="M693.38,142.78h9.44v-1.32h-7.31L703,133v-.79h-9.71v1.33h7.47l-7.38,8.21Z"/><path d="M43.05,198a6.28,6.28,0,0,0,3.77-1l1.13,1,.23-.79-.79-.69a5.51,5.51,0,0,0,1.32-3.86h-.53a2.67,2.67,0,0,1-1.89,2.89L43,192.6c2-.58,4.09-1.22,4.09-2.82s-1.44-2.71-3.54-2.71c-2.5,0-3.55,1.29-3.55,2.59a3.84,3.84,0,0,0,1.44,2.45C40.1,192.68,39,193.49,39,195,39,196.79,40.57,198,43.05,198Zm-.89-6.1c-.86-.81-1.47-1.37-1.47-2.06,0-.46.42-.93,2.93-.93,2.23,0,2.83.5,2.83,1.13C46.45,190.89,44.18,191.16,42.16,191.85Zm1,4.19c-2.64,0-3.51-.46-3.51-1.39s1.18-1.39,2.59-1.82l3.22,2.88A6.66,6.66,0,0,1,43.16,196Z"/><path d="M52.7,194.16h.62v-6.91H52.7Zm.31,3.78c.81,0,1.46-.45,1.46-1.21s-.65-1.2-1.46-1.2-1.47.45-1.47,1.2S52.2,197.94,53,197.94Z"/><path d="M61.88,198c3,0,5-2.06,5-5.47s-2-5.47-5-5.47-5,2.06-5,5.47S58.85,198,61.88,198Zm0-2c-3.43,0-4.36-2.12-4.36-3.47s.93-3.47,4.36-3.47,4.34,2.12,4.34,3.47S65.31,196,61.88,196Z"/><path d="M73.67,197.77h.64V187.25h-.5L68.57,191l.39,2.12,4.71-3.31Z"/><path d="M76.93,197.77h8.3v-2h-7.3c0-1.88,7.3-1.74,7.3-5.53,0-2.16-1.7-3.18-4.14-3.18-2.61,0-4.32,1.69-4.27,3.93h.68c0-1.06,1.24-1.93,3.7-1.93s3.37.48,3.39,1.23c0,2.18-7.6,1.5-7.66,6.43Z"/><path d="M91.35,198c2.44,0,4.32-1.24,4.32-3.26a2.52,2.52,0,0,0-2.14-2.54,2.33,2.33,0,0,0,1.88-2.35c0-1.71-1.58-2.82-4.06-2.82s-4.06,1.33-4.06,3.38H88c0-.88,1-1.36,3.4-1.36s3.4.43,3.4,1.21-1.1,1.22-3.92,1.23V193c2.85,0,4.18.55,4.18,1.49s-1.25,1.45-3.66,1.45-3.59-.63-3.63-1.59h-.64C87.08,196.54,89,198,91.35,198Z"/><path d="M104.5,197.77h.67v-2.43h1.31V193.5h-1.31v-6.25h-2.09v0l-5.62,6.53v1.54h7ZM100,193.5l4.46-5.15v5.15Z"/><path d="M112.64,198c3,0,4.47-1.54,4.47-3.7s-1.26-3.64-3.8-3.64a4.57,4.57,0,0,0-3.61,1.22l.4-2.6h6.35v-2l-7,0-.65,5.75.53.3c.54-.58,1.48-.87,3.56-.87,2.64,0,3.52.5,3.52,1.73s-.78,1.82-3.61,1.82c-2.5,0-3.66-.56-3.77-1.7h-.64C108.43,196.66,110.23,198,112.64,198Z"/><path d="M123.73,198c2.43,0,4.08-1.25,4.15-3.39.09-2.29-1.33-3.73-3.92-3.73-2.27,0-3.61.81-4.34,2,0-2.27,1-3.87,4.16-3.87,2.41,0,3.29.57,3.29,1.29h.72c0-2.23-2-3.26-4.07-3.26-2.93,0-4.71,2-4.71,5.21C119,196.07,120.46,198,123.73,198Zm-.11-2c-2.53,0-3.61-.57-3.61-1.7s1.12-1.68,3.75-1.68c2.45,0,3.45.57,3.45,1.68S126.18,196,123.62,196Z"/><path d="M131.48,197.77h.88l5.1-9.41v-1.11h-8.13v2h6.86Z"/><path d="M142.94,198c2.46,0,4.39-1.24,4.39-3.26a2.51,2.51,0,0,0-2.14-2.56,2.23,2.23,0,0,0,1.88-2.33c0-1.68-1.52-2.82-4.13-2.82s-4.13,1.14-4.13,2.82a2.23,2.23,0,0,0,1.88,2.33,2.51,2.51,0,0,0-2.14,2.56C138.55,196.76,140.48,198,142.94,198Zm0-6.41c-2.65,0-3.37-.55-3.37-1.32s.86-1.24,3.37-1.24,3.37.51,3.37,1.24S145.59,191.58,142.94,191.59Zm0,4.41c-2.57,0-3.63-.65-3.63-1.63s.93-1.63,3.63-1.63,3.63.61,3.63,1.63S145.51,196,142.94,196Z"/><path d="M153.28,187c-2.43,0-4.08,1.24-4.15,3.39s1.33,3.73,3.92,3.73c2.27,0,3.61-.81,4.34-2,0,2.26-1,3.87-4.16,3.87-2.41,0-3.29-.57-3.29-1.29h-.73c0,2.22,2,3.26,4.08,3.26,2.93,0,4.71-2,4.71-5.21C158,188.9,156.55,187,153.28,187Zm.11,2c2.52,0,3.61.57,3.61,1.7s-1.12,1.68-3.76,1.68c-2.44,0-3.44-.57-3.44-1.68S150.83,189,153.39,189Z"/><path d="M399.78,196a5.87,5.87,0,0,0,3.61-1.14l1,.92h2.08l-2.12-1.84a6.77,6.77,0,0,0,1.46-3.9h-1.53a5.56,5.56,0,0,1-1,3l-2.66-2.31c1.8-.77,2.83-1.68,2.83-3.08,0-1.57-1.27-2.62-3.11-2.62-2.09,0-3.44,1.05-3.44,2.74a3.93,3.93,0,0,0,1.32,2.56c-1.42.65-2.27,1.56-2.27,2.7C396,194.85,397.49,196,399.78,196Zm-.18-6.24a2.85,2.85,0,0,1-1.14-1.91c0-1,.71-1.57,1.89-1.57,1,0,1.69.55,1.69,1.49S401.19,189.29,399.6,189.76Zm.32,4.91c-1.46,0-2.38-.67-2.38-1.58,0-.69.5-1.32,1.77-1.84l3,2.67A4.06,4.06,0,0,1,399.92,194.67Z"/><path d="M408.65,192.21H410v-7h-1.39Zm.68,3.73a1,1,0,0,0,1-1,1,1,0,0,0-2,0A1,1,0,0,0,409.33,195.94Z"/><path d="M417.15,196c2.83,0,4.5-2.06,4.5-5.56S420,185,417.15,185s-4.6,2-4.6,5.44S414.26,196,417.15,196Zm0-1.33c-1.94,0-3.07-1.59-3.07-4.29,0-2.55,1.13-4.06,3.07-4.06s3,1.51,3,4.06C420.13,193.08,419,194.67,417.15,194.67Z"/><path d="M426.64,195.78h1.45V185.21h-1l-3.73,2v1.54l3.27-1.73Z"/><path d="M430.85,195.78h7.86V194.4h-6.08c.36-2.51,5.92-2.44,5.92-6.08,0-2.07-1.38-3.32-3.81-3.32-2.7,0-4.12,1.51-3.88,4.06h1.52a2.11,2.11,0,0,1,2.31-2.74c1.51,0,2.35.82,2.35,2.08,0,2.54-6.19,2.55-6.19,6.69Z"/><path d="M444.78,196c2.35,0,3.94-1.42,3.94-3.44s-1.52-3.09-3.43-3.11l3.31-3.34v-.9H441v1.33h5.25l-3.17,3.35.76.78a3.31,3.31,0,0,1,1-.16c1.47,0,2.41.8,2.41,2s-1,2.15-2.51,2.15a2.39,2.39,0,0,1-2.55-2.41h-1.47A3.73,3.73,0,0,0,444.78,196Z"/><path d="M456.51,195.78h1.36v-2.89h1.61v-1.32h-1.61v-6.36H455.8l-5.2,6.56v1.12h5.91Zm-4-4.21,4-5.07v5.07Z"/><path d="M465.39,196c2.41,0,4-1.45,4-3.7a3.4,3.4,0,0,0-3.64-3.49,4,4,0,0,0-2.32.67l.35-2.94H469v-1.33h-6.45l-.6,5.51.92.42a3.27,3.27,0,0,1,2.37-1c1.62,0,2.63.88,2.63,2.17a2.31,2.31,0,0,1-2.51,2.39,2.24,2.24,0,0,1-2.37-2.09h-1.51C461.53,194.63,463.07,196,465.39,196Z"/><path d="M475.83,196a3.61,3.61,0,0,0,3.84-3.64c0-2-1.48-3.35-3.68-3.35a3.31,3.31,0,0,0-2.82,1.39c.17-2.59,1.14-4.08,2.69-4.08a2.11,2.11,0,0,1,2.25,1.81l1.52,0a3.41,3.41,0,0,0-3.71-3.11c-2.54,0-4.17,2.07-4.17,5.67C471.75,194,473.09,196,475.83,196Zm0-1.33a2.2,2.2,0,1,1,0-4.4,2.15,2.15,0,0,1,2.28,2.19A2.18,2.18,0,0,1,475.85,194.67Z"/><path d="M483,195.78h1.74l4.52-9.78v-.79h-8.24v1.33h6.42Z"/><path d="M494.72,196c2.39,0,4-1.26,4-3.15a2.93,2.93,0,0,0-2.08-2.74,2.69,2.69,0,0,0,1.63-2.4c0-1.63-1.42-2.71-3.53-2.71s-3.54,1.08-3.54,2.71a2.7,2.7,0,0,0,1.63,2.4,2.92,2.92,0,0,0-2.07,2.74C490.74,194.74,492.33,196,494.72,196Zm0-6.41a1.81,1.81,0,0,1-2-1.73c0-.94.83-1.58,2-1.58s2,.64,2,1.58A1.8,1.8,0,0,1,494.72,189.59Zm0,5.12c-1.45,0-2.41-.77-2.41-1.9s1-2,2.41-2,2.4.8,2.4,2S496.17,194.71,494.72,194.71Z"/><path d="M504.81,196c2.53,0,4.19-2.12,4.19-5.9,0-3.16-1.36-5.1-4.11-5.1a3.57,3.57,0,0,0-3.83,3.45,3.37,3.37,0,0,0,3.68,3.53,3.29,3.29,0,0,0,2.81-1.39c-.16,2.6-1.15,4.08-2.69,4.08a2.1,2.1,0,0,1-2.24-1.8H501.1A3.41,3.41,0,0,0,504.81,196Zm0-5.28a2.15,2.15,0,0,1-2.29-2.19,2.32,2.32,0,1,1,2.29,2.19Z"/><path d="M43.08,170.89a4.06,4.06,0,0,0,3.94-2.1l0,1.89h.68v-4.92c0-2.29-1.2-3.41-3.63-3.41-2.15,0-3.59,1.32-3.59,3h.66c0-.46.86-.93,2.82-.93,2.31,0,3.06.2,3.14,1.38H44.36c-2.69,0-4.36.53-4.36,2.64C40,170,41.4,170.89,43.08,170.89Zm.31-1.77c-1.93,0-2.72-.31-2.72-.87s1-.92,3.79-.92h2.59C46.87,168.51,44.94,169.12,43.39,169.12Z"/><path d="M54.57,170.87c2.55,0,3.6-1.87,3.6-4.29s-1.05-4.17-3.6-4.17a4,4,0,0,0-3.64,2.07v-5.19h-.66v11.39h.66v-1.94A4,4,0,0,0,54.57,170.87Zm-.35-2c-2.63,0-3.26-1-3.26-2.29s.63-2.23,3.26-2.23,3.28,1,3.28,2.23S56.89,168.87,54.22,168.87Z"/><path d="M64.34,170.89c2.49,0,4-1.56,4-3.55H67.7c-.09.86-1,1.48-3.46,1.48-2.63,0-3.6-.88-3.6-2.21s1-2.2,3.6-2.2c2.28,0,3.32.46,3.42,1.29h.66c0-1.9-1.56-3.35-4-3.35a4.27,4.27,0,1,0,0,8.54Z"/><path d="M73.85,170.87a4,4,0,0,0,3.65-2.13v1.94h.66V159.29H77.5v5.19a4,4,0,0,0-3.65-2.07c-2.54,0-3.59,1.81-3.59,4.17S71.31,170.87,73.85,170.87Zm.36-2c-2.67,0-3.29-1-3.29-2.29s.62-2.23,3.29-2.23,3.26,1,3.26,2.23S76.83,168.87,74.21,168.87Z"/><path d="M84.42,170.87c2,0,3.72-1.25,3.72-3.07h-.66c0,.75-1.06,1-3,1.07-2.72-.05-3.56-.89-3.56-1.63h7.24v-.78c0-2.83-1.62-4.05-3.74-4.05a4,4,0,0,0-4.15,4.18C80.27,169,81.53,170.87,84.42,170.87Zm-3.49-4.76c0-.75.8-1.66,3.42-1.66s3.19,1,3.19,1.66Z"/><path d="M91,170.68h.67v-6.07h3.88v-2H91.67c0-1,.18-1.4,1.75-1.4a3.59,3.59,0,0,1,2,.42l.56-1.69a3.61,3.61,0,0,0-2.25-.65c-2.27,0-2.62,1.54-2.69,3.32H89.76v2H91Z"/><path d="M100.71,174c3.35,0,4.13-1.91,4.13-4.46v-6.93h-.6v1.85a3.52,3.52,0,0,0-3.61-2.11c-2.74,0-3.74,1.89-3.74,4.21s1,4,3.74,4a3.44,3.44,0,0,0,3.55-2.09c0,2.31-1.12,3.55-3.4,3.55-1.74,0-3.11-.41-3.11-1.32H97C97,172.92,98.41,174,100.71,174Zm.15-5.29c-2.79,0-3.31-.94-3.31-2.15s.52-2.21,3.31-2.21,3.25,1,3.25,2.21S103.6,168.71,100.86,168.71Z"/><path d="M107.33,170.68H108V167c0-1.11.41-2.44,3.34-2.44,2.39,0,2.9.7,2.9,2v4.09h.66v-4.9c0-2-.94-3.4-3.26-3.4a4,4,0,0,0-3.69,2.34h0v-5.43h-.56Z"/><path d="M117.71,161.47a1.24,1.24,0,1,0,0-2.47,1.24,1.24,0,1,0,0,2.47Zm-.34,9.21H118v-8.07h-.66Z"/><path d="M121.78,161.47a1.24,1.24,0,1,0,0-2.47,1.25,1.25,0,1,0,0,2.47Zm-3.22,12.36c3.42,0,3.53-2.19,3.53-4.23v-7h-.66v7.25c0,1.31-.1,2.33-2.87,2.33Z"/><path d="M124.94,170.68h.67v-2.77l2-1.54,3,4.31h2.35l-3.9-5.37,3.59-2.7h-1.08l-5.88,4.44v-7.76h-.67Z"/><path d="M134.61,170.68h.66V159.29h-.66Z"/><path d="M137.75,170.68h.67V167c0-1.11.31-2.44,3.24-2.44,2.39,0,2.9.7,2.9,2v4.09h.66V167c0-1.11.31-2.44,3.24-2.44,2.4,0,2.9.7,2.9,2v4.09H152v-4.9c0-2-.94-3.4-3.25-3.4a3.93,3.93,0,0,0-3.65,2.31,2.85,2.85,0,0,0-3.16-2.31,3.86,3.86,0,0,0-3.59,2.34h-.05v-2.11h-.57Z"/><path d="M154.55,170.68h.66V167c0-1.11.41-2.44,3.34-2.44,2.4,0,2.9.7,2.9,2v4.09h.66v-4.9c0-2-.94-3.4-3.25-3.4a4,4,0,0,0-3.69,2.34h0v-2.11h-.57Z"/><path d="M168.51,170.87a4.26,4.26,0,1,0-4.26-4.28A4,4,0,0,0,168.51,170.87Zm0-2.06c-2.63,0-3.6-.87-3.6-2.22s1-2.18,3.6-2.18,3.59.85,3.59,2.18S171.13,168.81,168.51,168.81Z"/><path d="M179.28,162.41a4,4,0,0,0-3.65,2.13v-1.93H175V174h.66v-5.19a4,4,0,0,0,3.65,2.06c2.54,0,3.59-1.8,3.59-4.16S181.82,162.41,179.28,162.41Zm-.36,2c2.67,0,3.29,1,3.29,2.3s-.62,2.23-3.29,2.23-3.26-1-3.26-2.23S176.3,164.41,178.92,164.41Z"/><path d="M188.28,162.41c-2.55,0-3.6,1.87-3.6,4.3s1,4.16,3.6,4.16a4,4,0,0,0,3.64-2.06V174h.66V162.61h-.66v1.93A4,4,0,0,0,188.28,162.41Zm.35,2c2.63,0,3.26,1,3.26,2.3s-.63,2.23-3.26,2.23-3.29-1-3.29-2.23S186,164.41,188.63,164.41Z"/><path d="M195.18,170.68h.66v-3.27c0-1.11.15-2.74,2.76-2.74a5.67,5.67,0,0,1,2.67.56v-2.35a3.8,3.8,0,0,0-1.78-.4,3.62,3.62,0,0,0-3.71,2.47v-2.34h-.6Z"/><path d="M206.14,170.87c3.22,0,3.93-1.71,3.93-2.71,0-3.26-6.83-2-6.83-3.29,0-.33.45-.65,2.91-.65,2.06,0,3,.49,3,.93h.66c0-.52-.11-2.8-3.56-2.8-2.69,0-3.7,1.32-3.7,2.47,0,3.37,7,1.82,7,3.34,0,.47-.54.79-3.13.79-2.22,0-3.25-.44-3.25-1.3h-.67C202.49,168.87,203.08,170.87,206.14,170.87Z"/><path d="M216,170.73h1.25v-2c-3.26.08-3.69-.36-3.73-1.53v-2.57h3.89v-2h-3.69V160l-.6.58v2.07h-1.54v2h1.28v3.19C212.82,169.7,213.5,170.73,216,170.73Z"/><path d="M222.94,170.89a3.67,3.67,0,0,0,3.45-2.2v2h.6v-8.07h-.67v3.33c0,1.4-.21,2.75-3.4,2.75-2.35,0-2.85-.37-2.85-1.88v-4.2h-.66v5C219.41,169.65,220.35,170.89,222.94,170.89Z"/><path d="M231.59,170.68h1.75l3.35-8.07h-2.05l-3,6.64L229,162.61h-.76Z"/><path d="M240.38,170.68h1.91l1.79-5.73,1.79,5.73h1.9l2.65-8.07h-2.07L246,169.13,244,162.61h-1.28l-2.26,6.52-2-6.52h-.71Z"/><path d="M251.28,170.68h2.2l2.59-3.09,2.58,3.09h1L256.56,167l3.67-4.39H258l-2.56,3.07-2.57-3.07h-1l3.06,3.66Z"/><path d="M264.18,173.87l5.25-11.26h-1.81l-2.43,5.19-3.45-5.19h-.83l3.94,6-2.22,4.86Z"/><path d="M270.63,170.68H278v-2.07h-5.9l5.91-4.26v-1.74h-7.24v2.06h5.77l-5.9,4.22Z"/><path d="M399.46,169a2.59,2.59,0,0,0,2.61-1.7c.08,1.22.67,1.8,2,1.4l0-1.08c-.57.06-.68-.16-.68-.8V163.6c0-1.77-1.06-2.81-3.06-2.81s-3.1,1.06-3.1,2.86h1.34a1.52,1.52,0,0,1,1.73-1.57c1.16,0,1.68.57,1.66,1.52v.45l-1.74.21c-2.14.25-3.24,1.09-3.24,2.46A2.26,2.26,0,0,0,399.46,169Zm.31-1.2c-1,0-1.36-.59-1.36-1.13,0-.73.76-1.12,2.23-1.3l1.32-.15A2.43,2.43,0,0,1,399.77,167.82Z"/><path d="M410.08,169c1.9,0,3.24-1.72,3.24-4.15s-1.34-4.08-3.24-4.08a2.68,2.68,0,0,0-2.4,1.44V157h-1.42v11.78h1.42v-1.21A2.64,2.64,0,0,0,410.08,169Zm-.31-1.3c-1.25,0-2.15-1.18-2.15-2.83s.9-2.81,2.15-2.81,2.14,1.17,2.14,2.81S411,167.72,409.77,167.72Z"/><path d="M419.07,169a3.17,3.17,0,0,0,3.21-2.79h-1.41a1.76,1.76,0,0,1-1.84,1.49c-1.28,0-2.2-1.16-2.2-2.83s.92-2.81,2.2-2.81a1.82,1.82,0,0,1,1.84,1.52h1.41a3.18,3.18,0,0,0-3.21-2.81c-2.16,0-3.68,1.7-3.68,4.1S416.91,169,419.07,169Z"/><path d="M427.53,169a2.65,2.65,0,0,0,2.4-1.45v1.21h1.42V157h-1.42v5.23a2.69,2.69,0,0,0-2.4-1.44c-1.9,0-3.24,1.7-3.24,4.08S425.63,169,427.53,169Zm.3-1.3c-1.25,0-2.13-1.18-2.13-2.83s.88-2.81,2.13-2.81,2.15,1.17,2.15,2.81S429.09,167.72,427.83,167.72Z"/><path d="M437.37,169a3.11,3.11,0,0,0,3.2-2.49h-1.43a1.74,1.74,0,0,1-1.77,1.23,2.24,2.24,0,0,1-2.22-2.38h5.49v-.6c0-2.58-1.5-4-3.27-4-2.15,0-3.68,1.7-3.68,4.1S435.22,169,437.37,169Zm-2.22-4.77a2.21,2.21,0,0,1,2.18-2.17,2,2,0,0,1,1.88,2.17Z"/><path d="M443.72,168.78h1.41v-6.41h2.09V161h-2.09V160c0-1.25.43-1.68,1.48-1.68h.57V157l-.6,0c-2-.07-2.88.92-2.86,3.12V161H442v1.34h1.72Z"/><path d="M452.07,172c2.18,0,3.48-1.23,3.48-3.69V161h-1.41v1.11a2.62,2.62,0,0,0-2.42-1.35c-2,0-3.23,1.68-3.23,4.1s1.25,4,3.23,4a2.62,2.62,0,0,0,2.42-1.3v.71c0,1.69-.76,2.49-2,2.49s-2-.44-2.05-1.37h-1.43C448.79,171.13,450.09,172,452.07,172Zm0-4.37c-1.25,0-2.13-1.1-2.13-2.77s.88-2.81,2.13-2.81,2.15,1.15,2.15,2.81S453.31,167.63,452,167.63Z"/><path d="M458.18,168.78h1.42V164.9c0-1.67.85-2.82,2.14-2.82,1.06,0,1.64.78,1.64,2.08v4.62h1.44V164.1c0-2.21-.91-3.31-2.67-3.31a2.79,2.79,0,0,0-2.55,1.52V157h-1.42Z"/><path d="M468,159.85a1.08,1.08,0,1,0-1-1.08A1,1,0,0,0,468,159.85Zm-.7,8.93h1.41V161h-1.41Z"/><path d="M472.05,159.85a1.08,1.08,0,0,0,0-2.15,1.08,1.08,0,0,0,0,2.15Zm-2.43,11.91h.31c1.83,0,2.83-.79,2.83-3V161h-1.42v7.6c0,1.38-.46,1.86-1.41,1.86h-.31Z"/><path d="M475.36,168.78h1.42v-3l.91-.81,2.94,3.85h1.73l-3.69-4.73,3.41-3h-1.87l-3.43,3.1V157h-1.42Z"/><path d="M484.12,168.78h1.42V157h-1.42Z"/><path d="M488.17,168.78h1.42V165c0-1.66.85-2.87,2.13-2.87,1.06,0,1.65.82,1.65,2.12v4.58h1.44V165c0-1.66.85-2.87,2.13-2.87,1.06,0,1.65.82,1.65,2.12v4.58H500v-4.62c0-2.23-.89-3.37-2.65-3.37a3.1,3.1,0,0,0-2.79,1.7,2.33,2.33,0,0,0-2.43-1.7,2.78,2.78,0,0,0-2.55,1.56V161h-1.42Z"/><path d="M502.53,168.78H504V165c0-1.66.85-2.87,2.13-2.87,1.06,0,1.65.82,1.65,2.12v4.58h1.44v-4.62c0-2.23-.91-3.37-2.67-3.37a2.79,2.79,0,0,0-2.55,1.56V161h-1.42Z"/><path d="M515.07,169c2.16,0,3.7-1.72,3.7-4.13s-1.54-4.1-3.7-4.1-3.68,1.7-3.68,4.1S512.92,169,515.07,169Zm0-1.3c-1.31,0-2.24-1.18-2.24-2.83s.93-2.81,2.24-2.81,2.26,1.17,2.26,2.81S516.4,167.72,515.07,167.72Z"/><path d="M521,171.76h1.43v-4.19a2.69,2.69,0,0,0,2.4,1.45c1.89,0,3.23-1.7,3.23-4.09s-1.34-4.14-3.23-4.14a2.61,2.61,0,0,0-2.4,1.44V161H521Zm3.52-4c-1.26,0-2.15-1.16-2.15-2.8s.89-2.84,2.15-2.84,2.13,1.18,2.13,2.84S525.74,167.72,524.49,167.72Z"/><path d="M535.76,171.76h1.41V161h-1.41v1.2a2.61,2.61,0,0,0-2.4-1.44c-1.9,0-3.25,1.71-3.25,4.14s1.35,4.09,3.25,4.09a2.69,2.69,0,0,0,2.4-1.45Zm-2.09-4c-1.26,0-2.14-1.16-2.14-2.8s.88-2.84,2.14-2.84,2.15,1.18,2.15,2.84S534.92,167.72,533.67,167.72Z"/><path d="M539.61,168.78H541v-4.37c0-1.4,1.19-2.06,2.91-2.06v-1.41A2.89,2.89,0,0,0,541,162.5V161h-1.35Z"/><path d="M548.31,169c1.92,0,3.11-.94,3.11-2.37,0-3.31-4.75-1.6-4.75-3.49,0-.7.59-1.23,1.58-1.23a1.59,1.59,0,0,1,1.8,1.55h1.35a2.78,2.78,0,0,0-3-2.69c-1.93,0-3.12,1-3.12,2.43,0,3.22,4.73,1.47,4.73,3.44,0,.69-.6,1.21-1.63,1.21s-1.9-.55-2-1.51h-1.36C545.1,168,546.34,169,548.31,169Z"/><path d="M557.56,168.76v-1.32c-1.66.13-1.72,0-1.72-1.32v-3.75h2.08V161h-2.08v-2.09h-1.42V161h-1.55v1.34h1.55v4.32C554.38,168.88,555.48,169,557.56,168.76Z"/><path d="M566.73,161h-1.41v3.83c0,1.65-.87,2.86-2.15,2.86-1,0-1.65-.82-1.65-2.12V161H560.1v4.62c0,2.22.89,3.37,2.65,3.37a2.83,2.83,0,0,0,2.57-1.57v1.33h1.41Z"/><path d="M571.61,168.78h1.58l3.33-7.75H575l-2.61,6.06L569.78,161h-1.5Z"/><path d="M580.4,168.78h1.46l1.93-5.68,1.91,5.68h1.46l2.49-7.75h-1.53l-1.73,5.79L584.48,161h-1.41l-1.92,5.79L579.42,161h-1.51Z"/><path d="M590.94,168.78h1.74L594.9,166l2.22,2.82h1.74l-3-3.85,3.1-3.9h-1.73l-2.25,2.84L592.69,161H591L594,164.9Z"/><path d="M600.68,171.76h.69a3.31,3.31,0,0,0,3.59-2.4l3-8.33h-1.51l-2.09,6.11L601.64,161h-1.52l3.47,8c-.54,1.07-1,1.45-2,1.45h-.87Z"/><path d="M609.31,168.78h6.5v-1.39h-4.36l4.55-5.47V161h-6.43v1.38H614L609.31,168Z"/><path class="cls-2" d="M345,120H41v-1H345Z"/><path class="cls-2" d="M701,120H398v-1H701Z"/><path class="cls-2" d="M345,207H41v-1H345Z"/><path class="cls-2" d="M701,207H398v-1H701Z"/><rect class="cls-3" x="251.5" y="313.5" width="520" height="256" rx="6.5"/><path class="cls-4" d="M675,346a8,8,0,0,1,8-8h55a8,8,0,0,1,8,8V542a8,8,0,0,1-8,8H683a8,8,0,0,1-8-8Z"/><path class="cls-2" d="M738,339H683a7,7,0,0,0-7,7V542a7,7,0,0,0,7,7h55a7,7,0,0,0,7-7V346A7,7,0,0,0,738,339Zm-55-1a8,8,0,0,0-8,8V542a8,8,0,0,0,8,8h55a8,8,0,0,0,8-8V346a8,8,0,0,0-8-8Z"/><path class="cls-5" d="M373,346a8,8,0,0,1,8-8h43a8,8,0,0,1,8,8V542a8,8,0,0,1-8,8H381a8,8,0,0,1-8-8Z"/><path class="cls-2" d="M424,339H381a7,7,0,0,0-7,7V542a7,7,0,0,0,7,7h43a7,7,0,0,0,7-7V346A7,7,0,0,0,424,339Zm-43-1a8,8,0,0,0-8,8V542a8,8,0,0,0,8,8h43a8,8,0,0,0,8-8V346a8,8,0,0,0-8-8Z"/><path class="cls-6" d="M276,346a8,8,0,0,1,8-8h71a8,8,0,0,1,8,8V542a8,8,0,0,1-8,8H284a8,8,0,0,1-8-8Z"/><path class="cls-2" d="M355,339H284a7,7,0,0,0-7,7V542a7,7,0,0,0,7,7h71a7,7,0,0,0,7-7V346A7,7,0,0,0,355,339Zm-71-1a8,8,0,0,0-8,8V542a8,8,0,0,0,8,8h71a8,8,0,0,0,8-8V346a8,8,0,0,0-8-8Z"/><path class="cls-7" d="M442,346a8,8,0,0,1,8-8h64a8,8,0,0,1,8,8V542a8,8,0,0,1-8,8H450a8,8,0,0,1-8-8Z"/><path class="cls-2" d="M514,339H450a7,7,0,0,0-7,7V542a7,7,0,0,0,7,7h64a7,7,0,0,0,7-7V346A7,7,0,0,0,514,339Zm-64-1a8,8,0,0,0-8,8V542a8,8,0,0,0,8,8h64a8,8,0,0,0,8-8V346a8,8,0,0,0-8-8Z"/><path class="cls-8" d="M532,346a8,8,0,0,1,8-8H657a8,8,0,0,1,8,8V542a8,8,0,0,1-8,8H540a8,8,0,0,1-8-8Z"/><path class="cls-2" d="M657,339H540a7,7,0,0,0-7,7V542a7,7,0,0,0,7,7H657a7,7,0,0,0,7-7V346A7,7,0,0,0,657,339Zm-117-1a8,8,0,0,0-8,8V542a8,8,0,0,0,8,8H657a8,8,0,0,0,8-8V346a8,8,0,0,0-8-8Z"/><path class="cls-5" d="M158,503.05a19.08,19.08,0,0,1-2.73,6.77c-.39.67-.81,1.34-1.23,2a50.27,50.27,0,0,0-2.66,4.64,60.14,60.14,0,0,1-4.81,7.91c-.3.42-.59.84-.88,1.27-1.46,2.09-2.93,4.19-4.27,6.49l-2.1,3.57c-2,3.39-4,6.82-5.85,10.22a26.29,26.29,0,0,0-1.8,4.83c-.18.56-.33,1.12-.5,1.66-.35,1.23-.7,2.41-1,3.38-1.12,3.22-1.07,6.43-1,9.76,0,.73,0,1.48,0,2.23,0,1.81.09,3.79.18,5.84.07,1.4.14,2.83.18,4.24a40.35,40.35,0,0,1-.65,9.75,26.38,26.38,0,0,1-3.45,7.71c-.57.93-1.18,1.82-1.8,2.66H38.32a19.17,19.17,0,0,0-.51-2.94,16.42,16.42,0,0,0-3.66-6.81,76.43,76.43,0,0,0-7.43-7.32c-1.08-1-2.14-1.93-3.17-2.91a27.31,27.31,0,0,0-5.26-3.67l-1.94-1.08c-1.25-.69-2.44-1.35-3.49-2a42,42,0,0,0-7.12-3.48c-.24-.1-.47-.2-.71-.28l-.68-.27L0,565.16V321.58a31.63,31.63,0,0,1,3-3.45c3.64-3.67,7.53-5.94,11.91-5.94a13.53,13.53,0,0,1,3.29.41A5.63,5.63,0,0,1,21,314.37c.33.36.64.74,1,1.15a1.73,1.73,0,0,1,.17.21c.41.48.85,1,1.35,1.5,1,1,2.11,1.94,3.16,2.82l.76.64a28.73,28.73,0,0,1,3.75,3.67c.13.14.25.29.38.44,2.43,2.92,4.18,5,6.38,7.26a2.32,2.32,0,0,1,.45.58,3.88,3.88,0,0,1,.35,1.26,8.89,8.89,0,0,1,0,1.93,14.82,14.82,0,0,1-.24,1.61c0,.15-.06.28-.08.38l0,.13a1.1,1.1,0,0,0,0,.16.13.13,0,0,1,0,.06,15.23,15.23,0,0,1-1,2.76l-.1.22a10.22,10.22,0,0,0-.82,2.94,2.47,2.47,0,0,1-.19.64,5.49,5.49,0,0,1-1,1.44l0,0A4.72,4.72,0,0,0,34,348.07a16.48,16.48,0,0,0-.47,4.95c0,.76,0,1.53.09,2.27v.3l.08,2.38v1c0,6.2,0,11.78,3.73,16.54a12.58,12.58,0,0,0,2.9,2.73A15.25,15.25,0,0,0,43,379.65c.6.24,1.23.47,1.84.7l1,.34A19.64,19.64,0,0,1,48.54,382,11,11,0,0,0,55,384.43a14.67,14.67,0,0,0,6-1.33c1-.39,1.92-.84,2.86-1.28l0,0c.93-.44,1.85-.86,2.78-1.25a15.07,15.07,0,0,1,5.73-1.37c9.77.47,14.39,2.7,17.36,4.78.74.52,1.39,1,2,1.52l.06,0c.59.47,1.14.92,1.7,1.3a7,7,0,0,0,4.13,1.34,129.22,129.22,0,0,0,25.74-2.25l2.13-.42c1.61-.32,2.93-.59,4.07-.73a10.37,10.37,0,0,1,2.59-.05,2.83,2.83,0,0,1,2.22,1.51,2.35,2.35,0,0,1,.21,1.45,5.72,5.72,0,0,1-1.78,2.84,28.66,28.66,0,0,1-3.61,2.88c-.64.45-1.3.89-1.94,1.32l-.1.06-1.93,1.33-.06,0,0,.08c-2.09,3.36-5.3,5-7.88,6.38l-.24.12a11.7,11.7,0,0,0-3.12,2,2.33,2.33,0,0,0-.66,1.36,2.84,2.84,0,0,0,.38,1.66,1.07,1.07,0,0,1,.16.76,1,1,0,0,1-.4.54,8.86,8.86,0,0,1-2.33,1h0a13.08,13.08,0,0,0-2.84,1.22,2.94,2.94,0,0,0-1.54,2.47,55.43,55.43,0,0,0,1,11.93,65.19,65.19,0,0,0,5.07,16,34.78,34.78,0,0,0,4.26,6.77,22.67,22.67,0,0,0,5.65,5.08c4.34,2.7,8.88,5.47,13.27,8a18.69,18.69,0,0,0,3.61,1.5l0,0a15.48,15.48,0,0,1,3.32,1.4,38.85,38.85,0,0,1,3.82,2.59,21.45,21.45,0,0,1,3.4,3.28C157.11,478.77,159.93,490.73,158,503.05Z"/><path class="cls-5" d="M756.07,24.52c-3.55,5.67-3.25,11.38-5.7,17.41-2.33,5.72-10.83,9.08-14.7,14.3-1.49,2-3.46,5.42-5.19,7-1.94,1.81-4.18,1.86-6,2.22-2,.39-4.22,1.28-6,1-2-.31-1.65-2.19-2.7-3.49-2.42-3-7.31,1.85-10.94,4.62s-7.35,4.15-11,6.54a55.48,55.48,0,0,1-13.29,6.37c-2.14.71-3.34,1.46-5.33,1.45-2.43,0-1.93-.39-2.43-2.74s-2.53-2.2-3.61-3.9c-.7-1.12-.82-3.52-.48-5.37.73-3.94-4.42-6.44-2.91-10.44,1.79-4.73-9.25-7.3-9.35-11.39-.1-3.93.92-13.87,5-15.92,6.38-5.53,10.37-3,12.45-7.51a109.16,109.16,0,0,0,5.36-14c1.07-3.42,1.51-7,2.48-10.67h68l0,0c1.21,1.67,2.2,2.67,3.34,4.15s1.87,4.29,2.82,6.24C757.25,13.28,758.7,20.32,756.07,24.52Z"/><path class="cls-5" d="M768.13,41.26c-1.06,0-2.09,1.25-3,1a8.76,8.76,0,0,0-2.8.21,4.63,4.63,0,0,0-2.81.76,25.89,25.89,0,0,0-2.56,3c-1.91,2.22-5.9,3.41-7.1,5.92s-4.85,3.91-6.62,6.36c-1.31,1.8,2.76,6.43,3.33,7.78a18.68,18.68,0,0,0,1.14,3c.49.72.92,1.22,1.44,2,1,1.49.33,2.39,1.13,3.71,1,1.59.73.63,2.86,2.17,1,.27,2.34,1.15,3.25,1a2.56,2.56,0,0,1,2.58.7c1.47,1.3,1.45.86,3.26,1.61.48.2,2.21,1.89,2.66,2a5.75,5.75,0,0,1,1,.59,3,3,0,0,0,2.4.11,14.69,14.69,0,0,1,3.23-.65c.72-.06,3.75.62,4.56.27,1.56-.67,1.78-4.12,2.88-5.69,1.76-2.54,3.93-3.28,4.87-5.78.82-2.15-.24-4.68.94-6.85,1.07-2-2.66-4.07.41-6.33,1.92-.76,4.09-2.87,4.14-4.67a32.15,32.15,0,0,0-.11-5.95c-.34-2.8-1.52-3.12-1.09-4.89a4.06,4.06,0,0,0-.09-2.47c-.46-.82-1.39-.8-1.57-1.92s.07-1.25-1.05-1.35c-.91-.09-3-1.5-5.18-1.54-2.07.49-3.14-.2-5.29,1-1.73.94-1.94,2.19-3.65,3.28A13.94,13.94,0,0,1,768.13,41.26Z"/><path class="cls-5" d="M712.93,80.72c-.06-.09,0-.21-.16-.24a1.11,1.11,0,0,0-.4,0,.64.64,0,0,0-.41.11,3.34,3.34,0,0,0-.38.45c-.28.33-.86.51-1,.88a7.43,7.43,0,0,1-.46,1.13A1.1,1.1,0,0,0,710,84a3.54,3.54,0,0,0,.16.43l.2.29c.14.22.21.28.32.47a.88.88,0,0,0,.39.47.63.63,0,0,0,.32,0,.34.34,0,0,1,.37.09,2,2,0,0,0,.6.44l.25.08a.5.5,0,0,1,.14.08.46.46,0,0,0,.35,0,1.9,1.9,0,0,1,.46-.1,1.15,1.15,0,0,0,.36-.07,2.74,2.74,0,0,0,.74-.74,4.63,4.63,0,0,0,.43-1.15,7.48,7.48,0,0,1,.43-.91c.16-.29.41-.1.86-.44.28-.11.39-.77.4-1s-.71-.5-.56-.8-.21-.45-.15-.71a.63.63,0,0,0,0-.36c-.07-.11-.2-.11-.23-.27s0-.18-.14-.2a.94.94,0,0,0-.36.08,3.43,3.43,0,0,0-.92.36c-.25.14-.51.21-.76.38S713.08,80.93,712.93,80.72Z"/><path class="cls-5" d="M782.79,85.86a4.32,4.32,0,0,1-.62.55,2,2,0,0,0-.43.4c-.12.13-.3.26-.33.48a2.72,2.72,0,0,0,.09.69,3.75,3.75,0,0,0,.3,1.38,6.92,6.92,0,0,1,.34,1.59c.09.39.73.7,1.05.78a6.56,6.56,0,0,0,.7.18l.58,0c.41,0,.57,0,.93.07a2,2,0,0,0,1,0c.22-.11.29.07.42-.07a2,2,0,0,1,.46-.09,6.67,6.67,0,0,0,1.31-.59l.38-.17a2,2,0,0,1,.26-.07.73.73,0,0,0,.42-.32,2.92,2.92,0,0,1,.42-.51,1.83,1.83,0,0,0,.34-.39,2.46,2.46,0,0,0,0-1.26,4.82,4.82,0,0,0-.86-1.3c-.23-.36.17-.78,0-1.2s-.75-.35-.63-1c.18-.35-.2-.79-.5-1s-1.15.08-1.35-.29-.78-.15-1-.42a.9.9,0,0,0-.44-.27c-.21,0-.37.1-.59,0a.56.56,0,0,0-.61,0c-.17.11,0,.23-.13.39a4.28,4.28,0,0,0-.63,1.13,8.5,8.5,0,0,0-.36.82Z"/><path class="cls-5" d="M796,0V17.29a34.58,34.58,0,0,1-5.7-.16,4.11,4.11,0,0,0-3.17.8,6.57,6.57,0,0,1-2.49.89c-3.39,0-3.23-.28-5.5-.91-1.87-.51-2.74-.59-4.91-1.15-1.18-.3-2-.43-3.09-.69a27.85,27.85,0,0,1-3.55-1.49c-1.67-.66-4.81-2.69-4.94-4.6-.18-2.6-2.29-4.42-3.14-6.91A4.15,4.15,0,0,1,760,0Z"/></g></g></svg>