<svg width="374" height="196" viewBox="0 0 374 196" fill="none" xmlns="http://www.w3.org/2000/svg">
<path d="M372.5 98C372.5 124.225 352.189 148.33 318.533 165.968C284.948 183.569 238.446 194.5 187 194.5C135.554 194.5 89.0525 183.569 55.4673 165.968C21.8113 148.33 1.5 124.225 1.5 98C1.5 71.7754 21.8113 47.6701 55.4673 30.0321C89.0525 12.4314 135.554 1.5 187 1.5C238.446 1.5 284.948 12.4314 318.533 30.0321C352.189 47.6701 372.5 71.7754 372.5 98Z" fill="#F4F2EB" stroke="black" stroke-width="3"/>
<path d="M158.76 27C159.127 27.548 159.475 28.096 159.861 28.644C163.413 33.8176 166.83 39.0395 170.556 44.1165C172.95 47.3721 174.108 50.66 174.012 54.5443C173.799 63.8761 174.108 73.2241 174.205 82.5559C174.224 84.49 174.185 86.4241 174.301 88.342C174.34 89.1318 174.591 89.9376 174.958 90.679C175.305 91.4365 176.213 91.4687 176.715 90.7757C177.023 90.3728 177.274 89.9054 177.352 89.438C177.564 88.2131 177.776 86.9882 177.776 85.7633C177.834 81.4761 177.699 77.1728 177.834 72.8856C177.892 71.0805 178.317 69.2593 178.703 67.4703C178.877 66.6322 179.321 65.8424 179.688 65.0366C180.209 63.9245 181.155 63.4087 182.661 63.4087C184.977 63.4087 187.294 63.2637 189.591 63.1025C191.252 62.9897 192.333 63.6021 192.719 64.9399C193.163 66.4388 193.51 68.0021 193.53 69.5333C193.588 79.6226 193.626 89.712 193.51 99.8013C193.472 103.283 192.835 106.764 191.599 110.116C191.136 111.39 190.422 112.598 189.669 113.791C189.07 114.742 188.105 115.274 186.696 115.242C185.228 115.209 183.742 115.306 182.255 115.354C181.695 115.371 181.136 115.435 180.305 115.516C180.653 116.257 180.846 116.869 181.193 117.401C183.742 121.318 186.252 125.25 188.896 129.118C191.406 132.777 192.738 136.726 193.182 140.884C193.414 142.963 193.491 145.058 193.549 147.154C193.742 152.795 193.935 158.42 194.012 164.061C194.051 166.462 193.8 168.88 193.626 171.281C193.588 171.797 193.356 172.329 193.124 172.828C192.758 173.65 192.024 174.166 190.943 174.166C188.182 174.166 185.421 174.118 182.661 174.085C181.695 174.069 181.078 173.602 180.769 172.925C180.228 171.781 179.688 170.62 179.34 169.428C178.027 164.85 177.738 160.176 177.834 155.502C177.989 146.944 177.39 138.45 176.174 129.957C175.769 127.136 175.17 124.332 174.63 121.527C174.552 121.124 174.359 120.738 174.05 120.367C173.935 129.264 173.761 138.128 174.108 147.009C174.456 155.841 174.63 164.673 174.88 173.618C174.224 173.65 173.722 173.715 173.22 173.682C169.069 173.36 164.899 173.022 160.749 172.651C159.05 172.506 159.011 172.458 158.953 170.926C158.625 161.852 158.085 152.795 158.046 143.721C157.93 123.494 158.065 103.25 158.104 83.0072C158.123 72.4827 158.162 61.9743 158.181 51.4498C158.2 44.197 158.181 36.9604 158.181 29.7077C158.181 28.8212 158.297 27.9348 158.355 27.0484C158.509 27.0484 158.625 27.0161 158.76 27Z" fill="#C7D670" stroke="black" stroke-width="3" stroke-linejoin="round"/>
<path d="M209.391 111.343C209.391 101.633 209.43 91.9225 209.371 82.212C209.352 77.7152 209.117 73.2021 209.078 68.7053C209.059 67.0271 209.235 65.349 209.508 63.6871C209.782 62.0416 210.271 61.9275 212.265 62.0253C216.097 62.2045 219.949 62.2534 223.781 62.4C228.591 62.5955 233.401 62.8562 238.21 63.0517C239.52 63.1006 240.498 63.5731 241.065 64.4692C241.827 65.6586 242.688 66.8642 243.039 68.1676C243.743 70.8071 244.506 73.4954 244.584 76.1674C244.838 86.3666 244.877 96.5659 244.916 106.765C244.956 115.335 244.877 123.905 244.897 132.475C244.916 138.112 245.034 143.75 245.014 149.403C244.995 153.753 244.506 158.071 243.489 162.34C243.137 163.757 242.453 165.126 241.808 166.478C241.358 167.423 240.4 168.01 239.188 168.254C237.663 168.564 236.177 168.938 234.652 169.232C232.97 169.557 232.482 169.378 231.719 168.042C230.526 165.957 229.94 163.725 229.783 161.444C229.49 157.224 229.216 152.988 229.197 148.768C229.08 133.094 229.06 117.404 229.021 101.731C229.001 97.8204 229.06 93.9102 228.962 90.0162C228.923 88.6802 228.61 87.3279 228.258 86.0245C228.161 85.6335 227.613 85.1447 227.144 85.0632C226.381 84.9003 225.951 85.4868 225.854 86.0408C225.58 87.5886 225.247 89.1527 225.228 90.7168C225.169 96.0282 225.247 101.356 225.247 106.667C225.267 123.221 225.287 139.758 225.287 156.311C225.287 159.244 225.306 162.16 225.091 165.077C224.974 166.576 224.426 168.058 223.996 169.525C223.625 170.796 222.706 171.578 221.044 171.724C219.499 171.855 217.955 172.132 216.41 172.343C215.413 172.474 214.592 172.197 214.083 171.464C213.497 170.616 212.891 169.769 212.5 168.873C210.564 164.344 209.528 159.651 209.469 154.845C209.293 140.361 209.156 125.877 209 111.392C209.137 111.343 209.254 111.343 209.391 111.343Z" fill="#C7D670" stroke="black" stroke-width="3" stroke-linejoin="round"/>
<path d="M152.037 152.418C152.116 156.899 152.017 161.363 150.931 165.763C150.615 167.073 150.061 168.367 149.37 169.564C148.52 171.069 147.888 171.311 145.893 170.955C141.073 170.098 136.272 169.176 131.491 168.222C129.2 167.769 126.948 167.106 124.656 166.669C122.463 166.248 121.12 165.165 120.172 163.579C118.611 160.943 117.742 158.128 116.991 155.281C115.687 150.299 115.826 145.22 115.51 140.173C114.601 125.761 114.581 111.332 114.719 96.9031C114.779 91.6298 115.055 86.3565 115.391 81.0832C115.589 77.8966 116.576 74.8071 117.959 71.8307C118.315 71.0867 118.848 70.3911 119.342 69.6956C120.033 68.7735 121.021 68.2397 122.365 68.0942C129.852 67.2045 137.319 66.2825 144.807 65.409C147.157 65.134 147.888 65.4737 148.975 67.2692C150.377 69.5661 150.931 72.0572 151.306 74.5806C151.938 78.8186 151.879 83.0567 151.839 87.3271C151.78 98.0354 151.859 141.435 152.037 152.418ZM134.988 108.792C135.028 103.681 135.126 98.5692 135.087 93.4415C135.067 92.1151 134.692 90.7887 134.356 89.4784C134.277 89.1549 133.625 88.6697 133.329 88.702C132.855 88.7667 132.242 89.1388 132.064 89.4946C131.729 90.174 131.551 90.9504 131.511 91.6945C131.373 95.9487 131.195 100.203 131.215 104.457C131.274 116.573 131.393 128.688 131.59 140.804C131.61 142.163 132.183 143.538 132.657 144.88C132.795 145.252 133.408 145.738 133.862 145.77C134.652 145.835 134.909 145.171 135.008 144.654C135.146 143.861 135.245 143.052 135.245 142.244C135.245 134.091 134.968 111.801 134.988 108.792Z" fill="#C7D670" stroke="black" stroke-width="3" stroke-linejoin="round"/>
<path d="M296.546 150.781C295.974 149.512 295.461 148.406 294.968 147.299C293.805 144.599 292.602 141.898 291.517 139.181C291.182 138.335 290.965 137.391 291.005 136.497C291.655 120.407 291.478 104.317 291.478 88.2264C291.478 84.2242 291.3 80.2058 291.478 76.2036C291.557 74.3489 292.227 72.478 292.839 70.6721C293.075 69.9238 293.785 69.273 294.397 68.6385C294.968 68.0528 295.797 67.9064 296.724 68.0528C298.281 68.2806 299.839 68.4758 301.397 68.6222C303.093 68.7849 304.119 69.5821 304.809 70.786C306.012 72.8684 306.623 75.0648 306.801 77.3587C307.708 89.3164 307.826 101.29 307.629 113.264C307.55 117.332 307.333 121.383 307.215 125.45C307.195 126.361 307.235 127.305 307.432 128.199C307.511 128.59 308.063 129.159 308.457 129.192C308.871 129.224 309.581 128.801 309.759 128.427C310.212 127.484 310.686 126.475 310.725 125.483C311.001 118.015 311.238 110.531 311.336 103.064C311.396 97.7601 311.238 92.4401 311.119 87.1364C311.06 83.8338 310.824 80.5312 310.824 77.2285C310.824 75.6667 310.981 74.0886 311.376 72.5593C311.869 70.6559 312.776 70.2817 315.064 70.6071C316.878 70.8674 318.672 71.209 320.487 71.388C322.321 71.5832 323.543 72.4455 324.194 73.747C324.963 75.2925 325.713 76.8869 326.028 78.5138C327.349 84.9889 327.744 91.5453 327.685 98.1017C327.645 103.405 327.507 108.709 327.33 114.029C327.251 116.242 326.955 118.454 326.837 120.683C326.797 121.318 326.856 122.001 327.054 122.603C327.29 123.351 328.04 123.53 328.71 122.993C329.262 122.554 329.775 121.985 329.972 121.399C330.308 120.423 330.446 119.382 330.564 118.373C331.313 112.5 331.747 106.61 331.471 100.689C331.215 95.4336 331.077 90.195 330.82 84.9401C330.741 83.2644 330.308 81.6049 330.229 79.9292C330.169 78.3186 330.248 76.6917 330.524 75.0973C330.722 73.9259 331.865 73.2101 333.423 73.6168C334.863 73.9747 336.362 74.17 337.86 74.3815C339.635 74.6418 341.016 75.4552 342.1 76.5778C346.064 80.7101 348.095 87.0713 349.357 92.1473C351.468 100.623 350.896 109.539 346.991 117.608C344.802 122.131 341.923 126.507 338.038 130.201C333.798 134.219 328.552 136.497 323.05 139.1C318.16 141.426 313.289 143.801 308.319 145.998C304.553 147.673 300.668 149.121 296.546 150.781Z" fill="#C7D670" stroke="black" stroke-width="3" stroke-linejoin="round"/>
<path d="M250.593 114.918C250.593 105.73 250.613 96.5424 250.593 87.3544C250.593 84.9617 250.495 82.569 250.436 80.1923C250.337 76.6192 250.751 73.078 251.951 69.6325C252.285 68.6754 252.796 67.7343 253.367 66.841C254.095 65.7085 255.177 65.1821 256.888 65.3576C263.183 65.9797 269.517 66.506 275.831 67.0643C276.677 67.1441 277.523 67.2717 278.369 67.2877C280.277 67.3355 281.516 68.165 282.46 69.4092C284.034 71.4829 284.86 73.7798 285.312 76.1406C285.745 78.4376 286.08 80.7665 286.139 83.0954C286.316 92.0601 286.473 101.041 286.414 110.005C286.355 118.763 285.981 127.52 285.863 136.277C285.804 140.265 285.686 144.253 284.545 148.145C283.975 150.091 283.05 151.973 282.145 153.855C281.536 155.148 280.257 155.945 278.703 156.535C272.035 159.04 265.169 161.129 258.245 163.075C255.806 163.761 255.059 163.554 253.819 161.688C252.226 159.327 251.36 156.743 251.203 154.079C250.849 148.719 250.574 143.359 250.475 138C250.357 130.295 250.436 122.607 250.436 114.902C250.475 114.918 250.534 114.918 250.593 114.918ZM268.061 138.845C269.261 138.351 269.497 137.505 269.635 136.66C269.831 135.352 270.008 134.028 270.028 132.704C270.126 125.175 270.166 117.63 270.225 110.101C270.264 103.37 270.323 96.6221 270.303 89.8907C270.303 88.8538 269.91 87.8011 269.635 86.7802C269.477 86.2538 269.084 85.7752 268.277 85.8071C267.471 85.839 267.176 86.3814 267.077 86.9078C266.881 87.8489 266.684 88.79 266.684 89.7471C266.546 104.343 266.448 118.938 266.369 133.533C266.369 134.586 266.409 135.671 266.586 136.708C266.704 137.489 266.802 138.415 268.061 138.845Z" fill="#C7D670" stroke="black" stroke-width="3" stroke-linejoin="round"/>
<path d="M110.301 115.364C110.711 124.346 111.298 135.733 111.747 147.12C111.865 150.082 111.708 153.045 111.435 156.007C111.317 157.344 110.77 158.714 110.144 159.972C109.382 161.485 108.444 161.756 106.567 161.135C101.856 159.59 97.1837 157.982 92.5311 156.341C90.3221 155.561 88.1913 154.637 85.9823 153.857C83.7929 153.076 82.2681 151.77 81.0952 150.13C78.4952 146.499 77.0681 142.549 76.2666 138.441C74.1749 127.866 72.9434 117.196 73.002 106.478C73.0411 100.283 73.5103 94.0874 73.9599 87.8923C74.1945 84.6435 75.5824 81.5698 77.3223 78.6395C77.8501 77.7476 78.6516 76.9354 79.5117 76.2347C80.0591 75.7728 80.8801 75.4065 81.6621 75.2632C89.3447 73.8617 97.0273 72.4921 104.71 71.1384C106.899 70.7562 107.76 71.1225 108.717 72.7788C110.066 75.1199 110.535 77.6521 110.633 80.2002C110.75 83.7994 110.692 87.3986 110.653 90.9978C110.594 98.3237 110.457 105.634 110.301 115.364ZM93.6454 115.157C93.6454 112.975 93.6259 110.22 93.6454 107.465C93.6845 103.707 93.8409 99.9322 93.8409 96.1737C93.8409 95.027 93.6063 93.8645 93.3326 92.7178C93.2153 92.2082 92.8048 91.5871 92.0229 91.7623C91.4951 91.8737 91.0063 92.3356 90.674 92.7337C90.4003 93.0682 90.3221 93.53 90.2635 93.9441C90.1266 94.8837 90.0094 95.8393 89.9703 96.7948C89.5988 106.717 89.7748 116.622 90.4785 126.528C90.674 129.172 90.8109 131.831 91.2018 134.459C91.3778 135.685 92.0229 136.896 92.5702 138.058C92.7071 138.345 93.3913 138.584 93.8213 138.568C94.1146 138.552 94.5251 138.106 94.6228 137.788C94.7988 137.182 94.8574 136.53 94.8183 135.908C94.4665 129.188 94.0755 122.451 93.6454 115.157Z" fill="#C7D670" stroke="black" stroke-width="3" stroke-linejoin="round"/>
<path d="M58.0171 52C58.7038 56.4925 58.7038 58.0649 60.9995 61.9798C61.4311 62.7018 61.4704 63.3596 61.1957 64.1298C60.3912 66.4402 52.386 77.3345 51.66 79.661C51.4834 80.2226 51.3853 80.7842 51.2284 81.5062C51.7581 81.4741 52.1309 81.5062 52.4841 81.4259C56.4671 80.6077 60.4501 79.7573 64.4331 78.939C66.611 78.4898 67.6509 78.8267 68.3572 80.5916C68.9458 82.0998 69.3579 83.7043 69.456 85.2767C69.5933 87.2341 69.3971 89.2237 69.2205 91.1972C68.3572 101.129 68.2199 111.044 69.299 120.96C69.9465 126.977 70.8687 132.961 72.0459 138.914C72.3991 140.695 72.4187 142.524 72.4776 144.337C72.5168 145.123 72.3598 145.942 72.1636 146.712C71.6731 148.605 70.594 149.022 68.5338 148.124C57.5266 143.31 46.4409 138.272 38.0433 130.539C35.9046 128.581 33.7856 126.576 32.1178 124.329C25.7607 115.89 23.3866 107.563 24.1322 98.9788C24.8385 90.7319 27.1734 82.0517 38.318 69.1999C45.146 61.338 52.8176 54.7918 58.0171 52ZM51.5815 105.493C51.5815 103.311 51.6208 101.129 51.5619 98.9307C51.5423 98.1445 51.4834 97.3102 51.1695 96.5882C50.7378 95.6576 49.4233 95.5613 48.6581 96.3475C48.3441 96.6684 48.1087 97.0856 48.0106 97.4867C47.8144 98.2729 47.6574 99.059 47.5985 99.8613C47.0884 105.846 47.3238 111.799 48.4422 117.719C48.9327 120.302 49.4821 122.869 50.0511 125.437C50.3651 126.881 50.9537 128.244 52.386 129.207C52.7195 129.432 53.3474 129.544 53.7594 129.448C53.9949 129.4 54.2107 128.822 54.1911 128.501C54.0734 127.442 53.8575 126.383 53.6221 125.34C52.1898 118.794 51.2087 112.184 51.5815 105.493Z" fill="#C7D670" stroke="black" stroke-width="3" stroke-linejoin="round"/>
</svg>
