<svg width="374" height="196" viewBox="0 0 374 196" fill="none" xmlns="http://www.w3.org/2000/svg">
<path d="M372.5 98C372.5 124.225 352.189 148.33 318.533 165.968C284.948 183.569 238.446 194.5 187 194.5C135.554 194.5 89.0525 183.569 55.4673 165.968C21.8113 148.33 1.5 124.225 1.5 98C1.5 71.7754 21.8113 47.6701 55.4673 30.0321C89.0525 12.4314 135.554 1.5 187 1.5C238.446 1.5 284.948 12.4314 318.533 30.0321C352.189 47.6701 372.5 71.7754 372.5 98Z" fill="#63171C" stroke="black" stroke-width="3"/>
<path d="M195.135 177.691C195.135 178.686 195.001 179.698 194.733 180.658C193.985 183.437 192.127 184.311 189.137 184.671C183.6 185.323 178.043 184.774 172.505 184.603C165.453 184.38 158.421 183.951 151.389 183.591C149.396 183.488 147.442 183.196 145.736 182.202C143.647 180.984 142.536 179.2 142.153 177.056C141.923 175.77 141.789 174.449 141.789 173.146C141.693 155.755 141.616 138.364 141.54 120.972C141.521 118.04 141.386 115.09 141.444 112.157C141.482 110.51 141.578 108.829 142 107.234C143.149 102.998 145.832 101.043 150.699 100.888C162.024 100.528 173.348 100.22 184.673 99.9451C188.831 99.8422 191.954 101.866 193.008 105.502C193.583 107.492 193.851 109.601 193.928 111.676C194.273 122.396 195.116 166.423 195.135 177.691ZM165.913 168.807C165.913 169.87 166.143 170.968 166.527 171.98C166.967 173.163 168.002 173.678 169.075 173.558C170.052 173.455 170.761 172.803 170.972 171.568C171.145 170.539 171.202 169.458 171.202 168.412C171.106 158.396 171.03 148.38 170.876 138.364C170.8 132.464 170.627 126.546 170.493 120.646C170.455 119.223 170.225 117.851 169.209 116.685C168.251 115.604 166.699 115.724 166.009 116.959C165.741 117.439 165.53 117.971 165.473 118.503C165.358 119.549 165.3 120.612 165.319 121.658C165.453 129.273 165.875 160.729 165.913 168.807Z" fill="#E7EFFB" stroke="black" stroke-width="3"/>
<path d="M197.875 102.793C197.798 99.9455 198.431 99.431 201.612 99.3795C211.001 99.2252 220.371 99.0193 229.741 98.8307C233.669 98.7621 237.597 98.6592 241.506 98.6592C242.675 98.6592 243.863 98.8307 244.994 99.1051C248.04 99.8426 249.88 101.643 250.282 104.456C250.512 106.034 250.531 107.646 250.589 109.241C251.106 128.073 251.604 146.922 252.084 165.771C252.16 168.636 251.949 171.483 251.087 174.261C250.531 176.028 249.573 177.588 248.251 178.978C246.872 180.435 245.051 181.242 243.001 181.619C239.878 182.202 236.754 182.785 233.612 183.265C230.105 183.797 228.687 182.648 228.668 179.441C228.61 170.814 228.649 162.187 228.438 153.577C228.112 141.194 227.595 128.811 227.116 116.411C227.078 115.553 226.828 114.661 226.483 113.838C226.158 113.015 225.449 112.431 224.376 112.5C223.283 112.569 222.555 113.135 222.345 114.061C222.115 115.124 221.961 116.205 221.981 117.285C222.172 125.398 222.517 133.493 222.651 141.605C222.843 153.388 222.919 165.188 223.015 176.988C223.034 178.274 222.9 179.561 222.766 180.83C222.575 182.425 221.578 183.454 219.911 184.071C217.995 184.775 215.983 184.775 213.99 184.86C211.384 184.963 208.759 184.963 206.134 184.912C205.003 184.895 203.854 184.74 202.723 184.552C200.998 184.26 199.964 183.265 199.619 181.756C199.408 180.864 199.331 179.938 199.331 179.029C199.293 166.372 198.258 115.553 197.875 102.793Z" fill="#E7EFFB" stroke="black" stroke-width="3"/>
<path d="M244.707 56.1759C244.4 47.566 244.113 39.6937 243.902 31.8213C243.864 30.4493 244.017 29.0086 244.4 27.6708C245.129 25.201 247.255 24.0005 250.072 24.3778C251.605 24.5836 253.1 25.0295 254.614 25.4068C255.84 25.7327 257.028 26.1272 258.235 26.5045C262.393 27.7737 264.75 30.5007 265.057 34.3082C265.612 41.2887 266.034 48.2692 266.206 55.2669C266.379 62.4017 266.187 69.5365 266.187 76.6714C266.187 77.4089 266.264 78.1635 266.455 78.8667C266.705 79.7243 267.394 80.1874 268.41 80.2388C269.426 80.2903 270.058 79.81 270.384 79.0211C270.594 78.4723 270.729 77.8548 270.767 77.2717C271.284 66.518 271.188 55.7471 270.594 44.9934C270.422 41.7175 270.441 38.4417 270.403 35.1658C270.403 34.6856 270.499 34.1882 270.652 33.7423C271.093 32.4559 272.185 31.8385 273.66 32.0615C274.312 32.1644 274.963 32.3702 275.557 32.6274C278.451 33.8452 281.267 35.1658 284.199 36.2978C288.779 38.0643 291.002 41.3059 291.672 45.5422C293.167 54.7866 293.244 64.0825 293.052 73.3955C292.994 75.7624 292.822 78.1292 292.707 80.4961C292.65 81.7996 293.282 82.76 294.393 83.103C296.041 83.6176 297.191 83.0516 297.421 81.4737C297.651 79.8958 297.785 78.2836 297.862 76.6885C298.283 67.2898 297.976 57.9081 297.114 48.5265C297.038 47.6861 297.057 46.7942 297.248 45.971C297.574 44.5817 298.705 43.9643 300.257 44.3416C301.042 44.5303 301.828 44.839 302.518 45.2163C305.124 46.657 307.768 48.0634 310.278 49.6241C314.57 52.2997 317.79 55.7814 318.92 60.4465C319.514 62.9334 319.61 65.5403 319.782 68.0959C320.127 73.4641 319.974 78.8324 319.399 84.1836C319.265 85.3498 319.131 86.5161 318.844 87.6481C318.729 88.0768 318.288 88.5228 317.847 88.7972C315.337 90.4265 312.731 91.9187 310.297 93.6166C309.263 94.337 308.285 94.5771 307.002 94.5257C299.701 94.2855 292.4 94.0797 285.1 93.9768C274.216 93.8225 263.351 93.7539 252.467 93.6509C251.816 93.6509 251.394 93.4966 251.069 92.9649C248.846 89.3975 246.585 85.8472 244.4 82.2798C244.094 81.7824 243.96 81.1478 243.979 80.5647C244.19 72.2293 244.458 63.8252 244.707 56.1759Z" fill="#E7EFFB" stroke="black" stroke-width="3"/>
<path d="M192.53 54.7695C192.53 45.2678 192.53 35.749 192.549 26.2473C192.549 25.304 192.606 24.3607 192.817 23.4345C193.622 19.747 196.151 17.8604 200.348 17.9462C203.816 17.9976 207.284 18.2549 210.772 18.4092C217.478 18.6837 224.127 19.3697 230.738 20.3816C234.513 20.9647 237.1 22.8685 238.652 25.9386C239.667 27.9452 240.051 30.0891 240.127 32.2673C240.3 36.5722 240.453 40.8771 240.549 45.1992C240.836 57.4794 240.702 69.7595 240.012 82.0226C239.84 85.1269 238.939 87.974 236.985 90.5638C235.356 92.7077 233.152 93.7539 230.202 93.771C220.122 93.8396 210.043 93.9597 199.964 94.1312C196.956 94.1827 194.925 93.0335 193.545 90.7353C192.319 88.6943 191.763 86.499 191.744 84.2179C191.725 80.3074 191.859 76.397 191.955 72.4866C192.108 66.5694 192.281 60.6695 192.434 54.7524C192.472 54.7695 192.511 54.7695 192.53 54.7695ZM214.067 53.4832C214.087 53.4832 214.125 53.4832 214.144 53.4832C213.991 59.8462 213.799 66.2093 213.684 72.5723C213.665 73.5842 213.818 74.6304 214.106 75.6081C214.431 76.7057 215.198 77.2203 216.079 77.186C216.98 77.1516 217.708 76.62 217.996 75.5223C218.245 74.579 218.398 73.6014 218.417 72.6409C218.59 64.6828 218.762 56.7247 218.839 48.7666C218.877 43.9986 218.762 39.2306 218.724 34.4626C218.705 33.3478 218.455 32.3016 217.651 31.4269C217.095 30.8266 216.309 30.4493 215.543 30.7752C214.987 30.9981 214.508 31.5813 214.278 32.1129C214.029 32.6618 214.067 33.3478 214.067 33.9653C214.067 40.4827 214.067 46.9829 214.067 53.4832Z" fill="#E7EFFB" stroke="black" stroke-width="3"/>
<path d="M284.601 161.209C282.838 162.598 281.286 163.833 279.715 165.033C275.212 168.481 270.192 171.276 265.133 173.986C260.745 176.353 258.273 174.072 257.488 171.053C256.951 168.961 256.587 166.783 256.529 164.622C255.935 145.378 255.418 126.152 254.882 106.908C254.862 106.342 254.862 105.759 254.882 105.193C255.111 100.991 257.468 98.7273 262.163 98.3843C264.386 98.2128 266.628 98.2814 268.85 98.2642C278.585 98.2128 288.319 98.1442 298.053 98.1099C300.352 98.1099 302.632 98.3157 304.836 99.0189C307.04 99.7221 307.595 100.425 307.653 102.466C307.691 104.439 307.691 106.411 307.768 108.383C307.844 109.978 307.059 111.145 305.66 112.002C304.894 112.465 304.07 112.86 303.207 113.151C298.819 114.712 294.431 116.273 290.024 117.782C287.706 118.571 285.655 117.765 284.716 115.707C284.391 114.987 284.161 114.163 284.122 113.391C284.007 111.625 284.007 109.858 284.007 108.092C284.026 106.685 283.605 106.085 282.283 105.828C280.961 105.571 279.466 106.205 279.102 107.32C278.853 108.109 278.738 108.949 278.757 109.773C278.814 113.906 278.929 118.057 279.044 122.19C279.217 128.073 279.351 133.956 279.6 139.821C279.658 141.142 279.945 142.48 280.328 143.783C280.654 144.932 281.382 145.052 282.321 144.178C284.046 142.565 284.333 140.524 284.314 138.432C284.256 134.007 284.161 129.582 283.988 125.157C283.95 124.214 284.256 123.751 285.215 123.339C289.89 121.367 294.508 119.309 299.183 117.336C300.237 116.89 301.406 116.599 302.556 116.496C304.759 116.29 306.58 117.422 307.231 119.326C307.538 120.235 307.71 121.229 307.71 122.19C307.73 133.75 307.71 145.327 307.729 156.887C307.729 157.607 307.442 158.001 306.771 158.396C300.333 162.169 293.646 165.548 286.843 168.772C284.716 169.784 284.506 169.664 284.544 167.52C284.563 165.771 284.582 164.039 284.601 162.289C284.659 162.015 284.62 161.723 284.601 161.209Z" fill="#E7EFFB" stroke="black" stroke-width="3"/>
<path d="M109.155 138.81C109.155 147.368 109.194 155.944 109.117 164.502C109.098 166.251 108.868 168.052 108.331 169.733C107.067 173.661 103.905 175.118 99.5935 173.764C93.845 171.963 88.1157 170.093 82.4438 168.121C76.657 166.097 70.8893 163.97 65.1791 161.775C60.063 159.803 57.4953 155.961 56.2115 151.313C55.9432 150.335 55.8474 149.272 55.8282 148.26C55.7899 140.919 55.7899 133.579 55.8091 126.255C55.8091 125.552 55.9241 124.814 56.2115 124.163C56.7863 122.808 58.0702 122.19 59.6223 122.242C62.1708 122.345 64.7193 122.516 67.2486 122.739C72.8438 123.219 78.4199 123.751 84.0151 124.248C85.2223 124.351 85.2606 124.317 85.2606 123.219C85.2606 121.504 85.2414 119.789 85.1073 118.091C85.0498 117.371 84.7049 116.65 84.4175 115.964C84.1492 115.313 83.6318 114.85 82.7887 114.815C81.8881 114.781 81.0642 115.09 80.7576 115.844C80.4127 116.736 80.2402 117.714 80.1444 118.657C80.0103 119.823 80.0678 119.841 78.7839 119.789C73.1121 119.498 67.4402 119.223 61.7875 118.897C58.6833 118.726 55.9624 116.17 55.8091 113.323C55.7516 112.294 55.6941 111.248 55.9049 110.253C56.5564 107.166 58.8558 105.348 62.1133 104.628C63.9528 104.216 65.8881 104.182 67.8043 104.079C73.9169 103.753 80.0295 103.461 86.142 103.204C90.8558 102.998 95.5696 102.844 100.303 102.741C104.537 102.655 107.45 104.61 108.446 108.298C108.868 109.842 109.098 111.454 109.098 113.032C109.155 121.624 109.136 130.217 109.136 138.81H109.155ZM85.0498 143.766C85.0881 143.766 85.1456 143.766 85.1839 143.766C85.1839 141.674 85.1839 139.599 85.1839 137.506C85.1839 136.22 84.8199 135.054 83.6702 134.213C82.2522 133.167 80.5468 133.647 80.0869 135.208C79.9336 135.757 79.8762 136.34 79.857 136.906C79.7995 140.816 79.7229 144.727 79.742 148.637C79.742 149.495 79.8953 150.438 80.2594 151.21C80.6043 151.93 81.2558 152.633 81.9456 153.097C83.0378 153.817 84.1684 153.44 84.5899 152.273C84.839 151.604 84.9923 150.884 84.9923 150.181C85.0881 148.037 85.0498 145.91 85.0498 143.766Z" fill="#E7EFFB" stroke="black" stroke-width="3"/>
<path d="M137.131 58.835C136.901 66.8617 136.652 75.2829 136.403 83.6869C136.326 86.1566 135.924 88.5749 134.659 90.8217C133.107 93.5659 130.75 94.9894 127.186 94.9723C117.394 94.9208 107.603 95.0237 97.8111 95.0237C96.5464 95.0237 95.2243 94.9723 94.0362 94.6636C90.453 93.7717 88.1728 91.0618 87.8853 87.1686C87.6746 84.2357 87.6171 81.2857 87.7129 78.3529C88.0003 70.0175 88.4027 61.6992 88.7859 53.3638C88.8817 51.3914 88.9392 49.419 89.3033 47.481C90.2997 42.2499 93.2698 38.1165 98.7117 35.8183C102.716 34.1374 106.932 32.8511 111.033 31.359C117.126 29.1293 123.354 27.3113 129.715 25.7849C134.602 24.6186 137.533 26.248 138.031 30.7758C138.281 33.0569 138.185 35.3895 138.089 37.7049C137.821 44.6339 137.476 51.5286 137.131 58.835ZM115.037 61.6649C115.057 61.6649 115.076 61.6649 115.095 61.6649C115.363 56.3309 115.651 51.0141 115.919 45.6801C115.938 45.3199 115.938 44.9426 115.881 44.5653C115.651 43.2104 114.558 42.7301 113.236 43.399C111.857 44.0851 111.301 45.2685 111.128 46.5891C110.956 47.8583 110.937 49.1446 110.879 50.431C110.477 59.3152 110.075 68.2166 109.691 77.1009C109.653 78.1128 109.71 79.159 109.921 80.1538C110.151 81.1485 111.013 81.6974 111.933 81.6974C112.91 81.6974 113.811 81.1485 114.118 80.1881C114.348 79.4334 114.463 78.6273 114.501 77.8384C114.712 72.4358 114.865 67.0503 115.037 61.6649Z" fill="#E7EFFB" stroke="black" stroke-width="3"/>
<path d="M113.217 96.7559C115.306 97.0817 117.241 97.3904 119.176 97.7163C124.695 98.6253 130.213 99.5686 135.732 100.443C136.748 100.598 137.054 100.975 137.054 101.901C137.227 123.906 137.476 145.911 137.61 167.916C137.629 172.272 137.246 176.646 137.093 181.002C137.073 181.808 136.748 181.962 135.924 181.842C128.585 180.762 121.284 179.527 114.118 177.76C113.409 177.589 113.16 177.297 113.179 176.628C113.984 150.37 113.504 124.112 113.217 97.8535C113.217 97.5448 113.217 97.2361 113.217 96.7559Z" fill="#E7EFFB" stroke="black" stroke-width="3"/>
<path d="M167.099 11C170.299 11.5317 173.346 11.9948 176.374 12.5436C179.957 13.2125 183.521 13.9843 187.123 14.6532C188.081 14.8247 188.407 15.1849 188.426 16.0596C188.522 25.4755 188.426 76.74 187.966 92.9478C187.928 94.2341 187.909 94.2341 186.453 94.2684C180.168 94.4056 173.883 94.5257 167.598 94.6458C166.256 94.6801 166.256 94.6629 166.275 93.5138C166.639 80.9764 167.214 30.295 167.387 17.466C167.406 15.6136 167.214 13.7613 167.138 11.909C167.08 11.686 167.099 11.4288 167.099 11Z" fill="#E7EFFB" stroke="black" stroke-width="3"/>
<path d="M142.707 12.1318C144.029 12.3548 145.255 12.5092 146.443 12.7493C151.828 13.8298 157.193 14.9446 162.578 15.9908C163.478 16.1623 163.67 16.5397 163.67 17.2772C163.555 24.8065 163.555 32.3529 163.363 39.8823C162.903 57.8051 162.942 75.728 162.443 93.668C162.405 94.7828 162.424 94.7828 161.121 94.8C154.74 94.8343 148.36 94.8686 141.979 94.9372C141.021 94.9543 140.714 94.7314 140.733 93.8395C141.059 81.8852 141.787 38.493 142.132 28.7684C142.305 23.6059 142.439 18.4434 142.611 13.281C142.611 12.9379 142.669 12.6292 142.707 12.1318Z" fill="#E7EFFB" stroke="black" stroke-width="3"/>
<path d="M81.3713 45.2679C83.9964 43.7586 86.5641 42.3007 89.285 40.7228C89.2659 41.1345 89.285 41.3403 89.2276 41.5461C88.806 43.0725 88.4036 44.599 87.9246 46.1083C87.8288 46.4341 87.5413 46.7943 87.2347 46.983C85.5868 47.9606 83.9389 48.9554 82.2144 49.8129C81.1988 50.3103 80.8539 50.9792 80.8347 51.9396C80.7964 55.3699 80.7198 58.7829 80.6431 62.2131C80.3365 74.0645 81.5246 85.7272 81.218 97.5615C81.218 97.8187 81.1796 98.0589 81.1413 98.419C79.2826 98.1618 77.4814 97.9388 75.6994 97.6815C70.4683 96.9269 65.2563 96.1379 60.0252 95.4176C59.0096 95.2804 58.7413 94.9545 58.7796 94.0455C59.2587 83.1717 58.1665 72.4866 58.6072 61.6128C58.6263 61.0469 58.6072 60.4809 58.6072 59.7434C57.3425 60.1722 56.2311 60.5495 55.0048 60.9782C55.0048 59.8977 54.9856 58.9373 55.024 57.994C55.024 57.8225 55.3114 57.5823 55.5413 57.4966C56.3269 57.1879 57.1701 56.9821 57.9174 56.6219C58.2814 56.4332 58.703 55.9873 58.7222 55.6271C58.9713 52.437 59.1437 49.2469 59.3545 46.0568C59.6228 41.8891 60.8491 38.0644 64.4515 35.1487C65.4479 34.3426 66.7126 33.7767 67.9006 33.1592C70.0467 32.0444 72.1928 30.9296 74.3773 29.8834C78.6311 27.8595 82.9234 25.8872 87.2156 23.8976C89.1318 23.0058 91.0479 22.0968 93.0024 21.2564C95.0719 20.3817 97.1797 19.5756 99.2874 18.7352C99.4982 18.6494 99.7473 18.6151 100.092 18.5122C99.9581 20.8791 99.8431 23.143 99.6515 25.4069C99.6324 25.6471 99.1916 25.9043 98.9042 26.0587C94.3246 28.3569 89.7258 30.638 85.127 32.9191C83.9006 33.5194 83.0958 34.4284 82.6168 35.5947C81.3713 38.5618 81.3329 41.6661 81.2371 44.7705C81.218 44.8734 81.2755 44.9763 81.3713 45.2679Z" fill="#E7EFFB" stroke="black" stroke-width="3"/>
</svg>
