<svg width="112" height="112" viewBox="0 0 112 112" fill="none" xmlns="http://www.w3.org/2000/svg">
<path d="M112 56C112 86.9279 86.9279 112 56 112C25.0721 112 0 86.9279 0 56C0 25.0721 25.0721 0 56 0C86.9279 0 112 25.0721 112 56Z" fill="#C7D670"/>
<path d="M83.821 74.032C83.8957 77.0187 82.9997 79.4453 81.1331 81.312C79.3411 83.104 76.9517 84 73.965 84H37.453C34.4664 84 32.0397 83.104 30.173 81.312C28.381 79.4453 27.4477 77.0187 27.373 74.032V54.992C27.373 53.4987 27.597 52.3787 28.045 51.632C28.5677 50.8853 29.277 50.4 30.173 50.176C31.069 49.8773 32.1144 49.728 33.309 49.728C34.5784 49.728 35.9597 49.728 37.453 49.728H54.365C55.4104 49.728 56.157 49.5413 56.605 49.168C57.1277 48.7947 57.4637 48.3467 57.613 47.824C57.837 47.2267 57.949 46.5547 57.949 45.808C57.949 45.0613 57.949 44.352 57.949 43.68C57.949 42.7093 57.725 41.9253 57.277 41.328C56.9037 40.7307 56.4184 40.432 55.821 40.432C54.029 40.432 53.133 41.3653 53.133 43.232V46.144H33.869C31.9277 46.144 30.3597 45.5467 29.165 44.352C27.9704 43.1573 27.373 41.5893 27.373 39.648V37.968C27.373 34.9813 28.3064 32.592 30.173 30.8C32.0397 28.9333 34.4664 28 37.453 28H73.965C76.9517 28 79.3411 28.9333 81.1331 30.8C82.9251 32.592 83.821 34.9813 83.821 37.968L83.7091 45.472C83.7837 49.056 82.701 51.968 80.4611 54.208C78.2211 56.3733 75.3091 57.456 71.725 57.456H55.485C53.693 57.456 52.797 58.3893 52.797 60.256L52.685 68.768C52.685 69.5893 52.9464 70.2613 53.469 70.784C54.0664 71.3067 54.7757 71.568 55.597 71.568C57.2397 71.568 58.1357 70.6347 58.285 68.768C58.3597 67.4987 58.3597 66.5653 58.285 65.968C58.285 65.3707 58.2477 64.7733 58.173 64.176C58.173 62.9067 58.509 61.936 59.181 61.264C59.9277 60.5173 60.9357 60.144 62.205 60.144H77.6611C79.4531 60.144 80.909 60.704 82.029 61.824C83.1491 62.944 83.7464 64.4 83.821 66.192V74.032Z" fill="#63171C"/>
</svg>
