<svg width="122" height="122" viewBox="0 0 122 122" fill="none" xmlns="http://www.w3.org/2000/svg">
<path d="M122 61C122 94.6894 94.6894 122 61 122C27.3106 122 0 94.6894 0 61C0 27.3106 27.3106 0 61 0C94.6894 0 122 27.3106 122 61Z" fill="#63171C"/>
<path d="M99.3518 33.2729C98.9626 34.1792 76.0308 69.2198 66.6658 83.5149C64.8983 86.2155 61.3148 85.8904 60.1384 82.9177C57.3225 75.8266 53.2175 65.4484 52.9819 64.8056C52.4102 65.3178 23.5279 87.24 22.6464 87.7273C23.031 86.9917 43.2963 59.9533 52.8521 47.217C55.1641 44.1349 59.3928 44.6403 60.87 48.1714C63.5097 54.4651 66.8784 62.5066 67.0047 62.8394C67.654 62.1304 98.3912 33.9118 99.3518 33.2729Z" fill="#C7D670"/>
</svg>
