<svg width="112" height="112" viewBox="0 0 112 112" fill="none" xmlns="http://www.w3.org/2000/svg">
<path d="M112 56C112 86.9279 86.9279 112 56 112C25.0721 112 0 86.9279 0 56C0 25.0721 25.0721 0 56 0C86.9279 0 112 25.0721 112 56Z" fill="#394588"/>
<path d="M54.2537 49.728C55.2991 49.728 56.0457 49.5413 56.4937 49.168C57.0164 48.7947 57.3897 48.3467 57.6137 47.824C57.8377 47.2267 57.9497 46.5547 57.9497 45.808C57.9497 45.0613 57.9497 44.352 57.9497 43.68C57.9497 42.7093 57.7257 41.9253 57.2777 41.328C56.9044 40.7307 56.4191 40.432 55.8217 40.432C54.0297 40.432 53.1337 41.3653 53.1337 43.232V46.144H33.8697C31.9284 46.144 30.3604 45.5467 29.1657 44.352C27.9711 43.1573 27.3737 41.5893 27.3737 39.648V37.968C27.3737 34.9813 28.3071 32.592 30.1737 30.8C32.0404 28.9333 34.4671 28 37.4537 28H73.9657C76.9524 28 79.3417 28.9333 81.1337 30.8C82.9257 32.592 83.8217 34.9813 83.8217 37.968L83.7097 45.472C83.7844 49.056 82.7017 51.4827 80.4617 52.752C78.2964 53.9467 75.4217 54.544 71.8377 54.544H71.7257C75.3097 54.544 78.1844 55.664 80.3497 57.904C82.515 60.0693 83.6351 62.944 83.7097 66.528V74.032C83.7844 77.0187 82.9257 79.4453 81.1337 81.312C79.3417 83.104 76.9524 84 73.9657 84H37.4537C34.4671 84 32.0031 83.104 30.0617 81.312C28.1951 79.4453 27.2617 77.0187 27.2617 74.032V72.352C27.2617 71.3813 27.4111 70.3733 27.7097 69.328C28.0831 68.208 28.5311 67.2 29.0537 66.304C29.6511 65.3333 30.3604 64.5493 31.1817 63.952C32.0031 63.3547 32.8991 63.056 33.8697 63.056H53.1337V68.768C53.1337 70.6347 54.0297 71.568 55.8217 71.568C56.4191 71.568 56.9044 71.2693 57.2777 70.672C57.7257 70.0747 57.9497 69.2907 57.9497 68.32C57.9497 67.648 57.9124 66.8267 57.8377 65.856C57.8377 64.8853 57.7257 63.9893 57.5017 63.168C57.3524 62.272 57.0164 61.5253 56.4937 60.928C56.0457 60.3307 55.2991 60.032 54.2537 60.032V49.728Z" fill="#F6F5F0"/>
</svg>
