<svg width="46" height="46" viewBox="0 0 46 46" fill="none" xmlns="http://www.w3.org/2000/svg">
<path d="M46 23C46 35.7025 35.7025 46 23 46C10.2975 46 0 35.7025 0 23C0 10.2975 10.2975 0 23 0C35.7025 0 46 10.2975 46 23Z" fill="#394588"/>
<path d="M15.0257 19.524C14.8829 19.8721 14.8561 20.2203 14.9454 20.5684C15.0347 20.9165 15.2133 21.228 15.4812 21.5028C15.7491 21.7776 16.0795 22.0067 16.4725 22.1899C16.8832 22.3548 17.3298 22.4372 17.812 22.4372H19.5802C20.4375 22.4372 21.1251 22.7029 21.6431 23.2342C22.1611 23.7656 22.42 24.471 22.42 25.3504V27.3842C22.42 27.7872 22.3397 28.1445 22.1789 28.456C22.036 28.7675 21.8396 29.024 21.5895 29.2255C21.3573 29.4271 21.0983 29.5828 20.8126 29.6927C20.5447 29.7843 20.2946 29.8302 20.0624 29.8302H17.7316V32.0838H12.9896V29.8302H11.3286C10.6142 29.8302 10.0337 29.6103 9.58719 29.1706C9.15853 28.7125 8.93528 28.117 8.91742 27.3842V26.6146C8.89956 25.8818 9.12281 25.2955 9.58719 24.8557C10.0516 24.3977 10.641 24.1686 11.3554 24.1686H13.4183C13.8827 24.1686 14.2399 24.3152 14.4899 24.6084C14.74 24.9015 14.9007 25.2863 14.9722 25.7627L15.0257 26.0925C15.0793 26.5505 15.3026 26.7795 15.6955 26.7795C15.9098 26.7795 16.0795 26.7154 16.2045 26.5872C16.4903 26.2757 16.5885 25.9459 16.4992 25.5978C16.4099 25.2496 16.2135 24.9382 15.9098 24.6633C15.6241 24.3702 15.2579 24.132 14.8114 23.9488C14.3828 23.7656 13.9541 23.674 13.5255 23.674H11.7305C10.8732 23.674 10.1855 23.4083 9.66756 22.8769C9.16746 22.3456 8.91742 21.6402 8.91742 20.7608L8.89062 18.5346C8.89062 18.1132 8.971 17.7559 9.13174 17.4628C9.29249 17.1513 9.48896 16.8948 9.72114 16.6933C9.97119 16.4917 10.2302 16.3451 10.4981 16.2535C10.7838 16.1436 11.0428 16.0886 11.275 16.0886H12.9896V14.3022H17.7316V16.0886H20.0089C20.7233 16.0886 21.3037 16.3177 21.7503 16.7757C22.2146 17.2154 22.429 17.8017 22.3932 18.5346L22.3665 19.3591C22.3307 20.092 22.0985 20.6875 21.6699 21.1455C21.2591 21.5852 20.6965 21.8051 19.9821 21.8051H17.9192C17.4548 21.8051 17.0886 21.6585 16.8207 21.3654C16.5707 21.0722 16.4189 20.6875 16.3653 20.2111L16.3117 19.8263C16.2581 19.3683 16.0259 19.1393 15.6151 19.1393C15.3294 19.1393 15.1329 19.2675 15.0257 19.524Z" fill="#F6F5F0"/>
<path d="M29.7152 19.524C29.5723 19.8721 29.5455 20.2203 29.6348 20.5684C29.7241 20.9165 29.9027 21.228 30.1706 21.5028C30.4386 21.7776 30.769 22.0067 31.1619 22.1899C31.5727 22.3548 32.0192 22.4372 32.5015 22.4372H34.2697C35.127 22.4372 35.8146 22.7029 36.3326 23.2342C36.8505 23.7656 37.1095 24.471 37.1095 25.3504V27.3842C37.1095 27.7872 37.0291 28.1445 36.8684 28.456C36.7255 28.7675 36.529 29.024 36.279 29.2255C36.0468 29.4271 35.7878 29.5828 35.502 29.6927C35.2341 29.7843 34.9841 29.8302 34.7519 29.8302H32.4211V32.0838H27.6791V29.8302H26.0181C25.3036 29.8302 24.7232 29.6103 24.2766 29.1706C23.848 28.7125 23.6247 28.117 23.6069 27.3842V26.6146C23.589 25.8818 23.8123 25.2955 24.2766 24.8557C24.741 24.3977 25.3304 24.1686 26.0448 24.1686H28.1077C28.5721 24.1686 28.9293 24.3152 29.1794 24.6084C29.4294 24.9015 29.5902 25.2863 29.6616 25.7627L29.7152 26.0925C29.7688 26.5505 29.992 26.7795 30.385 26.7795C30.5993 26.7795 30.769 26.7154 30.894 26.5872C31.1798 26.2757 31.278 25.9459 31.1887 25.5978C31.0994 25.2496 30.9029 24.9382 30.5993 24.6633C30.3135 24.3702 29.9474 24.132 29.5009 23.9488C29.0722 23.7656 28.6436 23.674 28.2149 23.674H26.4199C25.5626 23.674 24.875 23.4083 24.357 22.8769C23.8569 22.3456 23.6069 21.6402 23.6069 20.7608L23.5801 18.5346C23.5801 18.1132 23.6605 17.7559 23.8212 17.4628C23.9819 17.1513 24.1784 16.8948 24.4106 16.6933C24.6606 16.4917 24.9196 16.3451 25.1875 16.2535C25.4733 16.1436 25.7323 16.0886 25.9645 16.0886H27.6791V14.3022H32.4211V16.0886H34.6983C35.4127 16.0886 35.9932 16.3177 36.4397 16.7757C36.9041 17.2154 37.1184 17.8017 37.0827 18.5346L37.0559 19.3591C37.0202 20.092 36.788 20.6875 36.3593 21.1455C35.9485 21.5852 35.3859 21.8051 34.6715 21.8051H32.6086C32.1442 21.8051 31.7781 21.6585 31.5102 21.3654C31.2601 21.0722 31.1083 20.6875 31.0547 20.2111L31.0012 19.8263C30.9476 19.3683 30.7154 19.1393 30.3046 19.1393C30.0188 19.1393 29.8224 19.2675 29.7152 19.524Z" fill="#F6F5F0"/>
</svg>
