<svg width="48" height="48" viewBox="0 0 48 48" fill="none" xmlns="http://www.w3.org/2000/svg">
<path d="M48 24C48 37.2548 37.2548 48 24 48C10.7452 48 0 37.2548 0 24C0 10.7452 10.7452 0 24 0C37.2548 0 48 10.7452 48 24Z" fill="#3E753D"/>
<path d="M24.3061 21.7954C24.3986 21.5598 24.4635 21.2971 24.5005 21.0072C24.5375 20.7172 24.556 20.4273 24.556 20.1373C24.5746 19.8474 24.5838 19.5846 24.5838 19.3491C24.5838 19.1135 24.5838 18.9323 24.5838 18.8054C24.5838 18.5699 24.5283 18.3796 24.4172 18.2346C24.3246 18.0897 24.2042 18.0172 24.0561 18.0172C23.6117 18.0172 23.3895 18.2437 23.3895 18.6967V21.1702H18.6121C18.1306 21.1702 17.7418 21.0253 17.4455 20.7353C17.1492 20.4454 17.0011 20.0649 17.0011 19.5937V17.4192C16.9826 16.6943 17.2048 16.1144 17.6677 15.6795C18.1491 15.2265 18.7602 15 19.5009 15H28.5557C29.2964 15 29.889 15.2265 30.3334 15.6795C30.7778 16.1144 31 16.6943 31 17.4192L30.9722 19.2403C30.9722 19.5846 30.9259 19.9561 30.8333 20.3548C30.7408 20.7353 30.6111 21.1159 30.4445 21.4964C30.2963 21.8588 30.1019 22.2031 29.8612 22.5293C29.639 22.8374 29.3798 23.0911 29.0835 23.2904C28.6946 23.5622 28.3706 23.7978 28.1113 23.9971C27.8521 24.1784 27.6484 24.3505 27.5003 24.5136C27.3706 24.6767 27.2781 24.8398 27.2225 25.0029C27.167 25.166 27.1392 25.3472 27.1392 25.5465V28.8355H20.8341L20.8619 25.5193C20.8619 25.2294 20.9452 24.9666 21.1119 24.731C21.2785 24.4955 21.5007 24.3324 21.7785 24.2418C22.334 24.0424 22.8432 23.7253 23.3061 23.2904C23.7876 22.8374 24.1209 22.3391 24.3061 21.7954ZM20.8619 30.0858H27.167L27.1392 34H20.8341L20.8619 30.0858Z" fill="#E7EFFB"/>
</svg>
