<svg width="46" height="46" viewBox="0 0 46 46" fill="none" xmlns="http://www.w3.org/2000/svg">
<path d="M46 23C46 35.7025 35.7025 46 23 46C10.2975 46 0 35.7025 0 23C0 10.2975 10.2975 0 23 0C35.7025 0 46 10.2975 46 23Z" fill="#C1C5E1"/>
<path d="M9 20.1582L17.8906 16L21.1259 20.6257L16.0565 22.9877L21.1259 25.3743L17.8906 30L9 25.8418V20.1582Z" fill="#5E2121"/>
<path d="M28.2747 21.4622C28.5125 21.4622 28.6823 21.4212 28.7842 21.3392C28.9031 21.2572 28.988 21.1588 29.0389 21.0439C29.0899 20.9127 29.1154 20.7651 29.1154 20.6011C29.1154 20.437 29.1154 20.2812 29.1154 20.1336C29.1154 19.9203 29.0644 19.7481 28.9625 19.6169C28.8776 19.4856 28.7672 19.42 28.6314 19.42C28.2238 19.42 28.02 19.6251 28.02 20.0351V20.6749H23.6383C23.1968 20.6749 22.8401 20.5436 22.5684 20.2812C22.2967 20.0187 22.1608 19.6743 22.1608 19.2478V18.8787C22.1608 18.2226 22.3731 17.6977 22.7977 17.304C23.2222 16.894 23.7742 16.6889 24.4535 16.6889H32.7582C33.4376 16.6889 33.981 16.894 34.3886 17.304C34.7962 17.6977 35 18.2226 35 18.8787L34.9745 20.5272C34.9915 21.3146 34.7453 21.8477 34.2358 22.1265C33.7433 22.389 33.0894 22.5202 32.2742 22.5202H32.2487C33.0639 22.5202 33.7178 22.7663 34.2103 23.2583C34.7028 23.734 34.9575 24.3656 34.9745 25.1529V26.8014C34.9915 27.4575 34.7962 27.9906 34.3886 28.4007C33.981 28.7944 33.4376 28.9912 32.7582 28.9912H24.4535C23.7742 28.9912 23.2138 28.7944 22.7722 28.4007C22.3476 27.9906 22.1353 27.4575 22.1353 26.8014V26.4323C22.1353 26.2191 22.1693 25.9977 22.2372 25.768C22.3221 25.522 22.424 25.3005 22.5429 25.1037C22.6788 24.8905 22.8401 24.7182 23.0269 24.587C23.2138 24.4558 23.4176 24.3902 23.6383 24.3902H28.02V25.645C28.02 26.0551 28.2238 26.2601 28.6314 26.2601C28.7672 26.2601 28.8776 26.1945 28.9625 26.0633C29.0644 25.932 29.1154 25.7598 29.1154 25.5466C29.1154 25.3989 29.1069 25.2185 29.0899 25.0053C29.0899 24.792 29.0644 24.5952 29.0135 24.4148C28.9795 24.2179 28.9031 24.0539 28.7842 23.9227C28.6823 23.7914 28.5125 23.7258 28.2747 23.7258V21.4622Z" fill="#5E2121"/>
</svg>
