<svg width="83" height="83" viewBox="0 0 83 83" fill="none" xmlns="http://www.w3.org/2000/svg">
<path d="M82.7888 24.3965C82.5939 19.9785 81.879 16.9573 80.8556 14.326C79.7996 11.5323 78.175 9.04716 76.063 6.9681C73.9836 4.85656 71.4655 3.21605 68.7199 2.19276C66.0718 1.16947 63.0664 0.454795 58.6475 0.259883C54.1961 0.048728 52.7827 0 41.5081 0C30.2335 0 28.8201 0.048728 24.4013 0.24364C19.9824 0.438552 16.9607 1.15323 14.3288 2.17652C11.5345 3.23229 9.04893 4.85656 6.96947 6.9681C4.85751 9.04716 3.21668 11.5648 2.19319 14.3098C1.1697 16.9573 0.454884 19.9622 0.259933 24.3802C0.0487375 28.8307 0 30.2438 0 41.5C0 52.7562 0.0487375 54.1855 0.243688 58.6035C0.438638 63.0215 1.15345 66.0427 2.17694 68.674C3.23292 71.4677 4.87375 73.9528 6.96947 76.0319C9.04893 78.1434 11.567 79.784 14.3126 80.8072C16.9607 81.8305 19.9661 82.5452 24.385 82.7401C28.8039 82.935 30.2173 82.9838 41.4919 82.9838C52.7665 82.9838 54.1799 82.935 58.5987 82.7401C63.0176 82.5452 66.0393 81.8305 68.6712 80.8072C74.2435 78.647 78.6624 74.2452 80.8231 68.6577C81.8465 66.0102 82.5614 63.0053 82.7563 58.5873C82.9513 54.153 83 52.7562 83 41.4838C83 30.2114 82.9838 28.8307 82.7888 24.3965ZM75.3157 58.2949C75.137 62.3556 74.4547 64.5321 73.8861 65.9939C72.4889 69.616 69.6134 72.4748 66.0068 73.8716C64.5447 74.4401 62.3353 75.1223 58.3063 75.301C53.9199 75.4959 52.6203 75.5446 41.5406 75.5446C30.461 75.5446 29.1288 75.4959 24.7749 75.301C20.7134 75.1223 18.5365 74.4401 17.0744 73.8716C15.2711 73.2057 13.6303 72.1499 12.3143 70.7693C10.9335 69.4211 9.87747 67.7969 9.21139 66.0102C8.64279 64.5483 7.96046 62.3393 7.78176 58.3112C7.58681 53.9256 7.53807 52.6262 7.53807 41.5487C7.53807 30.4712 7.58681 29.1393 7.78176 24.7863C7.96046 20.7256 8.64279 18.5491 9.21139 17.0873C9.86123 15.2681 10.9172 13.6438 12.3143 12.3119C13.6628 10.9313 15.2873 9.87554 17.0744 9.20959C18.5365 8.6411 20.7459 7.9589 24.7749 7.78024C29.1613 7.58532 30.461 7.5366 41.5406 7.5366C52.6365 7.5366 53.9524 7.58532 58.3063 7.78024C62.3678 7.9589 64.5447 8.6411 66.0068 9.20959C67.8101 9.87554 69.451 10.9313 70.7669 12.3119C72.1478 13.6601 73.2038 15.2843 73.8698 17.0873C74.4384 18.5491 75.1208 20.7581 75.2995 24.7863C75.4944 29.1718 75.5432 30.4712 75.5432 41.5487C75.5432 52.6262 75.5107 53.9094 75.3157 58.2949Z" fill="white"/>
<path d="M41.508 20.1895C29.7298 20.1895 20.1772 29.7401 20.1772 41.5161C20.1772 53.292 29.7298 62.8427 41.508 62.8427C53.2863 62.8427 62.8388 53.292 62.8388 41.5161C62.8388 29.7401 53.2863 20.1895 41.508 20.1895ZM41.508 55.3386C33.8725 55.3386 27.6666 49.1501 27.6666 41.4998C27.6666 33.8495 33.8562 27.6611 41.508 27.6611C49.1436 27.6611 55.3495 33.8495 55.3495 41.4998C55.3495 49.1501 49.1598 55.3386 41.508 55.3386Z" fill="white"/>
<path d="M68.6712 19.3451C68.6712 22.0901 66.4455 24.3153 63.7 24.3153C60.9544 24.3153 58.7288 22.0901 58.7288 19.3451C58.7288 16.6001 60.9544 14.3748 63.7 14.3748C66.4293 14.3586 68.6712 16.6001 68.6712 19.3451Z" fill="white"/>
</svg>
