<?xml version="1.0" encoding="utf-8"?>
<!-- Generator: Adobe Illustrator 24.3.0, SVG Export Plug-In . SVG Version: 6.00 Build 0)  -->
<svg version="1.1" id="Layer_1" xmlns="http://www.w3.org/2000/svg" xmlns:xlink="http://www.w3.org/1999/xlink" x="0px" y="0px"
	 viewBox="0 0 265 10" style="enable-background:new 0 0 265 10;" xml:space="preserve">
<style type="text/css">
	.st0{fill:#0D2B69;}
</style>
<g>
	<path class="st0" d="M266,0v1c0,0.5-0.5,1-1,1c-3.5,0-5.2,1.9-7.2,4c-2.1,2.3-4.6,5-9.4,5s-7.2-2.6-9.4-5c-2-2.1-3.7-4-7.2-4
		c-3.5,0-5.2,1.9-7.2,4c-2.2,2.3-4.6,5-9.4,5s-7.2-2.6-9.4-5c-2-2.1-3.7-4-7.2-4s-5.2,1.9-7.2,4c-2.1,2.3-4.6,5-9.4,5
		s-7.2-2.6-9.4-5c-2-2.1-3.7-4-7.2-4c-3.5,0-5.2,1.9-7.2,4c-2.2,2.3-4.6,5-9.4,5s-7.2-2.6-9.4-5c-2-2.1-3.7-4-7.2-4s-5.2,1.9-7.2,4
		c-2.1,2.3-4.6,5-9.4,5s-7.2-2.6-9.4-5c-2-2.1-3.7-4-7.2-4c-3.5,0-5.2,1.9-7.2,4c-2.2,2.3-4.6,5-9.4,5s-7.2-2.6-9.4-5
		c-2-2.1-3.7-4-7.2-4S61,3.9,59.1,6c-2.1,2.3-4.6,5-9.4,5s-7.2-2.6-9.4-5c-2-2.1-3.7-4-7.2-4c-3.5,0-5.2,1.9-7.2,4
		c-2.2,2.3-4.6,5-9.4,5S9.3,8.4,7.2,6C5.2,3.9,3.5,2,0,2c-0.5,0-1-0.5-1-1V0c0-0.5,0.5-1,1-1c4.8,0,7.2,2.6,9.4,5c2,2.1,3.7,4,7.2,4
		s5.2-1.9,7.2-4c2.2-2.3,4.6-5,9.4-5c4.8,0,7.2,2.6,9.4,5c2,2.1,3.7,4,7.2,4s5.2-1.9,7.2-4c2.1-2.3,4.6-5,9.4-5s7.2,2.6,9.4,5
		c2,2.1,3.7,4,7.2,4S88,6.1,90,4c2.2-2.3,4.6-5,9.4-5c4.8,0,7.2,2.6,9.4,5c2,2.1,3.7,4,7.2,4c3.5,0,5.2-1.9,7.2-4
		c2.1-2.3,4.6-5,9.4-5c4.8,0,7.2,2.6,9.4,5c2,2.1,3.7,4,7.2,4s5.2-1.9,7.2-4c2.1-2.3,4.6-5,9.4-5s7.2,2.6,9.4,5c2,2.1,3.7,4,7.2,4
		s5.2-1.9,7.2-4c2.2-2.3,4.6-5,9.4-5c4.8,0,7.2,2.6,9.4,5c2,2.1,3.7,4,7.2,4s5.2-1.9,7.2-4c2.1-2.3,4.6-5,9.4-5s7.2,2.6,9.4,5
		c2,2.1,3.7,4,7.2,4s5.2-1.9,7.2-4c2.2-2.3,4.6-5,9.4-5h0C265.5-1,266-0.5,266,0z"/>
</g>
</svg>
