<?xml version="1.0" encoding="utf-8"?>
<!-- Generator: Adobe Illustrator 24.3.0, SVG Export Plug-In . SVG Version: 6.00 Build 0)  -->
<svg version="1.1" id="Layer_1" xmlns="http://www.w3.org/2000/svg" xmlns:xlink="http://www.w3.org/1999/xlink" x="0px" y="0px"
	 viewBox="0 0 265 10.5" style="enable-background:new 0 0 265 10.5;" xml:space="preserve">
<style type="text/css">
	.st0{fill:#FAFAFA;}
</style>
<g>
	<path class="st0" d="M265.2,0v1.5H265c-3.8,0-5.7,2-7.7,4.2c-2.1,2.3-4.4,4.7-8.8,4.7s-6.8-2.5-8.8-4.7c-2-2.2-3.9-4.2-7.7-4.2
		c-3.8,0-5.7,2-7.7,4.2c-2.1,2.3-4.4,4.7-8.8,4.7s-6.8-2.5-8.8-4.7c-2-2.2-3.9-4.2-7.7-4.2s-5.7,2-7.7,4.2c-2.1,2.3-4.4,4.7-8.8,4.7
		s-6.8-2.5-8.8-4.7c-2-2.2-3.9-4.2-7.7-4.2c-3.8,0-5.7,2-7.7,4.2c-2.1,2.3-4.4,4.7-8.8,4.7s-6.8-2.5-8.8-4.7c-2-2.2-3.9-4.2-7.7-4.2
		s-5.7,2-7.7,4.2c-2.1,2.3-4.4,4.7-8.8,4.7s-6.7-2.4-8.8-4.7c-2-2.2-3.9-4.2-7.7-4.2c-3.8,0-5.7,2-7.7,4.2c-2.1,2.3-4.4,4.7-8.8,4.7
		S76.1,8.1,74,5.8c-2-2.2-3.9-4.2-7.7-4.2s-5.7,2-7.7,4.2c-2.1,2.3-4.4,4.7-8.8,4.7S43,8.1,40.8,5.8c-2-2.2-3.9-4.2-7.7-4.2
		c-3.8,0-5.7,2-7.7,4.2c-2.1,2.3-4.4,4.7-8.8,4.7S9.9,8.1,7.7,5.8C5.7,3.6,3.8,1.5,0,1.5h-0.2V0H0c4.5,0,6.7,2.4,8.8,4.7
		c2,2.2,3.9,4.2,7.7,4.2c3.8,0,5.7-2,7.7-4.2C26.4,2.4,28.7,0,33.1,0c4.5,0,6.7,2.4,8.8,4.7C44,6.9,45.9,9,49.7,9
		c3.8,0,5.7-2,7.7-4.2C59.6,2.4,61.8,0,66.2,0s6.7,2.4,8.8,4.7C77.1,6.9,79,9,82.8,9c3.8,0,5.7-2,7.7-4.2C92.7,2.4,94.9,0,99.4,0
		c4.5,0,6.7,2.4,8.8,4.7c2,2.2,3.9,4.2,7.7,4.2c3.8,0,5.7-2,7.7-4.2c2.1-2.3,4.4-4.7,8.8-4.7c4.5,0,6.7,2.4,8.8,4.7
		c2,2.2,3.9,4.2,7.7,4.2s5.7-2,7.7-4.2c2.1-2.3,4.3-4.7,8.8-4.7c4.5,0,6.7,2.4,8.8,4.7c2,2.2,3.9,4.2,7.7,4.2c3.8,0,5.7-2,7.7-4.2
		c2.1-2.3,4.4-4.7,8.8-4.7s6.7,2.4,8.8,4.7c2,2.2,3.9,4.2,7.7,4.2c3.8,0,5.7-2,7.7-4.2c2.1-2.3,4.3-4.7,8.8-4.7
		c4.5,0,6.7,2.4,8.8,4.7c2,2.2,3.9,4.2,7.7,4.2c3.8,0,5.7-2,7.7-4.2c2.1-2.3,4.4-4.7,8.8-4.7H265.2z"/>
</g>
</svg>
