<svg width="265" height="10" viewBox="0 0 265 10" fill="none" xmlns="http://www.w3.org/2000/svg">
<path d="M264.986 0C260.619 0 258.443 2.35465 256.337 4.63663C254.288 6.86046 252.352 8.95349 248.423 8.95349C244.509 8.95349 242.559 6.86046 240.51 4.63663C238.404 2.35465 236.228 0 231.861 0C227.494 0 225.318 2.35465 223.212 4.63663C221.163 6.86046 219.227 8.95349 215.298 8.95349C211.384 8.95349 209.434 6.86046 207.385 4.63663C205.279 2.35465 203.103 0 198.736 0C194.369 0 192.193 2.35465 190.087 4.63663C188.038 6.86046 186.102 8.95349 182.173 8.95349C178.259 8.95349 176.309 6.86046 174.26 4.63663C172.154 2.35465 169.978 0 165.611 0C161.244 0 159.068 2.35465 156.962 4.63663C154.913 6.86046 152.977 8.95349 149.048 8.95349C145.134 8.95349 143.184 6.86046 141.135 4.63663C139.029 2.35465 136.853 0 132.5 0C128.147 0 125.957 2.35465 123.851 4.63663C121.802 6.86046 119.866 8.95349 115.938 8.95349C112.023 8.95349 110.073 6.86046 108.024 4.63663C105.918 2.35465 103.728 0 99.375 0C95.0224 0 92.832 2.35465 90.7263 4.63663C88.6772 6.86046 86.7412 8.95349 82.8125 8.95349C78.898 8.95349 76.9478 6.86046 74.8987 4.63663C72.793 2.35465 70.6026 0 66.25 0C61.8833 0 59.707 2.35465 57.6013 4.63663C55.5522 6.86046 53.6161 8.95349 49.6875 8.95349C45.7589 8.95349 43.8228 6.86046 41.7737 4.63663C39.668 2.35465 37.4776 0 33.125 0C28.7583 0 26.582 2.35465 24.4763 4.63663C22.4272 6.86046 20.4911 8.95349 16.5625 8.95349C12.6339 8.95349 10.6978 6.86046 8.64868 4.63663C6.54304 2.35465 4.36673 0 0 0V1.04651C3.91452 1.04651 5.86471 3.13954 7.91382 5.36337C10.0195 7.64535 12.2099 10 16.5625 10C20.9292 10 23.1055 7.64535 25.2112 5.36337C27.2603 3.13954 29.1964 1.04651 33.125 1.04651C37.0395 1.04651 38.9897 3.13954 41.0388 5.36337C43.1445 7.64535 45.3349 10 49.6875 10C54.0401 10 56.2305 7.64535 58.3362 5.36337C60.3853 3.13954 62.3214 1.04651 66.25 1.04651C70.1645 1.04651 72.1147 3.13954 74.1638 5.36337C76.2695 7.64535 78.4599 10 82.8125 10C87.1792 10 89.3555 7.64535 91.4612 5.36337C93.5103 3.13954 95.4464 1.04651 99.375 1.04651C103.29 1.04651 105.24 3.13954 107.289 5.36337C109.394 7.64535 111.585 10 115.938 10C120.304 10 122.481 7.64535 124.586 5.36337C126.635 3.13954 128.571 1.04651 132.5 1.04651C136.429 1.04651 138.365 3.13954 140.414 5.36337C142.519 7.64535 144.71 10 149.063 10C153.429 10 155.606 7.64535 157.711 5.36337C159.76 3.13954 161.696 1.04651 165.625 1.04651C169.554 1.04651 171.49 3.13954 173.539 5.36337C175.644 7.64535 177.835 10 182.188 10C186.554 10 188.731 7.64535 190.836 5.36337C192.885 3.13954 194.821 1.04651 198.75 1.04651C202.665 1.04651 204.615 3.13954 206.664 5.36337C208.769 7.64535 210.96 10 215.313 10C219.679 10 221.856 7.64535 223.961 5.36337C226.01 3.13954 227.946 1.04651 231.875 1.04651C235.79 1.04651 237.74 3.13954 239.789 5.36337C241.894 7.64535 244.085 10 248.438 10C252.804 10 254.981 7.64535 257.086 5.36337C259.135 3.13954 261.071 1.04651 265 1.04651V0H264.986Z" fill="#ECA34E"/>
</svg>
