<?xml version="1.0" encoding="utf-8"?>
<!-- Generator: Adobe Illustrator 24.3.0, SVG Export Plug-In . SVG Version: 6.00 Build 0)  -->
<svg version="1.1" id="Layer_1" xmlns="http://www.w3.org/2000/svg" xmlns:xlink="http://www.w3.org/1999/xlink" x="0px" y="0px"
	 viewBox="0 0 265 10" style="enable-background:new 0 0 265 10;" xml:space="preserve">
<style type="text/css">
	.st0{fill:#0D2B69;}
</style>
<g>
	<path class="st0" d="M265.5,0v1c0,0.3-0.2,0.5-0.5,0.5c-3.7,0-5.5,1.9-7.5,4.2c-2.1,2.2-4.4,4.8-9,4.8s-6.9-2.5-9-4.8
		c-2-2.1-3.8-4.2-7.5-4.2c-3.7,0-5.5,1.9-7.5,4.2c-2.1,2.2-4.4,4.8-9,4.8s-6.9-2.5-9-4.8c-2-2.1-3.8-4.2-7.5-4.2s-5.5,1.9-7.5,4.2
		c-2.1,2.2-4.4,4.8-9,4.8s-6.9-2.5-9-4.8c-2-2.2-3.8-4.2-7.5-4.2c-3.7,0-5.5,1.9-7.5,4.2c-2.1,2.2-4.4,4.8-9,4.8s-6.9-2.5-9-4.8
		c-2.1-2.2-3.8-4.2-7.5-4.2S127,3.5,125,5.7c-2.1,2.2-4.4,4.8-9,4.8s-6.9-2.5-9-4.8c-2-2.1-3.8-4.2-7.5-4.2c-3.7,0-5.5,1.9-7.5,4.2
		c-2.1,2.2-4.4,4.8-9,4.8s-6.9-2.5-9-4.8c-2-2.1-3.8-4.2-7.5-4.2s-5.5,1.9-7.5,4.2c-2.1,2.2-4.4,4.8-9,4.8s-6.9-2.5-9-4.8
		c-2-2.1-3.8-4.2-7.5-4.2c-3.7,0-5.5,1.9-7.5,4.2c-2.1,2.2-4.4,4.8-9,4.8S9.6,8,7.5,5.7C5.6,3.6,3.7,1.5,0,1.5
		c-0.3,0-0.5-0.2-0.5-0.5V0c0-0.3,0.2-0.5,0.5-0.5c4.6,0,6.9,2.5,9,4.8c2,2.2,3.8,4.2,7.5,4.2c3.7,0,5.5-1.9,7.5-4.2
		c2.1-2.2,4.4-4.8,9-4.8c4.6,0,7,2.5,9,4.8c2.1,2.2,3.8,4.2,7.5,4.2c3.7,0,5.5-1.9,7.5-4.2c2.1-2.2,4.4-4.8,9-4.8s6.9,2.5,9,4.8
		c2,2.1,3.8,4.2,7.5,4.2c3.7,0,5.5-1.9,7.5-4.2c2.1-2.2,4.4-4.8,9-4.8c4.6,0,6.9,2.5,9,4.8c2,2.1,3.8,4.2,7.5,4.2
		c3.7,0,5.5-1.9,7.5-4.2c2.1-2.2,4.4-4.8,9-4.8c4.6,0,6.9,2.5,9,4.8c2,2.1,3.8,4.2,7.5,4.2c3.7,0,5.5-1.9,7.5-4.2
		c2.1-2.2,4.4-4.8,9-4.8c4.6,0,6.9,2.5,9,4.8c2,2.1,3.8,4.2,7.5,4.2c3.7,0,5.5-1.9,7.5-4.2c2.1-2.2,4.4-4.8,9-4.8
		c4.6,0,6.9,2.5,9,4.8c2,2.1,3.8,4.2,7.5,4.2c3.7,0,5.5-1.9,7.5-4.2c2.1-2.2,4.4-4.8,9-4.8c4.6,0,6.9,2.5,9,4.8
		c2,2.1,3.8,4.2,7.5,4.2c3.7,0,5.5-1.9,7.5-4.2c2.1-2.2,4.4-4.8,9-4.8h0C265.3-0.5,265.5-0.3,265.5,0z"/>
</g>
</svg>
