<svg width="260" height="10" viewBox="0 0 260 10" fill="none" xmlns="http://www.w3.org/2000/svg">
<path d="M259 0C254.732 0 252.605 2.35123 250.547 4.6299C248.544 6.85051 246.652 8.94049 242.812 8.94049C238.986 8.94049 237.079 6.85051 235.077 4.6299C233.018 2.35123 230.891 0 226.623 0C222.355 0 220.228 2.35123 218.17 4.6299C216.167 6.85051 214.275 8.94049 210.435 8.94049C206.609 8.94049 204.703 6.85051 202.7 4.6299C200.642 2.35123 198.515 0 194.247 0C189.978 0 187.851 2.35123 185.793 4.6299C183.79 6.85051 181.898 8.94049 178.058 8.94049C174.232 8.94049 172.326 6.85051 170.323 4.6299C168.265 2.35123 166.138 0 161.87 0C157.602 0 155.475 2.35123 153.416 4.6299C151.414 6.85051 149.521 8.94049 145.681 8.94049C141.855 8.94049 139.949 6.85051 137.946 4.6299C135.888 2.35123 133.761 0 129.507 0C125.253 0 123.112 2.35123 121.054 4.6299C119.051 6.85051 117.158 8.94049 113.319 8.94049C109.492 8.94049 107.586 6.85051 105.583 4.6299C103.525 2.35123 101.384 0 97.1302 0C92.8759 0 90.7349 2.35123 88.6769 4.6299C86.674 6.85051 84.7817 8.94049 80.9418 8.94049C77.1157 8.94049 75.2096 6.85051 73.2068 4.6299C71.1487 2.35123 69.0077 0 64.7534 0C60.4854 0 58.3582 2.35123 56.3001 4.6299C54.2973 6.85051 52.405 8.94049 48.5651 8.94049C44.7252 8.94049 42.8329 6.85051 40.83 4.6299C38.772 2.35123 36.631 0 32.3767 0C28.1086 0 25.9815 2.35123 23.9234 4.6299C21.9206 6.85051 20.0283 8.94049 16.1884 8.94049C12.3485 8.94049 10.4561 6.85051 8.45331 4.6299C6.39523 2.35123 4.26809 0 0 0V1.04499C3.82609 1.04499 5.73223 3.13498 7.73505 5.35559C9.79313 7.63425 11.9341 9.98549 16.1884 9.98549C20.4565 9.98549 22.5836 7.63425 24.6417 5.35559C26.6445 3.13498 28.5368 1.04499 32.3767 1.04499C36.2028 1.04499 38.109 3.13498 40.1118 5.35559C42.1699 7.63425 44.3108 9.98549 48.5651 9.98549C52.8194 9.98549 54.9603 7.63425 57.0184 5.35559C59.0212 3.13498 60.9135 1.04499 64.7534 1.04499C68.5795 1.04499 70.4857 3.13498 72.4885 5.35559C74.5466 7.63425 76.6875 9.98549 80.9418 9.98549C85.2099 9.98549 87.337 7.63425 89.3951 5.35559C91.3979 3.13498 93.2903 1.04499 97.1302 1.04499C100.956 1.04499 102.862 3.13498 104.865 5.35559C106.923 7.63425 109.064 9.98549 113.319 9.98549C117.587 9.98549 119.714 7.63425 121.772 5.35559C123.775 3.13498 125.667 1.04499 129.507 1.04499C133.347 1.04499 135.239 3.13498 137.242 5.35559C139.3 7.63425 141.441 9.98549 145.695 9.98549C149.963 9.98549 152.09 7.63425 154.149 5.35559C156.151 3.13498 158.044 1.04499 161.884 1.04499C165.724 1.04499 167.616 3.13498 169.619 5.35559C171.677 7.63425 173.818 9.98549 178.072 9.98549C182.34 9.98549 184.467 7.63425 186.525 5.35559C188.528 3.13498 190.42 1.04499 194.26 1.04499C198.086 1.04499 199.993 3.13498 201.995 5.35559C204.053 7.63425 206.194 9.98549 210.449 9.98549C214.717 9.98549 216.844 7.63425 218.902 5.35559C220.905 3.13498 222.797 1.04499 226.637 1.04499C230.463 1.04499 232.369 3.13498 234.372 5.35559C236.43 7.63425 238.571 9.98549 242.825 9.98549C247.094 9.98549 249.221 7.63425 251.279 5.35559C253.282 3.13498 255.174 1.04499 259.014 1.04499V0H259Z" fill="black" fill-opacity="0.7"/>
</svg>
