<?xml version="1.0" encoding="utf-8"?>
<!-- Generator: Adobe Illustrator 24.3.0, SVG Export Plug-In . SVG Version: 6.00 Build 0)  -->
<svg version="1.1" id="Layer_1" xmlns="http://www.w3.org/2000/svg" xmlns:xlink="http://www.w3.org/1999/xlink" x="0px" y="0px"
	 viewBox="0 0 265 10.5" style="enable-background:new 0 0 265 10.5;" xml:space="preserve">
<style type="text/css">
	.st0{fill:#0D2B69;}
</style>
<g>
	<path class="st0" d="M56.4,5.8h-55c-0.3,0-0.5-0.2-0.5-0.5s0.2-0.5,0.5-0.5h55c0.3,0,0.5,0.2,0.5,0.5S56.7,5.8,56.4,5.8z"/>
	<path class="st0" d="M182.9,5.8h-107c-0.3,0-0.5-0.2-0.5-0.5s0.2-0.5,0.5-0.5h107c0.3,0,0.5,0.2,0.5,0.5S183.1,5.8,182.9,5.8z"/>
	<path class="st0" d="M257.3,5.8h-55c-0.3,0-0.5-0.2-0.5-0.5s0.2-0.5,0.5-0.5h55c0.3,0,0.5,0.2,0.5,0.5S257.6,5.8,257.3,5.8z"/>
</g>
</svg>
