<?xml version="1.0" encoding="utf-8"?>
<!-- Generator: Adobe Illustrator 24.3.0, SVG Export Plug-In . SVG Version: 6.00 Build 0)  -->
<svg version="1.1" id="Layer_1" xmlns="http://www.w3.org/2000/svg" xmlns:xlink="http://www.w3.org/1999/xlink" x="0px" y="0px"
	 viewBox="0 0 265 10" style="enable-background:new 0 0 265 10;" xml:space="preserve">
<style type="text/css">
	.st0{fill:#0D2B69;}
</style>
<g>
	<path class="st0" d="M267,0v1c0,1.1-0.9,2-2,2c-3.1,0-4.5,1.5-6.4,3.7c-2.2,2.4-4.9,5.3-10.1,5.3s-8-2.9-10.1-5.3
		c-1.9-2-3.4-3.7-6.4-3.7c-3.1,0-4.5,1.5-6.5,3.7c-2.2,2.4-4.9,5.3-10.1,5.3s-8-2.9-10.1-5.3c-1.9-2-3.4-3.7-6.4-3.7
		s-4.5,1.5-6.4,3.7c-2.2,2.4-4.9,5.3-10.1,5.3s-8-2.9-10.1-5.3c-2-2.1-3.4-3.7-6.5-3.7c-3,0-4.5,1.5-6.4,3.7
		c-2.2,2.4-4.9,5.3-10.1,5.3s-8-2.9-10.1-5.3c-2-2.1-3.4-3.7-6.4-3.7s-4.5,1.5-6.4,3.7c-2.2,2.4-4.9,5.3-10.1,5.3s-8-2.9-10.1-5.3
		c-1.9-2-3.4-3.7-6.4-3.7c-3.1,0-4.5,1.5-6.5,3.7C90.8,9.1,88.1,12,82.8,12c-5.2,0-8-2.9-10.1-5.3c-1.9-2-3.4-3.7-6.4-3.7
		s-4.5,1.5-6.4,3.7C57.6,9.1,54.9,12,49.7,12c-5.2,0-8-2.9-10.1-5.3c-1.9-2-3.4-3.7-6.5-3.7c-3,0-4.5,1.5-6.4,3.7
		C24.5,9.1,21.8,12,16.6,12c-5.2,0-8-2.9-10.1-5.3C4.5,4.7,3.1,3,0,3c-1.1,0-2-0.9-2-2V0c0-1.1,0.9-2,2-2c5.2,0,8,2.9,10.1,5.3
		c2,2.1,3.4,3.7,6.4,3.7S21,5.4,23,3.3C25.2,0.9,27.9-2,33.1-2c5.2,0,8,2.9,10.1,5.3c2,2.1,3.4,3.7,6.5,3.7s4.5-1.5,6.4-3.7
		C58.3,0.9,61-2,66.2-2s8,2.9,10.1,5.3c1.9,2,3.4,3.7,6.4,3.7s4.5-1.5,6.5-3.7C91.4,0.9,94.1-2,99.4-2c5.2,0,7.9,2.9,10.1,5.3
		c1.9,2,3.4,3.7,6.5,3.7s4.5-1.5,6.4-3.7c2.2-2.4,4.9-5.3,10.1-5.3c5.2,0,7.9,2.9,10.1,5.3c1.9,2,3.4,3.7,6.5,3.7s4.5-1.5,6.4-3.7
		c2.2-2.4,4.9-5.3,10.1-5.3c5.2,0,8,2.9,10.1,5.3c1.9,2,3.4,3.7,6.4,3.7s4.5-1.5,6.5-3.7c2.2-2.4,4.9-5.3,10.1-5.3
		c5.2,0,7.9,2.9,10.1,5.3c1.9,2,3.4,3.7,6.5,3.7s4.5-1.5,6.4-3.7c2.2-2.4,4.9-5.3,10.1-5.3c5.2,0,8,2.9,10.1,5.3
		c1.9,2,3.4,3.7,6.4,3.7s4.5-1.5,6.5-3.7C257,0.9,259.7-2,265-2h0C266.1-2,267-1.1,267,0z"/>
</g>
</svg>
