<svg xmlns="http://www.w3.org/2000/svg" viewBox="0 0 1271.47 246.71"><defs><style>.cls-1{fill:#231f20;}</style></defs><g id="Layer_2" data-name="Layer 2"><g id="Layer_1-2" data-name="Layer 1"><path class="cls-1" d="M94.05,193.85C94.05,207.18,89,218.67,79,228S57,241.92,43,241.92a54.14,54.14,0,0,1-24.78-5.84c-7.88-4-13.77-9.45-17.5-16.23A6,6,0,0,1,0,217V202.74a6,6,0,0,1,11.47-2.47C18,214.64,28,221.62,42.14,221.62c8.81,0,16-2.6,21.9-7.94,5.74-5.17,8.53-10.64,8.53-16.71,0-6.42-1.72-11.6-5.27-15.86A56.45,56.45,0,0,0,52.7,168.8q-9.48-5.62-18.79-11.1a68,68,0,0,1-17.53-14.62,33.46,33.46,0,0,1-8.09-22.24c0-8.79,3.54-16.3,10.52-22.32,6.74-5.78,15.38-8.71,25.7-8.71,10.59,0,19.74,4.14,27.22,12.31a6,6,0,0,1,1.58,4v12.15a6,6,0,0,1-11,3.33c-5.18-7.77-11.4-11.55-19-11.55a14.43,14.43,0,0,0-9.73,3.61,9.75,9.75,0,0,0-3.82,7.87c0,3.23,1.56,6.25,4.76,9.23a75.61,75.61,0,0,0,14.82,10.56c6.32,3.51,12.73,7.3,19.07,11.26A63.71,63.71,0,0,1,86.24,169.3,40.93,40.93,0,0,1,94.05,193.85Z"/><path class="cls-1" d="M170.88,226.14v8.3a6,6,0,0,1-6,6c-15.55,0-29-5.29-40-15.73s-16.67-24.07-16.67-40.34V45.75a6,6,0,0,1,6-6h9.47a6,6,0,0,1,6,6V93.66h34.88a6,6,0,0,1,6,6V108a6,6,0,0,1-6,6H129.7v70.42c0,10.48,3.35,18.87,10.22,25.65a33.89,33.89,0,0,0,25,10.12A6,6,0,0,1,170.88,226.14Z"/><path class="cls-1" d="M300.82,199.79l.36.07a6.08,6.08,0,0,1,2.1.95v-7.28A51.43,51.43,0,0,1,300.82,199.79Z"/><path class="cls-1" d="M309.28,93.36H299.8a6,6,0,0,0-6,6V177c0,12.05-4.49,22.27-13.73,31.24s-19.69,13.41-31.81,13.41-22-4.33-30.46-13.24S205.09,189.11,205.09,177V99.36a6,6,0,0,0-6-6h-9.48a6,6,0,0,0-6,6V177c0,17.95,6.26,33.41,18.61,46s27.86,19,46,19c19.1,0,34.34-5.8,45.54-17.28v8a6,6,0,0,0,6,6h9.48a6,6,0,0,0,6-6V99.36A6,6,0,0,0,309.28,93.36Z"/><path class="cls-1" d="M474.87,4.5h-9.48a6,6,0,0,0-6,6V113.07a71.56,71.56,0,0,0-16.05-12.4A76.45,76.45,0,0,0,405,90.1c-21.11,0-39.33,7.52-54.15,22.35S328.46,145.3,328.46,166s7.52,38.74,22.34,53.56,33.05,22.35,54.16,22.35c12.84,0,25.5-3.51,37.63-10.42a74.57,74.57,0,0,0,16.8-12.93v14.09a6,6,0,0,0,6,6h9.48a6,6,0,0,0,6-6V10.5A6,6,0,0,0,474.87,4.5ZM443.52,205.16c-11.08,11.08-23.83,16.46-39,16.46s-27.74-5.36-38.51-16.4-16.07-23.86-16.07-39.06,5.3-28,16.21-39.21,23.47-16.55,38.51-16.55,27.75,5.47,38.83,16.72S460,151.22,460,166.31,454.6,194.09,443.52,205.16Z"/><path class="cls-1" d="M521.33,57.45a5,5,0,0,0-2.33-.37,4.85,4.85,0,0,0-2.36.39,3.86,3.86,0,0,0-.23,1.61,3.36,3.36,0,0,0,.25,1.62,5.06,5.06,0,0,0,2.34.37,4.76,4.76,0,0,0,2.35-.39,3.48,3.48,0,0,0,.24-1.6A3.18,3.18,0,0,0,521.33,57.45Z"/><path class="cls-1" d="M519,45.08c-9,0-14.59,5.36-14.59,14s5.59,14,14.59,14,14.59-5.36,14.59-14S528,45.08,519,45.08Zm2.35,15.6a4.76,4.76,0,0,1-2.35.39,5.06,5.06,0,0,1-2.34-.37,3.36,3.36,0,0,1-.25-1.62,3.86,3.86,0,0,1,.23-1.61,4.85,4.85,0,0,1,2.36-.39,5,5,0,0,1,2.33.37,3.18,3.18,0,0,1,.26,1.63A3.48,3.48,0,0,1,521.35,60.68Z"/><path class="cls-1" d="M529.74,99.66v133a6,6,0,0,1-6,6h-9.48a6,6,0,0,1-6-6v-133a6,6,0,0,1,6-6h9.48A6,6,0,0,1,529.74,99.66Z"/><path class="cls-1" d="M680.38,112.45c-14.83-14.83-33-22.35-54-22.35s-39.22,7.52-54.14,22.33-22.5,32.66-22.5,53,7.44,38.28,22.12,53.48,32.63,23,53.19,23h2.67c20.76,0,38.66-7.7,53.2-22.88s21.81-33.1,21.81-53.47S695.21,127.28,680.38,112.45ZM626.67,221.62c-15.17,0-27.93-5.38-39-16.46s-16.46-23.78-16.46-38.85,5.4-27.91,16.5-39.19,23.77-16.72,38.82-16.72S654.16,115.81,665,127s16.21,24,16.21,39.21-5.25,28-16.06,39.06S641.81,221.62,626.67,221.62Z"/><path class="cls-1" d="M835.94,236.79a10.5,10.5,0,0,1-9.66,6.37H813.55a10.53,10.53,0,0,1-7.57-3.22l-49.47-51.42v44.14a10.5,10.5,0,0,1-10.5,10.5h-9.48a10.5,10.5,0,0,1-10.5-10.5V11.09A10.5,10.5,0,0,1,736.53.59H746a10.5,10.5,0,0,1,10.5,10.5V122.41l35.31-30.94a10.48,10.48,0,0,1,6.92-2.61h12.14a10.5,10.5,0,0,1,6.91,18.41L765,153.36l68.84,72A10.52,10.52,0,0,1,835.94,236.79Z"/><path class="cls-1" d="M916.61,227v8.29a10.5,10.5,0,0,1-10.5,10.5c-16.74,0-31.24-5.7-43.08-17S845,202.81,845,185.26V10.5A10.5,10.5,0,0,1,855.46,0h9.48a10.51,10.51,0,0,1,10.5,10.5V185.26c0,9.21,2.9,16.55,8.87,22.45a29.62,29.62,0,0,0,21.8,8.82,10.5,10.5,0,0,1,10.5,10.5Z"/><path class="cls-1" d="M1046.62,188a10.5,10.5,0,0,0-11.78,4.17,59.94,59.94,0,0,1-19.8,18.56c-7.82,4.53-16.52,6.73-26.58,6.73-6.49,0-13.4-2.12-20.65-6.32l84-82.94a10.5,10.5,0,0,0,.42-14.51,85.4,85.4,0,0,0-27.6-20.78,77.19,77.19,0,0,0-32.63-7c-23.12,0-42.85,7.95-58.64,23.64s-23.84,34.6-23.84,56.18,8,40.6,23.91,56.69,34.91,24.3,56.5,24.3h2.66c22.93,0,42.68-8.93,58.72-26.53a10.52,10.52,0,0,0,2.73-7.07V198A10.5,10.5,0,0,0,1046.62,188Zm-57.13-72.77a50.41,50.41,0,0,1,25.75,6.75L946.5,190.22a50,50,0,0,1-6.49-25.4c0-13,5-24.3,15.14-34.48S976.57,115.19,989.49,115.19Z"/><path class="cls-1" d="M1089.17,56.83a4.63,4.63,0,0,0-1.86,2.25,1.89,1.89,0,1,0,3.71,0A4.66,4.66,0,0,0,1089.17,56.83Z"/><path class="cls-1" d="M1089.17,40.58c-11.6,0-19.09,7.26-19.09,18.5s7.49,18.49,19.09,18.49,19.09-7.26,19.09-18.49S1100.76,40.58,1089.17,40.58Zm0,20.74a4.61,4.61,0,0,1-1.86-2.24,1.89,1.89,0,1,1,3.71,0A4.64,4.64,0,0,1,1089.17,61.32Z"/><rect class="cls-1" x="1073.93" y="89.16" width="30.48" height="154" rx="10.5"/><path class="cls-1" d="M1271.47,155.05v77.61a10.5,10.5,0,0,1-10.5,10.5h-9.48a10.5,10.5,0,0,1-10.5-10.5V155.05c0-10.93-3.75-20.19-11.47-28.31-7.58-8-16.48-11.84-27.2-11.84-10.89,0-20.27,4-28.67,12.14s-12.37,17.24-12.37,28v77.61a10.5,10.5,0,0,1-10.5,10.5h-9.48a10.5,10.5,0,0,1-10.5-10.5V99.36a10.5,10.5,0,0,1,10.5-10.5h9.48a10.5,10.5,0,0,1,10.38,8.92c11.09-8,25-12.18,41.16-12.18,19.43,0,36,6.84,49.25,20.32S1271.47,135.89,1271.47,155.05Z"/></g></g></svg>