<svg xmlns="http://www.w3.org/2000/svg" viewBox="0 0 1201.51 1315.74"><defs><style>.cls-1{fill:#f4f2eb;}</style></defs><g id="Layer_2" data-name="Layer 2"><g id="Layer_1-2" data-name="Layer 1"><path class="cls-1" d="M609.51,1037.66A14.22,14.22,0,0,1,595.28,1052a14.39,14.39,0,0,1-5.58-1.14l-62.52-26.34a14.2,14.2,0,0,1-8.64-13.06l-.21-48.52a14.25,14.25,0,0,1,20.22-13l62.62,28.49a14.36,14.36,0,0,1,8.16,12.78Z"/><path class="cls-1" d="M436.82,532.78h0Z"/><path class="cls-1" d="M600.6,563.39h0Z"/><path class="cls-1" d="M432.64,513.82l-.14,0,.54-.12Z"/><path class="cls-1" d="M436.82,532.78h0Z"/><path class="cls-1" d="M614.66,519.25a15.21,15.21,0,0,0-1.5-1.34c-.38-.31-.74-.6-1.18-.91a20.79,20.79,0,0,0-2.57-1.54c-.29-.14-.74-.36-1.31-.59a11.58,11.58,0,0,0-1.32-.48,22.36,22.36,0,0,0-2.2-.61l-1-.21h-.21c-.24,0-.47-.06-.72-.09a17.25,17.25,0,0,0-2.18-.13H436.93a18.1,18.1,0,0,0-2.42.16,7.32,7.32,0,0,0-.8.11l-.67.12-.54.12h0l-.35.09c-.37.09-.75.18-1.1.3a11.33,11.33,0,0,0-1.16.4,16.7,16.7,0,0,0-2.22,1,20.3,20.3,0,0,0-3.79,2.57c-.37.31-.73.65-1.12,1a18.08,18.08,0,0,0-1.35,1.5l-2.14,2.66V524a2.18,2.18,0,0,0-.12.22,14.88,14.88,0,0,0-.64,1.35l-.11.24c-.19.48-.37,1-.53,1.46l-.18.58c-.13.46-.24.9-.35,1.38l-.23,1v.4c0,.16-.05.33-.08.5l-.06.66V532c0,.47-.06.95-.06,1.45v665.69c0,9.37,6.64,18.9,15.78,20.89a147.91,147.91,0,0,0,33.89,3.44c10.47,0,15.38-2.56,18.44-6.39,2.31-2.88,5.38-7.44,5.38-13.58V582.81H600.46c.39,0,.76,0,1.14,0s.77-.06,1.16-.11.62-.08.93-.13l.38-.06.48-.09a21.73,21.73,0,0,0,2.4-.66c.34-.12.7-.25,1-.39a18.66,18.66,0,0,0,2.34-1.13,21.18,21.18,0,0,0,2.86-2c.5-.42,1-.86,1.43-1.3a19.82,19.82,0,0,0,5.89-14.18V533.42A20,20,0,0,0,614.66,519.25ZM436.74,532.79h0ZM600.55,563.4h0Z"/><path class="cls-1" d="M600.6,563.39h0Z"/><path class="cls-1" d="M752.26,533.45V1295a20.72,20.72,0,0,1-20.69,20.7h-33.4a20.72,20.72,0,0,1-20.7-20.7V533.45a20.72,20.72,0,0,1,20.7-20.69h33.4A20.72,20.72,0,0,1,752.26,533.45Z"/><path class="cls-1" d="M1201.51,699.71v593.08a20.07,20.07,0,0,1-20,20h-27.82a20.07,20.07,0,0,1-20.05-20V699.71c0-35-12-64.6-36.66-90.55-24.41-25.63-53.07-38.1-87.65-38.1-34.91,0-64.91,12.65-91.71,38.67C890.94,635.62,878,665,878,699.71v593.08a20.08,20.08,0,0,1-20,20H830.13a20.07,20.07,0,0,1-20-20V536.22a20.07,20.07,0,0,1,20-20.05H858a20.08,20.08,0,0,1,20,20.05V554c33-31.49,77-47.41,131.27-47.41,54,0,100.09,19,136.89,56.44S1201.51,646.38,1201.51,699.71Z"/><path class="cls-1" d="M219,571.35l-.49,64.89A19.71,19.71,0,0,1,211.71,651L90.07,749.59l115.42,54.78a19.81,19.81,0,0,1,12.13,17.46l-.14,41.7c0,8.43-10.2,15.52-18.1,12.59l-122-51.36-1.54,469A19.86,19.86,0,0,1,56,1313.48H19.78A19.81,19.81,0,0,1,0,1293.69V19.79A19.8,19.8,0,0,1,19.78,0H54.3A19.81,19.81,0,0,1,74.09,19.79V668.68c.07,0,115.84-94.8,126.88-105.15A10.73,10.73,0,0,1,219,571.35Z"/><path class="cls-1" d="M619.61,1258v41.25a13.07,13.07,0,0,1-13.08,13.07H458.44c-53.28,0-99.37-18.12-137-53.86-37.9-36-57.11-82.46-57.11-138.18V531.94a13.08,13.08,0,0,1,13.08-13.08h45.34a13.08,13.08,0,0,1,13.08,13.08v588.34c0,36.48,11.64,65.72,35.59,89.38s52.48,35.26,87,35.26H606.53A13.08,13.08,0,0,1,619.61,1258Z"/><path class="cls-1" d="M285,352.52c0,18.5-7.05,34.46-21,47.42-13.75,12.82-30.55,19.32-49.95,19.32a75.5,75.5,0,0,1-34.46-8.1c-10.93-5.54-19.09-13.11-24.27-22.5a7.73,7.73,0,0,1-1-3.74V365a7.76,7.76,0,0,1,14.82-3.2c9.23,20.41,23.5,30.33,43.62,30.33,12.53,0,22.71-3.69,31.14-11.29,8.2-7.4,12.19-15.22,12.19-23.94,0-9.15-2.47-16.56-7.56-22.65A79.44,79.44,0,0,0,228,316.82q-13.29-7.87-26.35-15.56a94.88,94.88,0,0,1-24.42-20.36A46.28,46.28,0,0,1,166,250.13c0-12.15,4.89-22.52,14.54-30.81,9.32-8,21.28-12.06,35.6-12.06,14.67,0,27.36,5.74,37.71,17.06a7.79,7.79,0,0,1,2,5.24v17a7.76,7.76,0,0,1-14.23,4.29c-7.4-11.09-16.28-16.48-27.19-16.48a20.94,20.94,0,0,0-14.07,5.21c-3.8,3.24-5.58,6.9-5.58,11.54s2.25,9.11,6.88,13.43a105.75,105.75,0,0,0,20.91,14.89c8.77,4.87,17.76,10.19,26.72,15.78a88.51,88.51,0,0,1,24.8,23.2A56.76,56.76,0,0,1,285,352.52Z"/><path class="cls-1" d="M320.27,225.86v.75a4.61,4.61,0,0,1,.4-.37C320.53,226.12,320.4,226,320.27,225.86Z"/><path class="cls-1" d="M383.55,390c-14.08,0-25.68-4.69-35.47-14.37s-14.52-21.56-14.52-36.44v-99.4h49.57a7.77,7.77,0,0,0,7.76-7.76V220.42a7.77,7.77,0,0,0-7.76-7.77H333.56V144.81a7.77,7.77,0,0,0-7.76-7.76H312.51a7.76,7.76,0,0,0-7.76,7.76V339.22c0,22.63,7.8,41.5,23.19,56.1s34,21.88,55.61,21.88a7.77,7.77,0,0,0,7.76-7.77V397.79A7.77,7.77,0,0,0,383.55,390ZM320.27,225.86c.13.13.26.26.4.38a4.61,4.61,0,0,0-.4.37Z"/><path class="cls-1" d="M567.59,361.38a7.61,7.61,0,0,1,1.34.2,7.5,7.5,0,0,1,3.75,2.12V347.37A71.6,71.6,0,0,1,567.59,361.38Z"/><path class="cls-1" d="M580.44,212.24H567.15a7.77,7.77,0,0,0-7.77,7.76V328.84c0,17.08-6.36,31.56-19.45,44.29s-27.89,19-45.07,19-31.17-6.14-43.17-18.78-18-27.29-18-44.49V220a7.76,7.76,0,0,0-7.76-7.76H412.62a7.76,7.76,0,0,0-7.76,7.76V328.84c0,25,8.72,46.52,25.9,64s38.79,26.41,64.1,26.41c27.23,0,48.85-8.45,64.52-25.21v12.89a7.77,7.77,0,0,0,7.77,7.76h13.29a7.75,7.75,0,0,0,7.76-7.76V220A7.75,7.75,0,0,0,580.44,212.24ZM572.68,363.7a7.5,7.5,0,0,0-3.75-2.12,7.61,7.61,0,0,0-1.34-.2,71.6,71.6,0,0,0,5.09-14Z"/><path class="cls-1" d="M812.65,87.62H799.37a7.75,7.75,0,0,0-7.76,7.76V240.86a100.07,100.07,0,0,0-23.48-18.45c-17-9.78-35-14.74-53.51-14.74-29.42,0-54.82,10.48-75.48,31.15S608,284.6,608,313.47s10.48,54,31.15,74.65,46.05,31.14,75.48,31.14c17.9,0,35.54-4.88,52.45-14.51a104.91,104.91,0,0,0,24.54-19.19v21.38a7.75,7.75,0,0,0,7.76,7.76h13.28a7.75,7.75,0,0,0,7.76-7.76V95.38A7.75,7.75,0,0,0,812.65,87.62ZM659.53,368.91c-15.29-15.68-22.72-33.74-22.72-55.23s7.49-39.62,22.92-55.44,33.2-23.42,54.47-23.42,39.25,7.74,54.91,23.65,23.33,34.07,23.33,55.41-7.62,39.3-23.27,55S735.46,392.11,714,392.11,674.77,384.52,659.53,368.91Z"/><path class="cls-1" d="M874.55,160.05c-4.28,0-4.28.94-4.28,3.46s0,3.46,4.28,3.46,4.28-.95,4.28-3.46S878.83,160.05,874.55,160.05Z"/><rect class="cls-1" x="860.14" y="212.65" width="28.82" height="202.05" rx="7.76"/><path class="cls-1" d="M874.55,144.52c-12.23,0-19.81,7.29-19.81,19s7.58,19,19.81,19,19.8-7.28,19.8-19S886.76,144.52,874.55,144.52Zm0,22.45c-4.28,0-4.28-.95-4.28-3.46s0-3.46,4.28-3.46,4.28.94,4.28,3.46S878.83,167,874.55,167Z"/><path class="cls-1" d="M1100.41,238.82c-20.67-20.67-46-31.15-75.29-31.15s-54.66,10.47-75.46,31.13-31.37,45.51-31.37,73.84,10.38,53.36,30.84,74.55,45.48,32.07,74.13,32.07H1027c28.94,0,53.89-10.72,74.14-31.88s30.41-46.14,30.41-74.53S1121.08,259.49,1100.41,238.82Zm2.32,74.86c0,21.49-7.43,39.55-22.71,55.23s-33.06,23.2-54.48,23.2-39.49-7.61-55.16-23.27-23.27-33.64-23.27-55,7.62-39.46,23.31-55.41,33.63-23.65,54.91-23.65,39.1,7.66,54.47,23.42S1102.73,292.19,1102.73,313.68Z"/></g></g></svg>