<svg xmlns="http://www.w3.org/2000/svg" viewBox="0 0 362.69 70.37"><defs><style>.cls-1{fill:#efefe8;}</style></defs><g id="Layer_2" data-name="Layer 2"><g id="Layer_1-2" data-name="Layer 1"><path class="cls-1" d="M26.83,55.3A12.87,12.87,0,0,1,22.52,65a14.56,14.56,0,0,1-10.25,4A15.43,15.43,0,0,1,5.2,67.34a11.42,11.42,0,0,1-5-4.63A1.67,1.67,0,0,1,0,61.89V57.83a1.71,1.71,0,0,1,3.27-.7C5.12,61.23,8,63.22,12,63.22A8.89,8.89,0,0,0,18.27,61a6.33,6.33,0,0,0,2.43-4.76,6.78,6.78,0,0,0-1.5-4.53A16.21,16.21,0,0,0,15,48.15L9.67,45a19.29,19.29,0,0,1-5-4.17,9.53,9.53,0,0,1-2.31-6.34,8.11,8.11,0,0,1,3-6.37,10.88,10.88,0,0,1,7.33-2.48,10.18,10.18,0,0,1,7.76,3.51,1.7,1.7,0,0,1,.45,1.16v3.46a1.72,1.72,0,0,1-1.21,1.64,1.7,1.7,0,0,1-1.92-.69c-1.48-2.22-3.26-3.29-5.42-3.29a4.08,4.08,0,0,0-2.78,1,2.79,2.79,0,0,0-1.09,2.24,3.61,3.61,0,0,0,1.36,2.63,21.74,21.74,0,0,0,4.23,3c1.8,1,3.63,2.08,5.44,3.21a18.24,18.24,0,0,1,5.08,4.75A11.69,11.69,0,0,1,26.83,55.3Z"/><path class="cls-1" d="M48.74,64.51v2.36A1.71,1.71,0,0,1,47,68.59a16,16,0,0,1-11.4-4.49,15.24,15.24,0,0,1-4.76-11.51V13.05a1.71,1.71,0,0,1,1.71-1.71h2.71A1.71,1.71,0,0,1,37,13.05V26.72H47a1.71,1.71,0,0,1,1.71,1.71v2.36A1.71,1.71,0,0,1,47,32.5H37V52.59A9.91,9.91,0,0,0,47,62.8,1.7,1.7,0,0,1,48.74,64.51Z"/><path class="cls-1" d="M85.81,57l.1,0a1.81,1.81,0,0,1,.6.27V55.2A14.43,14.43,0,0,1,85.81,57Z"/><path class="cls-1" d="M88.22,26.63h-2.7a1.71,1.71,0,0,0-1.71,1.71V50.48a11.91,11.91,0,0,1-3.92,8.91,12.52,12.52,0,0,1-9.07,3.83,11.47,11.47,0,0,1-8.69-3.78,12.47,12.47,0,0,1-3.63-9V28.34a1.71,1.71,0,0,0-1.71-1.71h-2.7a1.72,1.72,0,0,0-1.72,1.71V50.48a18.08,18.08,0,0,0,5.31,13.11A17.74,17.74,0,0,0,70.82,69c5.44,0,9.79-1.66,13-4.93v2.29a1.71,1.71,0,0,0,1.71,1.71h2.7a1.71,1.71,0,0,0,1.71-1.71v-38A1.71,1.71,0,0,0,88.22,26.63Z"/><path class="cls-1" d="M135.46,1.28h-2.71A1.72,1.72,0,0,0,131,3V32.25a20.29,20.29,0,0,0-4.58-3.53,21.78,21.78,0,0,0-10.94-3A21.78,21.78,0,0,0,93.69,47.35,21.78,21.78,0,0,0,115.52,69,22.41,22.41,0,0,0,131,62.35v4a1.72,1.72,0,0,0,1.71,1.71h2.71a1.72,1.72,0,0,0,1.71-1.71V3A1.72,1.72,0,0,0,135.46,1.28Zm-9,57.24a15.06,15.06,0,0,1-11.12,4.7,14.69,14.69,0,0,1-11-4.68,15.85,15.85,0,0,1,0-22.33,14.71,14.71,0,0,1,11-4.72,14.92,14.92,0,0,1,11.08,4.77,15.34,15.34,0,0,1,4.7,11.18A15,15,0,0,1,126.51,58.52Z"/><path class="cls-1" d="M148.71,16.39a1.29,1.29,0,0,0-.66-.11,1.41,1.41,0,0,0-.68.11,1.22,1.22,0,0,0-.06.46,1,1,0,0,0,.07.46,1.31,1.31,0,0,0,.67.11,1.39,1.39,0,0,0,.67-.11,1.16,1.16,0,0,0,.06-.46A1,1,0,0,0,148.71,16.39Z"/><path class="cls-1" d="M148.05,12.86c-2.57,0-4.17,1.53-4.17,4s1.6,4,4.17,4,4.16-1.53,4.16-4S150.61,12.86,148.05,12.86Zm.67,4.45a1.39,1.39,0,0,1-.67.11,1.31,1.31,0,0,1-.67-.11,1,1,0,0,1-.07-.46,1.22,1.22,0,0,1,.06-.46,1.41,1.41,0,0,1,.68-.11,1.29,1.29,0,0,1,.66.11,1,1,0,0,1,.07.46A1.16,1.16,0,0,1,148.72,17.31Z"/><rect class="cls-1" x="144.98" y="26.72" width="6.13" height="41.36" rx="1.71"/><path class="cls-1" d="M194.08,32.08a21.85,21.85,0,0,0-30.85,0,20.68,20.68,0,0,0-6.42,15.12,21.34,21.34,0,0,0,6.31,15.25A20.42,20.42,0,0,0,178.29,69h.76a20.32,20.32,0,0,0,15.18-6.53,21.42,21.42,0,0,0,6.22-15.25A20.77,20.77,0,0,0,194.08,32.08ZM178.76,63.22a15.08,15.08,0,0,1-11.13-4.7,15,15,0,0,1-4.69-11.08,15.34,15.34,0,0,1,4.7-11.18,14.9,14.9,0,0,1,11.08-4.77,14.67,14.67,0,0,1,11,4.72,15.85,15.85,0,0,1,0,22.33A14.65,14.65,0,0,1,178.76,63.22Z"/><path class="cls-1" d="M238.45,67.54a3,3,0,0,1-2.75,1.82h-3.63a3,3,0,0,1-2.16-.92L215.8,53.78V66.37a3,3,0,0,1-3,3h-2.7a3,3,0,0,1-3-3V3.16a3,3,0,0,1,3-3h2.7a3,3,0,0,1,3,3V34.92l10.07-8.83a3,3,0,0,1,2-.74h3.46a3,3,0,0,1,2,5.25L218.23,43.75,237.86,64.3A3,3,0,0,1,238.45,67.54Z"/><path class="cls-1" d="M261.46,64.76v2.37a3,3,0,0,1-3,3,17.27,17.27,0,0,1-12.29-4.84A16.46,16.46,0,0,1,241,52.85V3a3,3,0,0,1,3-3h2.7a3,3,0,0,1,3,3V52.85a8.55,8.55,0,0,0,2.53,6.4,8.45,8.45,0,0,0,6.22,2.52,3,3,0,0,1,2.12.87A3,3,0,0,1,261.46,64.76Z"/><path class="cls-1" d="M298.55,53.62a3,3,0,0,0-3.36,1.19,17.11,17.11,0,0,1-5.65,5.29A14.73,14.73,0,0,1,282,62a11.92,11.92,0,0,1-5.89-1.8l24-23.66a3,3,0,0,0,.12-4.14,24.26,24.26,0,0,0-7.87-5.93,22,22,0,0,0-9.31-2,22.92,22.92,0,0,0-16.73,6.75,21.9,21.9,0,0,0-6.8,16,22.43,22.43,0,0,0,6.82,16.17,22,22,0,0,0,16.12,6.93h.76a21.92,21.92,0,0,0,16.75-7.56,3,3,0,0,0,.78-2V56.48A3,3,0,0,0,298.55,53.62Zm-16.3-20.76a14.4,14.4,0,0,1,7.35,1.92L270,54.26A14.32,14.32,0,0,1,268.14,47a13.41,13.41,0,0,1,4.32-9.84A13.37,13.37,0,0,1,282.25,32.86Z"/><path class="cls-1" d="M310.69,16.21a1.31,1.31,0,0,0-.53.64,1.31,1.31,0,0,0,.53.64,1.34,1.34,0,0,0,.52-.64A1.34,1.34,0,0,0,310.69,16.21Z"/><path class="cls-1" d="M310.69,11.58c-3.31,0-5.45,2.07-5.45,5.27s2.14,5.28,5.45,5.28,5.44-2.07,5.44-5.28S314,11.58,310.69,11.58Zm0,5.91a1.31,1.31,0,0,1-.53-.64,1.31,1.31,0,0,1,.53-.64,1.34,1.34,0,0,1,.52.64A1.34,1.34,0,0,1,310.69,17.49Z"/><rect class="cls-1" x="306.34" y="25.43" width="8.69" height="43.93" rx="3"/><path class="cls-1" d="M362.69,44.23V66.37a3,3,0,0,1-3,3H357a3,3,0,0,1-3-3V44.23a11.26,11.26,0,0,0-3.27-8.08A10.23,10.23,0,0,0,343,32.78a11.32,11.32,0,0,0-8.18,3.46,10.71,10.71,0,0,0-3.52,8V66.37a3,3,0,0,1-3,3h-2.7a3,3,0,0,1-3-3v-38a3,3,0,0,1,3-3h2.7a3,3,0,0,1,3,2.54A19.61,19.61,0,0,1,343,24.42,19,19,0,0,1,357,30.21,19.34,19.34,0,0,1,362.69,44.23Z"/></g></g></svg>