<svg width="130" height="69" viewBox="0 0 130 69" fill="none" xmlns="http://www.w3.org/2000/svg">
<g clip-path="url(#clip0_1307_338)">
<path d="M10.6012 9.20291C9.61407 8.60365 8.9703 7.91879 8.66987 7.23393C8.36944 6.54906 8.2836 5.99261 8.36944 5.60738L8.92738 4.7513L9.78575 5.30775C9.74283 5.43616 9.74283 5.60738 9.74283 5.8214C9.74283 5.99261 9.78575 6.24943 9.87158 6.50626C9.95742 6.76308 10.0862 7.06271 10.3437 7.31953C10.6012 7.61916 10.9016 7.87599 11.245 8.09C11.8458 8.47524 12.3179 8.64646 12.7471 8.60365C13.1763 8.56085 13.5197 8.38963 13.7342 8.0472C13.9918 7.66197 13.9918 7.27673 13.8201 6.89149C13.6484 6.50626 13.2621 6.07822 12.7471 5.56457L11.9317 4.7513C11.4596 4.32326 11.1591 3.7668 10.9445 3.16755C10.73 2.56829 10.8587 1.92623 11.3308 1.19857C11.7171 0.556507 12.3179 0.171271 13.1334 5.54919e-05C13.9059 -0.17116 14.7643 0.0428594 15.6656 0.599311C17.1677 1.541 17.8115 2.6111 17.5969 3.80961L17.039 4.66569L16.1806 4.10924C16.3094 3.89522 16.3094 3.50998 16.1806 3.03914C16.0089 2.56829 15.6656 2.14025 15.0218 1.75502C14.5068 1.41259 13.9918 1.28417 13.6055 1.32698C13.1763 1.36978 12.8759 1.5838 12.6184 1.92623C12.4038 2.26867 12.3609 2.6111 12.4896 2.95353C12.6184 3.29596 12.9188 3.6812 13.348 4.10924L14.0776 4.8369C14.6785 5.43616 15.1076 6.07822 15.3222 6.67747C15.5368 7.27673 15.451 7.91879 15.0647 8.56085C14.5926 9.28852 13.9918 9.71656 13.1763 9.84497C12.4038 10.0162 11.5454 9.80216 10.6012 9.20291Z" fill="#181818"/>
<path d="M17.9401 13.7829C17.0818 13.2264 16.5238 12.5844 16.3522 11.7711C16.1805 11.0006 16.3522 10.1445 16.953 9.24566L19.6998 4.87966L18.3693 4.06638L19.056 2.99628L20.4294 3.85236L21.8028 1.84058L22.9616 2.56824L21.6311 4.66564L24.8071 6.67742L24.1204 7.79033L20.9444 5.77854L18.2835 9.97333C17.511 11.2146 17.6397 12.1135 18.6268 12.7556C19.3565 13.2264 20.0002 13.1408 20.5582 12.5416L21.4165 13.0552L20.9015 13.9113C20.6011 14.1253 20.2148 14.2965 19.6998 14.3821C19.1848 14.3821 18.5839 14.2109 17.9401 13.7829Z" fill="#181818"/>
<path d="M23.8622 17.5068C22.8322 16.8647 22.2742 16.0943 22.1455 15.1526C22.0167 14.2109 22.2742 13.2264 22.918 12.1563L25.9652 7.31946L27.2528 8.13273L24.2914 12.8412C23.7764 13.6116 23.6047 14.3393 23.6476 14.9814C23.7335 15.6234 24.1197 16.1799 24.7635 16.6079C25.4502 17.036 26.1798 17.1644 26.8665 16.9932C27.5532 16.7791 28.1111 16.3083 28.5832 15.5806L31.5446 10.8722L32.8322 11.6855L27.7678 19.7326L26.6519 19.0477L27.3815 17.678C26.8665 17.9776 26.3515 18.1061 25.7077 18.1061C25.1068 18.1061 24.4631 17.892 23.8622 17.5068Z" fill="#181818"/>
<path d="M32.8327 23.157C31.6739 22.4293 31.0301 21.4448 30.8155 20.2035C30.6009 18.9622 30.9013 17.7209 31.6739 16.5224C32.4464 15.3238 33.4335 14.5106 34.6352 14.1681C35.837 13.8257 36.9958 13.9969 38.1546 14.7246C39.5279 15.5807 40.1717 16.7364 40.0859 18.1917L43.6052 12.6272L44.8928 13.4405L37.1674 25.6396L36.0086 24.9119L36.7382 23.371C35.4078 24.0131 34.1202 23.9274 32.8327 23.157ZM33.7769 22.1725C34.5494 22.6433 35.3649 22.7717 36.2232 22.5577C37.0816 22.3437 37.8112 21.7444 38.4121 20.76C38.97 19.8611 39.1846 18.9622 39.0558 18.1061C38.9271 17.2072 38.455 16.5224 37.6395 16.0087C36.7812 15.4523 35.9228 15.3238 35.0644 15.6235C34.2061 15.9231 33.4764 16.4796 32.9185 17.3784C32.3176 18.3201 32.1031 19.219 32.2747 20.1179C32.4464 20.974 32.9614 21.6588 33.7769 22.1725Z" fill="#181818"/>
<path d="M46.8668 17.5068L45.3218 16.5652L46.266 15.067L47.811 16.0087L46.8668 17.5068ZM40.3432 27.6086L39.0557 26.7953L44.163 18.7054L45.4505 19.5186L40.3432 27.6086Z" fill="#181818"/>
<path d="M49.3134 31.8033C48.0688 32.1458 46.8241 31.9318 45.6224 31.1613C44.4207 30.3908 43.6911 29.4063 43.4765 28.1222C43.2619 26.8381 43.5194 25.5968 44.249 24.4411C45.0215 23.2425 46.0087 22.4721 47.2533 22.1724C48.4979 21.83 49.7426 22.044 50.9443 22.8145C52.146 23.585 52.8756 24.5695 53.0902 25.8536C53.3477 27.1377 53.0902 28.3362 52.3177 29.5347C51.5451 30.6904 50.558 31.4609 49.3134 31.8033ZM44.8499 27.9082C44.9357 28.8071 45.4507 29.5347 46.3091 30.0912C47.1675 30.6476 48.0688 30.776 48.9271 30.4764C49.7855 30.1768 50.4722 29.5775 51.0301 28.7215C51.5881 27.8654 51.8027 26.9665 51.7168 26.0676C51.631 25.1687 51.116 24.4411 50.2576 23.8846C49.3992 23.3282 48.4979 23.1997 47.6396 23.4994C46.7812 23.799 46.0945 24.3555 45.5366 25.2543C44.9786 26.1104 44.764 27.0093 44.8499 27.9082Z" fill="#181818"/>
<path d="M0 69V26.41L13.8627 34.2432V40.0217C13.8627 40.3213 13.8627 40.6638 13.8627 41.1346C13.8627 41.6054 13.8627 42.0763 13.8627 42.5471C13.8627 43.018 13.8627 43.4888 13.8627 43.9169C13.8627 44.3449 13.8627 44.6873 13.9056 44.987C13.9914 46.0143 14.5064 46.5279 15.4506 46.5279C15.8798 46.5279 16.2661 46.3995 16.5665 46.0999C16.867 45.8002 16.9957 45.4578 16.9528 44.987L16.9099 44.2593V42.0763C16.9528 41.0062 17.2961 40.1501 17.897 39.508C18.5408 38.866 19.3562 38.5236 20.4292 38.5236H25.2361C26.0515 38.5236 26.7811 38.5236 27.4678 38.5236C28.1545 38.5236 28.7124 38.6092 29.2275 38.7376C29.6996 38.866 30.0858 39.1656 30.3433 39.5509C30.6009 39.9361 30.7296 40.5781 30.7296 41.3914V47.8548C30.7725 49.4814 30.2575 50.7655 29.2275 51.7928C28.1974 52.7773 26.867 53.2909 25.2361 53.2909H19.1416L25.2361 56.2016C25.9657 56.5868 26.6524 56.8865 27.2961 57.1861C27.9399 57.4857 28.5408 57.8281 29.0558 58.2134C29.5708 58.5986 29.9571 59.0695 30.2575 59.5831C30.5579 60.0968 30.7296 60.7816 30.7296 61.5949V66.0893C30.7296 66.9026 30.6009 67.5018 30.3433 67.9299C30.0858 68.3151 29.6996 68.6148 29.2275 68.7432C28.7554 68.8716 28.1545 68.9572 27.4678 68.9572C26.7811 68.9572 26.0515 68.9572 25.2361 68.9572H20.4292C19.3562 68.9572 18.4979 68.6147 17.8541 67.9727C17.2103 67.3306 16.867 66.4746 16.867 65.4045V63.2214L16.9099 62.4938C16.9957 61.6805 16.9099 60.8672 16.7382 60.0968C16.5236 59.3263 16.2661 58.5558 15.9657 57.7853C15.6652 57.0149 15.3219 56.33 14.9356 55.7308C14.5494 55.0887 14.1631 54.575 13.8197 54.1898V68.9572H0V69Z" fill="#181818"/>
<path d="M33.2617 69V26.41L47.1244 34.2432V69H33.2617Z" fill="#181818"/>
<path d="M76.8236 59.7115C77.8965 59.7115 78.712 60.0539 79.3558 60.696C79.9995 61.338 80.3 62.1941 80.3429 63.2642V63.6495C80.3858 65.276 79.8708 66.5601 78.8407 67.5874C77.8107 68.5719 76.4802 69.0856 74.8493 69.0856H54.9781C53.3472 69.0856 52.0596 68.5719 51.1154 67.5874C50.1712 66.6029 49.6562 65.276 49.6133 63.6495V44.0452C49.6133 42.4187 50.0854 41.1346 51.0725 40.1073C52.0596 39.1228 53.3472 38.6091 54.9781 38.6091H74.8493C76.4802 38.6091 77.8107 39.1228 78.7978 40.1073C79.8279 41.0918 80.3429 42.4187 80.3429 44.0452V54.9174C80.3429 55.7307 80.2141 56.33 79.9137 56.758C79.6133 57.1433 79.2699 57.4429 78.7978 57.5713C78.3257 57.6997 77.7678 57.7853 77.0811 57.7853C76.3944 57.7853 75.6648 57.7853 74.8493 57.7853H63.433C63.3901 58.1705 63.3472 58.5986 63.3472 59.1122C63.3472 59.6259 63.3472 60.0967 63.433 60.5676C63.5189 61.0384 63.6476 61.4236 63.9051 61.7661C64.1197 62.1085 64.4631 62.2797 64.8493 62.2797C65.7506 62.2797 66.2227 61.7661 66.3086 60.7388L66.3515 59.7115H76.8236ZM66.4802 52.0496L66.5232 46.8703C66.5232 46.4423 66.3515 46.057 66.051 45.7574C65.7506 45.4578 65.3644 45.3294 64.9352 45.3294C64.0339 45.3294 63.5618 45.843 63.4759 46.8703C63.433 47.1699 63.433 47.5124 63.433 47.9832C63.433 48.454 63.433 48.9249 63.433 49.4385C63.433 49.9522 63.433 50.423 63.433 50.8939C63.433 51.3647 63.433 51.75 63.433 52.0068C63.3901 52.4348 63.5189 52.82 63.8193 53.1197C64.1197 53.4193 64.506 53.5477 64.9352 53.5477C66.0081 53.5477 66.4802 53.0341 66.4802 52.0496Z" fill="#181818"/>
<path d="M82.918 35.5701V26.41H96.7806V35.5273H82.918V35.5701ZM82.918 69V38.6092H96.7806V69.0428H82.918V69Z" fill="#181818"/>
<path d="M112.919 65.4901C112.919 66.5602 112.575 67.4162 111.931 68.0583C111.245 68.7004 110.386 69.0428 109.356 69.0428H104.678C103.047 69.0428 101.76 68.5291 100.73 67.5447C99.7426 66.5602 99.2275 65.2332 99.2275 63.6067L99.2705 44.0025C99.2705 42.4187 99.2705 41.263 99.2275 40.4925C99.2275 39.7221 99.3563 39.2084 99.6138 38.9088C99.9142 38.6092 100.429 38.5236 101.159 38.5236C101.931 38.5664 103.09 38.5664 104.678 38.5664H124.549C126.18 38.5664 127.511 39.08 128.498 40.0645C129.528 41.049 130 42.3759 129.957 44.0025L129.914 63.6067C129.914 65.2332 129.399 66.5174 128.412 67.5447C127.425 68.5291 126.094 69.0428 124.464 69.0428H119.785C118.713 69.0428 117.854 68.7004 117.21 68.0583C116.567 67.4162 116.223 66.5602 116.223 65.4901L116.094 46.8703C116.094 46.4423 115.923 46.0571 115.622 45.7574C115.322 45.4578 114.936 45.3294 114.507 45.3294C113.519 45.3294 113.047 45.843 113.047 46.8703L112.919 65.4901Z" fill="#181818"/>
</g>
<defs>
<clipPath id="clip0_1307_338">
<rect width="130" height="69" fill="white"/>
</clipPath>
</defs>
</svg>
