<svg width="195" height="136" viewBox="0 0 195 136" fill="none" xmlns="http://www.w3.org/2000/svg">
<path d="M72.8148 83.0514C72.1162 89.0999 71.3603 95.1379 70.7295 101.186C69.8902 109.352 69.6191 117.606 66.0845 125.25C64.2338 129.265 61.5438 132.404 57.222 133.859C53.3225 135.178 50.1946 134.192 48.5211 130.48C47.3534 127.873 46.3889 124.812 46.5818 122.043C47.1031 114.378 48.2918 106.76 49.2354 99.1268C49.6159 96.0348 50.106 92.9584 50.4292 89.8612C50.6344 88.406 50.6256 86.9286 50.4031 85.476C49.5064 80.924 54.0524 75.0476 58.7704 74.7921C60.4542 74.7035 60.6211 75.7046 60.4021 76.9769C59.6097 81.5758 58.6557 86.1486 58.0249 90.7736C57.222 96.6761 56.5547 102.61 56.1116 108.549C56.0073 109.962 56.7528 112.48 57.5974 112.72C59.912 113.356 60.6002 110.942 60.9338 109.305C62.1016 103.559 63.0904 97.7781 63.9002 91.9625C64.2412 88.8687 64.3944 85.7571 64.3589 82.6447C64.4267 78.4733 67.8883 73.9891 72.0015 72.9463C73.7792 72.4927 74.7228 73.0975 74.5299 75.032C74.4361 75.9705 74.2224 76.8934 74.1442 77.3523C77.2721 75.5795 80.4574 73.3478 83.9763 71.8826C86.3986 70.9721 88.994 70.6158 91.572 70.8397C96.0502 71.137 98.3127 74.1299 98.0729 78.5985C97.8174 83.3226 96.3473 87.6034 93.1672 91.1595C91.791 92.6977 91.7962 93.6519 93.3653 95.1901C104.834 106.489 99.7411 129.734 84.7531 133.775C81.7659 134.578 78.2209 134.114 75.1138 133.421C71.6001 132.633 70.6774 130.334 71.0423 126.705C72.2413 114.759 73.4247 102.808 74.4309 90.8414C74.6446 88.2969 74.0816 85.6846 73.8731 83.1088L72.8148 83.0514ZM81.8128 111.166C81.7607 113.044 82.0839 116.73 84.3465 116.902C85.3005 116.965 86.8384 115.708 87.2867 114.67C88.1002 112.864 88.51 110.902 88.4875 108.92C88.465 106.939 88.0107 104.987 87.1564 103.199C86.8645 102.573 86.0773 101.718 85.5924 101.76C85.1925 101.825 84.8133 101.982 84.4848 102.219C84.1563 102.457 83.8876 102.767 83.7 103.126C82.7699 105.547 82.1464 108.075 81.8441 110.65C81.8441 110.801 81.8441 110.973 81.8128 111.166ZM83.3038 93.3025C84.5185 92.3796 85.5194 92.0198 85.7436 91.3837C86.8075 88.4438 87.6782 85.4375 88.3502 82.384C88.517 81.581 87.6152 80.2983 86.8384 79.6309C85.4725 78.4994 83.4081 79.292 83.3455 80.9605C83.2048 84.8034 83.3038 88.6671 83.3038 93.3025Z" fill="#FFBBA8"/>
<path d="M147.703 134.693C143.214 134.761 142.005 132.534 143.616 127.732C145.957 120.771 148.668 113.867 150.231 106.729C152.76 95.1796 154.548 83.4633 156.487 71.7939C156.753 70.1932 156.31 68.3578 155.784 66.7674C154.991 64.3533 155.617 62.5961 157.785 61.5532C161.904 59.6448 166.309 59.259 170.271 61.5532C172.064 62.5961 173.665 64.8643 174.275 66.8978C177.872 78.8905 181.052 91.0291 184.592 103.048C185.904 107.254 187.494 111.369 189.352 115.364C190.232 117.235 191.428 118.94 192.886 120.406C195.597 123.216 195.811 126.887 192.886 129.526C190.103 132.183 186.463 133.76 182.621 133.973C178.581 134.156 176.407 132.44 175.745 128.493C175.114 124.744 174.655 120.959 174.019 117.21C173.222 112.517 171.934 111.505 167.242 111.62C161.33 111.766 160.022 112.903 159.026 118.685C158.505 121.663 158.187 124.697 157.348 127.586C156.023 132.268 152.588 134.615 147.703 134.693ZM165.517 83.3121C164.802 83.6302 164.427 83.6927 164.406 83.8335C163.567 88.568 162.576 93.2921 162.05 98.0631C161.821 100.149 163.906 99.9454 165.339 99.8255C166.903 99.7004 168.858 99.4918 168.467 97.3279C167.685 92.6768 166.549 88.0935 165.517 83.3121Z" fill="#FFBBA8"/>
<path d="M66.4649 16.2992L60.5427 18.5986V15.2667C59.849 15.3291 59.1511 15.3291 58.4574 15.2667C53.5986 14.3855 50.4238 17.6913 51.5551 22.5979C51.855 24.1244 52.3822 25.5973 53.119 26.9674C57.8109 34.9556 57.1332 43.1679 54.4067 51.5263C52.4263 57.9291 48.6784 63.6423 43.5945 68.0084C40.4144 70.7146 36.786 72.4405 32.5737 72.7377C27.7358 73.0714 24.3889 70.4591 24.123 65.6307C23.6695 56.9439 26.9121 49.5606 32.8083 43.3035C33.2921 42.805 33.8769 42.4157 34.5234 42.1616C35.1177 41.9322 36.0874 41.6402 36.4054 41.953C36.6435 42.2325 36.823 42.557 36.9332 42.9072C37.0433 43.2575 37.0819 43.6263 37.0466 43.9918C36.8537 45.8793 36.1552 47.7512 36.2229 49.6127C36.2647 50.9058 37.0258 53.0176 37.8599 53.2626C39.0068 53.5599 40.9201 52.7412 41.8167 51.8079C45.0489 48.3352 45.4347 44.0283 44.3087 39.6536C43.6458 36.8763 42.6935 34.1762 41.4675 31.5976C36.567 21.6906 44.2826 7.94078 56.638 6.37131C61.3872 5.76125 62.6227 6.92401 62.2943 11.7784C64.6403 6.31395 69.3322 5.87596 74.2952 5.76125C76.3465 5.64779 78.3812 5.32811 80.3686 4.80705C81.9325 4.45248 82.9752 4.83833 82.5425 6.50688C81.5624 10.3654 80.671 14.3595 75.8748 15.5379C75.244 15.6891 74.5402 16.8258 74.4203 17.5923C72.262 31.3317 70.3644 45.1128 68.008 58.8158C67.0905 64.1655 62.6749 66.83 58.0247 68.8896C57.7873 69.0007 57.5305 69.0645 57.2688 69.0773C56.1114 69.1086 54.5005 69.5675 53.9271 68.9991C53.3536 68.4308 53.4422 66.7257 53.7394 65.6516C55.2095 60.3279 56.9872 55.0824 58.3896 49.7431C61.1005 39.3981 63.6393 29.0062 66.2094 18.6299C66.3402 17.8587 66.4255 17.0804 66.4649 16.2992Z" fill="#FFBBA8"/>
<path d="M146.316 99.862C146.238 106.771 145.414 115.098 141.593 122.804C137.203 131.669 128.367 135.725 119.358 133.123C114.187 131.627 112.534 129.03 113.217 123.686C114.973 110.645 115.569 97.4747 115 84.3289C114.813 81.756 114.452 79.1988 113.921 76.6744C113.129 72.4196 114.317 69.7604 118.133 67.6695C126.959 62.8307 136.718 65.7819 141.327 74.7087C145.153 82.1024 146.264 90.101 146.316 99.862ZM125.937 113.836C126.01 114.879 126.74 115.922 127.168 116.939C128.362 116.417 130.134 116.182 130.64 115.27C131.922 113.038 132.823 110.608 133.304 108.08C134.664 99.8255 134.346 91.5245 133.059 83.286C132.715 81.0804 131.417 74.5992 127.997 75.0893C126.167 75.35 126.026 77.42 125.911 78.8748C125.515 84.9233 125.786 91.0865 125.771 97.1245C125.776 102.688 125.562 108.304 125.937 113.836Z" fill="#FFBBA8"/>
<path d="M97.9372 17.7904C97.8486 16.2939 97.7235 13.4522 97.4941 10.6209C97.2282 7.35677 102.233 2.47628 105.371 3.20627C105.976 3.34705 106.722 4.70274 106.68 5.4588C106.518 8.38397 105.913 11.2883 105.752 14.2135C105.304 21.9878 105.304 29.7935 104.621 37.5679C104.216 42.4707 103.288 47.3162 101.852 52.0216C100.002 57.9033 96.0448 62.1737 89.6951 63.6389C86.5672 64.3741 84.0804 63.3104 82.2245 60.7242C79.2478 56.5841 78.8933 51.8183 79.4459 47.0525C80.4416 38.3865 81.844 29.7466 82.944 21.1014C83.3297 17.9729 84.3985 14.8444 82.7719 11.6741C82.4487 11.038 82.8449 9.73966 83.3245 9.03575C85.2743 6.16793 88.1624 4.61931 91.4989 4.01447C93.2088 3.70683 93.7301 4.58803 93.4695 6.34522C92.3382 13.9527 91.2226 21.5655 90.3415 29.2043C90.1062 32.0382 90.1498 34.8885 90.4719 37.7139C90.5396 38.5377 91.624 39.982 92.0671 39.9195C93.0055 39.7839 94.3192 39.0226 94.6164 38.204C95.6105 35.5468 96.3472 32.8002 96.8164 30.0021C97.369 26.4199 97.4837 22.7752 97.9372 17.7904Z" fill="#FFBBA8"/>
<path d="M131.146 32.2337C131.099 37.8129 130.624 44.1951 127.856 50.1133C125.088 56.0314 120.688 59.8117 113.78 59.8273C108.254 59.8273 105.934 56.8969 106.331 51.4272C107.133 40.3262 107.707 29.2095 108.202 18.0928C108.306 15.7256 107.775 13.2958 107.326 10.9337C106.57 6.93964 107.769 4.67667 111.596 3.28969C114.21 2.28514 117.098 2.25264 119.734 3.19811C122.37 4.14359 124.578 6.00419 125.958 8.44133C130.129 15.5274 131.047 23.3696 131.146 32.2337ZM115.558 25.3354C115.949 30.8416 116.528 36.3269 116.913 41.8592C116.96 42.537 117.435 43.7102 117.779 43.7259C118.53 43.7624 119.609 43.4391 120.015 42.8707C120.817 41.7548 121.399 40.4967 121.731 39.1634C123.294 32.5831 122.773 25.9246 121.944 19.3494C121.574 16.3356 120.38 13.4053 119.379 10.4853C119.186 9.92216 118.04 9.69274 117.331 9.30689C115.052 14.0257 115.172 19.6519 115.522 24.7514C115.532 24.9547 115.548 25.1476 115.558 25.3354Z" fill="#FFBBA8"/>
<path d="M47.9061 92.8645C47.1502 103.658 45.5862 114.138 41.1289 123.957C39.8078 126.951 37.9985 129.705 35.7749 132.107C31.083 137.018 25.0044 135.235 23.5916 128.561C22.8353 125.018 22.5288 121.393 22.6793 117.773C23.1645 107.481 25.5969 97.3745 29.8475 87.9892C31.3317 84.7007 33.4061 81.7122 35.9678 79.172C39.7474 75.4908 44.309 76.7161 45.8729 81.7374C47.0094 85.3039 47.2649 89.1468 47.9061 92.8645ZM41.0403 90.7006C41.1185 87.6763 40.5189 85.6428 38.6318 85.8305C37.0052 85.9974 36.4683 88.3229 35.8896 89.5274C32.7123 96.2575 30.6791 103.47 29.8735 110.869C29.7333 112.24 29.8214 113.625 30.1342 114.968C30.3167 115.802 30.8901 116.819 31.5835 117.163C32.0057 117.371 33.1891 116.641 33.6688 116.021C34.5894 114.874 35.3619 113.617 35.9678 112.277C36.8123 110.343 40.8578 97.7971 41.0403 90.7006Z" fill="#FFBBA8"/>
<path d="M165.548 38.5169C165.499 40.199 165.356 41.8771 165.12 43.5433C164.646 46.87 164.448 50.8432 161.289 52.7464C158.536 54.4202 155.21 53.5859 152.801 51.7036C151.551 50.7818 150.473 49.6469 149.616 48.3508C141.796 35.3779 139.68 21.3204 142.156 6.52249C142.61 3.78503 143.908 1.12579 146.983 0.265447C150.398 -0.662682 153.026 0.953722 155.241 3.39397C155.985 4.12161 156.611 4.96073 157.097 5.88115C159.146 10.4279 161.586 14.8756 162.952 19.6258C164.667 25.7003 165.746 32.119 165.548 38.5169ZM156.737 27.6869C156.795 23.3539 155.763 19.1044 154.621 14.9591C154.277 13.6972 152.478 4.67666 149.851 7.19512C149.483 7.58099 149.21 8.04682 149.053 8.55603C147.489 12.7587 147.864 18.7602 148.48 23.1193C149.001 26.8005 150.409 30.3827 151.665 33.9284C151.92 34.6427 153.323 35.4509 154.073 35.3466C154.824 35.2423 155.736 34.1317 155.971 33.287C156.47 31.4617 156.727 29.5791 156.737 27.6869Z" fill="#FFBBA8"/>
<path d="M111.914 97.4113C111.914 98.0527 111.914 98.694 111.914 99.3354C111.914 108.544 112.013 117.674 112.159 126.919C112.116 128.785 111.371 130.567 110.074 131.908C108.252 133.49 106.122 134.677 103.818 135.392C100.851 136.398 99.3761 134.922 99.6993 131.794C100.372 125.266 101.3 118.758 101.654 112.199C102.176 102.709 102.306 93.1982 102.468 83.6928C102.469 82.143 102.069 80.6194 101.305 79.2711C100.043 77.0916 100.341 75.0997 101.899 73.5772C103.777 71.6849 105.894 70.046 108.197 68.7019C110.918 67.1377 112.232 68.0554 112.253 71.2099C112.305 79.8342 111.976 88.6671 111.914 97.4113Z" fill="#FFBBA8"/>
<path d="M21.5426 115.87C20.9848 121.908 20.3488 127.935 16.0635 132.852C15.5498 133.444 14.8452 133.837 14.0721 133.963C10.6365 134.276 7.16974 134.74 3.74987 134.552C0.329988 134.364 -0.759577 132.638 0.517664 129.411C2.83929 123.567 5.34685 117.808 8.04035 112.131C11.283 105.269 14.8176 98.5375 18.1749 91.7382C18.4982 90.9854 18.7818 90.2161 19.0246 89.4335C14.7863 89.3188 13.6237 93.1513 11.0171 94.9241C9.27589 89.3293 12.9929 82.4934 18.2531 81.3672C20.7121 80.8608 23.1975 80.4917 25.6976 80.2618C28.153 80.0115 28.8255 80.8875 28.1374 83.3433C27.7656 84.3947 27.3178 85.4177 26.7976 86.4041C22.3611 96.1911 17.8986 105.999 13.5507 115.87C13.1858 116.704 13.6446 117.908 13.7176 118.941C14.8593 118.779 16.0635 118.8 17.1166 118.419C17.8621 118.138 18.3782 117.277 19.0298 116.709C19.5512 116.24 20.1455 115.817 20.7085 115.379L21.5426 115.87Z" fill="#FFBBA8"/>
<path d="M144.371 50.1237C144.371 53.539 140.566 57.6269 137.281 57.8824C134.982 58.0649 134.821 56.4277 134.748 54.8113C134.56 50.4887 134.617 46.1453 134.226 41.8435C133.351 32.3015 132.287 22.7752 131.218 13.2541C131.033 11.9729 130.616 10.7361 129.988 9.60411C128.659 7.04915 128.82 5.5996 130.989 3.73292C131.651 3.17307 132.367 2.68051 133.126 2.26251C135.587 0.880747 136.849 1.45431 137.25 4.25434C137.839 8.3527 138.209 12.4824 138.866 16.5651C140.55 27.1343 142.343 37.6826 144.079 48.2414C144.205 48.9401 144.298 49.6231 144.371 50.1237Z" fill="#FFBBA8"/>
</svg>
