<svg width="41" height="55" viewBox="0 0 41 55" fill="none" xmlns="http://www.w3.org/2000/svg">
<g clip-path="url(#clip0_1392_2644)">
<path d="M0 45.8774C2.18217 45.8774 4.36434 45.8843 6.54651 45.8843C6.64977 45.8843 6.74614 45.8843 6.8907 45.8843C6.75991 46.2998 6.64288 46.6814 6.51209 47.0561C6.42948 47.3081 6.40195 47.6556 6.21608 47.785C6.04399 47.9145 5.70668 47.8259 5.43821 47.8259C5.12844 47.8259 4.82555 47.8259 4.48825 47.8259C4.48825 50.19 4.48825 52.5336 4.48825 54.8976C3.72414 54.8976 2.99446 54.8976 2.23036 54.8976C2.23036 52.5404 2.23036 50.1763 2.23036 47.7646C1.46625 47.7646 0.729684 47.7646 0 47.7646C0 47.1378 0 46.511 0 45.8774Z" fill="black"/>
<path d="M18.2352 23.8926C17.5537 23.8245 16.8997 23.7155 16.2458 23.7087C14.2701 23.7019 12.6524 24.4922 11.372 25.9637C10.4703 26.9993 9.98838 28.212 9.87824 29.5745C9.76122 31.0461 10.0985 32.4087 10.9452 33.6077C12.0673 35.1951 13.6093 36.1557 15.578 36.3806C18.9098 36.7689 21.9662 34.5275 22.5995 31.3118C22.6753 30.9235 22.7234 30.5215 22.7234 30.1264C22.7303 20.2137 22.7303 10.301 22.7303 0.395167C22.7303 0.279349 22.7303 0.156718 22.7303 0.00683594C22.8542 0.00683594 22.9506 0.00683594 23.0539 0.00683594C24.7197 0.00683594 26.3856 0.00683594 28.0584 0.00683594C28.7399 0.00683594 29.4145 0.0340873 30.096 0.0272744C30.3438 0.0272744 30.3989 0.122654 30.392 0.340665C30.392 2.8001 31.2663 4.95295 32.8564 6.80604C34.3846 8.58419 36.319 9.76281 38.6319 10.2806C39.3892 10.4509 40.167 10.5259 40.9655 10.6417C40.9655 13.067 40.9655 15.5401 40.9655 18.0608C37.1037 18.0608 33.6136 16.9163 30.4127 14.7294C30.4058 14.9065 30.392 15.0291 30.392 15.1518C30.392 20.0843 30.3989 25.0236 30.392 29.9561C30.3851 33.9893 28.9189 37.4229 25.9795 40.2026C23.8799 42.1919 21.3742 43.4182 18.4968 43.827C14.1118 44.4538 10.2293 43.316 6.91132 40.4069C4.22663 38.0633 2.70531 35.0997 2.34047 31.6048C1.89302 27.3127 3.18029 23.552 6.20229 20.4249C8.51525 18.0268 11.372 16.6574 14.7038 16.2554C15.819 16.1192 16.9273 16.1669 18.0424 16.2827C18.1732 16.2963 18.2421 16.3304 18.2421 16.4803C18.2352 18.9465 18.2352 21.4128 18.2352 23.879C18.2352 23.8994 18.2283 23.9131 18.2352 23.8926Z" fill="black"/>
<path d="M28.8988 54.9931C27.0264 55.068 25.691 53.9643 25.1609 52.7244C24.1215 50.3195 25.8768 47.6216 28.5271 47.5603C29.484 47.5398 30.4133 47.6284 31.2531 48.153C32.5679 48.9773 33.2425 50.4966 32.9396 51.9954C32.6505 53.4261 31.4458 54.6115 29.9796 54.8773C29.6147 54.9454 29.2568 54.959 28.8988 54.9931ZM30.4752 51.2937C30.4752 50.2786 29.6767 49.4815 28.6579 49.4815C27.6529 49.4815 26.8268 50.2922 26.8268 51.2733C26.8268 52.2407 27.6666 53.065 28.6579 53.0718C29.6423 53.0718 30.4683 52.2611 30.4752 51.2937Z" fill="black"/>
<path d="M12.5698 54.9046C11.8332 54.9046 11.1242 54.9046 10.3945 54.9046C10.3945 51.9069 10.3945 48.9093 10.3945 45.8844C11.0829 45.8844 11.7644 45.8776 12.439 45.898C12.4872 45.898 12.5629 46.0547 12.5629 46.1365C12.5698 47.3287 12.5698 48.521 12.5698 49.7064C12.5698 49.8018 12.5698 49.8903 12.5698 50.0538C12.7419 49.8972 12.8727 49.7881 12.9966 49.6655C13.5129 49.1546 14.0223 48.6368 14.5524 48.1394C14.6418 48.0509 14.8002 47.9896 14.931 47.9827C15.7088 47.9691 16.4936 47.9759 17.3541 47.9759C16.4179 48.882 15.5299 49.7405 14.6281 50.6125C15.64 52.0568 16.6382 53.4943 17.6707 54.9727C17.0512 54.9727 16.4867 54.9386 15.9291 54.9863C15.4748 55.0204 15.2201 54.8569 14.9792 54.489C14.4284 53.651 13.8296 52.8403 13.2307 51.9887C13.0241 52.1794 12.8176 52.3498 12.6318 52.5405C12.5905 52.5814 12.5836 52.6768 12.5836 52.7517C12.5767 53.3717 12.5836 53.9917 12.5836 54.6116C12.5698 54.707 12.5698 54.8024 12.5698 54.9046Z" fill="black"/>
<path d="M33.7383 45.8979C34.4542 45.8979 35.1563 45.8979 35.8929 45.8979C35.8929 47.2741 35.8929 48.6435 35.8929 50.0878C36.2578 49.7336 36.5675 49.4406 36.8773 49.134C37.2353 48.7798 37.5932 48.4255 37.9581 48.0781C38.0131 48.0236 38.1026 47.9759 38.1783 47.9759C38.9906 47.9691 39.8098 47.969 40.7047 47.969C39.7685 48.8683 38.8874 49.7268 37.9718 50.6056C38.97 52.0431 39.975 53.4738 41.0007 54.9522C40.8837 54.959 40.8011 54.9658 40.7254 54.9726C40.1333 54.9726 39.5413 54.9658 38.9493 54.9795C38.7428 54.9863 38.6258 54.9113 38.5156 54.7478C37.903 53.869 37.2766 52.9901 36.657 52.1113C36.6364 52.0772 36.6019 52.0499 36.5606 51.9954C36.3541 52.1862 36.1407 52.3565 35.9549 52.5541C35.8998 52.6086 35.8998 52.7244 35.8998 52.813C35.8929 53.5011 35.8998 54.1892 35.8998 54.8977C35.177 54.8977 34.468 54.8977 33.7383 54.8977C33.7383 51.9137 33.7383 48.9228 33.7383 45.8979Z" fill="black"/>
<path d="M18.166 47.7851C18.166 47.1447 18.166 46.5316 18.166 45.9048C20.4446 45.9048 22.7162 45.9048 25.0223 45.9048C24.9122 46.2454 24.8089 46.5861 24.7056 46.9199C24.6299 47.1652 24.5404 47.4036 24.4716 47.6489C24.4303 47.7919 24.3614 47.8328 24.2169 47.8328C23.6868 47.826 23.1568 47.8328 22.5992 47.8328C22.5992 50.2037 22.5992 52.5405 22.5992 54.9045C21.8489 54.9045 21.1261 54.9045 20.3757 54.9045C20.3757 52.5405 20.3757 50.1832 20.3757 47.7919C19.6323 47.7851 18.9095 47.7851 18.166 47.7851Z" fill="black"/>
<path d="M7.29688 48.8003C8.02656 48.8003 8.73559 48.8003 9.45839 48.8003C9.45839 50.8441 9.45839 52.8676 9.45839 54.9046C8.73559 54.9046 8.02656 54.9046 7.29688 54.9046C7.29688 52.8744 7.29688 50.851 7.29688 48.8003Z" fill="black"/>
<path d="M8.36403 48.0303C7.75826 48.0235 7.27639 47.5534 7.28328 46.9675C7.29016 46.3953 7.79956 45.8911 8.37092 45.8911C8.96981 45.8911 9.47233 46.4021 9.46545 46.9812C9.44479 47.5807 8.97669 48.0372 8.36403 48.0303Z" fill="black"/>
</g>
<defs>
<clipPath id="clip0_1392_2644">
<rect width="41" height="55" fill="white"/>
</clipPath>
</defs>
</svg>
