<svg xmlns="http://www.w3.org/2000/svg" viewBox="0 0 1145.17 502.14"><defs><style>.cls-1{fill:#f4dcbe;}</style></defs><g id="Layer_2" data-name="Layer 2"><g id="Layer_1-2" data-name="Layer 1"><path class="cls-1" d="M18.32,502.14v-9.43H33.81V22.9H26c-4.95,0-8.58,1-10.92,2.89S11.22,31,10.5,35.56A129.6,129.6,0,0,0,9.43,54.42H0V13.47H91.73v41H82.3a137.23,137.23,0,0,0-1-18.86q-1-6.87-4.52-9.77T65.86,22.9H58.05V492.71H74v9.43Z"/><path class="cls-1" d="M101.28,394.63V385.2h13.88V9.43H101.28V0h38.13V74.89c.17-1,1.23-2.74,3.16-5.26a29.37,29.37,0,0,1,8.28-7,24.2,24.2,0,0,1,12.66-3.23,26.41,26.41,0,0,1,13.74,3.77q6.33,3.78,10.24,13.33t3.91,26.94V368.07h14v9.43H156.91v-9.43h10.24V105.73q0-17-2.83-23.64t-8.89-6.66A10.69,10.69,0,0,0,147.82,79,27,27,0,0,0,142,88.56a41.25,41.25,0,0,0-2.55,13.4V385.2h10.64v9.43Z"/><path class="cls-1" d="M256,330.67a29.35,29.35,0,0,1-17.64-5.45,42.11,42.11,0,0,1-12.59-15.36,86.8,86.8,0,0,1-7.61-23.37c-1.71-9-2.56-144.61-2.56-155.3q0-18.45,3.43-32t9.23-22.36q5.79-8.82,12.86-13.06a27.83,27.83,0,0,1,14.48-4.25,25.57,25.57,0,0,1,15.49,4.92,39.56,39.56,0,0,1,11.32,13.4,73.29,73.29,0,0,1,6.93,19.46c1.57,7.32,2.36,76.35,2.36,84.61v5.59q0,2.76-.27,5.46H238.4v-9.43h29.9c0-11.94-.4-83.08-1.21-90.94S265,78.86,263.12,75s-4.33-5.85-7.48-5.85q-4.44,0-7.95,5.85t-5.52,18.66q-2,12.8-2,33.54c0,10.33.29,145.42.88,153.69a134.53,134.53,0,0,0,3,21.21q2.08,8.82,5.66,13.47a11,11,0,0,0,9.09,4.64q8.76,0,13.74-4.84a28.66,28.66,0,0,0,6.87-9.57l8.08,5.12q-2.7,7.54-11.32,13.67A33.69,33.69,0,0,1,256,330.67Z"/><path class="cls-1" d="M350.06,262.52v-9.43h14.41V22.9H350.06V13.47h52.8A37.18,37.18,0,0,1,416,16a35.32,35.32,0,0,1,12.66,8.48q5.87,5.94,9.56,16t3.71,24.85c0,10.15-1.26,34.62-3.77,42.3a62.63,62.63,0,0,1-9.7,19.12,43.63,43.63,0,0,1-12.73,11.45A26.31,26.31,0,0,1,402.86,142H388.58V253.09H403v9.43Zm38.52-130h8.35q5.25,0,9.76-6.06t7.21-17.58c1.8-7.68,2.69-32.55,2.69-43.51q0-15.61-2.49-24.91T407.44,27A13.16,13.16,0,0,0,398,22.9h-9.43Z"/><path class="cls-1" d="M452.29,227.25v-9.43h14.28V70.44H452.29V61h38.52v156.8h14.41v9.43Zm26.26-189a16.63,16.63,0,0,1-12.12-4.91,16.31,16.31,0,0,1-5-12.06,16.29,16.29,0,0,1,5-12,16.6,16.6,0,0,1,12.12-4.92,16.08,16.08,0,0,1,11.79,4.92,16.37,16.37,0,0,1,4.91,12.05,16.39,16.39,0,0,1-4.91,12.06A16.11,16.11,0,0,1,478.55,38.25Z"/><path class="cls-1" d="M556.27,213.27a29.3,29.3,0,0,1-17.65-5.46A41.89,41.89,0,0,1,526,192.46a86.8,86.8,0,0,1-7.61-23.37c-1.71-9-2.56-27.21-2.56-37.9q0-18.45,3.43-32t9.23-22.36q5.79-8.82,12.86-13.06a27.83,27.83,0,0,1,14.48-4.25,25.57,25.57,0,0,1,15.49,4.92,39.42,39.42,0,0,1,11.31,13.4,72.94,72.94,0,0,1,6.94,19.46A111.27,111.27,0,0,1,592,120.68v5.59q0,2.76-.27,5.46H538.62V122.3h29.9q0-17.91-1.21-29.7t-4-17.65q-2.77-5.85-7.48-5.85-4.44,0-7.94,5.85t-5.53,18.66q-2,12.8-2,33.54c0,10.33.29,28,.88,36.28a133.34,133.34,0,0,0,3,21.22q2.09,8.82,5.66,13.47a11,11,0,0,0,9.09,4.64q8.74,0,13.74-4.84a28.66,28.66,0,0,0,6.87-9.57l8.08,5.12Q585,201,576.34,207.14A33.75,33.75,0,0,1,556.27,213.27Z"/><path class="cls-1" d="M602.2,210.44V201h13.47V9.43H602.2V0h37.57V201h13.61v9.43Z"/><path class="cls-1" d="M699.47,227.33a28.31,28.31,0,0,1-15.22-4.17A29.25,29.25,0,0,1,673.54,211q-4-7.93-4-19.26,0-12.66,5.12-20.94a51.19,51.19,0,0,1,12.66-14q7.54-5.72,15-10.37a73.92,73.92,0,0,0,12.6-9.63c3.41-3.32,5.12-28.37,5.12-33.13a79,79,0,0,0-1.62-17.24q-1.62-7.14-5.12-11a12,12,0,0,0-9.29-3.84,15.14,15.14,0,0,0-10.85,4A12.51,12.51,0,0,0,689,85,11.52,11.52,0,0,0,690,90.28c.72,1.4,1.44,2.81,2.16,4.25a13.94,13.94,0,0,1,1.07,6.06,12.36,12.36,0,0,1-2.76,8.42,9.4,9.4,0,0,1-7.47,3.16,8.57,8.57,0,0,1-7.48-4.11Q672.8,104,672.8,96.82a37.34,37.34,0,0,1,4.51-18.39,32.91,32.91,0,0,1,12.53-12.79,39.75,39.75,0,0,1,37.31,0q8,4.64,12.59,14.75t4.58,26.66V204.7c0,4.13.38,6.9,1.15,8.29a3.8,3.8,0,0,0,3.57,2.09,6.58,6.58,0,0,0,3.84-1.08,12.65,12.65,0,0,0,2.35-2l5.12,7.67q-2,2.43-7.14,4.65a29.54,29.54,0,0,1-11.85,2.22q-6.74,0-10.71-2.08a15.08,15.08,0,0,1-5.93-5.19,17.2,17.2,0,0,1-2.49-6.2,23.2,23.2,0,0,1-3.1,5.46,21.63,21.63,0,0,1-7.14,6.13Q707.28,227.33,699.47,227.33Zm7.14-13.06a9.37,9.37,0,0,0,7.34-3.51,23.37,23.37,0,0,0,4.58-8.55,32.54,32.54,0,0,0,1.55-9.49V142.88c-.27,2.52-1.71,5-4.31,7.34s-5.55,5.12-8.83,8.22a42.49,42.49,0,0,0-8.61,12q-3.71,7.35-3.71,18.79,0,12.4,3.16,18.73T706.61,214.27Z"/><path class="cls-1" d="M765.68,254.11v-9.42h14.15V70.44H765.68V61H803.4V75.16A18.39,18.39,0,0,1,807,68.89a26.73,26.73,0,0,1,8.08-6.53,24.42,24.42,0,0,1,12-2.83,27.67,27.67,0,0,1,13.2,3.3q6.19,3.3,10.11,12.46t3.9,26.81v151h13.88v9.43h-49v-9.43h10.91V103.71q0-15.61-2.7-22.49t-8.75-6.87a8.71,8.71,0,0,0-5.73,2.22,19.31,19.31,0,0,0-4.58,6.06,36.4,36.4,0,0,0-3,8.69,51.78,51.78,0,0,0-1.22,10.1V244.69h10.65v9.42Z"/><path class="cls-1" d="M913.5,340.17q-9.43,0-17.38-6.87t-12.73-22.7q-4.77-15.83-4.78-42.9c0-17.24,1.55-75.84,4.65-86.53s7.18-18.47,12.25-23.37,10.53-7.34,16.37-7.34q7,0,11,2.56a17.27,17.27,0,0,1,5.92,5.86,18.22,18.22,0,0,1,2.29,5.59V9.56H915.51V0h40.42V328.05h15.21v9.42H934.91l-2.15-16.3a22,22,0,0,1-2.56,8,23,23,0,0,1-6.4,7.74A16.14,16.14,0,0,1,913.5,340.17Zm4.44-14.95c2.6,0,4.85-1.71,6.73-5.12a47.66,47.66,0,0,0,4.52-12.87,87.37,87.37,0,0,0,1.95-15.55V192.22a51.1,51.1,0,0,0-2.29-12.73,30,30,0,0,0-4.71-9.43q-2.83-3.57-6.47-3.57t-6.53,4.17a36.46,36.46,0,0,0-4.51,11.79A129.2,129.2,0,0,0,904,200.5c-.59,7-.88,59.3-.88,67.74q0,13.74,1,24.38a123.48,123.48,0,0,0,2.69,17.91q1.75,7.28,4.58,11C913.23,324,915.42,325.22,917.94,325.22Z"/><path class="cls-1" d="M1020.17,380.51a29.27,29.27,0,0,1-17.64-5.46,42.09,42.09,0,0,1-12.6-15.35,87.51,87.51,0,0,1-7.61-23.37c-1.7-9-2.56-194.45-2.56-205.14q0-18.45,3.44-32t9.23-22.36q5.79-8.82,12.86-13.06a27.8,27.8,0,0,1,14.48-4.25,25.57,25.57,0,0,1,15.49,4.92,39.42,39.42,0,0,1,11.31,13.4,73.29,73.29,0,0,1,6.94,19.46c1.57,7.32,2.35,87.1,2.35,95.36v5.59c0,1.84-.09,3.66-.26,5.46h-53.07v-9.43h29.9c0-11.94-.41-93.83-1.22-101.69s-2.13-13.74-4-17.65-4.33-5.85-7.47-5.85q-4.46,0-7.95,5.85t-5.52,18.66q-2,12.8-2,33.54c0,10.33.29,195.26.87,203.52a134.42,134.42,0,0,0,3,21.21q2.08,8.83,5.66,13.47a11,11,0,0,0,9.08,4.65q8.76,0,13.74-4.85a28.35,28.35,0,0,0,6.87-9.56l8.09,5.12q-2.7,7.55-11.32,13.67A33.8,33.8,0,0,1,1020.17,380.51Z"/><path class="cls-1" d="M1067.18,502.14v-9.43h14V70.44h-14V61h36.23l1.35,12.79a16.46,16.46,0,0,1,3-5.18,26.91,26.91,0,0,1,6.87-6.27,18,18,0,0,1,10.1-2.83,15.33,15.33,0,0,1,11.65,4.78A29.45,29.45,0,0,1,1143,77.18a70.28,70.28,0,0,1,2.16,18c0,5.11-.93,9-2.77,11.58a9.42,9.42,0,0,1-14.75.67q-2.69-3.23-2.69-9.29a12.26,12.26,0,0,1,1.35-6.13l2.69-4.71a12.9,12.9,0,0,0,1.35-6.4q0-5.65-2-8.15a7,7,0,0,0-5.79-2.49c-3.06,0-5.88,1.39-8.49,4.18A30,30,0,0,0,1107.79,86a53.89,53.89,0,0,0-2.36,16.5V492.71h14.14v9.43Z"/></g></g></svg>