<svg width="117" height="115" viewBox="0 0 117 115" fill="none" xmlns="http://www.w3.org/2000/svg">
<path d="M42.425 13.8408C34.0967 10.2437 24.2052 8.93326 15.7826 15.4856L15.7961 15.4722C14.0038 16.2612 12.8718 13.3059 13.4782 12.0088C14.435 9.96291 17.1707 9.40128 20.9035 7.04779C22.7228 5.89779 23.6931 2.60826 20.4454 0.629185C18.0062 -0.868489 15.4727 0.46872 14.6641 3.02279C13.7342 5.93791 14.3407 11.3135 12.481 11.0728C10.0687 10.7652 9.63748 4.4536 7.66996 5.64372C5.86416 6.74023 9.2332 9.32105 10.9851 12.0222C12.4944 14.349 13.3434 17.371 11.7128 19.4838C7.58911 24.3646 4.04488 31.6257 1.48441 42.0827C-3.67696 63.1036 5.68897 91.3722 14.2733 91.0245C19.2999 90.8239 15.9039 79.7117 16.2004 70.4984C16.389 64.5879 18.3296 59.0117 22.3859 55.6286C27.0487 51.7641 33.9619 54.6792 44.3251 49.5844C58.0843 42.8315 59.2567 21.1152 42.425 13.8408ZM36.5494 35.7978C34.1641 37.1083 28.6928 37.4559 27.6955 32.7891C26.6174 27.7612 31.8192 24.5385 36.172 26.7181C39.7297 28.4966 39.7163 34.0594 36.5494 35.7978ZM116.369 105.573C113.04 102.926 103.014 112.179 99.7391 106.229C99.0787 105.012 99.9951 103.34 101.424 102.859C107.124 100.933 115.317 99.3018 116.652 92.7629C117.649 87.842 114.037 80.5943 105.022 80.2065C94.0386 79.7519 86.3033 89.3931 86.1416 98.0315C85.9934 106.763 94.2408 115.362 104.2 114.987C114.186 114.613 118.781 107.486 116.369 105.573ZM102.502 88.3234C104.55 88.1495 106.208 89.46 106.1 91.0245C105.965 92.8431 103.256 94.2472 101.208 93.5652C97.9467 92.4821 100.009 88.5373 102.502 88.3234ZM77.9212 91.3053C91.8286 86.6518 89.8341 72.9455 80.4951 66.7542C70.8731 60.3891 59.0276 66.2862 51.8044 75.3257C43.0044 86.3443 45.9153 109.251 65.0514 113.717C77.0856 116.525 85.3061 109.839 83.7024 105.841C81.4115 100.118 75.1047 102.993 70.132 102.926C62.9357 102.832 60.8873 98.4594 62.3427 95.8786C64.5124 92.0943 71.0079 93.6187 77.9212 91.3053ZM71.237 75.2053C74.1613 76.5024 74.7543 80.1129 71.8299 81.7577C70.3745 82.5734 65.833 83.1082 65.1458 79.2303C64.5528 75.8606 68.38 73.935 71.237 75.2053ZM62.1541 60.4827C53.8258 63.478 46.8047 68.9739 43.1527 75.4193C35.0535 87.16 45.228 103.741 38.0048 104.29C32.4257 104.718 25.5393 95.317 23.8009 82.7071C22.9115 76.235 21.9277 64.5077 27.8438 60.5495C34.3662 56.1769 39.0155 66.6606 43.5704 62.3681C49.2709 57.0059 55.7125 44.7838 63.7577 43.353C69.9298 42.2565 73.2315 46.9367 73.2989 50.6274C73.4201 56.5379 70.4419 57.5007 62.1541 60.4827Z" fill="black" fill-opacity="0.63"/>
</svg>
