<svg width="207" height="28" viewBox="0 0 207 28" fill="none" xmlns="http://www.w3.org/2000/svg">
<path d="M0.233887 27.0003H7.38789V13.2313C7.38789 8.62533 12.2389 8.23333 17.3839 8.23333V1.22633C12.4349 1.22633 9.05389 2.89233 7.38789 6.32233V1.52033H0.233887V27.0003Z" fill="#363636"/>
<path d="M32.7331 27.7843C40.7201 27.7843 46.3551 22.1493 46.3551 14.2113C46.3551 6.32233 40.7201 0.736328 32.7331 0.736328C24.7461 0.736328 19.1601 6.32233 19.1601 14.2113C19.1601 22.1493 24.7461 27.7843 32.7331 27.7843ZM32.7331 21.5123C29.0581 21.5123 26.4611 18.4743 26.4611 14.2113C26.4611 9.99733 29.0581 7.00833 32.7331 7.00833C36.4571 7.00833 39.0541 9.99733 39.0541 14.2113C39.0541 18.4743 36.4571 21.5123 32.7331 21.5123Z" fill="#363636"/>
<path d="M64.4587 27.7843C72.4457 27.7843 78.0807 22.1493 78.0807 14.2113C78.0807 6.32233 72.4457 0.736328 64.4587 0.736328C56.4717 0.736328 50.8857 6.32233 50.8857 14.2113C50.8857 22.1493 56.4717 27.7843 64.4587 27.7843ZM64.4587 21.5123C60.7837 21.5123 58.1867 18.4743 58.1867 14.2113C58.1867 9.99733 60.7837 7.00833 64.4587 7.00833C68.1827 7.00833 70.7797 9.99733 70.7797 14.2113C70.7797 18.4743 68.1827 21.5123 64.4587 21.5123Z" fill="#363636"/>
<path d="M83.1128 27.0003H90.3648V13.9663C90.3648 9.75233 92.5698 7.00833 96.0978 7.00833C99.2338 7.00833 101.096 9.26233 101.096 12.9863V27.0003H108.446V13.9663C108.446 9.75233 110.651 7.00833 114.179 7.00833C117.315 7.00833 119.177 9.26233 119.177 12.9863V27.0003H126.576V12.5943C126.576 4.80333 123.44 0.736328 117.07 0.736328C113.15 0.736328 109.671 2.10833 107.172 5.58733C105.751 2.35333 103.056 0.736328 98.9888 0.736328C94.9218 0.736328 92.0798 2.45133 90.3648 5.19533V1.52033H83.1128V27.0003Z" fill="#363636"/>
<path d="M132.687 27.0003H139.939V13.9663C139.939 9.75233 142.144 7.00833 145.672 7.00833C148.808 7.00833 150.67 9.26233 150.67 12.9863V27.0003H158.02V13.9663C158.02 9.75233 160.225 7.00833 163.753 7.00833C166.889 7.00833 168.751 9.26233 168.751 12.9863V27.0003H176.15V12.5943C176.15 4.80333 173.014 0.736328 166.644 0.736328C162.724 0.736328 159.245 2.10833 156.746 5.58733C155.325 2.35333 152.63 0.736328 148.563 0.736328C144.496 0.736328 141.654 2.45133 139.939 5.19533V1.52033H132.687V27.0003Z" fill="#363636"/>
<path d="M194.609 27.7843C200.832 27.7843 205.634 24.2563 206.418 18.7193H199.166C198.872 20.4833 197.206 21.8553 194.658 21.8553C190.885 21.8553 189.023 19.6993 188.68 16.4163H206.565V14.0643C206.565 5.93033 201.371 0.736328 194.609 0.736328C186.769 0.736328 181.281 6.32233 181.281 14.2113C181.281 22.1493 186.769 27.7843 194.609 27.7843ZM188.729 11.9573C189.17 9.01733 190.885 7.00833 194.315 7.00833C197.402 7.00833 199.117 9.11533 199.264 11.9573H188.729Z" fill="#363636"/>
</svg>
