<svg width="800" height="503" viewBox="0 0 800 503" fill="none" xmlns="http://www.w3.org/2000/svg">
<rect width="800" height="494" transform="matrix(-1 0 0 1 800 0)" fill="#F0EFED"/>
<path d="M799.332 503V378.486L214.277 273L1.00006 311.5V503H799.332Z" fill="#D1CDC5"/>
<path d="M214 273.439L799 380V0H214V273.439Z" fill="#E8E5DF" fill-opacity="0.8"/>
<path d="M54.5648 216.865C55.6148 216.49 56.2598 215.545 56.2598 214.27C56.2598 212.38 54.8798 211.15 52.6148 211.15H47.1548V223H53.0048C55.2098 223 56.7548 221.62 56.7548 219.73C56.7548 218.305 56.0048 217.18 54.5648 216.865ZM49.4948 213.415H51.7748C53.1998 213.415 53.8748 213.85 53.8748 214.765C53.8748 215.62 53.2298 216.025 51.8498 216.025H49.4948V213.415ZM52.2098 220.735H49.4948V218.05H52.2698C53.6798 218.05 54.3398 218.455 54.3398 219.34C54.3398 220.27 53.6648 220.735 52.2098 220.735Z" fill="#363636"/>
<path d="M64.2945 223.24C67.8795 223.24 70.3395 220.66 70.3395 217.015C70.3395 213.445 67.8795 210.91 64.2945 210.91C60.6495 210.91 58.1595 213.445 58.1595 217.015C58.1595 220.66 60.6495 223.24 64.2945 223.24ZM64.2945 220.975C62.0595 220.975 60.5595 219.31 60.5595 216.94C60.5595 214.735 62.0595 213.175 64.2945 213.175C66.4695 213.175 67.9395 214.735 67.9395 216.94C67.9395 219.31 66.4695 220.975 64.2945 220.975Z" fill="#363636"/>
<path d="M72.189 223H81.129V220.96H74.529V211.15H72.189V223Z" fill="#363636"/>
<path d="M82.5747 223H87.6897C91.3347 223 93.7497 220.75 93.7497 217.06C93.7497 213.325 91.3947 211.15 87.6897 211.15H82.5747V223ZM84.9147 220.9V213.25H87.6897C89.9847 213.25 91.3347 214.66 91.3347 217.045C91.3347 219.475 89.9847 220.9 87.6897 220.9H84.9147Z" fill="#363636"/>
<path d="M121.365 223H130.05V221.815H122.685V211.15H121.365V223Z" fill="#363636"/>
<path d="M131.839 223H133.159V211.15H131.839V223Z" fill="#363636"/>
<path d="M141.177 223.24C143.292 223.24 144.642 222.4 145.392 220.9L145.407 223H146.607V216.91H141.087V218.095H145.287C145.242 220.225 143.592 222.01 141.192 222.01C138.537 222.01 136.752 219.925 136.752 216.94C136.752 214.09 138.567 212.125 141.252 212.14C143.127 212.155 144.777 213.25 145.122 214.78H146.502C146.067 212.47 143.997 210.91 141.282 210.91C137.787 210.91 135.372 213.445 135.372 217.015C135.372 220.66 137.727 223.24 141.177 223.24Z" fill="#363636"/>
<path d="M149.124 223H150.444V217.525H157.659V223H158.964V211.15H157.659V216.295H150.444V211.15H149.124V223Z" fill="#363636"/>
<path d="M165.322 223H166.627V212.44H171.487V211.15H160.462V212.44H165.322V223Z" fill="#363636"/>
<path d="M48.8169 102H53.7619L57.5029 93.4433H75.5629L79.3039 102H84.2489L69.2849 68.0303H63.7809L48.8169 102ZM59.3519 89.1863L66.5329 72.7173L73.7139 89.1863H59.3519Z" fill="#363636"/>
<path d="M94.8561 102.688C98.8981 102.688 101.65 100.882 102.897 97.7863C103.155 101.312 104.961 102.989 109.046 101.828L109.132 98.7323C107.369 98.9043 107.025 98.2593 107.025 96.4103V87.0793C107.025 81.9623 103.757 78.9523 97.6081 78.9523C91.5451 78.9523 88.0621 82.0053 88.0621 87.2083H92.1901C92.1901 84.4133 94.1251 82.6933 97.5221 82.6933C101.091 82.6933 102.682 84.3273 102.639 87.0793V88.3693L97.2641 88.9713C90.6851 89.7023 87.2881 92.1103 87.2881 96.0663C87.2881 99.4633 89.7391 102.688 94.8561 102.688ZM95.8021 99.2483C92.7061 99.2483 91.6311 97.5283 91.6311 95.9803C91.6311 93.8733 93.9531 92.7553 98.5111 92.2393L102.553 91.8093C102.424 95.9803 99.5431 99.2483 95.8021 99.2483Z" fill="#363636"/>
<path d="M44.2471 141H45.7421L46.8731 138.413H52.3331L53.4641 141H54.9591L50.4351 130.73H48.7711L44.2471 141ZM47.4321 137.126L49.6031 132.147L51.7741 137.126H47.4321Z" fill="#363636"/>
<path d="M63.062 135.696C63.92 135.384 64.479 134.552 64.479 133.434C64.479 131.796 63.283 130.73 61.32 130.73H56.874V141H61.658C63.569 141 64.908 139.856 64.908 138.218C64.908 136.931 64.258 135.956 63.062 135.696ZM58.226 132.017H60.891C62.321 132.017 63.088 132.602 63.088 133.629C63.088 134.682 62.334 135.215 60.956 135.215H58.226V132.017ZM61.268 139.713H58.226V136.411H61.32C62.724 136.411 63.491 136.931 63.491 137.945C63.491 139.076 62.711 139.713 61.268 139.713Z" fill="#363636"/>
<path d="M71.8763 141.208C74.1643 141.208 76.1143 139.674 76.5173 137.347H75.1003C74.8013 138.868 73.4493 139.921 71.7723 139.921C69.6013 139.921 68.1193 138.231 68.1193 135.748C68.1193 133.395 69.6143 131.796 71.8243 131.809C73.3713 131.822 74.6973 132.797 74.9833 134.201H76.4003C76.0363 131.991 74.2033 130.522 71.8503 130.522C68.8213 130.522 66.6893 132.719 66.6893 135.813C66.6893 138.972 68.8343 141.208 71.8763 141.208Z" fill="#363636"/>
<path d="M78.8867 141H82.9817C86.1407 141 88.2337 139.05 88.2337 135.852C88.2337 132.615 86.1927 130.73 82.9817 130.73H78.8867V141ZM80.2387 139.765V131.965H82.9817C85.3867 131.965 86.8167 133.408 86.8167 135.839C86.8167 138.309 85.3867 139.765 82.9817 139.765H80.2387Z" fill="#363636"/>
<path d="M90.604 141H98.248V139.713H91.956V136.398H97.728V135.137H91.956V132.017H98.183V130.73H90.604V141Z" fill="#363636"/>
<path d="M100.874 141H102.226V136.359H107.998V135.098H102.226V131.965H108.453V130.73H100.874V141Z" fill="#363636"/>
<path d="M115.06 141.208C116.854 141.208 117.998 140.519 118.635 139.271L118.648 141H119.844V135.657H115.021V136.84H118.44C118.401 138.53 117.075 139.921 115.112 139.921C112.915 139.921 111.459 138.231 111.459 135.748C111.459 133.395 112.928 131.796 115.164 131.809C116.711 131.822 118.037 132.693 118.323 133.941H119.74C119.376 131.861 117.53 130.522 115.19 130.522C112.135 130.522 110.029 132.719 110.029 135.813C110.029 138.972 112.044 141.208 115.06 141.208Z" fill="#363636"/>
<path d="M122.468 141H123.82V136.359H129.748V141H131.1V130.73H129.748V135.059H123.82V130.73H122.468V141Z" fill="#363636"/>
<path d="M133.906 141H135.258V130.73H133.906V141Z" fill="#363636"/>
<path d="M140.851 141.169C143.204 141.169 144.413 139.882 144.413 137.399V130.73H143.061V137.321C143.061 139.011 142.32 139.882 140.851 139.882C139.408 139.882 138.667 139.076 138.667 137.49H137.315C137.315 139.908 138.524 141.169 140.851 141.169Z" fill="#363636"/>
<path d="M147.184 141H148.536V138.01L150.486 136.164L154.477 141H156.31L151.474 135.228L156.232 130.73H154.321L148.536 136.229V130.73H147.184V141Z" fill="#363636"/>
<path d="M158.241 141H165.807V139.778H159.593V130.73H158.241V141Z" fill="#363636"/>
<path d="M167.813 141H169.165V132.511L172.818 141H174.248L177.901 132.511V141H179.266V130.73H177.108L173.533 139.362L169.971 130.73H167.813V141Z" fill="#363636"/>
<path d="M182.069 141H183.421V132.602L189.349 141H190.987V130.73H189.622V139.102L183.733 130.73H182.069V141Z" fill="#363636"/>
<path d="M198.557 141.208C201.599 141.208 203.692 138.972 203.692 135.813C203.692 132.719 201.599 130.522 198.557 130.522C195.476 130.522 193.344 132.719 193.344 135.813C193.344 138.972 195.476 141.208 198.557 141.208ZM198.557 139.921C196.308 139.921 194.774 138.192 194.774 135.748C194.774 133.447 196.308 131.809 198.557 131.809C200.767 131.809 202.262 133.447 202.262 135.748C202.262 138.192 200.767 139.921 198.557 139.921Z" fill="#363636"/>
<path d="M206.062 141H207.414V136.788H210.573C212.822 136.788 213.992 135.592 213.992 133.72C213.992 131.848 212.822 130.73 210.573 130.73H206.062V141ZM207.414 135.488V132.017H210.274C211.834 132.017 212.575 132.667 212.575 133.759C212.575 134.838 211.86 135.488 210.339 135.488H207.414Z" fill="#363636"/>
<path d="M226.919 141L225.06 139.154C225.684 138.257 226.035 137.113 226.035 135.813C226.035 132.719 223.942 130.522 220.9 130.522C217.819 130.522 215.687 132.719 215.687 135.813C215.687 138.972 217.819 141.208 220.9 141.208C222.226 141.208 223.357 140.792 224.228 140.051L225.19 141H226.919ZM220.9 139.921C218.651 139.921 217.117 138.192 217.117 135.748C217.117 133.447 218.651 131.809 220.9 131.809C223.11 131.809 224.605 133.447 224.605 135.748C224.605 136.658 224.397 137.464 224.02 138.127L221.68 135.8H219.938L223.253 139.076C222.629 139.609 221.823 139.921 220.9 139.921Z" fill="#363636"/>
<path d="M228.443 141H229.795V136.71H232.759C234.28 136.71 234.579 136.957 234.761 138.374C234.891 139.401 234.852 140.389 235.125 141H236.516V140.896C236.165 140.09 236.334 139.362 236.113 137.906C235.97 136.879 235.567 136.398 234.761 136.19C235.762 135.839 236.373 134.903 236.373 133.72C236.373 131.848 235.203 130.73 232.954 130.73H228.443V141ZM229.795 135.488V132.017H232.694C234.254 132.017 234.956 132.667 234.956 133.759C234.956 134.838 234.28 135.488 232.759 135.488H229.795Z" fill="#363636"/>
<path d="M242.613 141.208C245.213 141.208 246.669 139.856 246.669 138.036C246.669 133.746 240.117 136.333 240.117 133.603C240.117 132.446 240.975 131.77 242.522 131.77C244.069 131.77 244.979 132.524 245.083 133.798H246.539C246.539 131.835 244.901 130.522 242.561 130.522C240.234 130.522 238.7 131.744 238.7 133.46C238.7 137.88 245.239 135.163 245.239 138.036C245.239 139.232 244.316 139.96 242.665 139.96C240.949 139.96 239.961 139.089 239.909 137.62H238.414C238.414 139.882 240.104 141.208 242.613 141.208Z" fill="#363636"/>
<path d="M251.722 141H253.074V132.069H257.195V130.73H247.601V132.069H251.722V141Z" fill="#363636"/>
<path d="M263.238 141.169C265.981 141.195 267.593 139.531 267.593 136.697V130.73H266.241V136.684C266.241 138.699 265.123 139.882 263.238 139.882C261.353 139.882 260.248 138.699 260.248 136.684V130.73H258.883V136.697C258.883 139.479 260.508 141.143 263.238 141.169Z" fill="#363636"/>
<path d="M273.794 141H275.445L279.852 130.73H278.396L274.626 139.531L270.843 130.73H269.387L273.794 141Z" fill="#363636"/>
<path d="M284.335 141H285.986L288.469 132.693L291.095 141H292.746L296.113 130.73H294.592L291.927 139.388L289.288 130.73H287.611L285.154 139.362L282.489 130.73H280.968L284.335 141Z" fill="#363636"/>
<path d="M297.37 141H299.073L302.479 136.892L305.898 141H307.601L303.376 135.891L307.64 130.73H305.924L302.505 134.851L299.086 130.73H297.37L301.608 135.865L297.37 141Z" fill="#363636"/>
<path d="M312.982 141H314.334V137.022L318.702 130.73H317.155L313.658 135.761L310.174 130.73H308.614L312.982 137.022V141Z" fill="#363636"/>
<path d="M320.129 141H328.891V139.713H322.105L329.06 131.497V130.73H320.051V132.017H326.98L320.129 139.999V141Z" fill="#363636"/>
<path d="M47.5762 190.208C48.8892 190.208 50.0332 189.818 50.9432 189.103L51.9052 190H53.8422L51.8662 188.206C52.6462 187.231 53.1272 185.931 53.2312 184.423H51.8012C51.7362 185.58 51.4112 186.555 50.8912 187.309L48.4082 185.06C50.0852 184.319 51.0472 183.435 51.0472 182.07C51.0472 180.549 49.8642 179.522 48.1482 179.522C46.1982 179.522 44.9372 180.549 44.9372 182.187C44.9372 183.032 45.4312 183.877 46.1722 184.67C44.8462 185.307 44.0532 186.191 44.0532 187.296C44.0532 189.09 45.4442 190.208 47.5762 190.208ZM47.4072 184.15C46.7312 183.487 46.3412 182.889 46.3412 182.291C46.3412 181.342 47.0042 180.77 48.1092 180.77C49.0712 180.77 49.6822 181.303 49.6822 182.213C49.6822 183.084 48.8892 183.695 47.4072 184.15ZM47.7062 188.921C46.3412 188.921 45.4832 188.271 45.4832 187.387C45.4832 186.711 45.9512 186.1 47.1342 185.593L49.9552 188.193C49.3312 188.661 48.5772 188.921 47.7062 188.921Z" fill="#363636"/>
<path d="M55.8473 186.529H57.1213L57.1343 179.73H55.8343L55.8473 186.529ZM56.4843 190.156C56.9913 190.156 57.4203 189.74 57.4203 189.207C57.4203 188.687 57.0173 188.284 56.4843 188.284C55.9513 188.284 55.5353 188.687 55.5353 189.207C55.5353 189.74 55.9513 190.156 56.4843 190.156Z" fill="#363636"/>
<path d="M63.773 190.208C66.412 190.208 67.972 188.206 67.972 184.813C67.972 181.485 66.412 179.522 63.773 179.522C61.082 179.522 59.483 181.485 59.483 184.813C59.483 188.206 61.082 190.208 63.773 190.208ZM63.773 188.921C61.966 188.921 60.913 187.374 60.913 184.748C60.913 182.278 61.966 180.809 63.773 180.809C65.515 180.809 66.555 182.278 66.555 184.748C66.555 187.374 65.515 188.921 63.773 188.921Z" fill="#363636"/>
<path d="M72.6214 190H73.9734V179.73H73.0504L69.5794 181.654V183.149L72.6214 181.472V190Z" fill="#363636"/>
<path d="M76.5478 190H83.8798V188.661H78.2118C78.5498 186.217 83.7368 186.282 83.7368 182.746C83.7368 180.744 82.4498 179.522 80.1748 179.522C77.6658 179.522 76.3398 180.991 76.5608 183.474H77.9778C77.7178 181.797 78.5108 180.809 80.1358 180.809C81.5398 180.809 82.3198 181.602 82.3198 182.824C82.3198 185.294 76.5478 185.307 76.5478 189.324V190Z" fill="#363636"/>
<path d="M89.541 190.208C91.738 190.208 93.22 188.83 93.22 186.867C93.22 184.943 91.803 183.864 90.022 183.851L93.103 180.601V179.73H86.044V181.017H90.945L87.981 184.28L88.696 185.034C88.93 184.943 89.307 184.878 89.619 184.878C90.984 184.878 91.868 185.658 91.868 186.828C91.868 188.102 90.958 188.921 89.528 188.921C88.124 188.921 87.201 187.985 87.149 186.581H85.771C85.771 188.7 87.305 190.208 89.541 190.208Z" fill="#363636"/>
<path d="M100.484 190H101.745V187.192H103.253V185.905H101.745V179.73H99.8215L94.9725 186.1V187.192H100.484V190ZM96.7795 185.905L100.484 180.978V185.905H96.7795Z" fill="#363636"/>
<path d="M108.761 190.208C111.01 190.208 112.505 188.804 112.505 186.62C112.505 184.631 111.14 183.227 109.112 183.227C108.241 183.227 107.5 183.474 106.941 183.877L107.266 181.017H112.141V179.73H106.122L105.563 185.086L106.421 185.489C106.941 184.891 107.786 184.488 108.631 184.488C110.139 184.488 111.088 185.346 111.088 186.594C111.088 187.972 110.178 188.921 108.748 188.921C107.5 188.921 106.642 188.102 106.538 186.893H105.121C105.16 188.882 106.603 190.208 108.761 190.208Z" fill="#363636"/>
<path d="M118.503 190.208C120.557 190.208 122.078 188.752 122.078 186.672C122.078 184.722 120.7 183.422 118.646 183.422C117.528 183.422 116.488 183.968 116.02 184.774C116.176 182.252 117.086 180.809 118.529 180.809C119.66 180.809 120.44 181.459 120.622 182.564L122.039 182.551C121.818 180.64 120.531 179.522 118.581 179.522C116.215 179.522 114.694 181.537 114.694 185.034C114.694 188.284 115.942 190.208 118.503 190.208ZM118.516 188.921C117.255 188.921 116.358 188.037 116.358 186.789C116.358 185.528 117.268 184.644 118.542 184.644C119.79 184.644 120.674 185.528 120.674 186.776C120.674 188.024 119.777 188.921 118.516 188.921Z" fill="#363636"/>
<path d="M125.211 190H126.836L131.048 180.497V179.73H123.365V181.017H129.358L125.211 190Z" fill="#363636"/>
<path d="M136.12 190.208C138.343 190.208 139.825 188.986 139.825 187.153C139.825 185.905 138.98 184.839 137.888 184.488C138.707 184.15 139.409 183.201 139.409 182.161C139.409 180.575 138.083 179.522 136.12 179.522C134.144 179.522 132.818 180.575 132.818 182.161C132.818 183.201 133.52 184.15 134.339 184.488C133.247 184.839 132.402 185.905 132.402 187.153C132.402 188.986 133.884 190.208 136.12 190.208ZM136.12 183.981C135.002 183.981 134.235 183.292 134.235 182.304C134.235 181.394 135.002 180.77 136.12 180.77C137.225 180.77 137.992 181.394 137.992 182.304C137.992 183.292 137.225 183.981 136.12 183.981ZM136.12 188.96C134.768 188.96 133.871 188.206 133.871 187.114C133.871 185.97 134.768 185.19 136.12 185.19C137.472 185.19 138.356 185.97 138.356 187.114C138.356 188.206 137.472 188.96 136.12 188.96Z" fill="#363636"/>
<path d="M145.522 190.208C147.888 190.208 149.435 188.154 149.435 184.475C149.435 181.407 148.161 179.522 145.6 179.522C143.546 179.522 142.025 180.978 142.025 182.876C142.025 185.008 143.403 186.308 145.457 186.308C146.575 186.308 147.615 185.762 148.083 184.956C147.927 187.478 147.004 188.921 145.574 188.921C144.443 188.921 143.663 188.271 143.481 187.166L142.064 187.179C142.285 189.09 143.572 190.208 145.522 190.208ZM145.561 185.086C144.313 185.086 143.429 184.202 143.429 182.954C143.429 181.706 144.326 180.809 145.587 180.809C146.848 180.809 147.745 181.693 147.745 182.941C147.745 184.202 146.835 185.086 145.561 185.086Z" fill="#363636"/>
<path d="M47.1591 165.208C48.3811 165.208 49.2131 164.662 49.5901 163.726C49.6681 164.792 50.2141 165.299 51.4491 164.948L51.4751 164.012C50.9421 164.064 50.8381 163.869 50.8381 163.31V160.489C50.8381 158.942 49.8501 158.032 47.9911 158.032C46.1581 158.032 45.1051 158.955 45.1051 160.528H46.3531C46.3531 159.683 46.9381 159.163 47.9651 159.163C49.0441 159.163 49.5251 159.657 49.5121 160.489V160.879L47.8871 161.061C45.8981 161.282 44.8711 162.01 44.8711 163.206C44.8711 164.233 45.6121 165.208 47.1591 165.208ZM47.4451 164.168C46.5091 164.168 46.1841 163.648 46.1841 163.18C46.1841 162.543 46.8861 162.205 48.2641 162.049L49.4861 161.919C49.4471 163.18 48.5761 164.168 47.4451 164.168Z" fill="#363636"/>
<path d="M57.0548 165.208C58.8228 165.208 60.0708 163.713 60.0708 161.594C60.0708 159.514 58.8228 158.032 57.0548 158.032C56.0668 158.032 55.2868 158.513 54.8188 159.293V154.73H53.4928V165H54.8188V163.947C55.2868 164.74 56.0668 165.221 57.0548 165.208ZM56.7688 164.077C55.5988 164.077 54.7668 163.05 54.7668 161.607C54.7668 160.177 55.5988 159.163 56.7688 159.163C57.9388 159.163 58.7578 160.177 58.7578 161.607C58.7578 163.05 57.9388 164.077 56.7688 164.077Z" fill="#363636"/>
<path d="M65.4368 165.208C67.0358 165.208 68.2188 164.168 68.4268 162.777H67.1138C66.9838 163.518 66.3338 164.077 65.3978 164.077C64.2018 164.077 63.3438 163.063 63.3438 161.607C63.3438 160.164 64.2018 159.163 65.3978 159.163C66.3078 159.163 66.9708 159.735 67.1138 160.489H68.4268C68.2188 159.085 67.0228 158.032 65.4368 158.032C63.4218 158.032 62.0048 159.514 62.0048 161.607C62.0048 163.713 63.4218 165.208 65.4368 165.208Z" fill="#363636"/>
<path d="M73.3106 165.208C74.2986 165.221 75.0786 164.74 75.5466 163.947V165H76.8726V154.73H75.5466V159.293C75.0786 158.513 74.2986 158.032 73.3106 158.032C71.5426 158.032 70.2946 159.514 70.2946 161.594C70.2946 163.713 71.5426 165.208 73.3106 165.208ZM73.5966 164.077C72.4266 164.077 71.6076 163.05 71.6076 161.607C71.6076 160.177 72.4266 159.163 73.5966 159.163C74.7666 159.163 75.5986 160.177 75.5986 161.607C75.5986 163.05 74.7666 164.077 73.5966 164.077Z" fill="#363636"/>
<path d="M82.4856 165.208C84.0846 165.208 85.2546 164.233 85.4626 163.037H84.1366C84.0066 163.583 83.3956 164.116 82.4856 164.116C81.2376 164.116 80.5096 163.271 80.4186 162.036H85.5276V161.516C85.5276 159.267 84.1366 158.032 82.4856 158.032C80.4836 158.032 79.0536 159.514 79.0536 161.607C79.0536 163.713 80.4836 165.208 82.4856 165.208ZM80.4186 161.048C80.5876 159.917 81.2896 159.163 82.4466 159.163C83.4476 159.163 84.1496 159.943 84.2016 161.048H80.4186Z" fill="#363636"/>
<path d="M88.3982 165H89.7112V159.41H91.6612V158.24H89.7112V157.33C89.7112 156.238 90.1142 155.861 91.0892 155.861H91.6222V154.743L91.0632 154.73C89.2302 154.665 88.3852 155.536 88.3982 157.447V158.24H86.7992V159.41H88.3982V165Z" fill="#363636"/>
<path d="M96.1816 167.808C98.2096 167.808 99.4186 166.742 99.4186 164.597V158.24H98.1056V159.215C97.6506 158.474 96.9096 158.032 95.8566 158.032C94.0106 158.032 92.8406 159.501 92.8406 161.607C92.8406 163.713 94.0106 165.104 95.8566 165.104C96.9096 165.117 97.6506 164.688 98.1056 163.973V164.597C98.1186 166.066 97.4036 166.768 96.2206 166.768C95.1676 166.768 94.3876 166.378 94.3096 165.572H92.9706C93.1266 167.054 94.3356 167.808 96.1816 167.808ZM96.1556 163.999C94.9856 163.999 94.1666 163.037 94.1666 161.581C94.1666 160.138 94.9856 159.137 96.1556 159.137C97.3386 159.137 98.1576 160.138 98.1576 161.581C98.1576 163.037 97.3386 163.999 96.1556 163.999Z" fill="#363636"/>
<path d="M101.872 165H103.198V161.62C103.198 160.164 103.991 159.163 105.187 159.163C106.175 159.163 106.721 159.839 106.721 160.97V165H108.06V160.918C108.06 158.994 107.215 158.032 105.577 158.032C104.459 158.032 103.679 158.552 103.198 159.358V154.73H101.872V165Z" fill="#363636"/>
<path d="M111.04 157.213C111.547 157.213 111.976 156.81 111.976 156.277C111.976 155.757 111.573 155.341 111.04 155.341C110.507 155.341 110.091 155.757 110.091 156.277C110.091 156.81 110.507 157.213 111.04 157.213ZM110.39 165H111.703V158.24H110.39V165Z" fill="#363636"/>
<path d="M114.797 157.213C115.304 157.213 115.72 156.81 115.72 156.277C115.72 155.757 115.317 155.341 114.797 155.341C114.251 155.341 113.848 155.757 113.848 156.277C113.848 156.81 114.251 157.213 114.797 157.213ZM112.535 167.6H112.821C114.524 167.6 115.46 166.911 115.46 165.013V158.24H114.134V164.87C114.134 166.079 113.705 166.495 112.821 166.495H112.535V167.6Z" fill="#363636"/>
<path d="M117.879 165H119.205V162.348L120.05 161.646L122.793 165H124.405L120.96 160.879L124.145 158.24H122.403L119.205 160.944V154.73H117.879V165Z" fill="#363636"/>
<path d="M126.041 165H127.367V154.73H126.041V165Z" fill="#363636"/>
<path d="M129.811 165H131.137V161.659C131.137 160.216 131.93 159.163 133.126 159.163C134.114 159.163 134.66 159.878 134.66 161.009V165H135.999V161.659C135.999 160.216 136.792 159.163 137.988 159.163C138.976 159.163 139.522 159.878 139.522 161.009V165H140.848V160.97C140.848 159.033 140.016 158.032 138.378 158.032C137.247 158.032 136.35 158.565 135.778 159.514C135.44 158.539 134.673 158.032 133.516 158.032C132.398 158.032 131.618 158.578 131.137 159.397V158.24H129.811V165Z" fill="#363636"/>
<path d="M143.192 165H144.518V161.659C144.518 160.216 145.311 159.163 146.507 159.163C147.495 159.163 148.041 159.878 148.041 161.009V165H149.38V160.97C149.38 159.033 148.535 158.032 146.897 158.032C145.779 158.032 144.999 158.578 144.518 159.397V158.24H143.192V165Z" fill="#363636"/>
<path d="M154.882 165.208C156.897 165.208 158.327 163.713 158.327 161.607C158.327 159.514 156.897 158.032 154.882 158.032C152.88 158.032 151.45 159.514 151.45 161.607C151.45 163.713 152.88 165.208 154.882 165.208ZM154.882 164.077C153.66 164.077 152.789 163.05 152.789 161.607C152.789 160.177 153.66 159.163 154.882 159.163C156.117 159.163 156.988 160.177 156.988 161.607C156.988 163.05 156.117 164.077 154.882 164.077Z" fill="#363636"/>
<path d="M160.38 167.6H161.706V163.947C162.174 164.727 162.954 165.208 163.942 165.208C165.71 165.208 166.958 163.726 166.958 161.646C166.958 159.527 165.71 158.032 163.942 158.032C162.954 158.019 162.174 158.5 161.706 159.293V158.24H160.38V167.6ZM163.656 164.077C162.486 164.077 161.654 163.063 161.654 161.633C161.654 160.19 162.486 159.163 163.656 159.163C164.826 159.163 165.645 160.19 165.645 161.633C165.645 163.063 164.826 164.077 163.656 164.077Z" fill="#363636"/>
<path d="M174.157 167.6H175.47V158.24H174.157V159.293C173.689 158.5 172.909 158.019 171.921 158.032C170.153 158.032 168.892 159.527 168.892 161.646C168.892 163.726 170.153 165.208 171.921 165.208C172.909 165.208 173.689 164.727 174.157 163.947V167.6ZM172.207 164.077C171.037 164.077 170.218 163.063 170.218 161.633C170.218 160.19 171.037 159.163 172.207 159.163C173.377 159.163 174.209 160.19 174.209 161.633C174.209 163.063 173.377 164.077 172.207 164.077Z" fill="#363636"/>
<path d="M177.746 165H179.007V161.191C179.007 159.969 180.112 159.397 181.711 159.397V158.162C180.372 158.162 179.449 158.617 179.007 159.527V158.24H177.746V165Z" fill="#363636"/>
<path d="M185.847 165.208C187.641 165.208 188.746 164.389 188.746 163.141C188.746 160.255 184.326 161.75 184.326 160.099C184.326 159.488 184.872 159.033 185.795 159.033C186.809 159.033 187.433 159.54 187.472 160.385H188.733C188.629 158.942 187.55 158.032 185.912 158.032C184.118 158.032 183.013 158.903 183.013 160.151C183.013 162.959 187.42 161.438 187.42 163.154C187.42 163.752 186.861 164.207 185.899 164.207C184.82 164.207 184.131 163.726 184.079 162.894H182.818C182.857 164.324 184.014 165.208 185.847 165.208Z" fill="#363636"/>
<path d="M194.466 164.987V163.83C192.919 163.947 192.867 163.804 192.867 162.686V159.41H194.804V158.24H192.867V156.42H191.541V158.24H190.098V159.41H191.541V163.18C191.502 165.091 192.529 165.169 194.466 164.987Z" fill="#363636"/>
<path d="M203.011 158.24H201.698V161.581C201.698 163.024 200.892 164.077 199.696 164.077C198.721 164.077 198.162 163.362 198.162 162.231V158.24H196.836V162.27C196.836 164.207 197.668 165.208 199.306 165.208C200.424 165.208 201.217 164.662 201.698 163.843V165H203.011V158.24Z" fill="#363636"/>
<path d="M207.562 165H209.031L212.138 158.24H210.721L208.29 163.531L205.859 158.24H204.455L207.562 165Z" fill="#363636"/>
<path d="M215.746 165H217.111L218.905 160.047L220.686 165H222.051L224.365 158.24H222.948L221.336 163.297L219.555 158.24H218.242L216.448 163.297L214.836 158.24H213.432L215.746 165Z" fill="#363636"/>
<path d="M225.567 165H227.192L229.259 162.543L231.326 165H232.951L230.117 161.646L233.003 158.24H231.391L229.298 160.723L227.205 158.24H225.593L228.44 161.62L225.567 165Z" fill="#363636"/>
<path d="M234.643 167.6H235.293C236.957 167.6 237.997 167.106 238.634 165.507L241.403 158.24H239.999L238.049 163.57L235.54 158.24H234.123L237.36 165.195C236.853 166.131 236.411 166.456 235.462 166.456H234.643V167.6Z" fill="#363636"/>
<path d="M242.683 165H248.741V163.791H244.685L248.923 159.02V158.24H242.93V159.449H247.038L242.683 164.311V165Z" fill="#363636"/>
<path fill-rule="evenodd" clip-rule="evenodd" d="M353 120H46V119H353V120Z" fill="black"/>
<path fill-rule="evenodd" clip-rule="evenodd" d="M353 201H46V200H353V201Z" fill="black"/>
<rect x="478.5" y="29.5" width="279" height="222" fill="#F0EFED" stroke="black"/>
<rect x="478.5" y="251.5" width="214" height="222" fill="#FAF9F7" stroke="black"/>
<rect x="693.5" y="251.5" width="64" height="222" fill="#363636" stroke="#363636"/>
<path d="M498.24 50.332L497.837 52.412H499.618V53.283H497.668L497.135 56H496.212L496.745 53.283H494.886L494.379 56H493.469L493.963 53.283H492.325V52.412H494.132L494.548 50.332H492.806V49.474H494.704L495.224 46.718H496.16L495.64 49.474H497.512L498.032 46.718H498.929L498.409 49.474H500.06V50.332H498.24ZM495.055 52.412H496.914L497.317 50.332H495.458L495.055 52.412ZM502.068 56H503.42V51.359H509.192V50.098H503.42V46.965H509.647V45.73H502.068V56ZM515.794 56.208C518.433 56.208 519.993 54.206 519.993 50.813C519.993 47.485 518.433 45.522 515.794 45.522C513.103 45.522 511.504 47.485 511.504 50.813C511.504 54.206 513.103 56.208 515.794 56.208ZM515.794 54.921C513.987 54.921 512.934 53.374 512.934 50.748C512.934 48.278 513.987 46.809 515.794 46.809C517.536 46.809 518.576 48.278 518.576 50.748C518.576 53.374 517.536 54.921 515.794 54.921ZM522.431 56H530.075V54.713H523.783V51.398H529.555V50.137H523.783V47.017H530.01V45.73H522.431V56ZM532.701 56H534.053V51.359H539.825V50.098H534.053V46.965H540.28V45.73H532.701V56ZM542.514 56H550.158V54.713H543.866V51.398H549.638V50.137H543.866V47.017H550.093V45.73H542.514V56ZM552.784 56H556.879C560.038 56 562.131 54.05 562.131 50.852C562.131 47.615 560.09 45.73 556.879 45.73H552.784V56ZM554.136 54.765V46.965H556.879C559.284 46.965 560.714 48.408 560.714 50.839C560.714 53.309 559.284 54.765 556.879 54.765H554.136Z" fill="black"/>
<path d="M498.24 270.332L497.837 272.412H499.618V273.283H497.668L497.135 276H496.212L496.745 273.283H494.886L494.379 276H493.469L493.963 273.283H492.325V272.412H494.132L494.548 270.332H492.806V269.474H494.704L495.224 266.718H496.16L495.64 269.474H497.512L498.032 266.718H498.929L498.409 269.474H500.06V270.332H498.24ZM495.055 272.412H496.914L497.317 270.332H495.458L495.055 272.412ZM502.068 276H503.42V271.359H509.192V270.098H503.42V266.965H509.647V265.73H502.068V276ZM509.981 276H511.476L512.607 273.413H518.067L519.198 276H520.693L516.169 265.73H514.505L509.981 276ZM513.166 272.126L515.337 267.147L517.508 272.126H513.166ZM522.608 276H523.96V271.359H529.732V270.098H523.96V266.965H530.187V265.73H522.608V276ZM535.632 276.208C537.998 276.208 539.545 274.154 539.545 270.475C539.545 267.407 538.271 265.522 535.71 265.522C533.656 265.522 532.135 266.978 532.135 268.876C532.135 271.008 533.513 272.308 535.567 272.308C536.685 272.308 537.725 271.762 538.193 270.956C538.037 273.478 537.114 274.921 535.684 274.921C534.553 274.921 533.773 274.271 533.591 273.166L532.174 273.179C532.395 275.09 533.682 276.208 535.632 276.208ZM535.671 271.086C534.423 271.086 533.539 270.202 533.539 268.954C533.539 267.706 534.436 266.809 535.697 266.809C536.958 266.809 537.855 267.693 537.855 268.941C537.855 270.202 536.945 271.086 535.671 271.086ZM542.082 276H543.434V271.359H549.206V270.098H543.434V266.965H549.661V265.73H542.082V276ZM552.948 276H554.573L558.785 266.497V265.73H551.102V267.017H557.095L552.948 276Z" fill="black"/>
<path d="M742.332 318.76L744.412 319.163L744.412 317.382L745.283 317.382L745.283 319.332L748 319.865L748 320.788L745.283 320.255L745.283 322.114L748 322.621L748 323.531L745.283 323.037L745.283 324.675L744.412 324.675L744.412 322.868L742.332 322.452L742.332 324.194L741.474 324.194L741.474 322.296L738.718 321.776L738.718 320.84L741.474 321.36L741.474 319.488L738.718 318.968L738.718 318.071L741.474 318.591L741.474 316.94L742.332 316.94L742.332 318.76ZM744.412 321.945L744.412 320.086L742.332 319.683L742.332 321.542L744.412 321.945ZM748.208 311.643C748.208 309.446 746.83 307.964 744.867 307.964C742.943 307.964 741.864 309.381 741.851 311.162L738.601 308.081L737.73 308.081L737.73 315.14L739.017 315.14L739.017 310.239L742.28 313.203L743.034 312.488C742.943 312.254 742.878 311.877 742.878 311.565C742.878 310.2 743.658 309.316 744.828 309.316C746.102 309.316 746.921 310.226 746.921 311.656C746.921 313.06 745.985 313.983 744.581 314.035L744.581 315.413C746.7 315.413 748.208 313.879 748.208 311.643ZM748.208 302.116C748.208 300.062 746.752 298.541 744.672 298.541C742.722 298.541 741.422 299.919 741.422 301.973C741.422 303.091 741.968 304.131 742.774 304.599C740.252 304.443 738.809 303.533 738.809 302.09C738.809 300.959 739.459 300.179 740.564 299.997L740.551 298.58C738.64 298.801 737.522 300.088 737.522 302.038C737.522 304.404 739.537 305.925 743.034 305.925C746.284 305.925 748.208 304.677 748.208 302.116ZM746.921 302.103C746.921 303.364 746.037 304.261 744.789 304.261C743.528 304.261 742.644 303.351 742.644 302.077C742.644 300.829 743.528 299.945 744.776 299.945C746.024 299.945 746.921 300.842 746.921 302.103ZM748.208 292.69C748.208 290.493 746.83 289.011 744.867 289.011C742.943 289.011 741.864 290.428 741.851 292.209L738.601 289.128L737.73 289.128L737.73 296.187L739.017 296.187L739.017 291.286L742.28 294.25L743.034 293.535C742.943 293.301 742.878 292.924 742.878 292.612C742.878 291.247 743.658 290.363 744.828 290.363C746.102 290.363 746.921 291.273 746.921 292.703C746.921 294.107 745.985 295.03 744.581 295.082L744.581 296.46C746.7 296.46 748.208 294.926 748.208 292.69ZM748.208 283.163C748.208 281.109 746.752 279.588 744.672 279.588C742.722 279.588 741.422 280.966 741.422 283.02C741.422 284.138 741.968 285.178 742.774 285.646C740.252 285.49 738.809 284.58 738.809 283.137C738.809 282.006 739.459 281.226 740.564 281.044L740.551 279.627C738.64 279.848 737.522 281.135 737.522 283.085C737.522 285.451 739.537 286.972 743.034 286.972C746.284 286.972 748.208 285.724 748.208 283.163ZM746.921 283.15C746.921 284.411 746.037 285.308 744.789 285.308C743.528 285.308 742.644 284.398 742.644 283.124C742.644 281.876 743.528 280.992 744.776 280.992C746.024 280.992 746.921 281.889 746.921 283.15ZM748.208 273.737C748.208 271.54 746.83 270.058 744.867 270.058C742.943 270.058 741.864 271.475 741.851 273.256L738.601 270.175L737.73 270.175L737.73 277.234L739.017 277.234L739.017 272.333L742.28 275.297L743.034 274.582C742.943 274.348 742.878 273.971 742.878 273.659C742.878 272.294 743.658 271.41 744.828 271.41C746.102 271.41 746.921 272.32 746.921 273.75C746.921 275.154 745.985 276.077 744.581 276.129L744.581 277.507C746.7 277.507 748.208 275.973 748.208 273.737ZM748.208 264.21C748.208 262.156 746.752 260.635 744.672 260.635C742.722 260.635 741.422 262.013 741.422 264.067C741.422 265.185 741.968 266.225 742.774 266.693C740.252 266.537 738.809 265.627 738.809 264.184C738.809 263.053 739.459 262.273 740.564 262.091L740.551 260.674C738.64 260.895 737.522 262.182 737.522 264.132C737.522 266.498 739.537 268.019 743.034 268.019C746.284 268.019 748.208 266.771 748.208 264.21ZM746.921 264.197C746.921 265.458 746.037 266.355 744.789 266.355C743.528 266.355 742.644 265.445 742.644 264.171C742.644 262.923 743.528 262.039 744.776 262.039C746.024 262.039 746.921 262.936 746.921 264.197Z" fill="#F4F2EB"/>
</svg>
