<svg width="442" height="442" viewBox="0 0 442 442" fill="none" xmlns="http://www.w3.org/2000/svg">
<circle cx="221" cy="221" r="220" stroke="#F4F2EB" stroke-width="2"/>
<path d="M121.077 207.63C124.185 207.63 126.705 206.202 128.091 203.976L128.469 207H134.349V175.5H128.049V188.646C126.537 186.462 124.269 185.16 121.203 185.16C115.365 185.16 111.627 190.074 111.627 196.416C111.627 202.59 115.113 207.63 121.077 207.63ZM123.009 201.918C119.733 201.918 117.969 199.482 117.969 196.416C117.969 193.308 119.733 190.872 123.009 190.872C126.033 190.872 128.049 193.266 128.049 196.374C128.049 199.524 126.033 201.918 123.009 201.918ZM149.957 207.63C157.517 207.63 159.575 203.43 159.575 203.43V200.616H154.619C154.619 200.616 153.863 202.548 150.083 202.548C146.975 202.548 145.295 200.7 144.917 197.844H159.701C159.701 197.844 159.995 196.626 159.995 195.156C159.995 189.486 156.887 185.16 149.705 185.16C142.565 185.16 138.533 190.242 138.533 196.458C138.533 202.758 142.313 207.63 149.957 207.63ZM145.043 194.022C145.547 191.796 146.891 190.2 149.663 190.2C152.519 190.2 153.905 192.006 153.905 194.022H145.043ZM172.343 207.63C178.055 207.63 181.373 204.648 181.373 200.448C181.373 196.374 178.559 194.82 174.485 194.232L171.797 193.854C170.075 193.56 169.109 192.93 169.109 191.796C169.109 190.62 169.949 189.78 171.965 189.78C174.569 189.78 175.577 191.586 175.661 192.048H180.449V189.192C179.525 187.008 176.963 185.16 172.091 185.16C166.715 185.16 163.439 188.058 163.439 192.132C163.439 196.08 165.959 197.97 169.781 198.474L172.469 198.81C174.485 199.146 175.703 199.65 175.703 200.994C175.703 202.17 174.863 203.01 172.427 203.01C169.487 203.01 168.059 201.204 167.891 200.574H163.145V203.43C163.649 204.816 166.547 207.63 172.343 207.63ZM185.523 207H191.823V185.79H185.523V207ZM185.355 181.8H191.907V175.92H185.355V181.8ZM207.334 217.92C214.222 217.92 218.842 213.258 218.842 206.034V185.79H212.92L212.584 188.772C211.198 186.588 208.762 185.118 205.696 185.118C199.774 185.118 196.078 190.116 196.078 196.332C196.078 202.296 199.69 207.21 205.528 207.21C208.636 207.21 211.072 206.034 212.5 203.934V206.202C212.5 209.814 210.82 212.334 207.166 212.334C203.218 212.334 202.336 209.52 202.336 209.52H197.254V212.334C197.254 212.334 199.186 217.92 207.334 217.92ZM207.502 201.75C204.226 201.75 202.42 199.314 202.42 196.248C202.42 193.224 204.226 190.83 207.46 190.83C210.484 190.83 212.5 193.182 212.5 196.248C212.5 199.356 210.484 201.75 207.502 201.75ZM224.16 207H230.502V195.072C230.502 193.014 231.468 190.83 234.534 190.83C237.054 190.83 238.02 192.51 238.02 194.988V207H244.32V193.812C244.32 189.192 242.346 185.16 236.718 185.16C233.4 185.16 231.3 187.008 230.376 188.604L230.082 185.79H224.16V207ZM264.814 207.63C268.174 207.63 270.064 206.034 271.114 204.312L271.534 207H277.246V194.148C277.246 188.226 274.012 185.16 267.544 185.16C260.824 185.16 259.018 189.528 259.018 189.528V192.342H263.806C263.806 192.342 264.688 190.41 267.418 190.41C269.812 190.41 270.904 191.628 270.904 193.938V194.862C270.904 194.862 269.14 194.442 266.956 194.442C260.782 194.442 257.842 197.004 257.842 201.036C257.842 204.648 260.152 207.63 264.814 207.63ZM266.872 202.758C265.15 202.758 264.1 202.086 264.1 200.448C264.1 199.104 264.898 198.054 267.376 198.054C269.434 198.054 270.904 198.39 270.904 198.39V199.314C270.904 200.826 269.602 202.758 266.872 202.758ZM282.361 207H288.703V195.072C288.703 193.014 289.669 190.83 292.735 190.83C295.255 190.83 296.221 192.51 296.221 194.988V207H302.521V193.812C302.521 189.192 300.547 185.16 294.919 185.16C291.601 185.16 289.501 187.008 288.577 188.604L288.283 185.79H282.361V207ZM315.983 207.63C319.091 207.63 321.611 206.202 322.997 203.976L323.375 207H329.255V175.5H322.955V188.646C321.443 186.462 319.175 185.16 316.109 185.16C310.271 185.16 306.533 190.074 306.533 196.416C306.533 202.59 310.019 207.63 315.983 207.63ZM317.915 201.918C314.639 201.918 312.875 199.482 312.875 196.416C312.875 193.308 314.639 190.872 317.915 190.872C320.939 190.872 322.955 193.266 322.955 196.374C322.955 199.524 320.939 201.918 317.915 201.918ZM97.8214 266.63C100.929 266.63 103.449 265.202 104.835 262.976L105.213 266H111.093V234.5H104.793V247.646C103.281 245.462 101.013 244.16 97.9474 244.16C92.1094 244.16 88.3714 249.074 88.3714 255.416C88.3714 261.59 91.8574 266.63 97.8214 266.63ZM99.7534 260.918C96.4774 260.918 94.7134 258.482 94.7134 255.416C94.7134 252.308 96.4774 249.872 99.7534 249.872C102.777 249.872 104.793 252.266 104.793 255.374C104.793 258.524 102.777 260.918 99.7534 260.918ZM126.701 266.63C134.261 266.63 136.319 262.43 136.319 262.43V259.616H131.363C131.363 259.616 130.607 261.548 126.827 261.548C123.719 261.548 122.039 259.7 121.661 256.844H136.445C136.445 256.844 136.739 255.626 136.739 254.156C136.739 248.486 133.631 244.16 126.449 244.16C119.309 244.16 115.277 249.242 115.277 255.458C115.277 261.758 119.057 266.63 126.701 266.63ZM121.787 253.022C122.291 250.796 123.635 249.2 126.407 249.2C129.263 249.2 130.649 251.006 130.649 253.022H121.787ZM152.288 266L160.268 247.604V244.79H154.892L149.684 257.684L144.392 244.79H138.68V247.73L146.576 266H152.288ZM173.458 266.63C181.018 266.63 183.076 262.43 183.076 262.43V259.616H178.12C178.12 259.616 177.364 261.548 173.584 261.548C170.476 261.548 168.796 259.7 168.418 256.844H183.202C183.202 256.844 183.496 255.626 183.496 254.156C183.496 248.486 180.388 244.16 173.206 244.16C166.066 244.16 162.034 249.242 162.034 255.458C162.034 261.758 165.814 266.63 173.458 266.63ZM168.544 253.022C169.048 250.796 170.392 249.2 173.164 249.2C176.02 249.2 177.406 251.006 177.406 253.022H168.544ZM187.697 266H194.039V234.5H187.697V266ZM209.465 266.63C216.479 266.63 220.679 261.548 220.679 255.332C220.679 249.158 216.479 244.16 209.465 244.16C202.409 244.16 198.251 249.158 198.251 255.332C198.251 261.548 202.409 266.63 209.465 266.63ZM209.465 261.128C206.147 261.128 204.593 258.524 204.593 255.332C204.593 252.224 206.147 249.662 209.465 249.662C212.783 249.662 214.337 252.224 214.337 255.332C214.337 258.524 212.783 261.128 209.465 261.128ZM224.898 276.5H231.24V263.144C232.71 265.328 235.104 266.63 238.17 266.63C243.966 266.63 247.62 261.674 247.62 255.332C247.62 249.158 244.176 244.16 238.17 244.16C235.062 244.16 232.5 245.588 231.114 247.814L230.82 244.79H224.898V276.5ZM236.238 260.918C233.214 260.918 231.24 258.482 231.24 255.332C231.24 252.224 233.214 249.872 236.238 249.872C239.556 249.872 241.278 252.266 241.278 255.332C241.278 258.482 239.556 260.918 236.238 260.918ZM251.845 266H258.145V253.862C258.145 251.888 258.985 249.83 261.421 249.83C263.563 249.83 264.445 251.258 264.445 253.442V266H270.535V253.526C270.535 251.762 271.417 249.83 273.811 249.83C276.037 249.83 276.835 251.342 276.835 253.61V266H283.135V252.812C283.135 248.066 281.119 244.16 275.827 244.16C272.509 244.16 270.577 246.05 269.527 247.814C268.645 245.714 266.713 244.16 263.605 244.16C260.707 244.16 258.943 245.882 258.019 247.478L257.725 244.79H251.845V266ZM298.556 266.63C306.116 266.63 308.174 262.43 308.174 262.43V259.616H303.218C303.218 259.616 302.462 261.548 298.682 261.548C295.574 261.548 293.894 259.7 293.516 256.844H308.3C308.3 256.844 308.594 255.626 308.594 254.156C308.594 248.486 305.486 244.16 298.304 244.16C291.164 244.16 287.132 249.242 287.132 255.458C287.132 261.758 290.912 266.63 298.556 266.63ZM293.642 253.022C294.146 250.796 295.49 249.2 298.262 249.2C301.118 249.2 302.504 251.006 302.504 253.022H293.642ZM312.794 266H319.136V254.072C319.136 252.014 320.102 249.83 323.168 249.83C325.688 249.83 326.654 251.51 326.654 253.988V266H332.954V252.812C332.954 248.192 330.98 244.16 325.352 244.16C322.034 244.16 319.934 246.008 319.01 247.604L318.716 244.79H312.794V266ZM347.513 266.63C351.503 266.63 353.687 264.824 354.569 262.598V259.742H350.033C350.033 260.204 349.697 261.38 348.017 261.38C346.379 261.38 345.665 260.414 345.665 258.272V249.956H354.065V244.79H345.665V239.414H339.743L339.407 244.79H336.173V249.956H339.323V258.482C339.323 263.564 342.305 266.63 347.513 266.63Z" fill="#F4F2EB"/>
</svg>
