<svg xmlns="http://www.w3.org/2000/svg" viewBox="0 0 599.99 402.45"><defs><style>.cls-1{fill:#fff;}</style></defs><g id="Layer_2" data-name="Layer 2"><g id="Layer_1-2" data-name="Layer 1"><g id="ilYkaT.tif"><path class="cls-1" d="M238.66,215l-.32,3.15,0,.13c-.22,1.59-2.56,10.39-4.23,21.36-1.52,18.59-3.23,37.18-4.53,55.86-1.74,25.21-1.68,50.79-12,74.43-5.44,12.44-13.67,22.2-27.29,26.72-12.41,4.14-22.63,1-28.46-10.64-4.08-8.18-7.55-17.82-7.23-26.53.89-24,3.87-47.86,6.09-71.72.89-9.64,2.14-19.23,2.84-28.88.33-4.52.48-9.29-.57-13.71-3.4-14.32,10.62-32.23,25.74-32.48,5.37-.08,6,3,5.46,7-2,14.21-4.59,28.35-6.08,42.67-1.92,18.33-3.62,36.77-4.17,55.28-.23,7.88,2.5,12.28,5.23,13,7.49,2.07,9.42-5.43,10.31-10.5q4.63-26.72,7.53-53.7c1-9.49.61-19.23.43-28.87-.26-13,10.24-26.42,23.13-29.21C236,207.18,239.05,209.14,238.66,215Z"/><path class="cls-1" d="M299.58,278.38c-5-4.81-5.13-7.72-1.06-12.33,9.39-10.58,13.41-23.51,13.66-37.85.22-13.56-7.06-22.88-20.89-24.27-7.78-.79-16.4-.28-23.42,2.39-10.73,4.11-24.4,4.42-26.81,12.06-1.46,4.62-.55,37.38-.94,45.21-1.82,36.86-4.22,73.76-6.66,110.74-.75,11.25,2.43,18.39,13.6,20.84,9.85,2.16,21,3.58,30.23,1.13C323.14,384.06,336.11,313.44,299.58,278.38Zm-32.73-44.21c0-5.11,6.36-7.34,10.73-3.73,5.65,4.64,5.64,12.73,5.34,19.05s-1.66,12.69-4.91,18.09c-2.6,4.34-5.3,4.57-9.89,4.46C267.59,257.77,266.85,245.94,266.85,234.17Zm16.07,103.59c-1.27,3.18-5.91,7-8.89,6.75-7.07-.52-8.5-11.89-8.55-17.65,0-.6,0-1.14,0-1.59a66.5,66.5,0,0,1,4.91-23.17,6.32,6.32,0,0,1,5.74-4.1c1.54-.09,4.08,2.58,5.06,4.52C287.11,314.23,287.53,326.24,282.92,337.76Z"/><path class="cls-1" d="M466.87,399.43c-13.08.2-16.89-6.44-12.74-20.76,6-20.68,13.07-41.11,16.77-62.23,6-34.05,9.75-68.53,14-102.76.57-4.69-.93-10.14-2.62-14.89-2.57-7.19-1-12.37,5.14-15.08C499,178.59,511.49,178,523,185.12c5.21,3.24,10,10,12,16,11.58,35.34,22,70.91,33.33,106.12,4,12.3,9.31,24.26,14.77,36A56.38,56.38,0,0,0,593.54,358c7.85,8.21,8.89,18.86,1.16,26.48s-17,12.37-28.1,12.89c-11.33.53-17.66-4.51-20-16.07-2.23-11-4-22.1-6.24-33.11-2.82-13.8-6.52-16.78-19.85-16.62-16.87.2-20.5,3.52-22.67,20.56-1.12,8.78-1.69,17.75-3.77,26.27C490.69,392.26,481,399.21,466.87,399.43ZM512.48,249.9c-.2-.79-1-1-1.74-1-3.13-.08-5.87,28.5-6.8,42.51-.42,6.17,5.53,5.65,9.62,5.38,4.41-.29,10-.79,8.66-7.16C519.48,276.48,515.88,263.45,512.48,249.9Z"/><path class="cls-1" d="M259,6.58c-1.71,7.56-1.43,15.28-6.45,20.49-2.67,2.77-8.21,3.66-13.56,3.58-1.68,0-3.05-.22-3.6.72-.73,1.28-.33,4.12-.55,7.39-2.88,42.16-9.71,83.77-15.63,125.66-2.31,16.43-16.13,24.15-30.81,30a6.25,6.25,0,0,1-2.27.45c-3.71,0-8.84,1.2-10.75-.65s-1.81-7.13-1-10.42c4.14-16.37,9.27-32.42,13.17-48.79l.72-3c4.08-16.67,9-33,13.25-49.57,2.11-8.24,13.45-48.34,10.15-50-2.18-1.07-10.51,3.3-14.87,4.67a4.39,4.39,0,0,1-5.57-4.43c.93-8.47-4-19.21-2-21.85,3.62-4.62,56.55-9,62.73-9.94C256.9.21,260.11,1.6,259,6.58Z"/><path class="cls-1" d="M458.72,295.87c.59,20.52-.84,45.23-11.1,68.12-11.83,26.42-37.48,38.56-64.69,30.7-15.73-4.55-21-12.43-19.57-28.62,3.52-39.48,4.32-79.05.82-118.81a178.32,178.32,0,0,0-4.13-23.3c-2.88-12.9.39-20.79,11.62-26.67,25.78-13.49,55-3.57,69.52,23.44C453.24,243.09,457.41,266.9,458.72,295.87Zm-58.37,40.8c.63,7.85,4.15,9.55,7.17,8.22,8.93-3.93,13.08-17.76,14-25.19,3.06-24.6,1.14-49.4-3.62-74.1-1.28-6.62-5.87-26.08-15.94-25-5.41.61-5.58,6.79-5.69,11.15-.48,18.08,1,36.59,1.7,54.75C398.57,303.17,399,320,400.35,336.67Z"/><path class="cls-1" d="M302.59,22.18c-1.18-9.92,13.56-23.57,23.19-20.68,1.84.55,4.25,4.78,4.21,7.05-.15,8.76-1.65,17.37-1.81,26.15-.4,23.33.4,46.85-.78,70.11a197.48,197.48,0,0,1-6.78,43.27c-5,17.63-16.62,30.11-36,33.84-9.63,1.86-17.45-1.69-23.53-9.83-9.76-13.07-11.39-27.74-10.21-42.26,2.14-26.39,5.61-52.5,8-78.74.86-9.39,3.82-18.79-1.59-28.76-1.08-2,0-5.88,1.42-7.94C264.42,6.09,273.19,2,283.44.91c5.22-.56,6.93,2.23,6.32,7.49-2.62,22.82-5.19,45.69-7.05,68.74-.68,8.45-1.06,32,6.54,32.85,9.21,1.05,12.83-20.89,13.47-29.29C305.5,43.93,303.63,30.79,302.59,22.18Z"/><path class="cls-1" d="M406.3,93.23c.51,16.6-.1,35.54-7.66,52.77s-20.23,28.09-40.92,27.28c-16.69-.64-24.08-9.83-23.5-26.3,1.16-33.37,1.64-66.77,1.86-100.13.05-6.65-1.6-13.57-3.15-20.33-2.58-11.26,3.67-21.86,14.5-24.11,15.65-3.24,31.83,4.13,40.79,19.08C401.36,43.4,405,66.87,406.3,93.23ZM359.07,70c1.81,16.58,4.17,33.12,6,49.77.16,1.52.82,4.35,2.27,5.25a4.24,4.24,0,0,0,3,.45,7,7,0,0,0,4.12-2.19,29.39,29.39,0,0,0,4.7-10.84c3.95-19.42,2.15-39.51-1.64-59.23-4.17-21.69-7.91-31.15-13.44-30-10,2-6.75,30.31-5.17,45.1Z"/><path class="cls-1" d="M155.54,268.08c3,33.86-5.21,66.56-18.73,97.32a88.37,88.37,0,0,1-16.67,25.66c-15,15.55-35.31,9.88-40.76-11.38a132.6,132.6,0,0,1-4.19-34.35,240.18,240.18,0,0,1,20.67-94,84.92,84.92,0,0,1,19.26-27.24c12-11.18,26.95-6.86,32.64,9A141.24,141.24,0,0,1,155.54,268.08ZM133,260.75c-.08-9.49-2.33-15.93-8.41-15.5-5.32.37-8.36,7.49-10.13,11.22-10,21.06-13.88,43.76-16,67.22-.38,4.25-1.41,18.87,6.34,20,5.87.84,12.08-11.11,13.87-15.28C121.25,322.32,133.13,283.05,133,260.75Z"/><path class="cls-1" d="M506.87,117.18a134.73,134.73,0,0,1-.63,14.64c-1,9.67-1.06,21.21-9.86,26.42-7.69,4.56-17.35,1.69-24.53-4.18-3.61-2.95-7.26-6.37-9.68-10.29-24.35-39.48-32.12-81.43-26.61-124.67,1-8,4.49-15.54,13.33-17.35,9.79-2,18.36,2.67,24.25,10.86,10.87,15.11,19.54,34.83,24,49C502.84,79.59,506.67,98.52,506.87,117.18Zm-26.5-33.11c-1.13-25.72-15-68.28-22.29-61.43a9.08,9.08,0,0,0-2.14,3.84c-4,12.06-2.25,29.81,0,42.74,1.94,11,11,36.92,17.62,36.92,2.12,0,4.65-3.32,5.22-5.75A59.39,59.39,0,0,0,480.37,84.07Z"/><path class="cls-1" d="M356.39,286.47q.09,2.91.2,5.82c1,27.86,2.41,55.5,3.93,83.52.28,5.11-2.19,11.66-5.75,15.1-5,4.81-11.84,8.28-18.57,10.59-8.95,3.06-13.64-1.45-13-11,1.31-19.93,3.41-39.77,3.74-59.71.47-28.84-.18-57.73-.79-86.58a28.39,28.39,0,0,0-4-13.52c-4.12-6.74-3.43-12.7,1.16-17.23a83.91,83.91,0,0,1,18.59-14.09c8.06-4.38,12.15-1.49,12.56,8C355.54,233.41,355.57,260.09,356.39,286.47Z"/><path class="cls-1" d="M71.26,339.2C70,358.76,68.8,377.39,54.7,393.31a11,11,0,0,1-6.6,3.56c-11.57,1-23.28,2.47-35,1.85s-15.62-6.19-11.58-16.59q11-28.2,23.8-55.48c10.26-21.82,21.4-43.12,32-64.53a32.06,32.06,0,0,0,1.6-4.23,2.37,2.37,0,0,0-2.6-2.93c-9.85,1.14-13.85,9.21-19.88,14.57a2.42,2.42,0,0,1-3.88-1.22c-4-17.22,7.45-36.29,23.91-39.2a229.61,229.61,0,0,1,24.72-2.77c8.13-.55,10.46,2.29,8.44,10-.88,3.33-2.72,6.38-4.13,9.55-13.69,30.8-26.95,62-41.13,93.05-4,8.85,2.91,9.63,5.46,9.42a27.26,27.26,0,0,0,6.8-1.19c2.48-.88,4.13-3.61,6.25-5.4A43,43,0,0,1,67.74,338C68.71,337.35,71.28,336.35,71.26,339.2Z"/><path class="cls-1" d="M447.21,148.29c.45,10.11-10.24,21.74-19.85,22.09-6.73.25-7.41-4.64-7.8-9.45-1.07-12.88-1.39-25.79-3.06-38.63-3.68-28.49-7.92-57-12.18-85.46a35.23,35.23,0,0,0-4.05-11C396,18,396.34,13.68,402.54,8.58a33.35,33.35,0,0,1,6.13-3.9c7.09-3.56,10.85-1.59,12.36,6.77,2.21,12.23,3.78,24.52,6.16,36.73,6.18,31.56,12.64,63.06,19,94.55C446.58,144.76,446.93,146.8,447.21,148.29Z"/></g><line class="cls-1" x1="238.31" y1="218.29" x2="237.92" y2="222"/><path class="cls-1" d="M189.31,18.05l0-.11c-.11,1.88-.22,3.51-.26,4.33-.13,2.59-.86,4.75-1.45,5.28-2.21,2-8.24.74-11.3.21a34.81,34.81,0,0,0-4.53-.56,19.34,19.34,0,0,0-7.71,1.17,13.81,13.81,0,0,0-5.59,3.9,14.36,14.36,0,0,0-3,6.25,21.39,21.39,0,0,0,0,8.21c.15.86.34,1.71.57,2.56a51.66,51.66,0,0,0,5.61,13.87c16,25.62,14.68,51,6.84,76.49-6.09,19.87-16.76,36.78-33.22,50-10.09,8.11-21.79,13.12-35.63,13.56-16,.53-27.39-8.14-28.79-23.45-2.53-27.51,7.47-50.29,26.3-69.06a16.62,16.62,0,0,1,8.12-4,4.5,4.5,0,0,1,3.58.48c1.83,1.28,2.46,4.48,2.32,6.37-.43,5.89-2.52,11.67-2.1,17.53.28,4.06,3,10.81,5.77,11.6,3.79,1.1,10-1.09,12.78-4,10.16-10.34,10.94-23.71,6.82-37.62a134.23,134.23,0,0,0-10.15-25.65C107.2,43.58,130.91,2.22,170.63.1c11.74-.62,16.82,1.54,18.26,9.52A41.31,41.31,0,0,1,189.31,18.05Z"/></g></g></svg>