<svg width="253" height="9" viewBox="0 0 253 9" fill="none" xmlns="http://www.w3.org/2000/svg">
<g clip-path="url(#clip0)">
<path d="M253 9C249.076 9 247.12 6.88389 245.228 4.83309C243.387 2.83454 241.647 0.953556 238.117 0.953556C234.599 0.953556 232.847 2.83454 231.006 4.83309C229.113 6.88389 227.145 9 223.234 9C219.31 9 217.354 6.88389 215.462 4.83309C213.621 2.83454 211.881 0.953556 208.351 0.953556C204.833 0.953556 203.081 2.83454 201.239 4.83309C199.347 6.88389 197.379 9 193.468 9C189.544 9 187.588 6.88389 185.696 4.83309C183.855 2.83454 182.115 0.953556 178.585 0.953556C175.067 0.953556 173.314 2.83454 171.473 4.83309C169.581 6.88389 167.613 9 163.701 9C159.777 9 157.822 6.88389 155.93 4.83309C154.088 2.83454 152.349 0.953556 148.818 0.953556C145.288 0.953556 143.548 2.83454 141.707 4.83309C139.815 6.88389 137.846 9 133.935 9C130.011 9 128.056 6.88389 126.163 4.83309C124.322 2.83454 122.582 0.953556 119.052 0.953556C115.522 0.953556 113.782 2.83454 111.941 4.83309C110.049 6.88389 108.08 9 104.169 9C100.245 9 98.2894 6.88389 96.3973 4.83309C94.5559 2.83454 92.8162 0.953556 89.2859 0.953556C85.7683 0.953556 84.0159 2.83454 82.1745 4.83309C80.2824 6.88389 78.3141 9 74.4028 9C70.4788 9 68.5232 6.88389 66.6311 4.83309C64.7897 2.83454 63.05 0.953556 59.5197 0.953556C56.0021 0.953556 54.2497 2.83454 52.4083 4.83309C50.5162 6.88389 48.5479 9 44.6366 9C40.7253 9 38.757 6.88389 36.8649 4.83309C35.0235 2.83454 33.2838 0.953556 29.7535 0.953556C26.2359 0.953556 24.4835 2.83454 22.6421 4.83309C20.75 6.88389 18.7817 9 14.8704 9C10.9591 9 9.00351 6.87083 7.11138 4.82003C5.27004 2.83454 3.51759 0.940493 0 0.940493V0C3.92396 0 5.87959 2.11611 7.77172 4.16691C9.61306 6.16546 11.3528 8.04644 14.8831 8.04644C18.4134 8.04644 20.1531 6.16546 21.9945 4.16691C23.8866 2.11611 25.8422 0 29.7662 0C33.6902 0 35.6458 2.11611 37.5379 4.16691C39.3793 6.16546 41.119 8.04644 44.6493 8.04644C48.1796 8.04644 49.9193 6.16546 51.7607 4.16691C53.6528 2.11611 55.6084 0 59.5324 0C63.4564 0 65.412 2.11611 67.3041 4.16691C69.1455 6.16546 70.8852 8.04644 74.4155 8.04644C77.9331 8.04644 79.6855 6.16546 81.5269 4.16691C83.419 2.11611 85.3746 0 89.2986 0C93.2226 0 95.1782 2.11611 97.0703 4.16691C98.9117 6.16546 100.651 8.04644 104.182 8.04644C107.699 8.04644 109.452 6.16546 111.293 4.16691C113.185 2.11611 115.141 0 119.065 0C122.989 0 124.944 2.11611 126.837 4.16691C128.678 6.16546 130.418 8.04644 133.948 8.04644C137.465 8.04644 139.218 6.16546 141.059 4.16691C142.951 2.11611 144.92 0 148.831 0C152.755 0 154.711 2.11611 156.603 4.16691C158.444 6.16546 160.184 8.04644 163.714 8.04644C167.232 8.04644 168.984 6.16546 170.825 4.16691C172.705 2.11611 174.673 0 178.585 0C182.508 0 184.464 2.11611 186.356 4.16691C188.198 6.16546 189.937 8.04644 193.468 8.04644C196.985 8.04644 198.738 6.16546 200.579 4.16691C202.471 2.11611 204.439 0 208.351 0C212.275 0 214.23 2.11611 216.122 4.16691C217.964 6.16546 219.704 8.04644 223.234 8.04644C226.751 8.04644 228.504 6.16546 230.345 4.16691C232.237 2.11611 234.206 0 238.117 0C242.041 0 243.996 2.11611 245.889 4.16691C247.73 6.16546 249.47 8.04644 253 8.04644V9V9Z" fill="#327666"/>
</g>
<defs>
<clipPath id="clip0">
<rect width="253" height="9" fill="white"/>
</clipPath>
</defs>
</svg>
