<svg width="232" height="153" viewBox="0 0 232 153" fill="none" xmlns="http://www.w3.org/2000/svg">
<path fill-rule="evenodd" clip-rule="evenodd" d="M129.666 1H128.825V24.5651H129.666V1ZM127.825 0V25.5651H130.666V0H127.825Z" fill="white"/>
<path fill-rule="evenodd" clip-rule="evenodd" d="M137.976 2.67496C137.594 2.33538 136.834 2.30044 136.342 2.78239C135.745 3.36651 135.892 4.01636 136.164 4.25822C136.486 4.54515 137.182 4.62529 137.812 4.0671C138.347 3.53034 138.221 2.89362 137.976 2.67496ZM138.498 4.79528C139.355 3.95611 139.426 2.62742 138.641 1.92811C137.855 1.22881 136.499 1.22881 135.642 2.06798C134.714 2.97708 134.714 4.30576 135.499 5.00507C136.284 5.70438 137.57 5.63445 138.498 4.79528ZM137.141 9.78133H136.785V24.5647H137.141V9.78133ZM135.785 8.78133V25.5647H138.141V8.78133H135.785Z" fill="white"/>
<path fill-rule="evenodd" clip-rule="evenodd" d="M142.611 8.52148H139.188L145.96 25.5649H149.681L156.231 8.52148H154.668L148.64 24.0736L142.611 8.52148ZM147.757 24.5649L141.926 9.52148H140.661L146.639 24.5649H147.757Z" fill="white"/>
<path fill-rule="evenodd" clip-rule="evenodd" d="M159.28 2.67496C158.898 2.33538 158.138 2.30044 157.646 2.78239C157.049 3.36651 157.197 4.01636 157.468 4.25822C157.79 4.54515 158.486 4.62529 159.116 4.0671C159.651 3.53034 159.525 2.89362 159.28 2.67496ZM159.802 4.79528C160.659 3.95611 160.73 2.62742 159.945 1.92811C159.159 1.22881 157.803 1.22881 156.946 2.06798C156.018 2.97708 156.018 4.30576 156.803 5.00507C157.589 5.70438 158.874 5.63445 159.802 4.79528ZM158.445 9.78133H158.089V24.5647H158.445V9.78133ZM157.089 8.78133V25.5647H159.445V8.78133H157.089Z" fill="white"/>
<path fill-rule="evenodd" clip-rule="evenodd" d="M167.181 7.98173H164.753V25.5652H167.255V16.4804C167.255 15.3361 167.447 14.298 167.808 13.2746C167.858 13.1333 167.911 12.9924 167.968 12.8514C168.031 12.6935 168.098 12.5357 168.168 12.3776C168.173 12.368 168.177 12.3584 168.181 12.3487C168.437 11.7814 168.743 11.2101 169.095 10.6193C169.246 10.5307 169.399 10.4464 169.555 10.3667C169.559 10.3645 169.564 10.3622 169.568 10.36C170.103 10.0868 170.66 9.86913 171.229 9.7228C171.857 9.56123 172.5 9.48662 173.142 9.52028C176.012 9.52028 176.527 12.4509 176.527 15.6745V25.5652H178.956V13.037C178.956 11.4984 178.809 9.59355 178.073 8.49458C177.337 7.17582 176.086 6.95602 174.467 7.17582C172.779 7.38584 171.847 7.89689 170.751 8.81684C170.37 9.13654 169.968 9.50562 169.509 9.92861C169.445 9.98685 169.381 10.0461 169.315 10.1064C169.213 10.2083 169.102 10.3188 168.986 10.4344C168.961 10.4593 168.936 10.4845 168.911 10.5099C168.674 10.7473 168.42 11.0028 168.181 11.2488C167.714 11.7307 167.303 12.1761 167.181 12.3776V7.98173ZM166.275 15.8191L166.181 15.9742V8.98173H165.753V24.5652H166.255V16.4804C166.255 16.2563 166.262 16.036 166.275 15.8191ZM173.093 8.51709C173.118 8.51803 173.143 8.51912 173.169 8.52035C174.054 8.5249 174.827 8.75726 175.466 9.21681C176.103 9.67488 176.535 10.3074 176.83 10.994C177.404 12.3313 177.527 14.0486 177.527 15.6745V24.5652H177.956V13.037C177.956 12.2939 177.92 11.4915 177.803 10.7587C177.683 10.0087 177.492 9.42427 177.242 9.05098L177.219 9.01728L177.199 8.98187C176.952 8.53914 176.657 8.32498 176.299 8.21155C175.898 8.08441 175.351 8.06491 174.601 8.16673L174.59 8.16822C173.984 8.2437 173.506 8.35894 173.093 8.51709Z" fill="white"/>
<path fill-rule="evenodd" clip-rule="evenodd" d="M184.377 24.4184L185.377 23.4555C185.68 23.4555 186.025 23.4483 186.386 23.4385C186.58 23.4332 186.778 23.4272 186.976 23.4212C187.543 23.404 188.109 23.3868 188.576 23.3868C188.729 23.3973 188.886 23.4063 189.045 23.4154C189.921 23.4653 190.862 23.519 191.708 23.8682C193.032 24.3806 194.082 25.7411 194.102 27.2868C194.106 27.6085 194.066 27.9382 193.974 28.2699C193.543 28.4925 193.031 28.6674 192.478 28.8C191.154 29.1181 189.599 29.1923 188.376 29.0952C186.181 28.7717 184.15 27.5604 184.018 25.8922C183.981 25.4326 184.089 24.9384 184.377 24.4184ZM183.018 25.5081C183.329 25.1551 183.697 24.7705 184.117 24.3379C184.131 24.3243 184.144 24.3106 184.157 24.2969C184.174 24.2793 184.192 24.2617 184.209 24.244C184.299 24.1511 184.392 24.056 184.487 23.9586C184.665 23.7765 184.85 23.5862 185.043 23.3868C184.769 23.3868 184.485 23.3771 184.223 23.3433C184.173 23.3369 184.123 23.3295 184.075 23.3211C183.97 23.3031 183.871 23.2805 183.779 23.2522C183.644 23.211 183.524 23.1578 183.426 23.0894C183.352 23.0373 183.29 22.9764 183.244 22.9053L186.51 19.6728C186.16 19.6077 185.831 19.5141 185.524 19.3954C185.487 19.381 185.45 19.3662 185.413 19.351C182.247 18.0415 181.482 14.0162 183.71 11.2821C183.734 11.2514 183.761 11.217 183.791 11.1793C184.034 10.8803 184.499 10.3732 184.992 9.85801C185.033 9.81492 185.074 9.77178 185.116 9.72869C185.546 9.28262 185.985 8.843 186.308 8.53974C186.483 8.37511 186.623 8.25067 186.71 8.18718C188.042 7.15553 189.775 6.81165 191.375 7.36186C192.37 7.7212 193.179 8.34874 193.775 9.15869C193.804 9.19803 193.832 9.2378 193.86 9.27799C193.97 9.43608 194.072 9.60068 194.166 9.77118C194.215 9.86057 194.262 9.95159 194.307 10.0441C194.485 9.86074 194.715 9.6315 194.944 9.40225C194.979 9.36775 195.013 9.33325 195.048 9.29891C195.13 9.21624 195.212 9.13447 195.29 9.05579C195.611 8.73274 195.874 8.4617 195.907 8.39351C196.502 7.82642 197.286 7.68146 197.978 7.914C198.251 8.00569 198.509 8.15606 198.736 8.36238C198.771 8.39434 198.806 8.42765 198.839 8.46228L196.64 10.7319C196.565 10.6456 196.484 10.5679 196.399 10.4986C196.172 10.3133 195.914 10.1881 195.643 10.1178C195.546 10.0929 195.449 10.0748 195.35 10.0635C195.038 10.0277 194.718 10.0582 194.414 10.1476C194.378 10.1582 194.343 10.1695 194.307 10.1817C194.452 10.4812 194.567 10.7965 194.65 11.1215C194.65 11.1232 194.651 11.1249 194.651 11.1265C195.023 12.5916 194.755 14.2529 193.774 15.5463C193.735 15.6035 193.684 15.6726 193.621 15.7514C193.363 16.0766 192.918 16.5673 192.428 17.0705C192.395 17.1048 192.361 17.1391 192.328 17.1735C191.887 17.622 191.417 18.0722 191.018 18.4165C190.697 18.6928 190.421 18.9008 190.242 18.9851C189.622 19.3508 188.795 19.5646 187.978 19.6265C187.566 19.6576 187.156 19.6502 186.776 19.6041L185.577 20.7045C185.713 20.8449 186.219 20.9216 186.613 20.9779C186.628 20.9801 186.642 20.9822 186.657 20.9843C186.685 20.9883 186.712 20.9921 186.738 20.9959C186.869 21.0147 186.978 21.0316 187.043 21.0484C187.335 21.0484 187.729 21.0402 188.182 21.0309C189.591 21.0018 191.564 20.961 192.774 21.1171C194.107 21.3235 195.107 21.9425 195.774 23.0429C196.647 24.5141 196.347 26.0834 195.091 27.6607C194.896 27.9063 194.677 28.1522 194.436 28.3979C194.352 28.4842 194.264 28.5706 194.174 28.6569C193.803 29.0118 193.386 29.366 192.926 29.7187C192.898 29.7401 192.869 29.7615 192.841 29.783C191.441 30.7458 189.042 31.3648 187.176 31.2273C185.043 31.2273 182.644 30.4707 181.978 28.7513C181.527 27.5896 181.929 26.7419 183.018 25.5081ZM189.067 30.1309C188.441 30.2329 187.816 30.2717 187.25 30.23L187.213 30.2273H187.176C186.215 30.2273 185.22 30.055 184.418 29.7139C183.608 29.3691 183.11 28.9056 182.91 28.3899C182.795 28.0936 182.78 27.8845 182.808 27.7072C182.837 27.5184 182.926 27.284 183.143 26.9592C183.167 26.923 183.192 26.8866 183.218 26.8498C183.414 27.372 183.736 27.8276 184.119 28.2117C185.134 29.2262 186.692 29.8578 188.23 30.0845L188.263 30.0894L188.297 30.0921C188.543 30.1116 188.801 30.1247 189.067 30.1309ZM194.929 26.0878C194.953 26.0406 194.975 25.9937 194.997 25.9471C195.39 25.0828 195.364 24.3144 194.916 23.5572C194.422 22.7435 193.701 22.2752 192.634 22.1073C191.505 21.9638 189.685 22.0011 188.29 22.0297C187.808 22.0395 187.377 22.0484 187.043 22.0484H186.916L186.797 22.0177C186.797 22.0177 186.783 22.0147 186.747 22.0087C186.706 22.0018 186.653 21.994 186.587 21.9844C186.566 21.9814 186.543 21.9782 186.519 21.9748C186.403 21.9582 186.26 21.9378 186.12 21.9143C186.004 21.8949 185.872 21.8707 185.742 21.8399L185.189 22.3868H187.405L187.384 22.4086C187.803 22.3966 188.216 22.3868 188.576 22.3868H188.61L188.644 22.3891C188.775 22.3981 188.916 22.4058 189.065 22.414C189.929 22.4612 191.064 22.5232 192.079 22.9397C193.396 23.4531 194.512 24.634 194.929 26.0878ZM186.371 18.6185L186.44 18.5559L186.897 18.6114C187.533 18.6886 188.253 18.6325 188.871 18.4684C188.649 18.4402 188.43 18.4016 188.214 18.3529C186.758 18.0245 185.37 17.2119 184.533 15.8763C184.054 15.1325 183.769 14.2757 183.672 13.3769C183.369 14.2703 183.361 15.2047 183.617 16.0346C183.985 17.2315 184.905 18.2395 186.371 18.6185ZM184.723 11.625C184.489 12.9784 184.714 14.315 185.377 15.3399C186.411 16.9948 188.57 17.7381 190.575 17.4734C191.154 17.397 191.719 17.2369 192.241 16.9906C192.476 16.4412 192.612 15.8881 192.661 15.3437C192.821 13.5705 192.065 11.8895 190.842 10.7319C189.748 9.75743 188.284 9.24191 186.781 9.47058C186.269 9.54855 185.752 9.71305 185.243 9.97537C184.992 10.5146 184.819 11.0712 184.723 11.625ZM188.183 8.45857C189.428 8.61087 190.586 9.16451 191.507 9.98537L191.518 9.99524L191.529 10.0054C192.568 10.9886 193.331 12.316 193.588 13.7846C193.943 12.7347 193.87 11.5722 193.407 10.6177L193.025 9.82838C192.535 9.13229 191.866 8.60436 191.043 8.30507C190.101 7.98324 189.089 8.05029 188.183 8.45857ZM196.415 9.33543C196.457 9.35507 196.499 9.37577 196.54 9.39758L197.079 8.84148C196.931 8.88074 196.787 8.95457 196.657 9.06356C196.633 9.09427 196.614 9.11657 196.604 9.12748C196.603 9.1293 196.601 9.1308 196.6 9.13197C196.55 9.19014 196.491 9.25438 196.431 9.31799C196.426 9.32375 196.421 9.32956 196.415 9.33543Z" fill="white"/>
<path fill-rule="evenodd" clip-rule="evenodd" d="M147.705 63.4168C146.456 64.7784 145.986 65.6902 146.486 66.9516C147.28 68.7722 149.879 69.5732 152.118 69.5732C154.139 69.7188 156.738 69.0634 158.255 68.0439C158.32 67.9955 158.385 67.947 158.449 67.8985C158.904 67.5527 159.319 67.2055 159.692 66.8578C159.79 66.766 159.885 66.6742 159.978 66.5823C160.203 66.3581 160.41 66.1339 160.599 65.9097C162.037 64.2017 162.399 62.5002 161.431 60.9074C160.709 59.7422 159.626 59.0868 158.182 58.8684C156.871 58.7031 154.734 58.7462 153.208 58.777C152.717 58.7869 152.289 58.7955 151.973 58.7955C151.888 58.7741 151.735 58.7528 151.555 58.7277C151.554 58.7276 151.554 58.7274 151.553 58.7273C151.509 58.7213 151.464 58.715 151.418 58.7084C151.008 58.6499 150.522 58.5699 150.385 58.4314L151.684 57.2663C152.062 57.3111 152.468 57.3214 152.877 57.2972C153.798 57.2429 154.739 57.0141 155.439 56.6109C155.63 56.5233 155.921 56.3092 156.261 56.0245C156.69 55.6645 157.196 55.1916 157.672 54.7184C157.699 54.6923 157.725 54.6662 157.751 54.6401C158.27 54.1218 158.747 53.6106 159.043 53.2551C159.137 53.1429 159.212 53.0463 159.265 52.9698C160.343 51.5813 160.626 49.7925 160.198 48.2257C160.197 48.2206 160.195 48.2155 160.194 48.2104C160.106 47.8925 159.989 47.5838 159.843 47.2896C159.88 47.2772 159.917 47.2656 159.955 47.2547C160.256 47.1676 160.572 47.1327 160.882 47.156C160.992 47.1643 161.101 47.1798 161.208 47.2029C161.562 47.279 161.898 47.4374 162.184 47.6875C162.249 47.7443 162.311 47.8058 162.37 47.8722L164.753 45.4691C164.753 45.4691 164.753 45.4691 164.753 45.4691C164.743 45.4591 164.733 45.4492 164.723 45.4395C164.478 45.2012 164.195 45.0251 163.894 44.9145C163.127 44.6326 162.242 44.7758 161.576 45.3963C161.538 45.4724 161.224 45.7871 160.851 46.1535C160.765 46.2374 160.677 46.324 160.588 46.4111C160.569 46.4288 160.551 46.4465 160.533 46.4643C160.284 46.707 160.036 46.9498 159.843 47.144C159.8 47.0565 159.754 46.9703 159.707 46.8855C159.611 46.7129 159.507 46.5459 159.395 46.3851C159.367 46.3444 159.338 46.304 159.309 46.264C158.66 45.3786 157.768 44.6929 156.666 44.3039C154.933 43.7214 153.056 44.0855 151.612 45.1778C151.489 45.2662 151.264 45.4664 150.987 45.7282C150.659 46.0373 150.258 46.4321 149.866 46.8305C149.812 46.8845 149.759 46.9386 149.707 46.9926C149.272 47.4373 148.862 47.8723 148.59 48.1825C148.496 48.2898 148.419 48.3821 148.363 48.4548C145.933 51.3699 146.789 55.6713 150.28 57.0269C150.32 57.0426 150.361 57.0579 150.402 57.0728C150.713 57.1855 151.045 57.2752 151.396 57.3391L147.858 60.7617C147.902 60.828 147.959 60.8859 148.027 60.9364C148.155 61.0319 148.324 61.1012 148.516 61.1509C148.615 61.1766 148.72 61.197 148.829 61.2133C148.835 61.2141 148.84 61.2149 148.846 61.2157C149.149 61.2594 149.484 61.2715 149.807 61.2715C149.598 61.4827 149.397 61.6842 149.204 61.8769C149.103 61.9786 149.004 62.0779 148.907 62.1749C148.89 62.1918 148.874 62.2085 148.857 62.2253C148.855 62.2273 148.853 62.2293 148.851 62.2313C148.417 62.6675 148.034 63.0578 147.705 63.4168ZM149.085 62.3638C148.794 62.8775 148.673 63.3675 148.69 63.826C148.759 65.643 150.996 66.9668 153.417 67.3157C154.832 67.4743 156.552 67.3643 157.996 66.9856C158.541 66.8426 159.047 66.6614 159.482 66.4419C159.571 66.1279 159.615 65.8156 159.621 65.5096C159.649 63.8284 158.493 62.3357 157.027 61.7812C156.111 61.4115 155.091 61.3546 154.143 61.3018C153.97 61.2922 153.8 61.2827 153.634 61.2715C153.128 61.2715 152.515 61.2897 151.901 61.3079C151.651 61.3153 151.401 61.3227 151.158 61.3289C150.805 61.3379 150.468 61.3443 150.168 61.3443L149.085 62.3638ZM152.179 60.2993C152.689 60.2845 153.198 60.2715 153.634 60.2715H153.667L153.701 60.2737C153.845 60.2834 153.999 60.2917 154.161 60.3004C155.099 60.3507 156.308 60.4156 157.391 60.8498C158.85 61.4057 160.092 62.7254 160.49 64.3435C160.557 64.2272 160.617 64.1123 160.669 63.9989C161.101 63.0729 161.074 62.2465 160.579 61.4304C160.034 60.5521 159.231 60.0409 158.045 59.8589C156.814 59.7057 154.826 59.7455 153.313 59.7759C152.794 59.7863 152.331 59.7955 151.973 59.7955H151.849L151.729 59.7654C151.734 59.7666 151.719 59.7629 151.67 59.755C151.624 59.7474 151.566 59.739 151.494 59.7289C151.471 59.7256 151.447 59.7222 151.421 59.7186C151.295 59.701 151.141 59.6796 150.99 59.655C150.849 59.6319 150.689 59.6026 150.533 59.5645L149.803 60.2715C149.804 60.2715 149.806 60.2715 149.807 60.2715H152.207L152.179 60.2993ZM154.647 68.3855C154.182 68.3826 153.73 68.357 153.306 68.3095L153.29 68.3077L153.275 68.3055C151.624 68.0677 149.956 67.4057 148.873 66.3467C148.427 65.9104 148.06 65.3849 147.857 64.7766C147.791 64.863 147.729 64.9474 147.673 65.0302C147.435 65.3788 147.335 65.6333 147.302 65.8406C147.272 66.032 147.288 66.2556 147.409 66.5668C147.668 67.1464 148.255 67.6522 149.144 68.0218C150.03 68.3902 151.105 68.5732 152.118 68.5732H152.154L152.189 68.5758C152.951 68.6307 153.81 68.5558 154.647 68.3855ZM151.273 56.2917L151.353 56.22L151.802 56.2732C152.537 56.3605 153.376 56.2904 154.081 56.092C153.806 56.0618 153.533 56.0171 153.265 55.958C151.71 55.6152 150.227 54.7672 149.33 53.3693C148.74 52.4742 148.424 51.4215 148.371 50.3239C147.914 51.3779 147.868 52.5079 148.18 53.4979C148.587 54.7913 149.617 55.892 151.273 56.2917ZM149.505 48.6587C149.181 50.1701 149.412 51.6804 150.168 52.8241C151.293 54.5834 153.647 55.3697 155.827 55.0796C156.444 54.9974 157.047 54.829 157.605 54.5718C157.874 53.9949 158.03 53.4101 158.088 52.8331C158.28 50.9335 157.418 49.118 156.089 47.945C154.851 46.8674 153.176 46.3199 151.473 46.6465C150.989 46.7392 150.503 46.9024 150.024 47.144C149.787 47.6397 149.615 48.1493 149.505 48.6587ZM152.858 45.5649C154.313 45.6591 155.676 46.2595 156.745 47.191L156.75 47.1952C157.923 48.2302 158.802 49.7212 159.047 51.3747C159.543 50.1871 159.492 48.832 158.947 47.7338L158.531 46.8943C157.994 46.1458 157.255 45.574 156.34 45.2494C155.183 44.8627 153.933 44.9936 152.858 45.5649ZM162.01 46.411C162.101 46.45 162.192 46.4936 162.281 46.5419L163.037 45.7794C162.785 45.7974 162.536 45.8943 162.32 46.0727C162.293 46.1067 162.271 46.1315 162.261 46.1437C162.259 46.1456 162.258 46.1472 162.256 46.1485C162.203 46.2089 162.14 46.276 162.076 46.3431C162.055 46.3649 162.033 46.3876 162.01 46.411Z" fill="white"/>
<path fill-rule="evenodd" clip-rule="evenodd" d="M168.679 44.977H166.173V62.492H168.679V53.3696C168.679 52.0091 168.899 50.4072 169.338 49.0295C169.356 48.9751 169.373 48.9211 169.391 48.8675C169.461 48.6591 169.537 48.4564 169.617 48.2611C169.637 48.2115 169.658 48.1623 169.679 48.1136C169.855 47.7092 170.053 47.3395 170.274 47.0205C170.652 46.7897 171.215 46.5888 171.817 46.4781C172.548 46.3437 173.337 46.3425 173.92 46.5826C174.96 46.9713 175.385 47.9094 175.796 48.818C175.925 49.1035 176.053 49.386 176.198 49.6477C176.578 50.2315 177.11 50.7424 177.869 50.8154L180.376 48.4071C179.963 48.3604 179.636 48.2094 179.364 47.9922C178.87 47.5975 178.56 46.9841 178.255 46.3806C178.202 46.2769 178.15 46.1736 178.097 46.0717C177.49 44.9041 176.958 44.0283 175.287 44.0283C173.801 44.0691 172.552 44.6348 171.381 45.5466C170.941 45.8892 170.512 46.2808 170.085 46.7117C170.051 46.7467 170.016 46.782 169.982 46.8175C169.881 46.921 169.78 47.0267 169.679 47.1345C169.347 47.4894 169.015 47.8664 168.679 48.2611V44.977ZM167.911 50.7057L167.679 50.978V45.977H167.173V61.492H167.679V53.3696C167.679 52.5317 167.756 51.6142 167.911 50.7057ZM173.474 45.4366C173.752 45.4778 174.027 45.5468 174.285 45.6515C175.263 46.0221 175.83 46.7308 176.212 47.4005C176.4 47.7297 176.556 48.0717 176.689 48.3663L176.699 48.3885C176.829 48.6745 176.937 48.9143 177.056 49.1313C177.236 49.402 177.414 49.584 177.594 49.6932L178.639 48.689C178.46 48.5331 178.302 48.3614 178.163 48.1831C177.823 47.7466 177.553 47.2106 177.342 46.7918C177.295 46.6991 177.251 46.6122 177.21 46.5333C176.898 45.9327 176.689 45.5888 176.433 45.3653C176.23 45.1881 175.93 45.0306 175.3 45.0283C174.653 45.0479 174.052 45.187 173.474 45.4366Z" fill="white"/>
<path fill-rule="evenodd" clip-rule="evenodd" d="M180.741 48.876C179.679 50.1891 179.023 51.9248 178.961 53.6605C178.818 58.5748 181.528 62.492 185.948 62.492C187.884 62.406 189.144 61.8275 190.435 60.7877C191.191 60.1788 191.957 59.4118 192.875 58.493C192.987 58.3801 193.102 58.2649 193.22 58.1475C192.457 58.9099 191.215 59.5448 189.964 59.8816C189.345 60.0481 188.724 60.1417 188.158 60.1417C185.187 60.0772 182.626 57.8504 181.693 54.7318C181.596 54.4076 181.517 54.0738 181.456 53.7318H192.222L194.575 51.3814C194.646 49.1024 193.79 46.7521 191.937 45.3276C190.226 44.0456 187.802 43.6183 185.805 44.473C185.238 44.6816 184.672 45.0398 184.068 45.5319C183.574 45.9355 183.054 46.4293 182.49 47.0045C182.468 47.0272 182.446 47.05 182.423 47.073C182.051 47.4543 181.659 47.8704 181.242 48.3189C181.067 48.4943 180.9 48.6805 180.741 48.876ZM184.512 46.4639C183.824 46.5844 183.181 46.8229 182.597 47.1794C182.272 47.7109 182.008 48.2669 181.805 48.8422C181.802 48.8522 181.798 48.8621 181.795 48.8721C181.739 49.0325 181.688 49.1945 181.642 49.3578C181.546 49.6935 181.471 50.035 181.416 50.3814C181.364 50.7106 181.33 51.0442 181.314 51.3814H191.919C191.831 51.0378 191.716 50.7036 191.577 50.3814C190.772 48.5306 189.144 47.0788 187.16 46.5384C186.227 46.3443 185.337 46.3195 184.512 46.4639ZM192.654 50.3814C191.799 48.0671 189.844 46.2333 187.423 45.5736L187.393 45.5656L187.364 45.5594C186.97 45.4775 186.58 45.422 186.195 45.3937L186.199 45.3923C187.824 44.6964 189.87 45.0316 191.332 46.1243C192.775 47.236 193.538 49.0678 193.577 50.9643L191.808 52.7318H180.264L180.472 53.9057C181.164 57.8238 184.156 60.9252 187.895 61.1322C187.329 61.335 186.695 61.456 185.926 61.492C184.053 61.4856 182.567 60.6654 181.539 59.3137C180.492 57.937 179.895 55.967 179.96 53.6929C179.984 53.0556 180.099 52.4183 180.292 51.8091L180.265 52.3814H191.937V51.5723L192.937 51.4527V50.3814H192.654Z" fill="white"/>
<path fill-rule="evenodd" clip-rule="evenodd" d="M197.9 48.7371C196.77 50.0652 196.069 51.8629 196.004 53.6605C195.862 58.5748 198.571 62.492 202.991 62.492C204.927 62.406 206.188 61.8275 207.479 60.7877C208.234 60.1789 209 59.4119 209.918 58.493C210.031 58.3801 210.146 58.2649 210.263 58.1475C209.5 58.9099 208.258 59.5448 207.007 59.8816C206.389 60.0481 205.768 60.1417 205.201 60.1417C202.231 60.0772 199.669 57.8504 198.736 54.7318C198.64 54.4076 198.56 54.0738 198.5 53.7318H209.265L211.618 51.3814C211.689 49.1024 210.834 46.7521 208.98 45.3276C207.269 44.0456 204.845 43.6183 202.849 44.473C202.274 44.6847 201.698 45.0505 201.085 45.554C200.611 45.9429 200.115 46.414 199.578 46.9597C199.55 46.9882 199.521 47.0168 199.493 47.0457C199.113 47.4344 198.713 47.8597 198.286 48.3189C198.152 48.4523 198.024 48.5919 197.9 48.7371ZM201.536 46.4805C200.882 46.6056 200.27 46.8386 199.712 47.1794C199.377 47.7263 199.107 48.2991 198.903 48.8923C198.899 48.9032 198.895 48.9142 198.891 48.9251C198.856 49.0286 198.823 49.1327 198.792 49.2374C198.68 49.6117 198.593 49.9935 198.531 50.3814C198.479 50.7106 198.445 51.0442 198.428 51.3814H209.034C208.946 51.0378 208.831 50.7036 208.691 50.3814C207.887 48.5306 206.258 47.0788 204.275 46.5384C203.308 46.3372 202.386 46.3179 201.536 46.4805ZM209.768 50.3814C208.914 48.0671 206.959 46.2333 204.537 45.5736L204.508 45.5656L204.478 45.5594C204.064 45.4732 203.654 45.4162 203.249 45.3894C204.873 44.6974 206.916 45.033 208.376 46.1243C209.819 47.236 210.582 49.0678 210.621 50.9643L208.851 52.7318H197.308L197.515 53.9057C198.207 57.8238 201.199 60.9252 204.938 61.1322C204.373 61.335 203.739 61.456 202.969 61.492C201.097 61.4856 199.611 60.6654 198.583 59.3137C197.536 57.937 196.939 55.967 197.004 53.6929C197.03 52.9691 197.175 52.2453 197.419 51.5628L197.38 52.3814H209.051V51.5723L210.051 51.4527V50.3814H209.768Z" fill="white"/>
<path fill-rule="evenodd" clip-rule="evenodd" d="M215.471 44.9818H213.189V62.492H215.618V53.4072C215.618 52.1446 215.852 51.0113 216.289 49.8845C216.298 49.861 216.307 49.8375 216.316 49.814C216.611 49.0682 216.995 48.3241 217.458 47.546C217.593 47.4669 217.729 47.3912 217.868 47.3193C217.873 47.3168 217.877 47.3143 217.882 47.3118C218.399 47.0441 218.937 46.8279 219.486 46.6777C220.148 46.4967 220.826 46.4115 221.505 46.447C224.375 46.447 224.89 49.3776 224.89 52.6013V62.492H227.245V49.9637C227.245 48.4252 227.098 46.5203 226.362 45.4213C225.626 44.1026 224.375 43.8828 222.756 44.1026C221.048 44.3151 220.114 44.8361 219 45.7771C218.631 46.089 218.242 46.4471 217.798 46.8554C217.735 46.9136 217.67 46.9729 217.605 47.0332C217.516 47.1214 217.421 47.216 217.322 47.3148C217.291 47.3458 217.26 47.3773 217.228 47.4092C216.983 47.6543 216.719 47.9201 216.471 48.1756C216.003 48.6575 215.592 49.1029 215.471 49.3044V44.9818ZM214.647 52.6084L214.471 52.901V45.9818H214.189V61.492H214.618V53.4072C214.618 53.1355 214.628 52.8695 214.647 52.6084ZM221.388 45.4417C221.436 45.443 221.484 45.4448 221.532 45.4471C222.417 45.4517 223.19 45.684 223.829 46.1436C224.466 46.6016 224.898 47.2341 225.193 47.9208C225.767 49.2581 225.89 50.9754 225.89 52.6013V61.492H226.245V49.9637C226.245 49.2206 226.209 48.4182 226.092 47.6855C225.972 46.9355 225.781 46.351 225.531 45.9777L225.509 45.944L225.489 45.9086C225.242 45.4659 224.946 45.2517 224.588 45.1383C224.187 45.0112 223.641 44.9917 222.891 45.0935L222.88 45.095C222.276 45.1701 221.8 45.2846 221.388 45.4417Z" fill="white"/>
<path fill-rule="evenodd" clip-rule="evenodd" d="M138.522 82.376H136.545V106.521H138.719V98.2042C138.719 97.1312 138.9 96.1603 139.239 95.2013C139.271 95.1108 139.304 95.0204 139.339 94.93C139.603 94.2423 139.949 93.5563 140.367 92.8387C140.475 92.7735 140.586 92.7108 140.697 92.6508C140.702 92.6483 140.706 92.6457 140.711 92.6432C141.218 92.3712 141.749 92.1558 142.291 92.0145C142.849 91.8691 143.42 91.8021 143.99 91.8327C146.56 91.8327 147.021 94.5154 147.021 97.4665V106.521H149.13V95.052C149.13 93.6436 148.998 91.8998 148.339 90.8937C147.614 89.6865 146.494 89.4853 145.045 89.6865C143.581 89.8727 142.752 90.3175 141.809 91.1107C141.44 91.4209 141.054 91.7844 140.605 92.2065C140.549 92.2598 140.491 92.314 140.432 92.3692C140.364 92.4385 140.292 92.5122 140.217 92.5888C140.184 92.6228 140.15 92.6574 140.115 92.6925C139.924 92.8879 139.719 93.0985 139.522 93.3052C139.061 93.7874 138.639 94.2487 138.522 94.4484V82.376ZM137.729 97.7629L137.545 98.0746V105.521H137.719V98.2042C137.719 98.0553 137.722 97.9083 137.729 97.7629ZM144.306 90.8437C144.56 90.775 144.844 90.7201 145.171 90.6785L145.182 90.677C145.844 90.5851 146.314 90.6044 146.66 90.7146C146.966 90.8125 147.237 91.0007 147.482 91.4084L147.492 91.4252L147.503 91.4416C147.717 91.7696 147.887 92.2927 147.994 92.9764C148.098 93.6425 148.13 94.3734 148.13 95.052V105.521H148.021V97.4665C148.021 95.9776 147.911 94.3939 147.392 93.1558C147.124 92.5195 146.729 91.9254 146.141 91.4924C145.62 91.1093 145.003 90.8933 144.306 90.8437Z" fill="white"/>
<path fill-rule="evenodd" clip-rule="evenodd" d="M159.974 107.937C161.768 107.998 163.509 107.336 165.107 106.084C165.383 105.867 165.655 105.633 165.923 105.381C166.114 105.194 166.299 105.015 166.478 104.841C166.635 104.688 166.787 104.541 166.934 104.396C166.963 104.368 166.991 104.341 167.019 104.313C167.625 103.719 168.151 103.185 168.598 102.644C169.485 101.573 170.064 100.478 170.348 98.8495C170.638 96.8615 170.203 94.6605 168.897 92.8145C167.374 90.7555 164.907 89.4775 162.368 89.4775C160.595 89.4775 159.062 90.0905 157.535 91.2012C157.188 91.4534 156.841 91.7313 156.492 92.0335C156.371 92.1526 156.251 92.2691 156.135 92.3832C155.945 92.5684 155.761 92.7475 155.584 92.9217C155.563 92.943 155.541 92.9643 155.519 92.9856C154.842 93.6527 154.26 94.2492 153.773 94.8463C152.763 96.0842 152.165 97.3249 151.995 99.2045C151.632 103.819 155.332 107.866 159.974 107.937ZM152.991 99.2888C152.678 103.322 155.922 106.875 159.99 106.938L159.999 106.938L160.008 106.938C160.76 106.963 161.515 106.839 162.263 106.566C159.159 106.594 156.228 104.994 154.537 102.045L154.535 102.041L154.535 102.041C153.749 100.657 153.343 99.1059 153.35 97.5331C153.169 98.0519 153.052 98.6221 152.991 99.2888ZM154.67 95.3321C154.056 97.4486 154.339 99.6703 155.404 101.547C157.33 104.904 161.052 106.307 164.625 105.189C164.898 105.103 165.17 105.003 165.44 104.888C165.445 104.886 165.449 104.884 165.454 104.882C165.907 104.689 166.355 104.453 166.793 104.174C167.187 103.532 167.494 102.851 167.706 102.15C168.313 100.139 168.14 97.9571 167.011 96.0095C165.233 92.7611 161.47 91.2188 157.976 92.1183C157.62 92.2099 157.267 92.3268 156.919 92.4699C156.907 92.4749 156.895 92.4799 156.883 92.4849C156.479 92.6536 156.081 92.8577 155.694 93.0985C155.232 93.8151 154.892 94.5667 154.67 95.3321ZM160.189 90.8673C163.31 90.9408 166.294 92.6256 167.882 95.5186C168.692 96.9195 169.062 98.4234 169.05 99.9106C169.179 99.5417 169.281 99.141 169.36 98.6915C169.611 96.9494 169.228 95.0194 168.087 93.4007C166.745 91.593 164.576 90.4775 162.368 90.4775C161.609 90.4775 160.893 90.6072 160.189 90.8673Z" fill="white"/>
<path fill-rule="evenodd" clip-rule="evenodd" d="M190.298 92.0612C190.875 91.9193 191.464 91.8543 192.054 91.8844C194.736 91.8844 195.218 94.5578 195.218 97.4984V106.521H197.419V95.0924C197.419 93.6221 197.282 91.8844 196.869 90.7483C196.112 89.5453 194.943 89.3448 193.429 89.5453C191.785 89.745 190.908 90.2434 189.824 91.1518C189.507 91.4174 189.172 91.718 188.795 92.0564C188.736 92.1095 188.676 92.1636 188.614 92.2186C188.473 92.3563 188.313 92.511 188.148 92.6728C188.119 92.7013 188.09 92.73 188.06 92.7588C187.887 92.9289 187.709 93.1048 187.54 93.2753C187.109 93.7093 186.732 94.1087 186.619 94.2904C186.611 94.1444 186.602 93.9966 186.59 93.8481C186.565 93.5392 186.531 93.2274 186.485 92.923C186.361 92.1015 186.149 91.3329 185.794 90.8151C185.037 89.6121 183.868 89.4116 182.355 89.6121C180.816 89.799 179.95 90.247 178.957 91.0475C178.578 91.3531 178.18 91.71 177.72 92.1233C177.661 92.1764 177.601 92.2304 177.539 92.2854C177.424 92.3971 177.298 92.5199 177.166 92.6486C177.143 92.6714 177.119 92.6943 177.096 92.7174C176.915 92.8943 176.726 93.0802 176.544 93.2621C176.081 93.7265 175.664 94.1644 175.544 94.3573V90.4141H173.274V106.454H175.544V98.1668C175.544 97.2704 175.677 96.4455 175.928 95.6392C176.017 95.3534 176.121 95.0699 176.239 94.7865C176.299 94.6435 176.362 94.5005 176.429 94.3573C176.467 94.2773 176.505 94.1973 176.544 94.1171C176.754 93.6916 176.995 93.2619 177.264 92.8201C177.432 92.7241 177.603 92.6337 177.776 92.5493C177.78 92.5472 177.785 92.545 177.789 92.5428C178.313 92.2891 178.858 92.0911 179.414 91.9653C179.952 91.8438 180.5 91.7896 181.048 91.8176C183.386 91.8176 184.074 93.8226 184.212 96.2286V106.454H186.482V98.2336C186.482 97.3683 186.619 96.5697 186.869 95.79C186.985 95.4257 187.127 95.0655 187.29 94.7046C187.36 94.5507 187.433 94.3967 187.511 94.2421C187.542 94.1794 187.574 94.1166 187.607 94.0537C187.806 93.6707 188.028 93.2837 188.27 92.8869C188.481 92.7666 188.696 92.655 188.914 92.5532C188.92 92.5505 188.926 92.5479 188.932 92.5452C189.374 92.3403 189.832 92.1757 190.298 92.0612ZM185.721 96.1867C185.567 96.8363 185.482 97.5129 185.482 98.2336V105.454H185.212V96.2L185.21 96.1715C185.139 94.9235 184.922 93.621 184.312 92.6061C183.699 91.5842 182.722 90.9161 181.361 90.8276C181.679 90.7314 182.041 90.6575 182.475 90.6048L182.486 90.6034C183.183 90.5111 183.689 90.5289 184.067 90.6439C184.407 90.7475 184.694 90.9442 184.947 91.3475L184.958 91.3644L184.969 91.3809C185.136 91.6243 185.291 92.0276 185.409 92.5842C185.523 93.1258 185.588 93.7387 185.621 94.3445L185.721 96.1867ZM174.549 97.8727C174.546 97.97 174.544 98.068 174.544 98.1668V105.454H174.274V91.4141H174.544V97.8797L174.549 97.8727ZM192.081 90.8845C192.481 90.7259 192.946 90.6113 193.55 90.538L193.561 90.5366C194.258 90.4443 194.764 90.462 195.142 90.5771C195.456 90.673 195.726 90.8487 195.965 91.1942C196.288 92.1641 196.419 93.692 196.419 95.0924V105.521H196.218V97.4984C196.218 96.0132 196.103 94.4271 195.557 93.186C195.276 92.5467 194.863 91.9565 194.255 91.5297C193.646 91.1026 192.914 90.889 192.081 90.8845Z" fill="white"/>
<path fill-rule="evenodd" clip-rule="evenodd" d="M202.146 94.1941C201.025 95.5215 200.329 97.3156 200.265 99.1097C200.123 103.953 202.821 107.941 207.293 107.941C209.211 107.856 210.464 107.282 211.743 106.252C212.502 105.64 213.269 104.868 214.19 103.942C214.302 103.829 214.417 103.714 214.534 103.597C213.764 104.369 212.537 105.011 211.273 105.344C210.673 105.502 210.065 105.591 209.494 105.591C206.471 105.526 203.915 103.3 202.986 100.181C202.889 99.8568 202.81 99.523 202.75 99.181H213.54L215.883 96.8307C215.883 94.5516 215.031 92.2013 213.185 90.7768C211.481 89.4949 209.068 89.0675 207.08 89.9222C206.51 90.1329 205.94 90.4964 205.332 90.9965C204.858 91.3869 204.36 91.8605 203.822 92.4096C203.794 92.4381 203.766 92.4668 203.738 92.4956C203.36 92.8841 202.962 93.3091 202.537 93.7681C202.401 93.9039 202.271 94.0461 202.146 94.1941ZM205.784 91.9234C205.129 92.0469 204.522 92.282 203.957 92.6286C203.624 93.1743 203.356 93.7459 203.152 94.3378C203.149 94.3487 203.145 94.3596 203.141 94.3705C203.105 94.477 203.071 94.5841 203.039 94.6919C202.928 95.0645 202.842 95.4445 202.781 95.8307C202.729 96.1598 202.695 96.4934 202.679 96.8307H213.239C213.151 96.487 213.037 96.1528 212.898 95.8307C212.097 93.9798 210.475 92.528 208.5 91.9876C207.51 91.789 206.609 91.7676 205.784 91.9234ZM213.974 95.8307C213.124 93.5178 211.177 91.6834 208.764 91.0231L208.731 91.0139L208.697 91.0071C208.28 90.9236 207.874 90.8677 207.476 90.8404C209.091 90.1465 211.125 90.4807 212.579 91.5722C214.013 92.6813 214.779 94.5135 214.873 96.4273L213.125 98.181H201.559L201.765 99.3542C202.455 103.277 205.439 106.376 209.23 106.582C208.667 106.784 208.037 106.905 207.271 106.941C205.375 106.935 203.879 106.099 202.845 104.737C201.793 103.35 201.2 101.379 201.265 99.1422C201.29 98.4279 201.431 97.7137 201.668 97.0392L201.63 97.8307H213.256V97.021L214.256 96.9019V95.8307H213.974Z" fill="white"/>
<path fill-rule="evenodd" clip-rule="evenodd" d="M224.058 105.52C221.46 105.218 219.123 103.945 218.471 101.829C218.354 101.448 218.292 101.041 218.292 100.607L215.883 102.957C215.883 105.876 218.803 107.728 222.379 107.941C224.204 107.941 226.613 107.514 227.927 106.232C227.941 106.22 227.955 106.207 227.969 106.195C228.064 106.11 228.159 106.026 228.254 105.941C228.511 105.712 228.769 105.483 229.02 105.253C229.118 105.163 229.216 105.073 229.312 104.982C229.528 104.779 229.736 104.575 229.934 104.37C230.867 103.4 231.548 102.399 231.504 101.319C231.403 99.5495 229.981 98.5943 227.836 97.8913C227.73 97.8563 227.621 97.822 227.511 97.7882C226.628 97.5172 225.635 97.282 224.569 97.0467C221.794 96.4315 218.965 95.6036 218.906 93.5986C218.896 93.2831 218.956 92.9383 219.095 92.5607C219.578 92.3295 220.095 92.1512 220.628 92.024C223.726 91.2846 227.381 92.272 228.295 94.6495C228.435 95.013 228.511 95.409 228.511 95.8362L230.92 93.4864C230.774 89.8549 225.299 88.502 221.503 90.2109C221.161 90.378 220.689 90.6999 220.173 91.1073C219.768 91.4265 219.336 91.7982 218.917 92.1889C218.839 92.2618 218.761 92.3354 218.684 92.4095C218.418 92.6641 218.162 92.9241 217.924 93.1805C217.261 93.896 216.746 94.5841 216.613 95.0529C216.019 96.8725 217.149 97.8274 219.002 98.5175C219.096 98.5529 219.193 98.5875 219.292 98.6216C220.2 98.9354 221.258 99.1971 222.361 99.4696C222.824 99.5842 223.295 99.7006 223.766 99.8237C225.664 100.251 227.708 100.892 228.584 102.316C228.872 102.785 229.003 103.346 228.974 103.919C228.96 104.216 228.903 104.516 228.803 104.808C228.378 105.016 227.934 105.175 227.478 105.293C226.371 105.579 225.196 105.621 224.058 105.52ZM225.201 106.57C224.785 106.571 224.373 106.552 223.97 106.516L223.956 106.515L223.943 106.514C222.276 106.32 220.647 105.754 219.409 104.786C218.663 104.202 218.057 103.467 217.687 102.594L216.907 103.354C217.021 104.264 217.53 105.039 218.377 105.654C219.359 106.367 220.775 106.839 222.409 106.941C223.244 106.939 224.201 106.839 225.086 106.602C225.124 106.591 225.163 106.581 225.201 106.57ZM229.883 102.9C230.332 102.301 230.521 101.805 230.505 101.368C230.457 100.568 230.017 99.9735 228.971 99.4291C227.874 98.8586 226.306 98.4543 224.354 98.0232C222.767 97.6714 220.976 97.2157 219.714 96.4257C219.068 96.0215 218.473 95.4775 218.15 94.7305C218.122 94.6666 218.097 94.6023 218.074 94.5373C217.747 94.9528 217.605 95.2196 217.575 95.3268L217.569 95.345L217.563 95.363C217.378 95.9325 217.458 96.2459 217.584 96.4592C217.74 96.7215 218.075 97.0113 218.703 97.3094C219.32 97.6026 220.11 97.8532 221.039 98.1024C221.558 98.2414 222.06 98.3652 222.581 98.4938C223.032 98.6052 223.498 98.7202 224.003 98.8519C224.966 99.0694 226.026 99.3535 226.974 99.7863C227.922 100.219 228.852 100.843 229.436 101.792C229.648 102.138 229.796 102.512 229.883 102.9ZM222.841 90.7841C223.761 90.7963 224.665 90.933 225.492 91.1862C226.973 91.6399 228.37 92.5375 229.061 93.9027L229.869 93.1148C229.647 92.0846 228.746 91.2554 227.284 90.8009C225.939 90.3829 224.305 90.3625 222.841 90.7841Z" fill="white"/>
<path fill-rule="evenodd" clip-rule="evenodd" d="M66.0432 113.557C54.7593 125.709 52.0716 130.978 55.0092 139.201C58.3278 147.446 69.5911 152.071 84.3742 152.071C93.224 152.071 99.7607 149.758 106.297 144.932C120.578 133.47 126.411 122.109 120.276 111.552C116.957 106.022 112.331 103.307 105.996 102.101C100.561 101.315 92.0768 101.646 85.494 101.904C83.5047 101.982 81.6892 102.053 80.1839 102.084C79.6647 102.095 79.1824 102.101 78.7426 102.101L86.0838 94.8618C91.7155 95.4651 94.5313 94.4596 98.9562 91.745C102.476 89.9352 113.739 78.0711 115.851 74.8538C117.661 72.3402 118.969 69.525 119.773 66.6092C120.578 63.6935 120.879 60.6772 120.678 57.6609C120.477 54.6446 119.773 51.7289 118.667 48.9137C117.46 45.9979 115.851 43.2833 113.84 40.8702C112.03 38.8594 68.5855 0.0498047 68.5855 0.0498047H62.3504L31.3764 28.9056V18.2481H20.2136V39.2616L0 58.1636H4.72657L20.2136 44.1882V112.557H66.9764C66.659 112.896 66.348 113.229 66.0432 113.557ZM63.5053 117.847C59.9119 121.935 57.5668 125.116 56.2426 127.96C54.5113 131.679 54.5177 134.843 55.9442 138.846C57.4786 142.641 60.8746 145.694 65.788 147.809C70.7084 149.928 77.077 151.071 84.3742 151.071C92.9993 151.071 99.3251 148.833 105.687 144.14C112.763 138.458 117.646 132.876 120.028 127.498C122.387 122.171 122.302 117.034 119.415 112.06C116.274 106.83 111.928 104.253 105.831 103.087C102.105 102.551 96.8649 102.548 91.7551 102.686C89.6307 102.743 87.5216 102.826 85.569 102.902C82.8702 103.007 80.4705 103.101 78.7426 103.101H77.1427L76.7508 103.503H30.3764V33.6872L59.559 7.53287L88.5273 35.426L87.2135 36.0441C85.5858 36.8099 83.9423 37.8713 82.4847 39.0371C81.6416 39.7114 79.2013 42.1693 76.5166 44.9969C85.9412 40.8116 95.6088 43.6315 102.441 49.779L102.451 49.7877L102.46 49.7966C110.225 57.1569 114.315 69.0727 109.657 80.5777C112.17 77.891 114.256 75.4609 115.015 74.305L115.027 74.2869L115.04 74.2694C116.777 71.8575 118.034 69.1513 118.809 66.3433C119.584 63.5367 119.874 60.6329 119.681 57.7274C119.487 54.8275 118.81 52.0153 117.74 49.2878C116.572 46.4695 115.02 43.8514 113.085 41.5269C112.879 41.3027 112.056 40.5246 110.698 39.2745C109.34 38.0236 107.497 36.3448 105.334 34.3848C101.008 30.4652 95.4092 25.4267 89.8658 20.4501C84.3227 15.4737 78.836 10.56 74.7351 6.89043C72.6846 5.05564 70.9807 3.5319 69.7893 2.46686L68.2038 1.0498H62.7441L30.3764 31.204V19.2481H21.2136V39.6955L2.53349 57.1636H4.34207L21.2136 41.9388V111.557H86.7986L86.8093 111.558C91.4568 111.658 93.9536 111.732 95.8751 112.048C97.8433 112.372 99.2045 112.948 101.55 113.945C109.525 117.141 115.447 126.876 112.795 136.844L112.682 137.267L112.296 137.471C105.059 141.295 98.524 142.525 88.6062 141.605L88.6017 141.604C77.1837 140.493 69.2894 137.726 65.0855 133.497C62.9554 131.353 61.7781 128.837 61.5946 126.026C61.4267 123.455 62.0942 120.709 63.5053 117.847ZM101.169 114.87C96.4421 112.859 96.1404 112.758 86.7878 112.557H69.0883L64.764 117.585C58.3278 129.65 65.9708 138.397 88.6985 140.609C98.4534 141.514 104.789 140.307 111.829 136.587C114.343 127.136 108.711 117.886 101.169 114.87ZM107.789 82.5409C96.4531 87.627 81.4418 84.5409 74.8724 73.7666C70.4682 66.621 69.9327 57.2692 73.3882 48.3423C71.218 50.6994 69.3148 52.8495 68.474 53.9461L68.4689 53.9527C57.1821 68.4196 65.5544 90.1908 84.1562 93.6778L85.5881 93.9463L85.7191 93.817L86.1904 93.8675C88.9276 94.1607 90.9101 94.0556 92.7184 93.5804C94.5368 93.1026 96.2477 92.2334 98.4333 90.8926L98.4654 90.8729L98.4989 90.8557C99.2497 90.4696 100.526 89.4732 102.117 88.0494C103.68 86.6516 105.467 84.9149 107.217 83.1276C107.408 82.9322 107.599 82.7365 107.789 82.5409ZM75.7256 73.2451C82.1618 83.8021 97.2466 86.7178 108.309 81.188C113.438 69.8266 109.516 57.862 101.772 50.5224C94.7325 44.1882 84.6759 41.574 75.1222 46.8023C70.8985 56.0522 71.2002 65.9054 75.7256 73.2451ZM85.8404 35.6153C84.4527 36.3562 83.0896 37.2728 81.8601 38.2561C79.8488 39.8648 69.9934 50.3213 67.6804 53.3376C56.1525 68.1137 64.3176 90.1284 82.8124 94.4178C83.1946 94.5064 83.5811 94.5875 83.972 94.6607L76.329 102.503H31.3764V34.1339L59.5346 8.89758L86.7878 35.1393C86.4716 35.2881 86.1554 35.4472 85.8404 35.6153Z" fill="white"/>
</svg>
