<svg width="163" height="191" viewBox="0 0 163 191" fill="none" xmlns="http://www.w3.org/2000/svg">
<path d="M7.52381 74.037C11.251 86.2026 20.6551 96.3438 34.9295 99.871L12.6323 122.31L11.6801 123.269L12.5337 124.315C14.0889 126.223 16.5001 127.241 19.0422 127.805C20.5781 128.145 22.2418 128.336 23.9373 128.435C23.6125 128.773 23.2909 129.108 22.9724 129.439C15.0658 137.667 9.10248 143.873 5.52523 149.379C3.47091 152.541 2.13588 155.566 1.67714 158.706C1.21595 161.863 1.6571 165.022 2.97678 168.421C5.6647 175.345 11.9751 180.295 19.3684 183.65C26.7877 187.016 35.5107 188.876 43.4068 189.495L43.4654 189.5H43.5241H43.5799C47.2329 189.5 51.022 189.5 54.8301 188.89H142.95H143.658L144.108 188.344L157.158 172.49L159.178 170.037H156H95.2176C103.141 162.682 108.758 155.234 111.502 147.739C114.523 139.487 114.03 131.251 109.454 123.234L109.454 123.234L109.447 123.222C104.206 114.222 96.3157 109.757 86.0517 107.868L86.0075 107.86L85.9629 107.855C81.3483 107.289 75.0714 106.713 68.6379 107.116V94.3388C70.1346 93.3721 72.0663 91.778 74.1494 89.9103C76.6549 87.664 79.4931 84.917 82.2627 82.1229C87.7812 76.5555 93.1228 70.7043 95.0504 68.1825L95.0654 68.1629L95.0798 68.1427C103.79 55.9331 104.683 40.2462 99.5712 27.2858C104.395 25.8288 110.273 27.1552 113.811 31.619L114.886 32.9755L116.076 31.7183L132.233 14.6456L133.198 13.6254L132.244 12.5951C125.458 5.27098 115.271 5.29702 107.895 11.7785C107.615 11.9498 107.33 12.1808 107.09 12.3851C106.745 12.6778 106.336 13.0518 105.886 13.4791C104.983 14.3355 103.862 15.4555 102.656 16.6764C101.87 17.4731 101.047 18.3129 100.221 19.1565C99.0397 20.3625 97.851 21.5761 96.749 22.6825C92.0806 14.0281 84.1489 6.64139 74.4486 3.65496C62.1336 -0.782853 48.5589 1.77763 38.2432 9.99945C36.5751 11.311 31.8284 16.1343 27.13 21.1224C22.4104 26.1329 17.55 31.5125 15.623 34.0296C5.9978 46.0023 3.5745 61.1463 7.52381 74.037ZM29.7463 24.4881C35.1653 21.9274 41.0602 20.8001 46.9955 21.1094V77.2455C40.0455 74.2637 34.2662 69.8378 30.4912 64.0181C23.4613 53.0942 23.2978 38.6238 29.7463 24.4881ZM33.8218 106.018C33.7728 106.002 33.7249 105.987 33.6781 105.971L40.3657 99.8781C40.9261 99.8965 41.5036 99.9385 42.1326 99.9842C42.6575 100.022 43.2184 100.063 43.8352 100.095C44.827 100.146 45.8933 100.167 46.9955 100.081V107.234H46.9864H46.9733H46.9601H46.9469H46.9338H46.9207H46.9076H46.8945H46.8814H46.8683H46.8552H46.8421H46.8291H46.816H46.803H46.79H46.777H46.764H46.751H46.738H46.7251H46.7121H46.6992H46.6862H46.6733H46.6604H46.6475H46.6346H46.6217H46.6088H46.596H46.5831H46.5703H46.5575H46.5446H46.5318H46.519H46.5062H46.4935H46.4807H46.4679H46.4552H46.4424H46.4297H46.417H46.4043H46.3916H46.3789H46.3662H46.3535H46.3409H46.3282H46.3156H46.303H46.2904H46.2777H46.2651H46.2526H46.24H46.2274H46.2148H46.2023H46.1897H46.1772H46.1647H46.1522H46.1397H46.1272H46.1147H46.1022H46.0897H46.0773H46.0648H46.0524H46.04H46.0275H46.0151H46.0027H45.9903H45.9779H45.9656H45.9532H45.9408H45.9285H45.9161H45.9038H45.8915H45.8792H45.8669H45.8546H45.8423H45.83H45.8177H45.8055H45.7932H45.781H45.7687H45.7565H45.7443H45.7321H45.7199H45.7077H45.6955H45.6833H45.6711H45.659H45.6468H45.6347H45.6225H45.6104H45.5983H45.5862H45.5741H45.562H45.5499H45.5378H45.5258H45.5137H45.5016H45.4896H45.4775H45.4655H45.4535H45.4415H45.4295H45.4175H45.4055H45.3935H45.3815H45.3695H45.3576H45.3456H45.3337H45.3217H45.3098H45.2979H45.286H45.2741H45.2621H45.2503H45.2384H45.2265H45.2146H45.2027H45.1909H45.179H45.1672H45.1554H45.1435H45.1317H45.1199H45.1081H45.0963H45.0845H45.0727H45.0609H45.0491H45.0374H45.0256H45.0139H45.0021H44.9904H44.9786H44.9669H44.9552H44.9435H44.9318H44.9201H44.9084H44.8967H44.885H44.8733H44.8617H44.85H44.8384H44.8267H44.8151H44.8034H44.7918H44.7802H44.7686H44.7569H44.7453H44.7337H44.7221H44.7106H44.699H44.6874H44.6758H44.6643H44.6527H44.6412H44.6296H44.6181H44.6066H44.595H44.5835H44.572H44.5605H44.549H44.5375H44.526H44.5145H44.503H44.4915H44.4801H44.4686H44.4571H44.4457H44.4342H44.4228H44.4114H44.3999H44.3885H44.3771H44.3657H44.3542H44.3428H44.3314H44.32H44.3087H44.2973H44.2859H44.2745H44.2631H44.2518H44.2404H44.2291H44.2177H44.2064H44.195H44.1837H44.1724H44.161H44.1497H44.1384H44.1271H44.1158H44.1045H44.0932H44.0819H44.0706H44.0593H44.048H44.0367H44.0255H44.0142H44.0029H43.9917H43.9804H43.9692H43.9579H43.9467H43.9354H43.9242H43.913H43.9017H43.8905H43.8793H43.8681H43.8569H43.8457H43.8345H43.8233H43.8121H43.8009H43.7897H43.7785H43.7674H43.7562H43.745H43.7338H43.7227H43.7115H43.7004H43.6892H43.6781H43.6669H43.6558H43.6446H43.6335H43.6224H43.6112H43.6001H43.589H43.5779H43.5668H43.5556H43.5445H43.5334H43.5223H43.5112H43.5001H43.489H43.478H43.4669H43.4558H43.4447H43.4336H43.4225H43.4115H43.4004H43.3893H43.3783H43.3672H43.3562H43.3451H43.334H43.323H43.312H43.3009H43.2899H43.2788H43.2678H43.2568H43.2457H43.2347H43.2237H43.2126H43.2016H43.1906H43.1796H43.1686H43.1576H43.1465H43.1355H43.1245H43.1135H43.1025H43.0915H43.0805H43.0695H43.0585H43.0475H43.0365H43.0256H43.0146H43.0036H42.9926H42.9816H42.9706H42.9597H42.9487H42.9377H42.9267H42.9158H42.9048H42.8938H42.8829H42.8719H42.8609H42.85H42.839H42.8281H42.8171H42.8061H42.7952H42.7842H42.7733H42.7623H42.7514H42.7404H42.7295H42.7185H42.7076H42.6967H42.6857H42.6748H42.6638H42.6529H42.642H42.631H42.6201H42.6091H42.5982H42.5873H42.5763H42.5654H42.5545H42.5435H42.5326H42.5217H42.5107H42.4998H42.4889H42.478H42.467H42.4561H42.4452H42.4343H42.4233H42.4124H42.4015H42.3906H42.3796H42.3687H42.3578H42.3469H42.3359H42.325H42.3141H42.3032H42.2922H42.2813C41.4406 107.234 39.1918 107.09 36.9307 106.72C35.8037 106.536 34.7167 106.302 33.8218 106.018ZM20.7069 145.561C20.2495 142.25 20.8726 138.597 22.9867 134.645L29.8447 127.916C34.8609 127.916 41.2979 127.899 46.9955 127.445V166.604C37.985 164.384 30.0624 160.262 25.3031 154.915C22.7795 152.08 21.1731 148.935 20.7069 145.561ZM77.0412 130.812L77.0845 130.833L77.1291 130.851C88.1992 135.425 96.8619 148.412 93.2211 161.942C86.4197 165.145 77.0662 167.368 68.0164 168.098V128.187C71.1239 128.72 74.0875 129.363 77.0412 130.812ZM80.2684 75.3442C76.7322 77.2407 72.7452 78.3373 68.6379 78.9657V29.0507C69.1093 29.3434 69.496 29.6149 69.8158 29.9287L69.8295 29.9421L69.8436 29.9552C81.7931 41.094 87.7182 58.5038 80.2684 75.3442Z" stroke="white" stroke-width="3"/>
</svg>
