<svg width="232" height="153" viewBox="0 0 232 153" fill="none" xmlns="http://www.w3.org/2000/svg">
<path d="M128.325 0.5H130.166V25.0651H128.325V0.5Z" stroke="white"/>
<path d="M135.992 2.42518C136.666 1.76462 137.725 1.78209 138.308 2.30154C138.823 2.75992 138.852 3.74208 138.155 4.43113C137.375 5.13047 136.385 5.12434 135.832 4.63165C135.303 4.16106 135.229 3.17179 135.992 2.42518ZM136.285 9.28133H137.641V25.0647H136.285V9.28133Z" stroke="white"/>
<path d="M149.106 24.2543L155.01 9.02148H155.503L149.338 25.0649H148.792L149.106 24.2543ZM148.488 25.0649H146.3L139.924 9.02148H142.269L148.173 24.2543L148.488 25.0649Z" stroke="white"/>
<path d="M157.296 2.42518C157.97 1.76462 159.029 1.78209 159.612 2.30154C160.127 2.75992 160.156 3.74208 159.459 4.43113C158.679 5.13047 157.689 5.12434 157.136 4.63165C156.607 4.16106 156.534 3.17179 157.296 2.42518ZM157.589 9.28133H158.945V25.0647H157.589V9.28133Z" stroke="white"/>
<path d="M166.681 14.1759L167.354 13.0596C166.966 14.1435 166.755 15.2525 166.755 16.4804V25.0652H165.253V8.48173H166.681V12.3776V14.1759ZM178.456 13.037V25.0652H177.027V15.6745C177.027 14.0557 176.901 12.4277 176.37 11.1913C176.101 10.5641 175.718 10.0143 175.174 9.62269C174.628 9.23021 173.957 9.02256 173.155 9.0203C172.422 8.98339 171.694 9.07628 170.99 9.26886C171.339 8.97212 171.661 8.72399 171.992 8.51441C172.676 8.08284 173.413 7.81078 174.529 7.67199L174.529 7.67202L174.534 7.67127C175.314 7.56541 175.946 7.57516 176.45 7.7349C176.932 7.88777 177.329 8.18717 177.636 8.73822L177.646 8.75593L177.657 8.77278C177.966 9.23417 178.172 9.90187 178.296 10.6798C178.419 11.4492 178.456 12.2808 178.456 13.037Z" stroke="white"/>
<path d="M184.053 22.8076L185.598 21.2788C185.637 21.2927 185.676 21.3049 185.713 21.3158C185.867 21.3605 186.042 21.3944 186.202 21.4212C186.336 21.4435 186.472 21.4629 186.588 21.4796C186.612 21.483 186.636 21.4863 186.658 21.4895C186.802 21.5103 186.884 21.5237 186.918 21.5325L186.979 21.5484H187.043C187.356 21.5484 187.768 21.5399 188.236 21.5303C189.639 21.5014 191.535 21.4624 192.704 21.6122C193.904 21.7994 194.764 22.3431 195.345 23.3C195.885 24.2117 195.907 25.1547 195.452 26.1542C195.256 26.5833 194.972 27.0236 194.601 27.4719C194.667 25.6302 193.439 24.0047 191.894 23.4039C190.963 23.0213 189.925 22.9633 189.055 22.9147C188.901 22.906 188.752 22.8977 188.61 22.8879L188.593 22.8868H188.576C188.102 22.8868 187.529 22.9041 186.967 22.9212L186.961 22.9214C186.691 22.9296 186.424 22.9377 186.169 22.9439L186.224 22.8868H185.043C184.685 22.8868 184.345 22.8693 184.072 22.8116C184.066 22.8103 184.06 22.8089 184.053 22.8076ZM183.511 25.7061C183.51 25.8712 183.525 26.0345 183.554 26.1955C183.669 26.837 184.011 27.3956 184.473 27.8582C185.388 28.7738 186.834 29.3733 188.303 29.5899L188.319 29.5923L188.336 29.5936C189.237 29.6651 190.304 29.6472 191.339 29.5137C191.799 29.4543 192.261 29.3711 192.702 29.26C192.651 29.2991 192.6 29.3382 192.549 29.3773C191.249 30.2667 188.971 30.8583 187.213 30.7286L187.194 30.7273H187.176C186.162 30.7273 185.098 30.5466 184.223 30.174C183.343 29.7996 182.71 29.2583 182.444 28.5706C182.303 28.2075 182.271 27.9095 182.313 27.6312C182.357 27.3472 182.485 27.044 182.727 26.6817C182.927 26.3822 183.187 26.0645 183.511 25.7061ZM186.516 19.1647C184.721 18.8008 183.579 17.6124 183.139 16.1816C182.688 14.7174 182.97 12.9823 184.098 11.598L184.104 11.5906L184.11 11.5831C184.147 11.5338 184.196 11.4728 184.256 11.402C183.963 12.9083 184.193 14.4277 184.955 15.6081C185.707 16.809 186.967 17.5591 188.324 17.8652C189.124 18.0456 189.973 18.0756 190.796 17.9467C190.767 17.9721 190.738 17.997 190.71 18.0213C190.377 18.3098 190.142 18.4797 190.029 18.5324L190.008 18.5424L189.988 18.5544C189.171 19.036 187.888 19.2354 186.836 19.1077L186.608 19.08L186.516 19.1647ZM193.143 15.5473C193.38 13.549 192.542 11.6519 191.185 10.3687L191.18 10.3636L191.174 10.3586C189.941 9.25981 188.262 8.68714 186.546 9.00266C186.771 8.78817 186.931 8.64529 187.006 8.58966L187.006 8.58977L187.016 8.58258C188.225 7.64679 189.781 7.3439 191.209 7.83343C192.268 8.21693 193.096 8.9373 193.652 9.87846L193.611 9.89229L193.857 10.3997C194.579 11.8883 194.457 13.8184 193.376 15.2441L193.368 15.2546L193.36 15.2656C193.312 15.3365 193.238 15.4325 193.143 15.5473ZM196.618 10.0355C196.273 9.78066 195.88 9.63262 195.478 9.57609C195.531 9.52235 195.584 9.46903 195.637 9.41666C195.799 9.25296 195.951 9.09847 196.068 8.97503C196.125 8.91367 196.178 8.85603 196.221 8.80666L196.223 8.80413C196.238 8.78682 196.263 8.75684 196.29 8.71997C196.82 8.24432 197.525 8.1883 198.096 8.5113L196.618 10.0355Z" stroke="white"/>
<path d="M147.26 64.7484C147.493 64.4065 147.803 64.0425 148.191 63.627C148.183 63.8349 148.197 64.0402 148.235 64.2422C148.359 64.9167 148.726 65.5034 149.223 65.9892C150.207 66.9511 151.763 67.5825 153.346 67.8106L153.354 67.8117L153.361 67.8126C154.853 67.9797 156.683 67.8626 158.222 67.4426C158.138 67.5067 158.053 67.5709 157.966 67.6352C156.55 68.5832 154.07 69.2126 152.153 69.0745L152.136 69.0732H152.118C151.052 69.0732 149.91 68.8816 148.952 68.4834C147.993 68.0845 147.275 67.5037 146.948 66.7593C146.797 66.3755 146.762 66.0591 146.808 65.7629C146.856 65.4584 146.997 65.1343 147.26 64.7484ZM160.114 65.7077C160.242 63.7191 158.897 61.9564 157.209 61.3155C156.21 60.9137 155.095 60.8527 154.152 60.8011C153.985 60.7919 153.822 60.783 153.667 60.7726L153.651 60.7715H153.634C153.121 60.7715 152.501 60.7899 151.892 60.808L151.886 60.8081C151.565 60.8176 151.247 60.8271 150.945 60.8339L151.007 60.7715H149.807C149.418 60.7715 149.045 60.753 148.744 60.6908C148.717 60.6853 148.692 60.6795 148.668 60.6737L150.395 59.0024C150.446 59.0211 150.498 59.0372 150.547 59.0513C150.711 59.0978 150.898 59.1333 151.071 59.1615C151.215 59.1851 151.362 59.2055 151.488 59.2232C151.514 59.2268 151.54 59.2303 151.564 59.2338C151.719 59.2556 151.811 59.2702 151.851 59.2804L151.911 59.2955H151.973C152.31 59.2955 152.755 59.2866 153.26 59.2764C154.781 59.2459 156.843 59.2044 158.114 59.3637C159.429 59.564 160.372 60.1473 161.005 61.1689C161.595 62.1413 161.618 63.1461 161.123 64.21C160.896 64.6974 160.559 65.198 160.114 65.7077ZM151.417 56.8344C149.439 56.4511 148.184 55.1758 147.703 53.648C147.213 52.0923 147.519 50.2483 148.747 48.775L148.753 48.7677L148.759 48.7601C148.824 48.6762 148.923 48.5601 149.047 48.4212C148.656 50.0886 148.887 51.7908 149.749 53.0967C150.559 54.3601 151.914 55.1482 153.373 55.4698C154.237 55.6603 155.154 55.6912 156.043 55.5536C156.021 55.5723 155.999 55.5908 155.978 55.609C155.617 55.9139 155.359 56.0976 155.23 56.1564L155.209 56.1661L155.189 56.1777C154.294 56.6939 152.892 56.906 151.743 56.7697L151.519 56.7431L151.417 56.8344ZM158.568 53.0434C158.845 50.9078 157.887 48.8652 156.419 47.5702L156.419 47.5701L156.417 47.568C155.039 46.3675 153.146 45.7662 151.231 46.1852C151.257 46.1612 151.281 46.1377 151.306 46.1146C151.599 45.8374 151.81 45.6517 151.904 45.5835L151.905 45.5836L151.914 45.5766C153.234 44.5777 154.939 44.252 156.503 44.7767C157.672 45.1902 158.581 45.9692 159.186 46.9829L159.141 46.9983L159.395 47.5117C160.18 49.0941 160.048 51.1454 158.87 52.6632L158.862 52.6738L158.855 52.6847C158.794 52.7723 158.695 52.8952 158.568 53.0434ZM162.352 47.1804C161.957 46.8861 161.503 46.7224 161.039 46.6692C161.11 46.5996 161.181 46.5305 161.249 46.4629C161.426 46.2896 161.59 46.1263 161.716 45.996C161.778 45.9312 161.835 45.8706 161.88 45.8189L161.882 45.8165C161.899 45.7977 161.927 45.7655 161.956 45.7263C162.556 45.198 163.362 45.1442 164.003 45.5154L162.352 47.1804Z" stroke="white"/>
<path d="M168.179 49.6195L168.893 48.7809C168.778 49.1323 168.677 49.4951 168.591 49.8617C168.317 51.0306 168.179 52.2731 168.179 53.3696V61.992H166.673V45.477H168.179V48.2611V49.6195ZM171.599 46.0111C172.735 45.1054 173.908 44.568 175.294 44.5283C176.027 44.5295 176.452 44.7179 176.762 44.9887C177.099 45.2829 177.345 45.7103 177.654 46.3025C177.7 46.3924 177.748 46.4874 177.798 46.5856C178.009 47.0044 178.25 47.4822 178.557 47.8754C178.789 48.1723 179.07 48.439 179.423 48.6289L177.705 50.2799C177.272 50.1661 176.923 49.8396 176.627 49.3896C176.495 49.1505 176.377 48.8899 176.248 48.6044L176.234 48.5725C176.099 48.2759 175.953 47.9544 175.778 47.6484C175.426 47.0309 174.933 46.4301 174.103 46.1171C173.454 45.8524 172.651 45.845 171.938 45.9512C171.825 45.9681 171.711 45.9881 171.599 46.0111Z" stroke="white"/>
<path d="M179.461 53.6767C179.521 52.0134 180.164 50.3502 181.191 49.1161C180.976 49.8404 180.851 50.5906 180.814 51.3576L180.789 51.8814H181.314H191.937V51.5125L192.437 51.4527V51.3814V50.8814H192.296C191.567 48.5638 189.668 46.7034 187.291 46.056L187.277 46.052L187.262 46.0489C186.224 45.833 185.223 45.8127 184.291 45.9965C184.907 45.483 185.454 45.1351 185.978 44.9422L185.99 44.9377L186.002 44.9326C187.813 44.1574 190.048 44.5386 191.634 45.7259C193.28 46.9921 194.092 49.0797 194.079 51.1702L192.015 53.2318H181.456H180.86L180.964 53.8187C181.638 57.6359 184.582 60.5641 188.147 60.6416L188.147 60.6417H188.158C188.807 60.6417 189.51 60.5296 190.199 60.3352C189.962 60.5295 189.728 60.7066 189.491 60.8672C188.494 61.5421 187.446 61.9234 185.937 61.992C183.895 61.9888 182.261 61.0891 181.141 59.6164C180.012 58.1313 179.392 56.0424 179.461 53.6767Z" stroke="white"/>
<path d="M196.504 53.6767C196.566 51.9544 197.254 50.2321 198.345 48.9864C198.107 49.7507 197.968 50.5447 197.929 51.3576L197.904 51.8814H198.428H209.051V51.5125L209.551 51.4527V51.3814V50.8814H209.411C208.682 48.5638 206.782 46.7034 204.406 46.056L204.391 46.052L204.377 46.0489C203.304 45.8257 202.27 45.8115 201.311 46.0159C201.936 45.4918 202.491 45.1375 203.021 44.9422L203.034 44.9377L203.046 44.9326C204.856 44.1574 207.091 44.5386 208.678 45.7259C210.324 46.9921 211.136 49.0797 211.122 51.1702L209.058 53.2318H198.5H197.904L198.007 53.8187C198.682 57.6359 201.625 60.5641 205.191 60.6416L205.191 60.6417H205.201C205.85 60.6417 206.554 60.5296 207.243 60.3352C207.006 60.5295 206.771 60.7066 206.534 60.8672C205.537 61.5421 204.489 61.9234 202.98 61.992C200.939 61.9888 199.305 61.0891 198.185 59.6164C197.055 58.1313 196.436 56.0424 196.504 53.6767Z" stroke="white"/>
<path d="M214.971 51.1027L215.839 49.663C215.373 50.8504 215.118 52.0568 215.118 53.4072V61.992H213.69V45.4818H214.971V49.3044V51.1027ZM226.745 49.9637V61.992H225.39V52.6013C225.39 50.9824 225.264 49.3545 224.734 48.118C224.464 47.4908 224.081 46.941 223.537 46.5494C222.992 46.157 222.32 45.9493 221.518 45.9471C220.747 45.9082 219.982 46.0131 219.244 46.2265C219.606 45.916 219.939 45.658 220.282 45.4412C220.966 45.0096 221.703 44.7375 222.818 44.5987L222.818 44.5988L222.824 44.598C223.603 44.4922 224.235 44.5019 224.739 44.6617C225.222 44.8145 225.618 45.1139 225.926 45.665L225.935 45.6827L225.947 45.6995C226.256 46.1609 226.462 46.8286 226.586 47.6066C226.709 48.3759 226.745 49.2075 226.745 49.9637Z" stroke="white"/>
<path d="M138.022 96.2813L138.783 94.9886C138.418 96.0072 138.219 97.0483 138.219 98.2042V106.021H137.045V82.876H138.022V94.4484V96.2813ZM148.63 95.052V106.021H147.521V97.4665C147.521 95.9843 147.409 94.4882 146.93 93.3494C146.688 92.7713 146.341 92.2605 145.844 91.8952C145.346 91.5286 144.732 91.3351 144.004 91.3327C143.341 91.2988 142.685 91.3845 142.051 91.5615C142.33 91.3217 142.592 91.1187 142.861 90.9449C143.466 90.5549 144.117 90.3085 145.108 90.1825L145.108 90.1825L145.113 90.1817C145.807 90.0855 146.363 90.0952 146.812 90.2383C147.241 90.3752 147.607 90.6454 147.91 91.1511L147.915 91.1595L147.921 91.1677C148.193 91.5832 148.376 92.1884 148.487 92.8992C148.597 93.6011 148.63 94.3606 148.63 95.052Z" stroke="white"/>
<path d="M159.991 107.438L159.991 107.438L159.982 107.437C155.627 107.371 152.155 103.571 152.493 99.2466C152.656 97.4576 153.215 96.3005 154.221 95.0892C153.529 97.3654 153.82 99.7687 154.969 101.794L154.971 101.796C157.036 105.397 161.052 106.874 164.866 105.637C163.321 106.868 161.667 107.494 159.991 107.438ZM169.854 98.7704C169.582 100.325 169.036 101.349 168.152 102.397C168.833 100.239 168.669 97.8748 167.447 95.764C165.539 92.2841 161.49 90.6513 157.756 91.6592C159.248 90.5573 160.702 89.9775 162.368 89.9775C164.742 89.9775 167.059 91.1743 168.492 93.1076C169.716 94.8399 170.125 96.9054 169.854 98.7704Z" stroke="white"/>
<path d="M192.067 91.3845C191.387 91.3512 190.714 91.4336 190.061 91.6054C190.439 91.2844 190.778 91.0227 191.129 90.8064C191.764 90.4153 192.45 90.1679 193.49 90.0417L193.495 90.0409C194.222 89.9447 194.81 89.9535 195.287 90.0988C195.732 90.2341 196.107 90.4958 196.417 90.97C196.784 92.0215 196.919 93.6548 196.919 95.0924V106.021H195.718V97.4984C195.718 96.0207 195.6 94.5258 195.1 93.3873C194.845 92.8087 194.482 92.3006 193.967 91.9389C193.452 91.5768 192.819 91.3866 192.067 91.3845ZM186.412 95.5786C186.137 96.4182 185.982 97.2869 185.982 98.2336V105.954H184.712V96.2286V96.2143L184.711 96.2001C184.641 94.9745 184.429 93.7719 183.884 92.8635C183.315 91.9161 182.401 91.3214 181.06 91.3176C180.426 91.2865 179.797 91.3563 179.186 91.5054C179.486 91.259 179.766 91.0508 180.054 90.8732C180.689 90.4821 181.375 90.2348 182.415 90.1085L182.415 90.1085L182.42 90.1078C183.147 90.0115 183.735 90.0204 184.212 90.1656C184.67 90.3051 185.055 90.5789 185.371 91.0813L185.376 91.0898L185.382 91.098C185.603 91.4202 185.775 91.8975 185.898 92.4808C186.02 93.0565 186.087 93.6971 186.12 94.3175L186.206 95.9107L186.412 95.5786ZM175.47 95.4295C175.193 96.2966 175.044 97.1905 175.044 98.1668V105.954H173.774V90.9141H175.044V94.3573V96.1185L175.47 95.4295Z" stroke="white"/>
<path d="M200.765 99.126C200.826 97.4064 201.509 95.6872 202.592 94.4421C202.355 95.2044 202.218 95.9963 202.179 96.807L202.154 97.3307H202.679H213.256V96.9614L213.756 96.9019V96.8307V96.3307H213.616C212.89 94.0139 210.999 92.1531 208.632 91.5053L208.615 91.5008L208.598 91.4974C207.502 91.2774 206.491 91.2612 205.558 91.4585C206.178 90.9377 206.727 90.5856 207.253 90.3912L207.266 90.3867L207.278 90.3815C209.079 89.607 211.303 89.9876 212.882 91.1745C214.519 92.4391 215.331 94.5265 215.38 96.6264L213.333 98.681H202.75H202.154L202.257 99.2676C202.929 103.087 205.862 106.013 209.483 106.091L209.483 106.091H209.494C210.141 106.091 210.831 105.986 211.508 105.799C211.278 105.987 211.05 106.16 210.819 106.317C209.826 106.992 208.784 107.373 207.282 107.441C205.216 107.438 203.572 106.522 202.447 105.039C201.313 103.545 200.697 101.455 200.765 99.126Z" stroke="white"/>
<path d="M216.388 103.162L217.912 101.676C218.171 102.786 218.829 103.698 219.717 104.392C220.865 105.29 222.401 105.831 224.001 106.017L224.001 106.017L224.014 106.018C225.229 106.126 226.508 106.079 227.722 105.745C227.679 105.783 227.637 105.821 227.594 105.86L227.586 105.867L227.578 105.874C227.006 106.433 226.166 106.829 225.215 107.084C224.276 107.337 223.268 107.44 222.394 107.441C220.683 107.337 219.163 106.842 218.084 106.059C217.069 105.323 216.452 104.341 216.388 103.162ZM229.459 104.142C229.534 103.411 229.39 102.672 229.01 102.054C228.499 101.223 227.669 100.653 226.766 100.241C225.863 99.8289 224.841 99.5533 223.885 99.3378C223.396 99.2104 222.928 99.0946 222.47 98.9816C221.939 98.8504 221.423 98.7229 220.91 98.5853C219.974 98.3344 219.148 98.0746 218.488 97.7611C217.823 97.4451 217.384 97.101 217.154 96.7145C216.939 96.3526 216.868 95.8843 217.088 95.208L217.091 95.199L217.094 95.1899C217.155 94.9733 217.367 94.6174 217.736 94.159C217.932 93.9151 218.16 93.6571 218.408 93.3949C218.388 93.7987 218.455 94.1783 218.608 94.5318C218.877 95.1528 219.382 95.6284 219.979 96.0019C221.158 96.7395 222.865 97.1809 224.461 97.5348L224.461 97.5349C226.405 97.9641 228.038 98.3799 229.202 98.9856C230.341 99.5783 230.944 100.303 231.004 101.343C231.032 102.043 230.674 102.757 230.018 103.533C229.846 103.737 229.658 103.94 229.459 104.142ZM228.87 94.7879C228.426 93.2135 226.994 92.1694 225.345 91.6643C223.832 91.2007 222.041 91.151 220.401 91.5649C220.925 91.1457 221.395 90.8214 221.716 90.6636C223.497 89.8642 225.685 89.7804 227.432 90.3235C229.105 90.8434 230.246 91.8828 230.404 93.2912L228.87 94.7879Z" stroke="white"/>
<path d="M20.7136 39.2616V18.7481H30.8764V28.9056V30.0548L31.7172 29.2715L62.5473 0.549805H68.3947L68.7407 0.858972L70.1225 2.09409C71.3139 3.15918 73.018 4.68298 75.0685 6.51783C79.1696 10.1875 84.6564 15.1014 90.1998 20.078C95.7433 25.0547 101.343 30.0938 105.669 34.0142C107.833 35.9745 109.677 37.6544 111.037 38.9067C112.396 40.1587 113.246 40.9605 113.462 41.1981C115.435 43.567 117.016 46.2334 118.203 49.1005C119.292 51.872 119.982 54.736 120.179 57.6942C120.377 60.655 120.081 63.6151 119.291 66.4762C118.502 69.3381 117.219 72.0988 115.445 74.5616L115.439 74.5703L115.433 74.5794C114.408 76.1414 111.098 79.879 107.574 83.4774C105.819 85.2697 104.024 87.0146 102.451 88.422C100.863 89.8424 99.5429 90.8811 98.7276 91.3003L98.7108 91.3089L98.6947 91.3188C96.4957 92.6679 94.7352 93.5675 92.8455 94.064C90.9608 94.5593 88.9136 94.6621 86.1371 94.3647L85.9015 94.3394L85.7328 94.5058L78.3915 101.745L77.5234 102.601H78.7426C80.4639 102.601 82.8444 102.508 85.5315 102.403C87.4847 102.327 89.5998 102.244 91.7416 102.186C96.8547 102.048 102.14 102.05 105.913 102.594C112.13 103.78 116.616 106.426 119.846 111.806C122.823 116.932 122.903 122.241 120.485 127.7C118.056 133.186 113.1 138.83 105.992 144.536C99.5428 149.296 93.1115 151.571 84.3742 151.571C77.0299 151.571 70.5897 150.421 65.5903 148.268C60.5943 146.117 57.0736 142.982 55.4767 139.024C54.0092 134.911 53.9934 131.607 55.7893 127.749C57.6114 123.835 61.3023 119.339 67.3412 112.899L68.1307 112.057H66.9764H66.9677H66.9579H66.9472H66.9354H66.9227H66.909H66.8943H66.8786H66.862H66.8443H66.8257H66.8062H66.7857H66.7642H66.7418H66.7184H66.6941H66.6689H66.6427H66.6156H66.5876H66.5586H66.5288H66.498H66.4663H66.4337H66.4002H66.3658H66.3305H66.2943H66.2572H66.2193H66.1804H66.1407H66.1002H66.0587H66.0164H65.9732H65.9292H65.8844H65.8386H65.7921H65.7447H65.6965H65.6474H65.5975H65.5468H65.4953H65.443H65.3898H65.3359H65.2811H65.2255H65.1692H65.1121H65.0541H64.9954H64.9359H64.8757H64.8146H64.7528H64.6903H64.627H64.5629H64.4981H64.4325H64.3662H64.2991H64.2313H64.1628H64.0936H64.0236H63.9529H63.8815H63.8094H63.7366H63.6631H63.5889H63.514H63.4384H63.3621H63.2851H63.2075H63.1292H63.0502H62.9705H62.8902H62.8092H62.7276H62.6453H62.5623H62.4788H62.3946H62.3097H62.2242H62.1381H62.0514H61.9641H61.8761H61.7875H61.6983H61.6086H61.5182H61.4272H61.3356H61.2435H61.1508H61.0574H60.9636H60.8691H60.7741H60.6785H60.5823H60.4856H60.3884H60.2906H60.1922H60.0934H59.9939H59.894H59.7935H59.6925H59.591H59.489H59.3864H59.2834H59.1798H59.0758H58.9712H58.8662H58.7607H58.6547H58.5482H58.4412H58.3338H58.2259H58.1176H58.0087H57.8995H57.7897H57.6796H57.569H57.4579H57.3464H57.2345H57.1222H57.0094H56.8962H56.7826H56.6686H56.5542H56.4393H56.3241H56.2085H56.0925H55.9761H55.8593H55.7421H55.6246H55.5067H55.3884H55.2698H55.1508H55.0315H54.9118H54.7917H54.6713H54.5506H54.4295H54.3081H54.1864H54.0644H53.942H53.8193H53.6963H53.573H53.4494H53.3255H53.2013H53.0768H52.952H52.827H52.7016H52.576H52.4501H52.324H52.1976H52.0709H51.944H51.8168H51.6894H51.5617H51.4338H51.3056H51.1772H51.0486H50.9198H50.7908H50.6615H50.532H50.4023H50.2724H50.1424H50.0121H49.8816H49.7509H49.6201H49.4891H49.3579H49.2265H49.095H48.9633H48.8314H48.6994H48.5672H48.4349H48.3024H48.1698H48.0371H47.9042H47.7712H47.6381H47.5049H47.3715H47.2381H47.1045H46.9708H46.837H46.7032H46.5692H46.4352H46.301H46.1668H46.0325H45.8982H45.7637H45.6292H45.4947H45.3601H45.2254H45.0907H44.956H44.8212H44.6863H44.5515H44.4166H44.2817H44.1467H44.0118H43.8768H43.7419H43.6069H43.4719H43.337H43.202H43.0671H42.9321H42.7972H42.6623H42.5275H42.3927H42.2579H42.1231H41.9884H41.8538H41.7192H41.5846H41.4501H41.3157H41.1813H41.0471H40.9128H40.7787H40.6447H40.5107H40.3768H40.2431H40.1094H39.9758H39.8424H39.709H39.5758H39.4427H39.3097H39.1769H39.0441H38.9115H38.7791H38.6468H38.5146H38.3826H38.2508H38.1191H37.9876H37.8562H37.725H37.594H37.4632H37.3325H37.2021H37.0718H36.9417H36.8118H36.6822H36.5527H36.4235H36.2944H36.1656H36.037H35.9087H35.7805H35.6526H35.525H35.3976H35.2704H35.1435H35.0168H34.8904H34.7643H34.6384H34.5128H34.3875H34.2625H34.1377H34.0133H33.8891H33.7652H33.6416H33.5183H33.3954H33.2727H33.1504H33.0283H32.9066H32.7853H32.6642H32.5435H32.4232H32.3031H32.1835H32.0641H31.9452H31.8266H31.7083H31.5904H31.4729H31.3558H31.239H31.1227H31.0067H30.8911H30.7759H30.6611H30.5467H30.4327H30.3192H30.206H30.0933H29.981H29.8691H29.7576H29.6466H29.536H29.4259H29.3162H29.2069H29.0981H28.9898H28.882H28.7746H28.6676H28.5612H28.4552H28.3497H28.2447H28.1402H28.0362H27.9327H27.8297H27.7272H27.6252H27.5237H27.4228H27.3223H27.2224H27.123H27.0242H26.9259H26.8281H26.7309H26.6343H26.5381H26.4426H26.3476H26.2532H26.1594H26.0661H25.9734H25.8813H25.7898H25.6988H25.6085H25.5187H25.4296H25.3411H25.2532H25.1659H25.0792H24.9931H24.9077H24.8229H24.7387H24.6552H24.5723H24.4901H24.4085H24.3275H24.2473H24.1677H24.0887H24.0104H23.9328H23.8559H23.7797H23.7041H23.6293H23.5551H23.4816H23.4089H23.3368H23.2655H23.1948H23.1249H23.0557H22.9873H22.9195H22.8526H22.7863H22.7208H22.656H22.592H22.5287H22.4662H22.4045H22.3435H22.2833H22.2239H22.1652H22.1073H22.0503H21.994H21.9385H21.8838H21.8299H21.7768H21.7245H21.673H21.6224H21.5726H21.5236H21.4754H21.4281H21.3816H21.3359H21.2911H21.2472H21.2041H21.1618H21.1204H21.0799H21.0403H21.0015H20.9636H20.9266H20.8905H20.8553H20.8209H20.7875H20.7549H20.7233H20.7136V44.1882V43.0635L19.8786 43.817L4.53432 57.6636H1.26674L20.5551 39.6268L20.7136 39.4785V39.2616ZM108.532 81.6352L108.691 81.5557L108.764 81.3937C113.996 69.8048 109.985 57.6185 102.116 50.1595L102.116 50.1594L102.106 50.1507C94.9437 43.7056 84.66 41.0128 74.8822 46.3637L74.7364 46.4434L74.6674 46.5946C70.3866 55.9696 70.6728 66.0021 75.2996 73.5067C81.897 84.3264 97.2848 87.2577 108.532 81.6352ZM76.329 103.003H76.5399L76.6871 102.852L84.3301 95.0097L84.9815 94.3413L84.0641 94.1693C65.1089 90.616 56.5482 68.4193 68.0746 53.6451L68.0772 53.6418C69.2156 52.1572 72.2398 48.8074 75.2475 45.6117C78.2626 42.4081 81.201 39.4235 82.1724 38.6466C83.6554 37.4604 85.332 36.3768 87.0007 35.5917L87.6576 35.2827L87.1346 34.7791L59.8814 8.53741L59.5468 8.21523L59.2009 8.52524L31.0427 33.7615L30.8764 33.9106V34.1339V102.503V103.003H31.3764H76.329ZM112.062 137.029L112.256 136.927L112.312 136.716C114.895 127.006 109.118 117.514 101.359 114.408C99.005 113.406 97.6958 112.854 95.7941 112.542C93.9156 112.233 91.4605 112.158 86.7986 112.057L86.7986 112.057H86.7878H69.0883H68.8589L68.7093 112.231L64.385 117.258L64.3489 117.3L64.3229 117.349C62.6844 120.421 61.9191 123.323 62.0935 125.994C62.2685 128.675 63.3883 131.08 65.4402 133.144C69.5157 137.245 77.2592 139.998 88.6501 141.107L88.6524 141.107C98.4887 142.019 104.924 140.801 112.062 137.029Z" stroke="white"/>
</svg>
