<svg width="253" height="307" viewBox="0 0 253 307" fill="none" xmlns="http://www.w3.org/2000/svg">
<path d="M147.161 278.669C176.96 252.361 188.263 226.053 173.877 200.757C165.657 186.591 153.326 179.508 136.885 176.473C128.664 175.461 117.361 174.449 106.058 175.461V150.165C115.306 145.106 144.078 114.751 150.243 106.656C164.629 86.4193 165.657 60.1116 156.409 38.863C165.657 34.8156 177.988 36.8393 185.181 45.9458L211.897 17.6144C201.622 6.48416 186.208 6.48416 174.905 16.6025C172.85 17.6144 161.547 29.7564 154.354 36.8393C147.161 21.6617 133.802 8.50784 117.361 3.44865C97.8375 -3.63421 76.2586 0.413137 59.8176 13.567C54.6797 17.6144 28.9906 44.934 22.8252 53.0287C-8.00182 91.4785 7.41167 150.165 57.7624 159.272L17.6873 199.745C21.7976 204.804 31.0457 205.816 40.2938 205.816C8.43924 239.207 -5.94669 252.361 2.27384 273.609C10.4944 294.858 41.3214 304.976 67.0105 307C73.1759 307 79.3413 307 85.5067 305.988H231.421L253 279.68H147.161V278.669ZM123.527 209.864C143.05 217.958 158.464 241.231 151.271 265.515C138.94 271.586 121.472 275.633 105.03 276.645V204.804C111.196 205.816 117.361 206.828 123.527 209.864ZM105.03 37.8511C107.086 39.8748 110.168 40.8867 112.223 42.9103C132.775 62.1352 143.05 92.4904 129.692 121.834C122.499 125.881 114.279 127.905 106.058 128.917V37.8511H105.03ZM43.3765 102.609C31.0457 83.3838 31.0457 58.0879 42.3489 33.8038C52.6246 28.7446 63.9278 26.7209 75.231 27.7328V126.893C61.8727 121.834 50.5695 113.739 43.3765 102.609ZM60.8451 158.26C64.9554 158.26 70.0932 159.272 75.231 158.26V175.461C71.1208 175.461 68.0381 175.461 64.9554 175.461C61.8727 175.461 49.5419 174.449 46.4592 171.414L60.8451 158.26ZM31.0457 216.946L43.3765 204.804C52.6246 204.804 64.9554 204.804 75.231 203.793V274.621C42.3489 267.538 15.6322 245.278 31.0457 216.946Z" fill="black"/>
</svg>
