<svg width="175" height="115" viewBox="0 0 175 115" fill="none" xmlns="http://www.w3.org/2000/svg">
<path d="M97.6257 1H97.773V18.3252H97.6257V1Z" fill="black" stroke="black" stroke-width="2"/>
<path d="M103.234 2.27753C103.517 2.00041 103.947 2.03535 104.136 2.20424C104.174 2.23791 104.221 2.31028 104.214 2.45044C104.207 2.58858 104.144 2.7561 104.007 2.89706C103.605 3.24871 103.223 3.15349 103.092 3.03648C103.012 2.9653 102.864 2.63976 103.234 2.27753Z" fill="black" stroke="black" stroke-width="2"/>
<path d="M107.118 7.44141L111.337 18.3248H111.013L106.688 7.44141H107.118Z" fill="black" stroke="black" stroke-width="2"/>
<path d="M119.338 2.27753C119.621 2.00041 120.051 2.03535 120.24 2.20424C120.278 2.23791 120.325 2.31028 120.318 2.45044C120.311 2.58858 120.248 2.7561 120.111 2.89706C119.71 3.24871 119.327 3.15349 119.196 3.03648C119.116 2.9653 118.969 2.63976 119.338 2.27753Z" fill="black" stroke="black" stroke-width="2"/>
<path d="M134.163 8.17121C134.233 8.60766 134.264 9.08143 134.273 9.54218C134.19 9.07265 134.069 8.62257 133.893 8.21427C133.658 7.66621 133.307 7.14771 132.78 6.76899C132.569 6.61702 132.341 6.4958 132.098 6.40474C132.606 6.3423 132.953 6.36369 133.194 6.43991C133.404 6.5064 133.578 6.62668 133.735 6.90846L133.755 6.94388L133.778 6.97757C133.938 7.21675 134.075 7.61789 134.163 8.17121Z" fill="black" stroke="black" stroke-width="2"/>
<path d="M145.287 17.1139C145.045 17.0145 144.794 16.9406 144.543 16.8848C144.929 16.895 145.287 16.9157 145.581 16.953C146.323 17.0704 146.8 17.3876 147.132 17.9329C147.34 18.2848 147.411 18.6361 147.341 19.0197C146.906 18.1419 146.149 17.4505 145.287 17.1139ZM144.332 6.50809C144.897 6.714 145.359 7.07456 145.701 7.55386L145.981 8.13253C146.153 8.48778 146.248 8.88508 146.261 9.2898C145.96 8.56235 145.504 7.91106 144.948 7.38595L144.938 7.37575L144.927 7.36587C144.441 6.93349 143.872 6.59378 143.254 6.37862C143.616 6.34692 143.981 6.38869 144.332 6.50809ZM138.914 11.4116C139.015 11.6624 139.139 11.9036 139.286 12.1321C139.785 12.9276 140.523 13.4874 141.339 13.8298C141.329 13.8287 141.319 13.8276 141.309 13.8263L140.851 13.7708L140.817 13.8024C139.867 13.5146 139.276 12.8408 139.033 12.049C138.97 11.8446 138.93 11.6306 138.914 11.4116ZM140.633 22.5426C140.227 22.4826 139.838 22.3799 139.501 22.2367C138.923 21.9905 138.612 21.6781 138.493 21.3722C138.419 21.1808 138.416 21.0661 138.429 20.9815C138.436 20.9377 138.45 20.884 138.477 20.8172C138.625 21.0701 138.806 21.2975 139.007 21.4983C139.45 21.9412 140.016 22.289 140.633 22.5426Z" fill="black" stroke="black" stroke-width="2"/>
<path d="M111.59 49.8085C111.602 49.7282 111.636 49.6212 111.72 49.4727C111.889 49.7955 112.113 50.081 112.366 50.3277C112.94 50.8897 113.712 51.3056 114.54 51.5759C113.942 51.533 113.342 51.405 112.835 51.194C112.198 50.9293 111.817 50.5838 111.655 50.2253C111.578 50.0264 111.575 49.9026 111.59 49.8085ZM119.436 45.4907C120.269 45.6193 120.807 45.9704 121.177 46.5645C121.451 47.0171 121.511 47.4677 121.35 47.9738C120.909 46.9522 120.046 46.1452 119.064 45.7706C118.552 45.5657 118.004 45.4647 117.496 45.4087C118.214 45.4081 118.915 45.4262 119.436 45.4907ZM113.866 45.2933C113.907 45.3018 113.948 45.3096 113.987 45.3167H113.842L113.866 45.2933ZM114.33 42.2428L114.285 42.2832C113.189 41.9784 112.517 41.232 112.245 40.3672C112.134 40.0146 112.088 39.6353 112.112 39.2495C112.239 39.6835 112.427 40.0969 112.677 40.4763C113.248 41.3654 114.109 41.9708 115.05 42.318C114.958 42.3138 114.868 42.3065 114.779 42.296L114.33 42.2428ZM120.228 37.8311C119.905 36.9134 119.342 36.1019 118.652 35.4932L118.652 35.4932L118.647 35.4889C118.035 34.9558 117.3 34.5589 116.503 34.3517C117.031 34.2385 117.58 34.2624 118.101 34.4361C118.736 34.6617 119.25 35.0562 119.627 35.5751L119.933 36.1917C120.179 36.6889 120.281 37.2626 120.228 37.8311Z" fill="black" stroke="black" stroke-width="2"/>
<path d="M133.415 35.7104C133.129 35.2105 132.701 34.6607 131.977 34.3405C132.153 34.3075 132.332 34.288 132.517 34.2823C132.941 34.2844 133.108 34.3883 133.209 34.4767C133.363 34.6112 133.502 34.8304 133.74 35.2885C133.769 35.343 133.8 35.4049 133.834 35.4722C133.992 35.7878 134.211 36.2217 134.485 36.5731C134.547 36.6521 134.613 36.73 134.685 36.8053L134.231 37.241C134.174 37.1839 134.114 37.1096 134.049 37.0134C133.966 36.86 133.888 36.6882 133.79 36.4716L133.785 36.4607C133.685 36.2391 133.563 35.9705 133.415 35.7104Z" fill="black" stroke="black" stroke-width="2"/>
<path d="M137.423 44.689C136.779 43.8418 136.363 42.6685 136.288 41.2953C136.871 43.6553 138.544 45.5795 140.719 46.2284C140.66 46.2327 140.601 46.2363 140.54 46.2392C139.207 46.233 138.156 45.6518 137.423 44.689ZM141.982 34.2862C142.853 34.2478 143.766 34.5244 144.484 35.061C145.331 35.7143 145.856 36.728 146.026 37.8406H145.798C145.127 36.1703 143.723 34.8406 141.982 34.2862ZM145.089 39.4191V39.014L145.549 38.9589L145.089 39.4191Z" fill="black" stroke="black" stroke-width="2"/>
<path d="M150.307 44.689C149.663 43.8418 149.247 42.6685 149.172 41.2953C149.755 43.6553 151.427 45.5795 153.602 46.2284C153.544 46.2327 153.484 46.2363 153.423 46.2392C152.09 46.233 151.039 45.6518 150.307 44.689ZM157.368 35.061C158.215 35.7143 158.74 36.728 158.909 37.8406H158.736C158.064 36.1685 156.657 34.8377 154.914 34.2844C155.77 34.2581 156.662 34.5343 157.368 35.061ZM158.026 39.3653V39.014L158.426 38.9663L158.026 39.3653Z" fill="black" stroke="black" stroke-width="2"/>
<path d="M170.667 36.0853C170.72 36.4174 170.75 36.7711 170.766 37.1242C170.688 36.7746 170.586 36.4393 170.452 36.1283C170.217 35.5803 169.866 35.0618 169.339 34.6831C169.124 34.5283 168.892 34.4054 168.643 34.3138C169.129 34.2576 169.463 34.2799 169.697 34.354C169.907 34.4205 170.081 34.5407 170.238 34.8225L170.258 34.8579L170.281 34.8916C170.441 35.1308 170.578 35.532 170.667 36.0853Z" fill="black" stroke="black" stroke-width="2"/>
<path d="M111.296 69.2562C111.427 69.4564 111.546 69.7996 111.624 70.284C111.41 69.7889 111.092 69.3151 110.615 68.9642C110.503 68.8816 110.385 68.8085 110.263 68.7448C110.489 68.7406 110.658 68.7638 110.789 68.8054C110.961 68.8603 111.119 68.9626 111.275 69.223L111.285 69.2398L111.296 69.2562Z" fill="black" stroke="black" stroke-width="2"/>
<path d="M126.862 70.7464C127.532 71.6967 127.84 72.7957 127.834 73.8492C127.684 73.2482 127.448 72.6555 127.118 72.0843C126.132 70.2895 124.46 69.0893 122.593 68.6399C122.641 68.6384 122.689 68.6377 122.737 68.6377C124.326 68.6377 125.892 69.4413 126.862 70.7464ZM120.919 80.5916C118.116 80.5354 115.86 78.1793 115.877 75.4291C116.032 76.0633 116.276 76.6778 116.603 77.2552L116.603 77.2552L116.606 77.2591C117.608 79.0069 119.167 80.1483 120.919 80.5916Z" fill="black" stroke="black" stroke-width="2"/>
<path d="M147.914 69.0465C148.052 69.4798 148.142 70.0717 148.19 70.7076C148.148 70.5828 148.101 70.4609 148.049 70.3427C147.823 69.8298 147.486 69.3437 146.981 68.9892C146.798 68.8605 146.602 68.7558 146.394 68.6743C146.881 68.6135 147.21 68.6323 147.44 68.7024C147.616 68.756 147.769 68.8489 147.914 69.0465ZM139.915 70.0366C139.996 70.4175 140.043 70.852 140.068 71.2891C139.959 70.7879 139.791 70.3034 139.535 69.877C139.225 69.3606 138.799 68.9539 138.26 68.7004C138.619 68.672 138.878 68.6949 139.068 68.7529C139.268 68.8136 139.437 68.9247 139.599 69.1812L139.609 69.1981L139.621 69.2146C139.72 69.3601 139.829 69.6288 139.915 70.0366Z" fill="black" stroke="black" stroke-width="2"/>
<path d="M153.529 79.0253C152.89 78.1831 152.479 77.0292 152.396 75.6982C152.988 78.04 154.651 79.9424 156.834 80.5853C156.782 80.589 156.729 80.5921 156.675 80.5947C155.325 80.5884 154.266 79.9961 153.529 79.0253ZM158.107 68.6398C158.957 68.6138 159.844 68.8894 160.545 69.4153C161.384 70.0651 161.91 71.0761 162.105 72.1961H161.915C161.246 70.5249 159.845 69.1934 158.107 68.6398ZM161.205 73.7715V73.369L161.66 73.3148L161.205 73.7715Z" fill="black" stroke="black" stroke-width="2"/>
<path d="M164.225 78.2145L164.48 77.9653C164.779 78.5285 165.204 79.0096 165.706 79.4018C166.442 79.9777 167.347 80.3695 168.3 80.5923C168.243 80.5937 168.187 80.5945 168.131 80.5947C166.934 80.5185 165.914 80.1727 165.219 79.6686C164.663 79.2648 164.329 78.7758 164.225 78.2145ZM171.675 75.2083C170.937 74.8711 170.118 74.6521 169.386 74.4868C168.996 74.3851 168.645 74.2986 168.307 74.2152C167.918 74.1192 167.546 74.0275 167.151 73.9216C166.452 73.7341 165.872 73.5493 165.426 73.3375C164.97 73.1209 164.768 72.9282 164.686 72.7906C164.634 72.7019 164.569 72.5406 164.693 72.1623L164.699 72.1443L164.704 72.1261C164.704 72.1263 164.704 72.1262 164.704 72.1257C164.706 72.1199 164.726 72.067 164.791 71.9606C164.794 71.956 164.797 71.9513 164.8 71.9467C165.083 72.4481 165.513 72.8191 165.957 73.0968C166.951 73.7195 168.345 74.0708 169.54 74.3357L169.541 74.3358C171.021 74.6627 172.175 74.9627 172.971 75.3768C173.716 75.7644 173.969 76.1503 174 76.6372C174.005 76.7985 173.962 76.9874 173.847 77.2147C173.79 77.0788 173.722 76.9464 173.643 76.8186C173.166 76.043 172.414 75.5456 171.675 75.2083ZM173.49 70.3118L173.208 70.5867C172.609 69.6407 171.579 69.0186 170.525 68.696C170.463 68.6769 170.401 68.6588 170.338 68.6415C170.826 68.6589 171.302 68.7364 171.736 68.8711C172.725 69.1787 173.302 69.7015 173.49 70.3118Z" fill="black" stroke="black" stroke-width="2"/>
<path d="M42.7362 96.8312C43.5891 94.9989 45.0149 92.971 47.1344 90.4655C46.5025 92.1281 46.2164 93.7411 46.317 95.282C46.4599 97.4705 47.3779 99.4266 49.0263 101.085C52.2668 104.346 58.3078 106.443 66.9521 107.285L66.9566 107.285C74.386 107.974 79.3397 107.076 84.765 104.257C83.3067 105.745 81.6295 107.249 79.7421 108.765C74.9754 112.28 70.245 113.954 63.7802 113.954C58.2871 113.954 53.5078 113.093 49.827 111.508C46.1533 109.926 43.6469 107.659 42.5175 104.87C41.4592 101.898 41.459 99.5748 42.7362 96.8312ZM90.5083 96.2798C89.4695 98.6258 87.7888 101.032 85.5065 103.481C87.5278 95.8288 82.9843 88.3653 76.8572 85.9085C75.0881 85.1559 74.0337 84.7089 72.5135 84.459C71.0399 84.2169 69.1323 84.1604 65.6261 84.085L65.6154 84.0848H65.6046H52.9374H52.2252H51.7664H50.6288H50.6222H50.6148H50.6067H50.5978H50.5882H50.5778H50.5667H50.5549H50.5423H50.529H50.5149H50.5001H50.4846H50.4684H50.4514H50.4338H50.4154H50.3963H50.3766H50.3561H50.3349H50.313H50.2904H50.2671H50.2432H50.2185H50.1932H50.1672H50.1405H50.1132H50.0851H50.0565H50.0271H49.9971H49.9664H49.9351H49.9031H49.8705H49.8372H49.8033H49.7687H49.7335H49.6977H49.6613H49.6242H49.5865H49.5481H49.5092H49.4696H49.4295H49.3887H49.3473H49.3053H49.2627H49.2195H49.1757H49.1313H49.0864H49.0408H48.9947H48.948H48.9007H48.8528H48.8044H48.7554H48.7058H48.6557H48.605H48.5537H48.502H48.4496H48.3967H48.3433H48.2893H48.2348H48.1798H48.1242H48.0681H48.0115H47.9543H47.8967H47.8385H47.7798H47.7206H47.6609H47.6007H47.5399H47.4787H47.417H47.3548H47.2921H47.2289H47.1653H47.1011H47.0365H46.9714H46.9059H46.8399H46.7734H46.7064H46.639H46.5711H46.5028H46.434H46.3648H46.2952H46.2251H46.1545H46.0836H46.0122H45.9403H45.8681H45.7954H45.7223H45.6488H45.5748H45.5005H45.4258H45.3506H45.2751H45.1991H45.1228H45.046H44.9689H44.8914H44.8135H44.7352H44.6566H44.5775H44.4981H44.4184H44.3382H44.2578H44.1769H44.0957H44.0141H43.9322H43.85H43.7674H43.6844H43.6011H43.5175H43.4336H43.3493H43.2647H43.1798H43.0945H43.009H42.9231H42.8369H42.7504H42.6636H42.5765H42.4891H42.4014H42.3134H42.2252H42.1366H42.0477H41.9586H41.8692H41.7795H41.6896H41.5994H41.5089H41.4181H41.3271H41.2359H41.1444H41.0526H40.9606H40.8683H40.7758H40.6831H40.5901H40.4969H40.4035H40.3098H40.2159H40.1218H40.0275H39.933H39.8382H39.7433H39.6481H39.5527H39.4572H39.3614H39.2655H39.1693H39.073H38.9765H38.8798H38.7829H38.6859H38.5887H38.4913H38.3937H38.296H38.1982H38.1001H38.0019H37.9036H37.8051H37.7065H37.6077H37.5088H37.4098H37.3106H37.2113H37.1119H37.0123H36.9126H36.8128H36.7129H36.6129H36.5128H36.4125H36.3122H36.2118H36.1112H36.0106H35.9099H35.8091H35.7082H35.6072H35.5062H35.405H35.3039H35.2026H35.1013H34.9999H34.8984H34.7969H34.6953H34.5937H34.492H34.3903H34.2886H34.1868H34.085H33.9831H33.8812H33.7793H33.6773H33.5754H33.4734H33.3714H33.2694H33.1674H33.0653H32.9633H32.8613H32.7593H32.6573H32.5552H32.4533H32.3513H32.2493H32.1474H32.0455H31.9436H31.8417H31.7399H31.6381H31.5363H31.4346H31.333H31.2314H31.1298H31.0283H30.9268H30.8254H30.7241H30.6229H30.5217H30.4205H30.3195H30.2185H30.1177H30.0169H29.9161H29.8155H29.715H29.6146H29.5142H29.414H29.3139H29.2139H29.114H29.0142H28.9145H28.815H28.7155H28.6163H28.5171H28.4181H28.3192H28.2204H28.1218H28.0233H27.925H27.8268H27.7288H27.6309H27.5332H27.4357H27.3383H27.2411H27.1441H27.0472H26.9505H26.854H26.7577H26.6616H26.5657H26.4699H26.3744H26.279H26.1839H26.0889H25.9942H25.8997H25.8054H25.7113H25.6174H25.5238H25.4304H25.3372H25.2442H25.1515H25.059H24.9668H24.8748H24.783H24.6915H24.6003H24.5093H24.4186H24.3281H24.2379H24.148H24.0583H23.9689H23.8798H23.791H23.7025H23.6142H23.5262H23.4386H23.3512H23.2641H23.1773H23.0909H23.0047H22.9189H22.8333H22.7481H22.6632H22.5786H22.4944H22.4104H22.3269H22.2436H22.1607H22.0781H21.9959H21.914H21.8324H21.7513H21.6704H21.59H21.5099H21.4301H21.3508H21.2718H21.1931H21.1149H21.037H20.9595H20.8824H20.8057H20.7294H20.6535H20.578H20.5028H20.4281H20.3538H20.2799H20.2064H20.1334H20.0607H19.9885H19.9167H19.8453H19.7744H19.7039H19.6338H19.5642H19.495H19.4263H19.358H19.2901H19.2227H19.1558H19.0894H19.0234H18.9579H18.8928H18.8282H18.7641H18.7005H18.6374H18.5747H18.5125H18.4509H18.3897H18.329H18.2688H18.2091H18.15H18.0913H18.0332H17.9755H17.9184H17.8618H17.8058H17.7502H17.6952H17.6408H17.5868H17.5334H17.4806H17.4283H17.3765H17.3253H17.2747H17.2246H17.1751H17.1261H17.0777H17.0299H16.9827H16.936H16.8899H16.8444H16.7995H16.7551H16.7114H16.6682H16.6257H16.5837H16.5424H16.5016H16.4615H16.422H16.3831H16.3448H16.3071H16.2799V33.4031V31.1538L14.6099 32.6607L3.18841 42.9675H2.53349L15.9629 30.4094L16.2799 30.113V29.679V14.7945H22.718V21.8508V24.1491L24.3997 22.5825L47.5256 1.03809H51.4635L51.5479 1.11358L52.5924 2.04715C53.493 2.85221 54.781 4.00402 56.331 5.39094C59.4309 8.16482 63.5783 11.879 67.7683 15.6407C71.9585 19.4025 76.1905 23.2109 79.46 26.1734C81.0949 27.6549 82.4876 28.9234 83.5136 29.8683C84.5384 30.8122 85.1485 31.3892 85.2998 31.5523C86.7431 33.2876 87.9025 35.2428 88.7752 37.349C89.5761 39.3895 90.081 41.4902 90.2253 43.654C90.37 45.8232 90.153 47.9908 89.575 50.0857C88.9965 52.182 88.0578 54.2011 86.7627 55.9995L86.7501 56.0171L86.7382 56.0351C86.261 56.7622 85.0612 58.1862 83.5501 59.8398C86.4025 51.4033 83.2886 42.839 77.6194 37.4655L77.61 37.4566L77.6004 37.4479C72.6347 32.9798 65.6896 30.7996 58.8045 33.358C60.509 31.582 61.9635 30.1325 62.5043 29.6999C63.5937 28.8286 64.8199 28.0373 66.0303 27.4678L67.3441 26.8497L66.2982 25.8426L45.697 6.00595L45.0278 5.36158L44.336 5.98161L23.0506 25.0582L22.718 25.3563V25.8029V77.4845V78.4845H23.718H57.6986H58.1204L58.4148 78.1825L58.4167 78.1805H59.5231C60.8325 78.1805 62.6559 78.1094 64.7016 78.0295C66.1773 77.9719 67.7686 77.9098 69.3661 77.8667C73.227 77.7623 77.1666 77.7659 79.9592 78.1671C84.5106 79.038 87.727 80.9527 90.058 84.8334C92.1968 88.5182 92.2624 92.3183 90.5083 96.2798ZM56.3902 55.8909C61.2206 63.811 71.9654 66.2944 80.4725 63.0745C79.2823 64.2778 78.0867 65.4311 77.0297 66.3768C75.8248 67.4548 74.8817 68.1874 74.3457 68.463L74.3122 68.4802L74.28 68.4999C72.6345 69.5095 71.3654 70.1517 70.0257 70.5037C68.696 70.8531 67.229 70.9336 65.179 70.7141L64.7078 70.6636L64.6172 70.7529L63.6603 70.5735C49.7714 67.9699 43.5346 51.7203 51.9494 40.9345L51.9494 40.9345L51.9545 40.9279C52.4756 40.2484 53.5476 39.0215 54.8315 37.6089C52.6674 44.0641 53.2046 50.7229 56.3902 55.8909Z" fill="black" stroke="black" stroke-width="2"/>
</svg>
