<svg width="175" height="115" viewBox="0 0 175 115" fill="none" xmlns="http://www.w3.org/2000/svg">
<path d="M96.626 0H98.7732V19.3252H96.626V0Z" fill="black"/>
<path fill-rule="evenodd" clip-rule="evenodd" d="M96.626 0V19.3252H98.7732V0H96.626Z" fill="black"/>
<path d="M102.534 1.5641C103.182 0.92975 104.207 0.92975 104.801 1.45837C105.395 1.98699 105.341 2.99137 104.693 3.62572C103.991 4.26006 103.02 4.31292 102.426 3.7843C101.833 3.25568 101.833 2.2513 102.534 1.5641ZM102.642 6.63885H104.423V19.3258H102.642V6.63885Z" fill="black"/>
<path fill-rule="evenodd" clip-rule="evenodd" d="M103.752 3.07409C103.804 3.07242 103.874 3.05153 103.934 2.99292C103.934 2.99291 103.934 2.99292 103.934 2.99292C103.934 2.99219 103.948 2.97789 103.962 2.94589C103.968 2.93248 103.974 2.91624 103.979 2.89718L103.294 2.1969C103.276 2.21405 103.255 2.24178 103.239 2.28331C103.227 2.31425 103.218 2.35285 103.215 2.40043C103.211 2.4835 103.23 2.62913 103.323 2.7774C103.36 2.83646 103.408 2.89595 103.471 2.95206C103.6 3.0665 103.711 3.0754 103.752 3.07409ZM103.989 2.84747L103.358 2.14919C103.366 2.14761 103.376 2.14618 103.389 2.14537C103.457 2.14095 103.609 2.15957 103.756 2.29061C103.819 2.34663 103.867 2.4071 103.902 2.46764C103.974 2.59069 103.996 2.71398 103.993 2.80058C103.993 2.81728 103.991 2.83292 103.989 2.84747ZM104.693 3.62572C105.341 2.99137 105.395 1.98699 104.801 1.45837C104.207 0.92975 103.182 0.92975 102.534 1.5641C101.833 2.2513 101.833 3.25568 102.426 3.7843C103.02 4.31292 103.991 4.26006 104.693 3.62572ZM102.642 6.63885H104.423V19.3258H102.642V6.63885Z" fill="black"/>
<path d="M105.215 6.44141H107.803L112.36 18.1975L116.917 6.44141H118.098L113.147 19.3248H110.334L105.215 6.44141Z" fill="black"/>
<path fill-rule="evenodd" clip-rule="evenodd" d="M107.803 6.44141H105.215L110.334 19.3248H113.147L118.098 6.44141H116.917L112.36 18.1975L107.803 6.44141Z" fill="black"/>
<path d="M118.639 1.5641C119.286 0.92975 120.312 0.92975 120.905 1.45837C121.499 1.98699 121.445 2.99137 120.798 3.62572C120.096 4.26006 119.124 4.31292 118.531 3.7843C117.937 3.25568 117.937 2.2513 118.639 1.5641ZM118.747 6.63885H120.528V19.3258H118.747V6.63885Z" fill="black"/>
<path fill-rule="evenodd" clip-rule="evenodd" d="M119.857 3.07409C119.909 3.07242 119.978 3.05153 120.038 2.99292C120.038 2.99291 120.038 2.99292 120.038 2.99292C120.039 2.99219 120.052 2.97789 120.067 2.94589C120.073 2.93248 120.079 2.91624 120.084 2.89718L119.398 2.1969C119.381 2.21405 119.359 2.24178 119.343 2.28331C119.331 2.31425 119.322 2.35285 119.32 2.40043C119.315 2.4835 119.335 2.62913 119.427 2.7774C119.464 2.83646 119.512 2.89595 119.575 2.95206C119.704 3.0665 119.816 3.0754 119.857 3.07409ZM120.094 2.84747L119.463 2.14919C119.471 2.14761 119.481 2.14618 119.493 2.14537C119.561 2.14095 119.714 2.15957 119.861 2.29061C119.924 2.34663 119.971 2.4071 120.007 2.46764C120.079 2.59069 120.101 2.71398 120.098 2.80058C120.097 2.81728 120.096 2.83292 120.094 2.84747ZM120.798 3.62572C121.445 2.99137 121.499 1.98699 120.905 1.45837C120.312 0.92975 119.286 0.92975 118.639 1.5641C117.937 2.2513 117.937 3.25568 118.531 3.7843C119.124 4.31292 120.096 4.26006 120.798 3.62572ZM118.747 6.63885H120.528V19.3258H118.747V6.63885Z" fill="black"/>
<path d="M124.54 6.03252H126.376V9.35545C126.543 9.07854 127.433 8.19243 127.989 7.6386C129.435 6.30943 130.103 5.64485 131.883 5.42332C133.107 5.25717 134.052 5.42332 134.609 6.4202C135.165 7.25093 135.276 8.69087 135.276 9.85389V19.3242H133.441V11.8476C133.441 9.41083 133.051 7.19555 130.882 7.19555C129.825 7.14017 128.768 7.47246 127.822 8.02628C126.932 9.5216 126.431 10.8508 126.431 12.4569V19.3242H124.54V6.03252Z" fill="black"/>
<path fill-rule="evenodd" clip-rule="evenodd" d="M126.376 6.03252H124.54V19.3242H126.431V12.4569C126.431 12.0205 126.468 11.6045 126.54 11.2001C126.63 10.6923 126.775 10.2026 126.97 9.71361C127.018 9.59427 127.068 9.47497 127.122 9.35545C127.317 8.91945 127.552 8.48053 127.822 8.02628C127.936 7.95931 128.052 7.89559 128.17 7.83539C128.173 7.83368 128.176 7.83198 128.18 7.83028C128.245 7.79714 128.31 7.76508 128.376 7.73415C129.172 7.35959 130.027 7.15075 130.882 7.19555C131.304 7.19555 131.658 7.27935 131.956 7.43228C132.698 7.81365 133.084 8.62491 133.275 9.63861C133.288 9.70941 133.3 9.78119 133.312 9.85389C133.409 10.469 133.441 11.1492 133.441 11.8476V19.3242H135.276V9.85389C135.276 9.72103 135.275 9.58456 135.271 9.44579C135.245 8.36983 135.101 7.15603 134.609 6.4202C134.103 5.51435 133.276 5.29444 132.211 5.38649C132.104 5.39574 131.995 5.40815 131.883 5.42332C131.54 5.46596 131.239 5.52502 130.965 5.60208C130.937 5.61 130.909 5.61811 130.882 5.62641C129.915 5.91771 129.29 6.44522 128.376 7.28304C128.298 7.35449 128.218 7.4282 128.135 7.50421C128.087 7.54823 128.039 7.59303 127.989 7.6386C127.912 7.71566 127.828 7.79915 127.74 7.88653C127.721 7.90538 127.702 7.92441 127.683 7.94359C127.273 8.35431 126.798 8.83644 126.54 9.14035C126.464 9.22948 126.407 9.30328 126.376 9.35545V6.03252Z" fill="black"/>
<path d="M137.561 21.7327C137.057 20.4329 137.964 19.6531 139.878 17.6775C139.324 17.6775 138.719 17.6255 138.518 17.3136L140.987 14.8701C137.913 14.2982 137.006 10.8149 138.871 8.52735C139.223 8.05945 140.785 6.44777 141.138 6.18783C142.145 5.40798 143.455 5.14804 144.664 5.56395C145.672 5.92788 146.428 6.65573 146.881 7.59154C147.284 7.17563 148.04 6.44777 148.09 6.34379C148.745 5.71992 149.702 5.77191 150.307 6.39578L148.644 8.11144C148.191 7.59154 147.486 7.48756 146.881 7.69552C147.486 8.94327 147.385 10.5549 146.478 11.7507C146.125 12.2706 144.362 14.0902 143.808 14.3502C143.102 14.7661 142.044 14.9221 141.188 14.8181L140.281 15.6499C140.432 15.8059 141.188 15.8579 141.39 15.9099C142.296 15.9099 144.513 15.8059 145.722 15.9618C146.73 16.1178 147.486 16.5857 147.989 17.4176C148.947 19.0292 148.04 20.7969 145.773 22.5125C144.715 23.2404 142.901 23.7083 141.49 23.6043C139.878 23.6043 138.064 23.0324 137.561 21.7327ZM146.629 21.3687C147.032 19.913 146.125 18.5093 144.916 18.0414C144.16 17.7295 143.304 17.7295 142.548 17.6775C141.843 17.6775 140.835 17.7295 140.13 17.7295L139.374 18.4573C138.367 20.277 140.281 21.6807 142.397 21.9926C143.707 22.0966 145.521 21.9406 146.629 21.3687ZM144.261 8.11144C143.153 7.12364 141.541 6.75971 140.029 7.53955C139.374 8.94327 139.425 10.503 140.13 11.5947C141.138 13.2064 143.556 13.6743 145.319 12.8425C146.075 11.0748 145.47 9.25521 144.261 8.11144Z" fill="black"/>
<path fill-rule="evenodd" clip-rule="evenodd" d="M139.11 19.6409C139.065 19.274 139.142 18.8767 139.374 18.4573L140.13 17.7295C140.142 17.7295 140.154 17.7295 140.166 17.7294C140.395 17.7289 140.654 17.7232 140.924 17.7157C140.934 17.7154 140.945 17.7151 140.955 17.7149C141.082 17.7113 141.211 17.7074 141.339 17.7035C141.356 17.703 141.373 17.7025 141.39 17.702C141.801 17.6895 142.209 17.6775 142.548 17.6775C142.584 17.68 142.62 17.6823 142.656 17.6846C142.738 17.6897 142.82 17.6944 142.903 17.6991C143.397 17.7273 143.919 17.757 144.417 17.88C144.587 17.9219 144.754 17.9745 144.916 18.0414C145.45 18.2479 145.924 18.6367 146.254 19.1317C146.671 19.7584 146.854 20.5555 146.629 21.3688C146.25 21.5643 145.789 21.7112 145.293 21.8157C145.279 21.8186 145.266 21.8215 145.252 21.8243C144.308 22.0182 143.247 22.0601 142.397 21.9926C142.134 21.9538 141.873 21.898 141.621 21.8266C141.577 21.8142 141.534 21.8012 141.49 21.7879C141.286 21.7249 141.088 21.6516 140.9 21.5686C140.427 21.3609 140.012 21.0927 139.7 20.7755C139.375 20.446 139.162 20.0636 139.11 19.6409ZM138.205 19.4451C138.475 19.1259 138.811 18.7739 139.208 18.3655C139.221 18.3522 139.234 18.3389 139.247 18.3255C139.292 18.28 139.337 18.2338 139.382 18.1869C139.407 18.1614 139.432 18.1357 139.458 18.1097C139.592 17.9721 139.732 17.8283 139.878 17.6775C139.419 17.6775 138.926 17.6419 138.656 17.4527C138.599 17.4133 138.553 17.3673 138.518 17.3136L140.987 14.8701C140.236 14.7304 139.615 14.4173 139.132 13.9903C139.114 13.9748 139.097 13.9592 139.08 13.9434C138.423 13.3391 138.032 12.5196 137.932 11.6449C137.811 10.5926 138.11 9.4605 138.871 8.52735C139.027 8.32035 139.419 7.88949 139.839 7.45084C139.87 7.41827 139.902 7.38566 139.933 7.35309C140.435 6.83285 140.953 6.32423 141.138 6.18783C141.795 5.679 142.581 5.39151 143.384 5.36866C143.812 5.3565 144.244 5.41941 144.664 5.56395C144.993 5.68284 145.296 5.84056 145.569 6.03169C145.577 6.03722 145.585 6.04278 145.593 6.04836C146.083 6.3965 146.481 6.85274 146.774 7.3852C146.811 7.45278 146.847 7.52158 146.881 7.59154C147.015 7.45291 147.189 7.27962 147.362 7.10632C147.403 7.06606 147.443 7.02579 147.483 6.98596C147.786 6.68293 148.06 6.40506 148.09 6.34379C148.175 6.26288 148.265 6.19333 148.359 6.13493C148.552 6.01449 148.761 5.94143 148.972 5.91377C149.416 5.85577 149.874 5.99739 150.229 6.32027C150.255 6.34443 150.281 6.3696 150.307 6.39578L148.644 8.11144C148.587 8.04617 148.526 7.98746 148.462 7.9351C148.038 7.58879 147.47 7.52019 146.962 7.66978C146.935 7.67774 146.908 7.68633 146.881 7.69552C147.01 7.96282 147.108 8.24682 147.171 8.53986C147.209 8.71474 147.236 8.89283 147.25 9.07252C147.256 9.15388 147.26 9.23558 147.261 9.31745C147.263 9.38758 147.262 9.45783 147.26 9.52812C147.259 9.54036 147.259 9.5526 147.258 9.56484C147.249 9.75954 147.227 9.95436 147.189 10.1473C147.08 10.7154 146.845 11.2671 146.478 11.7507C146.328 11.9724 145.921 12.4303 145.461 12.9029C145.435 12.9288 145.41 12.9548 145.384 12.9808C145.194 13.174 144.997 13.3677 144.807 13.5467C144.679 13.6672 144.554 13.781 144.437 13.8835C144.176 14.1107 143.951 14.2828 143.808 14.3502C143.228 14.6918 142.411 14.858 141.663 14.8489C141.571 14.8478 141.479 14.844 141.39 14.8375C141.321 14.8326 141.254 14.8261 141.188 14.8181L140.281 15.6499C140.29 15.6595 140.302 15.6687 140.316 15.6775C140.343 15.6954 140.379 15.7118 140.421 15.7268C140.525 15.7642 140.666 15.7935 140.81 15.8178C140.895 15.8322 140.982 15.8448 141.062 15.8563C141.074 15.858 141.086 15.8597 141.098 15.8614C141.223 15.8793 141.33 15.8946 141.39 15.9099C141.556 15.9099 141.767 15.9064 142.008 15.9016C142.063 15.9005 142.12 15.8993 142.179 15.8981C142.203 15.8976 142.227 15.8971 142.251 15.8966C142.347 15.8946 142.446 15.8926 142.548 15.8906C142.589 15.8898 142.63 15.889 142.671 15.8882C142.715 15.8874 142.759 15.8866 142.803 15.8858C143.315 15.8769 143.875 15.8711 144.404 15.8814C144.445 15.8822 144.486 15.8831 144.527 15.8842C144.572 15.8853 144.617 15.8865 144.662 15.8879C144.68 15.8885 144.698 15.889 144.716 15.8896C144.846 15.894 144.973 15.8997 145.096 15.9067C145.323 15.9197 145.535 15.9377 145.722 15.9618C146.73 16.1178 147.486 16.5857 147.989 17.4176C148.266 17.8842 148.387 18.3639 148.364 18.8517C148.324 19.7073 147.84 20.5877 146.978 21.4655C146.914 21.5308 146.848 21.5961 146.78 21.6613C146.483 21.9459 146.146 22.2299 145.773 22.5125C144.901 23.1118 143.518 23.5349 142.269 23.6076C142.232 23.6098 142.195 23.6116 142.158 23.6131C141.929 23.6227 141.705 23.6201 141.49 23.6043C141.12 23.6043 140.739 23.5741 140.365 23.5118C139.114 23.3031 137.949 22.7338 137.561 21.7327C137.454 21.4566 137.41 21.2039 137.427 20.9582C137.459 20.4693 137.729 20.0082 138.205 19.4451ZM142.096 13.0421C142.431 13.1471 142.783 13.2121 143.139 13.2363C143.143 13.2366 143.147 13.2369 143.151 13.2371C143.197 13.2401 143.243 13.2424 143.289 13.2441C143.987 13.2689 144.694 13.1374 145.319 12.8425C145.556 12.2895 145.659 11.7314 145.652 11.1906C145.652 11.1682 145.651 11.1458 145.651 11.1234C145.634 10.5505 145.494 9.9981 145.259 9.4928C145.017 8.97271 144.675 8.50256 144.261 8.11144C143.928 7.81428 143.549 7.57358 143.141 7.4035C142.737 7.23513 142.304 7.13596 141.859 7.1197C141.847 7.11927 141.835 7.1189 141.824 7.11859C141.235 7.10288 140.624 7.23264 140.029 7.53955C139.796 8.04049 139.652 8.56129 139.595 9.07359C139.594 9.08721 139.592 9.10082 139.591 9.11442C139.516 9.85221 139.624 10.5708 139.906 11.1852C139.971 11.3277 140.046 11.4645 140.13 11.5947C140.477 12.1496 140.991 12.569 141.588 12.8463C141.752 12.9223 141.921 12.9876 142.096 13.0421Z" fill="black"/>
<path d="M110.732 50.6094C110.186 49.2332 111.168 48.4075 113.242 46.3157C112.642 46.3157 111.987 46.2607 111.769 45.9304L114.443 43.3431C111.114 42.7376 110.131 39.0494 112.151 36.6273C112.533 36.1319 114.225 34.4254 114.607 34.1502C115.698 33.3244 117.117 33.0492 118.427 33.4896C119.519 33.8749 120.338 34.6456 120.829 35.6364C121.265 35.1961 122.084 34.4254 122.139 34.3153C122.848 33.6547 123.885 33.7098 124.54 34.3704L122.739 36.1869C122.248 35.6364 121.484 35.5264 120.829 35.7465C121.484 37.0677 121.375 38.7742 120.392 40.0403C120.01 40.5907 118.1 42.5174 117.499 42.7926C116.735 43.233 115.589 43.3982 114.661 43.2881L113.679 44.1688C113.843 44.334 114.661 44.389 114.88 44.4441C115.862 44.4441 118.264 44.334 119.573 44.4991C120.665 44.6643 121.484 45.1597 122.029 46.0405C123.066 47.7469 122.084 49.6186 119.628 51.4351C118.482 52.2058 116.517 52.7012 114.989 52.5911C113.297 52.5911 111.332 51.9856 110.732 50.6094ZM120.556 50.2241C120.992 48.6827 120.01 47.1965 118.7 46.701C117.882 46.3707 116.954 46.3707 116.135 46.3157C115.371 46.3157 114.279 46.3707 113.515 46.3707L112.697 47.1414C111.605 49.0681 113.679 50.5544 115.971 50.8847C117.445 51.0498 119.355 50.8296 120.556 50.2241ZM117.991 36.242C116.79 35.1961 115.043 34.8107 113.406 35.6364C112.697 37.1227 112.751 38.7742 113.515 39.9302C114.607 41.6366 117.227 42.1321 119.137 41.2513C120.01 39.3797 119.301 37.398 117.991 36.242Z" fill="black"/>
<path fill-rule="evenodd" clip-rule="evenodd" d="M110.635 49.4927C110.543 49.8481 110.571 50.205 110.732 50.6094C111.257 51.8141 112.828 52.4282 114.347 52.5626C114.563 52.5817 114.778 52.5911 114.989 52.5911C115.225 52.6081 115.472 52.6107 115.724 52.6C115.743 52.5992 115.761 52.5984 115.779 52.5975C117.146 52.5294 118.672 52.078 119.628 51.4351C120.031 51.1374 120.393 50.8382 120.714 50.5385C120.789 50.4691 120.861 50.3997 120.931 50.3302C121.75 49.5153 122.254 48.6982 122.397 47.8984C122.51 47.265 122.395 46.6425 122.029 46.0405C121.484 45.1597 120.665 44.6643 119.573 44.4991C119.309 44.4658 119 44.4437 118.668 44.4296C118.592 44.4264 118.516 44.4236 118.438 44.4212C118.374 44.4193 118.309 44.4175 118.244 44.416C118.146 44.4138 118.047 44.4121 117.947 44.4109C117.818 44.4092 117.687 44.4084 117.556 44.4082C117.115 44.4074 116.671 44.4138 116.262 44.4213C116.243 44.4216 116.223 44.422 116.204 44.4224C116.181 44.4228 116.158 44.4232 116.135 44.4237C116.024 44.4258 115.917 44.428 115.813 44.4301C115.771 44.4309 115.729 44.4318 115.688 44.4326C115.624 44.4339 115.561 44.4351 115.501 44.4363C115.26 44.4408 115.049 44.4441 114.88 44.4441C114.816 44.4279 114.7 44.4117 114.564 44.3928C114.553 44.3913 114.542 44.3897 114.531 44.3882C114.463 44.3786 114.39 44.3684 114.317 44.357C114.298 44.3541 114.279 44.3511 114.26 44.348C114.2 44.3381 114.139 44.3274 114.082 44.3157C113.899 44.2787 113.741 44.2317 113.679 44.1688L114.661 43.2881C114.723 43.2954 114.785 43.3014 114.848 43.3063C114.859 43.3071 114.869 43.3079 114.88 43.3086C114.973 43.3152 115.067 43.3192 115.163 43.3206C115.977 43.3323 116.869 43.1563 117.499 42.7926C117.629 42.7332 117.82 42.5967 118.043 42.4136C118.176 42.3045 118.321 42.1788 118.471 42.043C118.705 41.8322 118.951 41.5972 119.188 41.3621C119.208 41.3424 119.228 41.3226 119.247 41.3029C119.763 40.7876 120.225 40.2816 120.392 40.0403C120.843 39.4594 121.11 38.7857 121.203 38.0992C121.221 37.9668 121.233 37.8339 121.238 37.7011C121.251 37.381 121.227 37.0615 121.166 36.7506C121.099 36.4013 120.986 36.0629 120.829 35.7465C120.857 35.7371 120.885 35.7283 120.913 35.7202C121.488 35.554 122.132 35.6392 122.598 36.0473C122.647 36.0902 122.694 36.1367 122.739 36.1869L124.54 34.3704C124.533 34.3628 124.525 34.3554 124.517 34.348C124.068 33.9097 123.446 33.7501 122.874 33.9034C122.675 33.9568 122.481 34.0483 122.303 34.1793C122.246 34.2207 122.192 34.266 122.139 34.3153C122.107 34.3783 121.826 34.6576 121.509 34.9675C121.457 35.0187 121.404 35.0707 121.35 35.1226C121.162 35.3061 120.974 35.4896 120.829 35.6364C120.796 35.5703 120.762 35.5052 120.726 35.4411C120.43 34.9095 120.035 34.4487 119.55 34.0866C119.544 34.082 119.538 34.0773 119.532 34.0727C119.203 33.8305 118.834 33.6332 118.427 33.4896C117.804 33.28 117.156 33.2325 116.53 33.3293C115.841 33.4358 115.179 33.7174 114.607 34.1502C114.404 34.2959 113.835 34.8433 113.287 35.3995C113.246 35.4403 113.206 35.4812 113.166 35.522C112.724 35.9744 112.316 36.4136 112.151 36.6273C111.464 37.4513 111.124 38.4217 111.106 39.3675C111.084 40.545 111.56 41.6843 112.485 42.4549C112.504 42.4707 112.523 42.4864 112.542 42.5019C113.049 42.9078 113.685 43.2053 114.443 43.3431L111.769 45.9304C111.802 45.9805 111.845 46.0242 111.897 46.0624C112.185 46.2761 112.733 46.3157 113.242 46.3157C113.084 46.4754 112.932 46.6276 112.787 46.7734C112.752 46.8081 112.718 46.8424 112.684 46.8764C112.643 46.9176 112.602 46.9584 112.562 46.9986C112.548 47.0129 112.534 47.0271 112.52 47.0412C112.13 47.4327 111.795 47.7753 111.518 48.0874C111.051 48.6124 110.75 49.0515 110.635 49.4927ZM112.4 48.2745C112.424 48.7246 112.624 49.134 112.948 49.49C113.372 49.9568 114.007 50.3315 114.733 50.5849C114.817 50.6142 114.903 50.6418 114.989 50.6678C115.034 50.6814 115.079 50.6945 115.125 50.7072C115.4 50.7836 115.684 50.8432 115.971 50.8847C116.933 50.9924 118.081 50.9361 119.096 50.7156C119.11 50.7125 119.124 50.7095 119.138 50.7063C119.662 50.5897 120.15 50.4289 120.556 50.2241C120.782 49.427 120.628 48.6446 120.246 48.0064C119.889 47.4105 119.333 46.9403 118.7 46.701C118.297 46.5385 117.868 46.4559 117.438 46.4074C117.129 46.3726 116.82 46.3553 116.52 46.3386C116.389 46.3313 116.261 46.3242 116.135 46.3157C116.11 46.3157 116.084 46.3158 116.059 46.3159C115.707 46.3174 115.295 46.3293 114.88 46.3416C114.862 46.3421 114.843 46.3427 114.825 46.3432C114.682 46.3475 114.539 46.3517 114.398 46.3556C114.331 46.3574 114.265 46.3591 114.2 46.3607C114.199 46.3607 114.198 46.3608 114.196 46.3608C113.954 46.3667 113.722 46.3707 113.515 46.3707L112.697 47.1414C112.471 47.5401 112.38 47.9199 112.4 48.2745ZM115.248 41.3216C115.749 41.5265 116.298 41.6446 116.854 41.6729C116.899 41.6752 116.944 41.6769 116.988 41.678C117.728 41.6965 118.475 41.5565 119.137 41.2513C119.419 40.647 119.536 40.0313 119.521 39.4355C119.52 39.411 119.519 39.3866 119.518 39.3622C119.497 38.8687 119.385 38.3899 119.203 37.9439C118.933 37.286 118.509 36.6993 117.991 36.242C117.553 35.8607 117.043 35.5671 116.492 35.3881C116.14 35.2739 115.772 35.2062 115.395 35.1922C115.382 35.1917 115.369 35.1913 115.357 35.1909C114.716 35.1732 114.053 35.3104 113.406 35.6364C113.157 36.1585 113.002 36.7009 112.939 37.235C112.937 37.2501 112.935 37.2651 112.934 37.2801C112.863 37.9306 112.929 38.5676 113.127 39.1394C113.225 39.4209 113.354 39.6865 113.515 39.9302C113.921 40.5637 114.536 41.0304 115.248 41.3216Z" fill="black"/>
<path d="M125.613 33.9984H127.508V36.4809C129.058 34.6604 130.493 33.3364 132.503 33.2812C133.766 33.2812 134.168 33.9432 134.627 34.8259C135.029 35.5982 135.373 36.4809 136.349 36.5912L134.455 38.4117C133.881 38.3565 133.479 37.9704 133.192 37.529C132.732 36.7016 132.503 35.5982 131.469 35.2121C130.666 34.8811 129.345 35.1569 128.714 35.5431C127.91 36.7016 127.508 38.7427 127.508 40.3425V47.2383H125.613V33.9984V33.9984Z" fill="black"/>
<path fill-rule="evenodd" clip-rule="evenodd" d="M129.508 34.462C129.19 34.713 128.88 34.9977 128.571 35.3097C128.545 35.3361 128.519 35.3628 128.492 35.3896C128.2 35.69 127.908 36.0145 127.613 36.3577C127.578 36.3985 127.543 36.4396 127.508 36.4809V33.9984H125.613V47.2383H127.508V40.3425C127.508 40.0809 127.519 39.8074 127.54 39.528C127.558 39.3022 127.582 39.0726 127.613 38.8421C127.702 38.192 127.846 37.5348 128.046 36.9393C128.099 36.7818 128.156 36.6285 128.217 36.4809C128.361 36.1315 128.526 35.8133 128.714 35.5431C128.919 35.4173 129.198 35.3033 129.508 35.2181C130.15 35.0416 130.927 34.9888 131.469 35.2121C131.608 35.264 131.733 35.3289 131.845 35.4044C132.369 35.7559 132.632 36.3364 132.888 36.9019C132.985 37.1176 133.082 37.3312 133.192 37.529C133.479 37.9704 133.881 38.3565 134.455 38.4117L136.349 36.5912C135.554 36.5013 135.178 35.8981 134.848 35.2599C134.814 35.1933 134.78 35.1262 134.746 35.0594C134.707 34.981 134.667 34.9029 134.627 34.8259C134.168 33.9432 133.766 33.2812 132.503 33.2812C132.365 33.285 132.229 33.2948 132.096 33.3104C131.131 33.4233 130.296 33.8392 129.508 34.462Z" fill="black"/>
<path d="M135.28 40.5624C135.334 39.055 135.981 37.5475 137.005 36.5246C138.406 35.0171 139.43 33.9942 140.454 33.6174C141.963 32.9713 143.795 33.2943 145.089 34.2634C146.49 35.3402 147.136 37.1168 147.083 38.8396L145.304 40.6163H137.166C137.651 43.362 139.753 45.4078 142.232 45.4617C143.526 45.4617 145.196 44.8156 146.059 43.9542C144.011 46 142.987 47.1306 140.561 47.2383C137.22 47.2383 135.172 44.2772 135.28 40.5624ZM145.089 38.8935C144.657 37.1168 143.256 35.6632 141.478 35.1787C140.184 34.9095 138.999 35.071 138.028 35.6632C137.436 36.6323 137.112 37.709 137.058 38.8396H145.089V38.8935Z" fill="black"/>
<path fill-rule="evenodd" clip-rule="evenodd" d="M135.676 38.6163C135.657 38.6676 135.638 38.7192 135.62 38.7711C135.42 39.347 135.302 39.9547 135.28 40.5624C135.277 40.6553 135.276 40.7477 135.276 40.8396C135.276 40.8765 135.276 40.9133 135.277 40.9501C135.278 41.1158 135.285 41.2799 135.295 41.442C135.51 44.7339 137.489 47.2383 140.561 47.2383C140.576 47.2377 140.59 47.237 140.604 47.2363C141.211 47.2061 141.73 47.111 142.2 46.9528C142.211 46.9491 142.221 46.9454 142.232 46.9417C143.517 46.4985 144.437 45.5778 145.798 44.2154C145.883 44.1301 145.97 44.043 146.059 43.9542C145.196 44.8156 143.526 45.4617 142.232 45.4617C141.749 45.4512 141.28 45.3649 140.834 45.2126C139.597 44.7893 138.541 43.8554 137.863 42.6163C137.616 42.1638 137.419 41.6707 137.282 41.1469C137.256 41.0456 137.231 40.9432 137.21 40.8396C137.195 40.7702 137.181 40.7003 137.169 40.63C137.168 40.6257 137.167 40.6214 137.166 40.6172C137.166 40.6169 137.166 40.6175 137.166 40.6172L145.304 40.6163L147.083 38.8396C147.104 38.1662 147.018 37.4845 146.821 36.8396C146.516 35.8348 145.942 34.9193 145.089 34.2634C144.247 33.6331 143.178 33.2761 142.118 33.2813C142.077 33.2815 142.035 33.2823 141.994 33.2836C141.953 33.2849 141.912 33.2867 141.871 33.2891C141.385 33.3177 140.905 33.4242 140.454 33.6174C139.674 33.9044 138.894 34.566 137.948 35.531C137.931 35.5481 137.914 35.5654 137.897 35.5828C137.616 35.871 137.32 36.1855 137.005 36.5246C136.431 37.098 135.975 37.8237 135.676 38.6163ZM141.855 35.298C141.732 35.2534 141.606 35.2135 141.478 35.1787C141.348 35.1517 141.22 35.1291 141.093 35.1108C141.062 35.1063 141.03 35.102 140.999 35.098C139.892 34.9565 138.878 35.1449 138.028 35.6632C137.798 36.0401 137.608 36.4333 137.459 36.8396C137.449 36.8664 137.44 36.8933 137.43 36.9202C137.427 36.9277 137.425 36.9352 137.422 36.9427C137.235 37.4807 137.118 38.041 137.073 38.6163C137.067 38.6905 137.062 38.7649 137.058 38.8396H145.075C145.056 38.7646 145.035 38.6901 145.013 38.6163C144.972 38.4819 144.925 38.3497 144.873 38.2199C144.672 37.7178 144.392 37.252 144.048 36.8396C143.471 36.149 142.716 35.6083 141.855 35.298Z" fill="black"/>
<path d="M148.164 40.5624C148.218 39.055 148.864 37.5475 149.888 36.5246C151.29 35.0171 152.314 33.9942 153.337 33.6174C154.847 32.9713 156.679 33.2943 157.972 34.2634C159.374 35.3402 160.02 37.1168 159.966 38.8396L158.188 40.6163H150.05C150.535 43.362 152.637 45.4078 155.116 45.4617C156.409 45.4617 158.08 44.8156 158.942 43.9542C156.894 46 155.87 47.1306 153.445 47.2383C150.104 47.2383 148.056 44.2772 148.164 40.5624ZM158.026 38.8935C157.595 37.1168 156.194 35.6632 154.415 35.1787C153.122 34.9095 151.936 35.071 150.966 35.6632C150.373 36.6323 150.05 37.709 149.996 38.8396H158.026V38.8935Z" fill="black"/>
<path fill-rule="evenodd" clip-rule="evenodd" d="M148.56 38.6163C148.541 38.6668 148.522 38.7175 148.505 38.7685C148.304 39.3452 148.185 39.9538 148.164 40.5624C148.161 40.6553 148.16 40.7477 148.16 40.8396C148.16 40.8765 148.16 40.9133 148.16 40.9501C148.162 41.1158 148.168 41.2799 148.179 41.442C148.393 44.7339 150.372 47.2383 153.445 47.2383C153.46 47.2377 153.474 47.237 153.488 47.2363C154.095 47.2061 154.614 47.111 155.084 46.9528C155.094 46.9491 155.105 46.9454 155.116 46.9417C156.401 46.4985 157.321 45.5778 158.681 44.2154C158.767 44.1301 158.854 44.043 158.942 43.9542C158.08 44.8156 156.409 45.4617 155.116 45.4617C154.633 45.4512 154.164 45.3649 153.718 45.2126C152.48 44.7893 151.424 43.8554 150.747 42.6163C150.5 42.1638 150.303 41.6707 150.166 41.1469C150.139 41.0456 150.115 40.9432 150.093 40.8396C150.079 40.7702 150.065 40.7003 150.052 40.63C150.052 40.6257 150.051 40.6214 150.05 40.6172C150.05 40.6169 150.05 40.6175 150.05 40.6172L158.188 40.6163L159.966 38.8396C159.971 38.7009 159.971 38.5618 159.966 38.4228C159.966 38.4159 159.965 38.409 159.965 38.4021C159.945 37.8731 159.859 37.3451 159.705 36.8396C159.399 35.8348 158.826 34.9193 157.972 34.2634C157.145 33.6439 156.098 33.2884 155.056 33.2814C155.015 33.2811 154.973 33.2813 154.932 33.2822C154.891 33.283 154.85 33.2843 154.809 33.2863C154.305 33.3098 153.806 33.417 153.337 33.6174C152.567 33.901 151.796 34.5505 150.865 35.4971C150.844 35.5187 150.822 35.5403 150.801 35.5622C150.514 35.856 150.211 36.1774 149.888 36.5246C149.314 37.098 148.859 37.8237 148.56 38.6163ZM154.781 35.2937C154.661 35.2508 154.539 35.2124 154.415 35.1787C154.267 35.1477 154.119 35.1224 153.973 35.1029C153.942 35.0987 153.911 35.0947 153.88 35.0911C152.795 34.963 151.801 35.1537 150.966 35.6632C150.736 36.0401 150.546 36.4333 150.397 36.8396C150.382 36.879 150.368 36.9184 150.355 36.958C150.352 36.9663 150.349 36.9746 150.346 36.9828C150.167 37.5085 150.055 38.0552 150.01 38.6163C150.004 38.6905 150 38.7649 149.996 38.8396H158.013C158.008 38.819 158.002 38.7985 157.997 38.778C157.988 38.7452 157.979 38.7126 157.969 38.6801C157.963 38.6588 157.957 38.6375 157.95 38.6163C157.905 38.4687 157.853 38.3236 157.795 38.1815C157.596 37.6941 157.321 37.2415 156.985 36.8396C156.406 36.1458 155.646 35.6032 154.781 35.2937Z" fill="black"/>
<path d="M161.043 34.002H162.879V37.2695C163.046 36.9926 163.936 36.1065 164.492 35.5527C165.938 34.2235 166.606 33.5589 168.386 33.3374C169.61 33.1712 170.555 33.3374 171.112 34.3343C171.668 35.165 171.779 36.6049 171.779 37.768V47.2383H169.999V39.7617C169.999 37.3249 169.61 35.1096 167.44 35.1096C166.383 35.0542 165.326 35.3865 164.381 35.9403C163.491 37.4357 162.99 38.7648 162.99 40.3709V47.2383H161.154V34.002H161.043Z" fill="black"/>
<path fill-rule="evenodd" clip-rule="evenodd" d="M164.879 35.1971C164.801 35.2686 164.721 35.3423 164.638 35.4183C164.59 35.4623 164.542 35.5071 164.492 35.5527C164.425 35.6194 164.353 35.6909 164.278 35.7655C164.255 35.789 164.231 35.8128 164.207 35.8369C163.845 36.1989 163.429 36.6203 163.154 36.9272C163.023 37.0737 162.924 37.1942 162.879 37.2695V34.002H161.154V47.2383H162.99V40.3709C162.99 39.833 163.046 39.3262 163.154 38.8338C163.242 38.4343 163.364 38.0442 163.518 37.6547C163.569 37.5264 163.623 37.3981 163.681 37.2695C163.876 36.8335 164.11 36.3946 164.381 35.9403C164.483 35.8806 164.586 35.8234 164.691 35.7689C164.694 35.767 164.698 35.7652 164.702 35.7633C164.76 35.7329 164.819 35.7033 164.879 35.6747C165.691 35.2835 166.565 35.0638 167.44 35.1096C167.856 35.1096 168.207 35.191 168.502 35.3399C169.177 35.6808 169.561 36.3756 169.77 37.2551C169.81 37.42 169.843 37.5913 169.87 37.768C169.967 38.383 169.999 39.0633 169.999 39.7617V47.2383H171.779V37.768C171.779 37.5198 171.774 37.2591 171.761 36.9943C171.712 36.0182 171.549 34.9878 171.112 34.3343C170.613 33.4409 169.802 33.2147 168.758 33.2969C168.637 33.3065 168.513 33.3201 168.386 33.3374C168.067 33.3771 167.783 33.4311 167.525 33.5006C167.496 33.5082 167.468 33.5161 167.44 33.5241C166.441 33.8118 165.811 34.3433 164.879 35.1971Z" fill="black"/>
<path d="M103.067 62.2695H104.711V71.3953C104.86 71.1418 105.657 70.3306 106.155 69.8236C107.45 68.6069 108.048 67.9985 109.642 67.7957C110.738 67.6436 111.584 67.7957 112.132 68.7083C112.63 69.4687 112.73 70.7869 112.73 71.8516V80.5211H111.136V73.6767C111.136 71.446 110.787 69.418 108.845 69.418C107.899 69.3673 106.952 69.6715 106.106 70.1785C105.309 71.5474 104.86 72.7642 104.86 74.2344V80.5211H103.217V62.2695H103.067Z" fill="black"/>
<path fill-rule="evenodd" clip-rule="evenodd" d="M104.711 62.2695H103.217V80.5211H104.86V74.2344C104.86 73.4624 104.984 72.7603 105.217 72.0693C105.252 71.9658 105.289 71.8626 105.329 71.7594C105.375 71.6381 105.425 71.5168 105.479 71.3953C105.654 70.9962 105.864 70.5944 106.106 70.1785C106.188 70.1292 106.271 70.0818 106.355 70.0365C106.359 70.0346 106.363 70.0326 106.366 70.0307C106.48 69.9699 106.595 69.9128 106.711 69.8597C107.392 69.5493 108.119 69.3791 108.845 69.418C109.259 69.418 109.6 69.51 109.881 69.6763C109.889 69.6811 109.897 69.6858 109.905 69.6907C109.943 69.7138 109.979 69.7383 110.015 69.7642C110.287 69.9622 110.496 70.2375 110.656 70.5704C110.832 70.9367 110.947 71.3725 111.021 71.8516C111.107 72.4147 111.136 73.0374 111.136 73.6767V80.5211H112.73V71.8516C112.73 71.2671 112.7 70.6062 112.59 70.0032C112.501 69.5077 112.357 69.0513 112.132 68.7083C111.737 68.0497 111.186 67.7872 110.498 67.7492C110.233 67.7346 109.947 67.7534 109.642 67.7957C109.378 67.8293 109.142 67.8739 108.925 67.9306C108.898 67.9377 108.871 67.9449 108.845 67.9523C107.999 68.1902 107.45 68.6212 106.711 69.3034C106.577 69.4274 106.436 69.5597 106.286 69.7006C106.243 69.7409 106.2 69.7819 106.155 69.8236C106.104 69.876 106.049 69.9317 105.992 69.9896C105.967 70.0153 105.942 70.0415 105.916 70.068C105.688 70.301 105.434 70.5624 105.217 70.7961C104.975 71.0561 104.778 71.2817 104.711 71.3953V62.2695Z" fill="black"/>
<path d="M114.896 74.9914C115.115 72.5763 116.267 71.5566 118.296 69.5708C119.722 68.3364 121.092 67.6387 122.738 67.6387C124.657 67.6387 126.521 68.6047 127.673 70.1612C128.66 71.5566 128.989 73.2203 128.77 74.7231C128.386 76.9236 127.289 77.8359 125.425 79.6607C124.054 80.9488 122.518 81.6465 120.928 81.5928C117.418 81.5392 114.622 78.48 114.896 74.9914ZM126.247 72.5763C124.602 69.5708 120.709 68.4974 117.693 70.3758C116.377 72.4153 116.377 74.8304 117.473 76.7626C119.228 79.8217 122.957 80.7341 126.083 78.7483C127.234 76.8699 127.399 74.5621 126.247 72.5763Z" fill="black"/>
<path fill-rule="evenodd" clip-rule="evenodd" d="M128.834 73.7264C128.815 72.5109 128.446 71.2538 127.673 70.1612C126.521 68.6047 124.657 67.6387 122.738 67.6387C122.725 67.6387 122.712 67.6387 122.699 67.6388C121.071 67.6498 119.71 68.3462 118.296 69.5708C118.204 69.6608 118.114 69.7489 118.025 69.8351C117.882 69.9751 117.743 70.1105 117.609 70.2422C117.593 70.2583 117.577 70.2744 117.56 70.2904C115.988 71.8403 115.087 72.8853 114.896 74.9914C114.881 75.1783 114.875 75.364 114.878 75.548C114.923 78.7519 117.529 81.4623 120.784 81.5889C120.832 81.5908 120.88 81.5921 120.928 81.5928C122.518 81.6465 124.054 80.9488 125.425 79.6607C125.569 79.5194 125.709 79.3835 125.844 79.2521C125.963 79.1369 126.078 79.0251 126.189 78.916C126.211 78.8949 126.232 78.874 126.253 78.8531C127.619 77.5144 128.447 76.5748 128.77 74.7231C128.817 74.397 128.839 74.0633 128.834 73.7264ZM126.942 74.4563C126.939 74.4384 126.935 74.4204 126.932 74.4025C126.904 74.2581 126.871 74.1141 126.832 73.9709C126.702 73.4953 126.509 73.0275 126.247 72.5763C125.426 71.0763 124.045 70.0575 122.492 69.6468C121.245 69.3167 119.886 69.3794 118.619 69.9006C118.61 69.9044 118.6 69.9082 118.591 69.912C118.285 70.0395 117.985 70.1938 117.693 70.3758C116.725 71.8759 116.469 73.5792 116.837 75.144C116.839 75.1521 116.841 75.1602 116.843 75.1683C116.855 75.2173 116.867 75.2663 116.88 75.3151C117.014 75.8171 117.213 76.3035 117.473 76.7626C118.312 78.2244 119.601 79.196 121.06 79.5955C122.327 79.9423 123.721 79.8577 125.06 79.288C125.063 79.2865 125.067 79.285 125.07 79.2835C125.412 79.1372 125.751 78.9591 126.083 78.7483C126.884 77.4412 127.207 75.9261 126.942 74.4563Z" fill="black"/>
<path d="M149.233 71.8831V80.5221H147.569V73.7018C147.569 71.4789 147.205 69.4581 145.177 69.4581C144.189 69.4076 143.201 69.7107 142.317 70.2159C141.485 71.58 140.965 72.7925 140.965 74.2575V80.4716H139.249V72.7419C139.145 70.9232 138.625 69.4076 136.857 69.4076C135.869 69.3571 134.881 69.6602 133.997 70.1654C133.165 71.5294 132.697 72.7419 132.697 74.207V80.4716H130.981V68.3466H132.697V71.3274C132.853 71.0748 133.685 70.2664 134.205 69.7612C135.557 68.5487 136.181 67.9425 137.845 67.7404C138.989 67.5888 139.873 67.7404 140.445 68.6498C140.861 69.256 141.017 70.3169 141.069 71.2768C141.225 71.0242 142.057 70.2159 142.577 69.7107C143.929 68.4982 144.553 67.892 146.217 67.6899C147.361 67.5383 148.245 67.6899 148.817 68.5992C149.129 69.4581 149.233 70.7716 149.233 71.8831Z" fill="black"/>
<path fill-rule="evenodd" clip-rule="evenodd" d="M146.242 69.7059C146.695 69.9554 147 70.3795 147.202 70.9151C147.313 71.2079 147.392 71.534 147.449 71.8831C147.539 72.4442 147.569 73.0647 147.569 73.7018V80.5221H149.233V71.8831C149.233 71.444 149.217 70.9733 149.178 70.5116C149.118 69.8047 149.006 69.1188 148.817 68.5992C148.295 67.7701 147.515 67.5709 146.514 67.6572C146.417 67.6655 146.318 67.6765 146.217 67.6899C145.854 67.734 145.54 67.7974 145.258 67.8821C145.231 67.8902 145.204 67.8986 145.177 67.9071C144.304 68.1874 143.724 68.6823 142.859 69.4578C142.811 69.5004 142.763 69.5438 142.714 69.5881C142.669 69.6283 142.624 69.6691 142.577 69.7107C142.47 69.8148 142.35 69.9318 142.225 70.0541C142.203 70.0756 142.181 70.0972 142.158 70.119C141.709 70.5595 141.222 71.0509 141.083 71.2563C141.078 71.2635 141.073 71.2704 141.069 71.2768C141.067 71.2363 141.065 71.1955 141.062 71.1546C141.021 70.4981 140.928 69.8059 140.736 69.2516C140.715 69.1913 140.693 69.1326 140.67 69.0758C140.641 69.0043 140.609 68.9358 140.576 68.8706C140.535 68.7918 140.492 68.7179 140.445 68.6498C139.976 67.9043 139.298 67.6681 138.438 67.6906C138.249 67.6956 138.051 67.7131 137.845 67.7404C137.502 67.7821 137.204 67.8409 136.933 67.9186C136.908 67.926 136.882 67.9336 136.857 67.9413C136.029 68.1959 135.467 68.6376 134.697 69.3206C134.584 69.4213 134.466 69.5273 134.342 69.6386C134.297 69.6788 134.252 69.7196 134.205 69.7612C134.119 69.8456 134.023 69.9385 133.923 70.0358C133.906 70.053 133.888 70.0703 133.87 70.0877C133.561 70.3905 133.22 70.7285 132.981 70.9863C132.846 71.133 132.743 71.2538 132.697 71.3274V68.3466H130.981V80.4716H132.697V74.207C132.697 73.5366 132.795 72.919 132.981 72.3156C133.05 72.0931 133.131 71.8724 133.223 71.6518C133.268 71.5437 133.316 71.4357 133.366 71.3274C133.544 70.9462 133.755 70.5622 133.997 70.1654C134.124 70.0928 134.253 70.0245 134.384 69.9607C134.388 69.9591 134.391 69.9574 134.394 69.9558C134.494 69.9073 134.595 69.8615 134.697 69.8186C135.389 69.5278 136.123 69.37 136.857 69.4076C137.346 69.4076 137.74 69.5235 138.055 69.7297C138.59 70.0788 138.901 70.6866 139.074 71.4288C139.138 71.6986 139.182 71.9862 139.213 72.2856C139.229 72.435 139.24 72.5874 139.249 72.7419V80.4716H140.965V74.2575C140.965 73.7255 141.034 73.2267 141.161 72.7419C141.171 72.7048 141.181 72.6678 141.191 72.6309C141.206 72.5796 141.221 72.5284 141.237 72.4773C141.329 72.1791 141.443 71.8848 141.576 71.5899C141.629 71.4736 141.685 71.3571 141.743 71.2403C141.912 70.9043 142.104 70.5651 142.317 70.2159C142.476 70.125 142.639 70.0406 142.804 69.9636C142.808 69.9616 142.813 69.9596 142.817 69.9576C142.857 69.9388 142.898 69.9205 142.939 69.9027C143.653 69.5905 144.415 69.4191 145.177 69.4581C145.601 69.4581 145.952 69.5462 146.242 69.7059Z" fill="black"/>
<path d="M151.384 74.9198C151.438 73.4124 152.082 71.9049 153.102 70.882C154.497 69.3746 155.516 68.3517 156.536 67.9748C158.039 67.3287 159.863 67.6518 161.151 68.6208C162.546 69.6976 163.19 71.4742 163.19 73.197L161.419 74.9737H153.263C153.746 77.7194 155.838 79.7652 158.361 79.8191C159.702 79.8191 161.312 79.173 162.171 78.3116C160.131 80.3575 159.112 81.4881 156.697 81.5957C153.316 81.5957 151.277 78.5808 151.384 74.9198ZM161.205 73.2509C160.775 71.4742 159.38 70.0206 157.609 69.5361C156.268 69.2669 155.141 69.4284 154.175 70.0206C153.585 70.9897 153.263 72.0665 153.209 73.197H161.205V73.2509Z" fill="black"/>
<path fill-rule="evenodd" clip-rule="evenodd" d="M151.404 75.8533C151.64 79.0796 153.609 81.5957 156.697 81.5957C156.705 81.5954 156.713 81.595 156.72 81.5947C157.333 81.5655 157.856 81.4701 158.329 81.31C158.339 81.3064 158.35 81.3028 158.361 81.2991C159.64 80.8559 160.556 79.9352 161.911 78.5728C161.996 78.4875 162.082 78.4004 162.171 78.3116C161.312 79.173 159.702 79.8191 158.361 79.8191C157.871 79.8086 157.398 79.7231 156.949 79.5721C155.695 79.1497 154.635 78.2148 153.958 76.9737C153.717 76.5331 153.525 76.0539 153.389 75.5454C153.358 75.4307 153.33 75.3146 153.306 75.197C153.291 75.1274 153.277 75.0573 153.265 74.9868C153.264 74.9828 153.264 74.9789 153.263 74.9749C153.263 74.9745 153.263 74.9741 153.263 74.9737H161.419L163.19 73.197C163.19 72.5236 163.092 71.8419 162.889 71.197C162.572 70.1922 162.001 69.2767 161.151 68.6208C160.328 68.0018 159.287 67.6463 158.25 67.6388C158.209 67.6385 158.169 67.6387 158.128 67.6395C158.082 67.6404 158.035 67.642 157.989 67.6443C157.491 67.669 156.998 67.7761 156.536 67.9748C155.769 68.2585 155.001 68.9082 154.073 69.8551C154.052 69.8766 154.031 69.8983 154.01 69.9201C153.724 70.2138 153.423 70.5351 153.102 70.882C152.53 71.4554 152.077 72.1811 151.779 72.9737C151.76 73.0244 151.741 73.0753 151.724 73.1265C151.524 73.7031 151.406 74.3115 151.384 74.9198C151.382 75.0127 151.38 75.1051 151.38 75.197C151.38 75.233 151.381 75.2689 151.381 75.3047C151.383 75.4896 151.391 75.6725 151.404 75.8533ZM153.209 73.197C153.212 73.1224 153.217 73.0479 153.223 72.9737C153.268 72.4116 153.379 71.8639 153.558 71.3373C153.561 71.3291 153.564 71.3209 153.567 71.3126C153.58 71.274 153.594 71.2355 153.608 71.197C153.756 70.7907 153.945 70.3975 154.175 70.0206C155.011 69.5077 155.969 69.3179 157.082 69.4511C157.113 69.4548 157.144 69.4588 157.176 69.4631C157.318 69.4823 157.462 69.5066 157.609 69.5361C157.733 69.5698 157.854 69.6083 157.974 69.6512C158.835 69.9607 159.592 70.5033 160.168 71.197C160.51 71.6082 160.789 72.0725 160.988 72.5729C161.041 72.7041 161.088 72.8378 161.129 72.9737C161.151 73.046 161.171 73.119 161.19 73.1925C161.191 73.194 161.191 73.1955 161.191 73.197H153.209Z" fill="black"/>
<path d="M163.19 77.8279L165.011 76.0516C165.011 78.2047 167.052 79.4965 169.37 79.7656C170.584 79.8733 171.853 79.7656 172.957 79.2274C173.177 78.5815 173.122 77.8817 172.791 77.3435C172.129 76.267 170.584 75.7825 169.149 75.4596C166.059 74.6522 162.969 74.2216 163.742 71.8532C164.018 70.8843 166.446 68.6775 167.439 68.193C170.308 66.9012 174.446 67.9239 174.557 70.669L172.736 72.4453C172.736 69.6464 168.432 68.6237 165.618 69.9693C164.845 72.0685 167.328 72.8221 169.756 73.3603C172.681 74.0063 174.888 74.6522 174.998 76.5899C175.053 77.9356 173.619 79.1197 172.294 80.3039C171.301 81.2728 169.48 81.5957 168.101 81.5957C165.397 81.4342 163.19 80.0348 163.19 77.8279Z" fill="black"/>
<path fill-rule="evenodd" clip-rule="evenodd" d="M163.19 77.8279C163.19 80.0348 165.397 81.4342 168.101 81.5957C168.133 81.5957 168.165 81.5956 168.197 81.5952C168.504 81.5919 168.831 81.5727 169.165 81.5341C169.181 81.5322 169.197 81.5303 169.214 81.5283C170.35 81.3906 171.553 81.0273 172.294 80.3039C172.376 80.2306 172.459 80.1572 172.541 80.0838C172.736 79.9108 172.931 79.7376 173.121 79.5636C173.195 79.4955 173.269 79.4273 173.341 79.3589C174.069 78.6744 174.693 77.9758 174.914 77.2329C174.977 77.0224 175.007 76.8083 174.998 76.5899C174.944 75.6371 174.383 74.9966 173.478 74.5149C172.756 74.1298 171.813 73.8461 170.736 73.5855C170.42 73.5091 170.093 73.4347 169.756 73.3603C168.778 73.1434 167.79 72.8916 167.011 72.5308C166.716 72.3944 166.451 72.2424 166.227 72.0709C166.172 72.0286 166.12 71.9852 166.07 71.9405C165.528 71.4556 165.303 70.824 165.618 69.9693C166.339 69.6243 167.159 69.435 167.978 69.3914C167.993 69.3906 168.007 69.3898 168.022 69.3892C168.769 69.3541 169.515 69.4399 170.185 69.639C170.83 69.8303 171.405 70.1262 171.845 70.5201C172.302 70.9283 172.613 71.4416 172.707 72.0527C172.726 72.1794 172.736 72.3103 172.736 72.4453L174.557 70.669C174.483 68.8259 172.593 67.7592 170.49 67.6483C169.461 67.594 168.381 67.7686 167.439 68.193C166.977 68.4183 166.205 69.0159 165.483 69.6882C165.424 69.7434 165.365 69.799 165.307 69.855C164.547 70.5846 163.879 71.3718 163.742 71.8532C163.729 71.8923 163.717 71.9308 163.707 71.9689C163.465 72.831 163.755 73.4274 164.374 73.8791C164.992 74.3301 165.938 74.6369 167.011 74.9201C167.358 75.0118 167.719 75.101 168.087 75.1919C168.437 75.2785 168.793 75.3665 169.149 75.4596C169.68 75.579 170.225 75.7205 170.736 75.9059C171.055 76.0216 171.36 76.1544 171.639 76.3096C172.055 76.5411 172.414 76.8224 172.674 77.1711C172.716 77.2268 172.755 77.2842 172.791 77.3435C173.122 77.8817 173.177 78.5815 172.957 79.2274C172.559 79.4211 172.141 79.5591 171.711 79.6513C171.696 79.6544 171.682 79.6575 171.667 79.6606C170.916 79.816 170.132 79.8332 169.37 79.7656C169.04 79.7274 168.716 79.6684 168.403 79.5892C167.338 79.3201 166.396 78.8172 165.776 78.0989C165.37 77.6276 165.103 77.0636 165.03 76.4121C165.018 76.2948 165.011 76.1746 165.011 76.0516L163.19 77.8279Z" fill="black"/>
<path d="M90.919 84.3238C88.4104 80.1436 84.9135 78.0916 80.1243 77.1796C74.3469 76.3435 64.0082 77.1796 59.5231 77.1796L65.0725 71.7074C69.3296 72.1634 71.4581 71.4034 74.803 69.3513C77.4636 67.9833 85.9778 59.015 87.5742 56.5829C88.9425 54.6828 89.9308 52.5548 90.539 50.3507C91.1471 48.1466 91.3752 45.8666 91.2231 43.5865C91.0711 41.3064 90.539 39.1023 89.7027 36.9743C88.7905 34.7702 87.5742 32.7181 86.0538 30.8941C84.6855 29.374 51.8451 0.0371094 51.8451 0.0371094H47.1319L23.718 21.8498V13.7935H15.2799V29.678L0 43.9665H3.57291L15.2799 33.4022V85.0838C15.2799 85.0838 49.5646 85.0838 50.6288 85.0838C41.5065 94.8121 39.302 98.8402 41.5825 105.224C44.0912 111.457 52.6053 114.953 63.7802 114.953C70.4699 114.953 75.4111 113.205 80.3524 109.557C91.1471 100.892 95.5562 92.304 90.919 84.3238ZM81.8728 61.3711C73.5106 65.5512 62.1077 63.3471 57.2425 55.3669C53.8216 49.8187 53.5936 42.3705 56.7864 35.3782C64.0082 31.4261 71.6102 33.4022 76.9315 38.1903C82.785 43.7385 85.7497 52.7828 81.8728 61.3711ZM57.6986 77.4836H23.718V25.8019L45.0034 6.72532L65.6046 26.5619C64.3123 27.17 63.02 28.006 61.8797 28.918C60.3593 30.1341 52.9094 38.0383 51.161 40.3184C42.2667 51.7187 48.8804 68.8193 63.4761 71.5554L57.6986 77.4836ZM84.5334 103.248C79.2121 106.06 74.4229 106.972 67.049 106.288C49.8686 104.616 44.0912 98.0042 48.9564 88.8839L52.2252 85.0838H65.6046C72.6744 85.2358 72.9025 85.3118 76.4754 86.8319C82.1768 89.1119 86.4339 96.1042 84.5334 103.248Z" fill="black"/>
<path fill-rule="evenodd" clip-rule="evenodd" d="M46.2624 89.9469C40.8445 96.3825 39.7237 100.021 41.5825 105.224C44.0912 111.457 52.6053 114.953 63.7802 114.953C70.4699 114.953 75.4111 113.205 80.3524 109.557C82.2198 108.058 83.8962 106.561 85.3677 105.069C85.3955 105.041 85.4233 105.013 85.451 104.985C85.7808 104.649 86.1002 104.313 86.409 103.977C92.6261 97.2232 94.558 90.5862 90.919 84.3238C88.4104 80.1436 84.9135 78.0916 80.1243 77.1796C76.0164 76.5851 69.6027 76.836 64.6266 77.0306C63.8584 77.0607 63.1245 77.0894 62.4386 77.1134C61.8564 77.1339 61.3087 77.1509 60.8041 77.1626C60.3382 77.1734 59.909 77.1796 59.5231 77.1796L65.0725 71.7074C65.4069 71.7432 65.7281 71.7715 66.0379 71.7923C69.6715 72.036 71.7208 71.2422 74.803 69.3513C76.041 68.7147 78.5464 66.4326 81.0325 63.9291C81.5032 63.4552 81.9731 62.9733 82.4337 62.4932C82.6285 62.2901 82.8216 62.0873 83.0124 61.8855C83.5039 61.3657 83.9799 60.8528 84.429 60.3593C85.8946 58.7487 87.074 57.3449 87.5742 56.5829C88.9425 54.6828 89.9308 52.5548 90.5389 50.3507C91.1471 48.1466 91.3752 45.8666 91.2231 43.5865C91.0711 41.3064 90.5389 39.1023 89.7027 36.9743C88.7905 34.7702 87.5742 32.7181 86.0538 30.8941C84.6855 29.374 51.8451 0.0371094 51.8451 0.0371094H47.1319L23.718 21.8498V13.7935H15.2799V29.678L0 43.9665H3.57291L15.2799 33.4022V85.0838H50.6288C49.9773 85.7786 49.3611 86.4443 48.7793 87.0838C48.4922 87.3995 48.2134 87.7088 47.9429 88.0121C47.8758 88.0873 47.8092 88.1622 47.7431 88.2367C47.2177 88.8289 46.7244 89.3981 46.2624 89.9469ZM48.9564 88.8839C48.5755 89.598 48.2598 90.2967 48.0097 90.9788C45.0658 99.0093 51.2137 104.747 67.049 106.288C74.251 106.957 78.9875 106.102 84.1622 103.442C84.2857 103.378 84.4094 103.314 84.5334 103.248C84.5569 103.16 84.5794 103.072 84.601 102.984C86.3286 95.9323 82.1064 89.0838 76.4754 86.8319C72.9025 85.3118 72.6744 85.2358 65.6046 85.0838H52.2252L48.9564 88.8839ZM86.9879 100.184C88.1031 98.7144 88.973 97.2762 89.5939 95.8739C91.2303 92.1784 91.156 88.7202 89.1968 85.3407C87.0433 81.7594 84.1066 79.9821 79.7941 79.1526C77.0971 78.7683 73.2469 78.7612 69.3931 78.8653C67.8302 78.9075 66.2514 78.969 64.7773 79.0264C62.7085 79.107 60.8459 79.1796 59.5231 79.1796H58.8385L58.5422 79.4836H21.718V15.7935H17.2799V83.0838H65.6261L65.6476 83.0843C69.125 83.159 71.1158 83.2149 72.6757 83.4713C74.3207 83.7416 75.4759 84.2331 77.215 84.973L77.2393 84.9834C82.8394 87.234 87.1814 93.3571 86.9879 100.184ZM45.4281 4.35784L69.0837 27.1354L66.4561 28.3717C65.3276 28.9026 64.1673 29.6493 63.1289 30.4799C62.9217 30.6457 62.5477 30.9945 62.0558 31.4767C68.1055 30.5391 73.9361 32.8046 78.2693 36.7036L78.2885 36.7209L78.3073 36.7388C83.3119 41.4822 86.4334 48.6457 85.4436 56.1131C85.6376 55.8641 85.7925 55.6525 85.9022 55.4854L85.9259 55.4492L85.9512 55.4141C87.1732 53.7174 88.0623 51.8074 88.611 49.8187C89.1589 47.8331 89.3648 45.7779 89.2275 43.7196C89.091 41.6721 88.6134 39.6751 87.8479 37.7225C87.0163 35.7176 85.9164 33.8622 84.5533 32.2177C84.5352 32.1991 84.4986 32.1621 84.4364 32.1012C84.3457 32.0124 84.2239 31.8957 84.0704 31.7506C83.7638 31.4608 83.3481 31.0744 82.8361 30.6029C81.8132 29.6608 80.4228 28.3944 78.7885 26.9135C75.5208 23.9525 71.2902 20.1454 67.1003 16.3838C62.9108 12.6227 58.7639 8.90885 55.6642 6.13518C54.1143 4.74837 52.8264 3.59668 51.926 2.7917L51.0817 2.03711H47.9192L45.4281 4.35784ZM82.6679 59.3214C85.2614 51.3704 82.3208 43.2985 76.9315 38.1903C72.2405 33.9693 65.7772 31.9337 59.3643 34.2182C58.5026 34.5251 57.6418 34.9101 56.7864 35.3782C56.3712 36.2876 56.0138 37.2046 55.7138 38.1242C53.7069 44.2756 54.2665 50.5402 57.2425 55.3669C61.7375 62.7399 71.8131 65.1823 79.9153 62.2147C80.5826 61.9702 81.2365 61.6891 81.8727 61.3711C82.1802 60.69 82.4446 60.0062 82.6679 59.3214ZM76.9783 65.071C68.9084 66.5361 59.9471 63.6407 55.5373 56.4121C52.8581 52.064 51.974 46.756 52.8602 41.3916C52.8202 41.4422 52.7828 41.4901 52.7481 41.5354L52.743 41.542L52.7378 41.5486C44.8024 51.72 50.6624 67.1185 63.8446 69.5896L64.2875 69.6726L64.3431 69.6178L65.2855 69.7188C67.2569 69.9299 68.5945 69.8448 69.7715 69.5355C70.9686 69.221 72.1384 68.6396 73.7571 67.6466L73.8214 67.6071L73.8884 67.5727C74.2952 67.3635 75.1505 66.7153 76.3629 65.6306C76.5631 65.4515 76.7686 65.2646 76.9783 65.071ZM61.2227 71.002C48.2226 67.0218 42.7383 51.1142 51.161 40.3184C51.6843 39.6359 52.7186 38.4494 53.9517 37.0893C54.5646 36.4133 55.2265 35.6944 55.8993 34.9732C56.0389 34.8236 56.179 34.6738 56.3191 34.5244C56.9682 33.8323 57.6199 33.1458 58.2403 32.5008C59.882 30.794 61.3048 29.3779 61.8797 28.918C62.4756 28.4414 63.113 27.9855 63.7703 27.5721C64.3707 27.1945 64.9877 26.8522 65.6046 26.5619L45.0034 6.72532L23.718 25.8019V77.4836H57.6986L63.4761 71.5554C63.1709 71.4982 62.8693 71.4347 62.5711 71.3651C62.1132 71.2582 61.6636 71.137 61.2227 71.002ZM79.9127 107.335C76.0828 108.485 72.0411 108.76 66.8643 108.28L66.8553 108.279C58.1568 107.433 51.8141 105.308 48.3171 101.789C46.512 99.973 45.479 97.7945 45.3191 95.3462C45.2996 95.0467 45.2932 94.7458 45.2997 94.4437C44.5923 95.4606 44.0469 96.3841 43.6428 97.2522C42.4947 99.7185 42.4764 101.762 43.4523 104.513C44.457 106.976 46.715 109.078 50.2225 110.589C53.7451 112.106 58.3815 112.953 63.7802 112.953C70.0203 112.953 74.54 111.354 79.1322 107.971C79.3968 107.759 79.6569 107.547 79.9127 107.335Z" fill="black"/>
</svg>
